<svg xmlns="http://www.w3.org/2000/svg" xmlns:xlink="http://www.w3.org/1999/xlink" version="1.1" id="Layer_1" x="0px" y="0px" viewBox="0 0 251.5 125" style="enable-background:new 0 0 251.5 125;" xml:space="preserve" width="251.5"  height="125" >
<style type="text/css">
	.st0{fill:#FFFFFF;}
</style>
<g id="Isolatiemodus">
	<g>
		<path class="st0" d="M61.9,64.5c0.6-0.2,0.9-0.5,0.9-1.2v-7.6l-1-0.3V55c1-0.2,1.9-0.2,3.2-0.2c3.3,0,5.4,1.7,5.4,4.6    c0,3.4-2.6,5.5-5.6,5.5c-1.2,0-1.9,0-2.8-0.2v-0.2H61.9z M64.9,64c2.2,0,4-1.5,4-4.3c0-2.6-1.7-4-3.9-4c-0.2,0-0.5,0-0.8,0v8.2    C64.4,64,64.6,64,64.9,64z"/>
		<path class="st0" d="M71.8,64.5c0.4-0.2,0.8-0.5,0.8-0.8v-5.2l-1-0.4v-0.3c0.7-0.2,1.4-0.3,1.8-0.3H74l-0.1,0.8v5.9l0.9,0.2v0.3    c-0.5,0.2-1,0.3-1.8,0.3c-0.4,0-0.8,0-1.2-0.1C71.8,64.7,71.8,64.5,71.8,64.5z M72.5,55.1c0-0.5,0.3-0.9,0.9-0.9    c0.4,0,0.8,0.3,0.8,0.8s-0.4,1-0.9,1C72.8,55.9,72.5,55.6,72.5,55.1z"/>
		<path class="st0" d="M79.2,57.3c1.7,0,2.7,1.1,2.7,2.9c0,0.3,0,0.6,0,1h-4.6c0,1.7,1,2.7,2.3,2.7c0.8,0,1.6-0.3,2.2-0.7    c0,0.1,0.1,0.2,0.1,0.4c0,0.7-1,1.4-2.7,1.4c-1.8,0-3.2-1.4-3.2-3.5C76,58.7,77.6,57.3,79.2,57.3z M80.7,60.4    c0-1.5-0.7-2.2-1.6-2.2c-0.8,0-1.8,1-1.8,2.2H80.7z"/>
		<path class="st0" d="M83.3,64.5c0.4-0.2,0.8-0.5,0.8-0.8v-5.2l-1-0.4v-0.3c0.7-0.2,1.4-0.3,1.9-0.3h0.4v0.8    c0.5-0.5,1.4-0.9,2.3-0.9c1.3,0,2.2,0.8,2.2,2.4v4.3l0.8,0.2v0.3c-0.4,0.2-1,0.3-1.6,0.3c-0.3,0-0.7,0-1-0.1v-0.3    c0.4-0.2,0.6-0.5,0.6-1v-3c0-1.5-0.6-2.1-1.6-2.1c-0.6,0-1.3,0.2-1.6,0.5v5.2l0.9,0.2v0.3c-0.5,0.2-1,0.3-1.8,0.3    c-0.4,0-0.8,0-1.2-0.1L83.3,64.5L83.3,64.5z"/>
		<path class="st0" d="M91.8,63.1c0.7,0.7,1.4,1,2.2,1c0.9,0,1.3-0.4,1.3-1S95,62.2,94,61.8l-0.8-0.3c-0.9-0.4-1.4-1-1.4-1.9    c0-1.2,1.1-2.3,2.7-2.3c1.2,0,1.7,0.4,1.7,1c0,0.2,0,0.4-0.1,0.7c-0.5-0.3-1.2-0.6-1.8-0.6c-1,0-1.5,0.4-1.5,1s0.3,0.9,1.2,1.2    l0.8,0.3c1.1,0.4,1.5,1,1.5,1.9c0,1.2-1.2,2.3-2.9,2.3c-1.4,0-2-0.4-2-1.3C91.7,63.5,91.7,63.2,91.8,63.1z"/>
		<path class="st0" d="M98.4,60.5l0.1-2.1h-0.8V58l1.7-1.7l0.5-0.1l-0.1,1.4h2.1l-0.1,0.8h-2v2c0,0.7,0,1.2,0,1.8    c0,1.3,0.4,1.7,0.9,1.7c0.4,0,0.8-0.2,1.2-0.4l0.2,0.1c-0.1,0.9-0.6,1.4-1.7,1.4c-1.2,0-1.8-0.7-1.8-2.2    C98.3,62.1,98.4,61.2,98.4,60.5z"/>
		<path class="st0" d="M106.7,63.6v-8l-1-0.2v-0.3c0.6-0.2,1.2-0.2,1.8-0.2c0.6,0,0.9,0,1.4,0.2v0.3c-0.6,0.2-0.9,0.5-0.9,1.1v7    c0,2.3-0.9,3.3-1.8,3.3c-0.2,0-0.5,0-0.7-0.1v-0.2C106.1,65.9,106.7,65,106.7,63.6z"/>
		<path class="st0" d="M110.8,58.4l-0.9-0.4v-0.3c0.7-0.2,1.3-0.3,1.7-0.3h0.5l-0.1,0.9v3.5c0,1.6,0.5,2.2,1.5,2.2    c0.6,0,1.2-0.2,1.5-0.5v-5l-0.9-0.4v-0.3c0.7-0.2,1.3-0.3,1.8-0.3h0.5l-0.1,0.9v5.2c0.1,0.3,0.3,0.5,0.6,0.8    c-0.2,0.2-0.7,0.5-1.1,0.7c-0.3-0.2-0.6-0.5-0.7-0.9c-0.4,0.4-1.3,0.8-2.2,0.8c-1.3,0-2.1-0.8-2.1-2.5L110.8,58.4L110.8,58.4z"/>
		<path class="st0" d="M118.3,63.1c0.7,0.7,1.4,1,2.2,1c0.9,0,1.3-0.4,1.3-1s-0.3-0.9-1.3-1.3l-0.8-0.3c-0.9-0.4-1.4-1-1.4-1.9    c0-1.2,1.1-2.3,2.7-2.3c1.2,0,1.7,0.4,1.7,1c0,0.2,0,0.4-0.1,0.7c-0.5-0.3-1.2-0.6-1.8-0.6c-1,0-1.5,0.4-1.5,1s0.3,0.9,1.2,1.2    l0.8,0.3c1.1,0.4,1.5,1,1.5,1.9c0,1.2-1.2,2.3-2.9,2.3c-1.4,0-2-0.4-2-1.3C118.2,63.5,118.2,63.2,118.3,63.1z"/>
		<path class="st0" d="M124.9,60.5l0.1-2.1h-0.8V58l1.7-1.7l0.5-0.1l-0.1,1.4h2.1l-0.1,0.8h-2v2c0,0.7,0,1.2,0,1.8    c0,1.3,0.4,1.7,0.9,1.7c0.4,0,0.8-0.2,1.1-0.4l0.2,0.1c-0.1,0.9-0.6,1.4-1.7,1.4c-1.2,0-1.8-0.7-1.8-2.2    C124.9,62.1,124.9,61.2,124.9,60.5z"/>
		<path class="st0" d="M129.1,64.5c0.4-0.2,0.8-0.5,0.8-0.8v-5.2l-1-0.4v-0.3c0.7-0.2,1.4-0.3,1.8-0.3h0.5l-0.1,0.8v5.9l0.9,0.2v0.3    c-0.5,0.2-1,0.3-1.8,0.3c-0.4,0-0.8,0-1.2-0.1L129.1,64.5L129.1,64.5z M129.8,55.1c0-0.5,0.3-0.9,0.9-0.9c0.4,0,0.8,0.3,0.8,0.8    s-0.4,1-0.9,1C130.1,55.9,129.8,55.6,129.8,55.1z"/>
		<path class="st0" d="M134.1,60.5l0.1-2.1h-0.9V58l1.7-1.7l0.5-0.1l-0.1,1.4h2.1l-0.1,0.8h-2v2c0,0.7,0,1.2,0,1.8    c0,1.3,0.4,1.7,0.9,1.7c0.4,0,0.8-0.2,1.1-0.4l0.2,0.1c-0.1,0.9-0.6,1.4-1.7,1.4c-1.2,0-1.8-0.7-1.8-2.2    C134.1,62.1,134.1,61.2,134.1,60.5z"/>
		<path class="st0" d="M138.4,64.5c0.4-0.2,0.8-0.5,0.8-0.8v-5.2l-1-0.4v-0.3c0.7-0.2,1.4-0.3,1.8-0.3h0.5l-0.1,0.8v5.9l0.9,0.2v0.3    c-0.5,0.2-1,0.3-1.8,0.3c-0.4,0-0.8,0-1.2-0.1L138.4,64.5L138.4,64.5z M139,55.1c0-0.5,0.3-0.9,0.9-0.9c0.4,0,0.8,0.3,0.8,0.8    s-0.4,1-0.9,1C139.4,55.9,139,55.6,139,55.1z"/>
		<path class="st0" d="M145.8,57.3c1.7,0,2.7,1.1,2.7,2.9c0,0.3,0,0.6,0,1h-4.6c0,1.7,1,2.7,2.3,2.7c0.8,0,1.6-0.3,2.2-0.7    c0,0.1,0.1,0.2,0.1,0.4c0,0.7-1,1.4-2.7,1.4c-1.8,0-3.2-1.4-3.2-3.5C142.5,58.7,144.1,57.3,145.8,57.3z M143.6,55.2    c0-0.4,0.3-0.7,0.7-0.7s0.7,0.3,0.7,0.7s-0.3,0.7-0.7,0.7S143.6,55.6,143.6,55.2z M147.2,60.4c0-1.5-0.6-2.2-1.6-2.2    c-0.9,0-1.8,1-1.8,2.2H147.2z M146,55.2c0-0.4,0.3-0.7,0.7-0.7s0.7,0.3,0.7,0.7s-0.3,0.7-0.7,0.7S146,55.6,146,55.2z"/>
		<path class="st0" d="M149.8,64.5c0.4-0.2,0.8-0.5,0.8-0.8v-9l-1-0.4V54c0.7-0.2,1.4-0.3,1.9-0.3h0.5l-0.1,0.9v9.6l0.9,0.2v0.3    c-0.5,0.2-1,0.3-1.8,0.3c-0.4,0-0.8,0-1.2-0.1L149.8,64.5L149.8,64.5z"/>
		<path class="st0" d="M157.1,57.3c1.7,0,2.7,1.1,2.7,2.9c0,0.3,0,0.6,0,1h-4.6c0,1.7,1,2.7,2.3,2.7c0.8,0,1.6-0.3,2.2-0.7    c0,0.1,0.1,0.2,0.1,0.4c0,0.7-1,1.4-2.7,1.4c-1.8,0-3.2-1.4-3.2-3.5C153.9,58.7,155.5,57.3,157.1,57.3z M158.6,60.4    c0-1.5-0.6-2.2-1.6-2.2c-0.9,0-1.8,1-1.8,2.2H158.6z"/>
		<path class="st0" d="M164.3,64.5c0.5-0.2,0.9-0.4,0.9-1.2v-7.6l-1-0.2V55c0.6-0.2,1.2-0.2,1.8-0.2s1,0,1.4,0.2v0.3    c-0.7,0.2-0.9,0.5-0.9,1.1V64l1,0.2v0.3c-0.5,0.2-1.1,0.3-1.8,0.3c-0.6,0-1-0.1-1.4-0.2V64.5z"/>
		<path class="st0" d="M169,64.5c0.4-0.2,0.8-0.5,0.8-0.8v-5.2l-1-0.4v-0.3c0.7-0.2,1.4-0.3,1.9-0.3h0.4v0.8    c0.5-0.5,1.4-0.9,2.3-0.9c1.3,0,2.2,0.8,2.2,2.4v4.3l0.8,0.2v0.3c-0.4,0.2-1,0.3-1.6,0.3c-0.3,0-0.7,0-1-0.1v-0.3    c0.4-0.2,0.6-0.5,0.6-1v-3c0-1.5-0.6-2.1-1.6-2.1c-0.6,0-1.3,0.2-1.6,0.5v5.2l0.9,0.2v0.3c-0.5,0.2-1,0.3-1.8,0.3    c-0.4,0-0.8,0-1.2-0.1L169,64.5L169,64.5z"/>
		<path class="st0" d="M177.6,64.5c0.4-0.2,0.8-0.5,0.8-0.8v-5.2l-1-0.4v-0.3c0.7-0.2,1.4-0.3,1.9-0.3h0.4v1.1l0,0l0.4-0.5    c0.4-0.5,0.8-0.7,1.4-0.7c0.5,0,0.8,0.2,0.8,0.7c0,0.3-0.1,0.6-0.2,0.9c-0.3-0.2-0.6-0.4-1-0.4c-0.5,0-0.9,0.2-1.4,0.6v4.9    l1.1,0.2v0.3c-0.5,0.2-1,0.3-1.9,0.3c-0.4,0-0.9,0-1.2-0.1L177.6,64.5L177.6,64.5z"/>
		<path class="st0" d="M182.9,64.5c0.4-0.2,0.8-0.5,0.8-0.8v-5.2l-1-0.4v-0.3c0.7-0.2,1.4-0.3,1.9-0.3h0.5l-0.1,0.8v5.9l0.9,0.2v0.3    c-0.5,0.2-1,0.3-1.8,0.3c-0.4,0-0.8,0-1.2-0.1L182.9,64.5L182.9,64.5z M183.6,55.1c0-0.5,0.3-0.9,0.9-0.9c0.4,0,0.8,0.3,0.8,0.8    s-0.4,1-0.9,1C183.9,55.9,183.6,55.6,183.6,55.1z"/>
		<path class="st0" d="M190.7,57.3c1.3,0,1.7,0.4,1.7,0.9c0,0.3-0.1,0.6-0.2,0.8c-0.6-0.5-1.1-0.7-1.8-0.7c-1.1,0-2,1-2,2.8    s1,2.8,2.2,2.8c0.6,0,1.3-0.3,1.8-0.6c0.1,0.1,0.1,0.2,0.1,0.4c0,0.7-0.8,1.3-2.3,1.3c-1.7,0-3.1-1.4-3.1-3.6    C187.1,58.9,188.7,57.3,190.7,57.3z"/>
		<path class="st0" d="M193.6,64.5c0.4-0.2,0.8-0.5,0.8-0.8v-9l-1-0.4V54c0.7-0.2,1.3-0.3,1.9-0.3h0.5l-0.1,0.9v3.7    c0.6-0.5,1.3-0.8,2.2-0.8c1.3,0,2.2,0.8,2.2,2.4v4.3l0.8,0.2v0.3c-0.4,0.2-1,0.3-1.6,0.3c-0.3,0-0.7,0-1-0.1v-0.3    c0.4-0.2,0.6-0.5,0.6-1v-3c0-1.5-0.6-2.1-1.6-2.1c-0.6,0-1.2,0.2-1.6,0.5v5.2l0.9,0.2v0.3c-0.5,0.2-1,0.3-1.8,0.3    c-0.4,0-0.8,0-1.2-0.1L193.6,64.5L193.6,64.5z"/>
		<path class="st0" d="M202.9,60.5l0.1-2.1h-0.9V58l1.7-1.7l0.5-0.1l-0.1,1.4h2.1l-0.1,0.8h-2v2c0,0.7,0,1.2,0,1.8    c0,1.3,0.4,1.7,0.9,1.7c0.4,0,0.8-0.2,1.1-0.4l0.2,0.1c-0.1,0.9-0.6,1.4-1.7,1.4c-1.2,0-1.8-0.7-1.8-2.2    C202.8,62.1,202.8,61.2,202.9,60.5z"/>
		<path class="st0" d="M207.1,64.5c0.4-0.2,0.8-0.5,0.8-0.8v-5.2l-1-0.4v-0.3c0.7-0.2,1.4-0.3,1.9-0.3h0.5l-0.1,0.8v5.9l0.9,0.2v0.3    c-0.5,0.2-1,0.3-1.8,0.3c-0.4,0-0.8,0-1.2-0.1L207.1,64.5L207.1,64.5z M207.7,55.1c0-0.5,0.3-0.9,0.9-0.9c0.4,0,0.8,0.3,0.8,0.8    s-0.4,1-0.9,1C208.1,55.9,207.7,55.6,207.7,55.1z"/>
		<path class="st0" d="M211.4,64.5c0.4-0.2,0.8-0.5,0.8-0.8v-5.2l-1-0.4v-0.3c0.7-0.2,1.4-0.3,1.9-0.3h0.4v0.8    c0.5-0.5,1.4-0.9,2.3-0.9c1.3,0,2.2,0.8,2.2,2.4v4.3l0.8,0.2v0.3c-0.4,0.2-1,0.3-1.6,0.3c-0.3,0-0.7,0-1-0.1v-0.3    c0.4-0.2,0.6-0.5,0.6-1v-3c0-1.5-0.6-2.1-1.6-2.1c-0.6,0-1.2,0.2-1.6,0.5v5.2l0.9,0.2v0.3c-0.5,0.2-1,0.3-1.8,0.3    c-0.4,0-0.8,0-1.2-0.1L211.4,64.5L211.4,64.5z"/>
		<path class="st0" d="M221.3,62.5L221.3,62.5c-0.7-0.3-1.4-1.1-1.4-2.2c0-1.7,1.4-3.1,3.1-3.1c0.6,0,1.4,0.3,1.7,0.5    c0.3-0.3,0.9-0.5,1.4-0.5c0.3,0,0.5,0,0.7,0.1l-0.1,1c-0.5-0.1-1.1-0.2-1.7-0.2l0,0c0.5,0.4,0.9,1,0.9,1.7c0,1.8-1.5,3-3.1,3    c-0.3,0-0.7-0.1-1-0.2c-0.2,0.1-0.5,0.5-0.5,0.7c0,0.5,0.4,0.7,1,0.7h2.2c1.3,0,2,0.6,2,1.7c0,1.5-1.6,2.7-3.8,2.7    c-1.9,0-3-0.8-3-1.8c0-0.8,0.6-1.5,1.5-1.7l0,0c-0.6-0.2-0.9-0.6-0.9-1.2C220.2,63.3,220.7,62.7,221.3,62.5z M222.8,67.7    c1.5,0,2.4-0.7,2.4-1.5c0-0.6-0.4-0.9-1.1-0.9h-2.5c-0.4,0.2-0.8,0.7-0.8,1.2C220.9,67.2,221.5,67.7,222.8,67.7z M224.5,60    c0-1.3-0.7-1.9-1.6-1.9c-0.9,0-1.6,0.8-1.6,2.2c0,1.3,0.7,1.9,1.5,1.9C223.7,62.2,224.5,61.5,224.5,60z"/>
		<path class="st0" d="M230.5,57.3c1.7,0,2.7,1.1,2.7,2.9c0,0.3,0,0.6,0,1h-4.6c0,1.7,1,2.7,2.3,2.7c0.8,0,1.6-0.3,2.2-0.7    c0,0.1,0.1,0.2,0.1,0.4c0,0.7-1,1.4-2.7,1.4c-1.8,0-3.2-1.4-3.2-3.5C227.3,58.7,228.9,57.3,230.5,57.3z M232,60.4    c0-1.5-0.6-2.2-1.6-2.2c-0.9,0-1.8,1-1.8,2.2H232z"/>
		<path class="st0" d="M234.6,64.5c0.4-0.2,0.8-0.5,0.8-0.8v-5.2l-1-0.4v-0.3c0.7-0.2,1.4-0.3,1.9-0.3h0.4v0.8    c0.5-0.5,1.4-0.9,2.3-0.9c1.3,0,2.2,0.8,2.2,2.4v4.3l0.8,0.2v0.3c-0.4,0.2-1,0.3-1.6,0.3c-0.3,0-0.7,0-1-0.1v-0.3    c0.4-0.2,0.6-0.5,0.6-1v-3c0-1.5-0.6-2.1-1.6-2.1c-0.6,0-1.2,0.2-1.6,0.5v5.2l0.9,0.2v0.3c-0.5,0.2-1,0.3-1.8,0.3    c-0.4,0-0.8,0-1.2-0.1L234.6,64.5L234.6,64.5z"/>
		<path class="st0" d="M61.2,82.1c0.3-0.1,0.5-0.3,0.5-0.6l1.9-8.3L62.8,73v-0.4c0.4-0.1,1.1-0.2,1.6-0.2h0.5l1.4,7.4l0,0l2.6-7.4    h0.4c0.4,0,1,0,1.5,0.1v0.4L70,73.1l0.4,8.6l0.8,0.2v0.3c-0.5,0.2-0.8,0.2-1.3,0.2c-0.6,0-1-0.1-1.4-0.2v-0.3    c0.3-0.1,0.5-0.3,0.5-0.8v-6.7l0,0l-2.8,8.1h-0.5l-1.5-8.1l0,0l-1.5,7.3l0.9,0.2v0.3c-0.4,0.2-0.8,0.2-1.3,0.2    c-0.4,0-0.8-0.1-1.1-0.2V82.1L61.2,82.1z"/>
		<path class="st0" d="M72.5,79.7l0.5-3.2l0.1-0.9l-0.9-0.3V75c0.5-0.2,1-0.3,1.6-0.3c0.3,0,0.5,0,0.7,0.1l-0.7,4.6    c-0.1,0.5-0.1,1.3-0.1,1.7c0,0.5,0.2,0.7,0.6,0.9v0.3c-0.3,0.1-0.7,0.2-1.2,0.2s-0.7-0.3-0.7-0.7C72.3,81.3,72.4,80.4,72.5,79.7z     M73.2,72.6c0-0.5,0.4-1,0.9-1c0.4,0,0.7,0.3,0.7,0.7c0,0.5-0.4,1-0.9,1C73.5,73.3,73.2,73,73.2,72.6z"/>
		<path class="st0" d="M76.5,75.7l-0.9-0.3v-0.3c0.5-0.2,1-0.3,1.5-0.3c0.2,0,0.4,0,0.6,0.1l-0.5,2.4l0,0c0.7-1.6,1.7-2.5,2.8-2.5    c0.7,0,1.2,0.5,1.2,1.4c0,0.5-0.1,1.3-0.2,1.9l-0.3,1.7c-0.1,0.4-0.1,1-0.1,1.3c0,0.5,0.2,0.7,0.7,0.8v0.3    c-0.4,0.2-0.8,0.3-1.2,0.3s-0.8-0.3-0.8-0.7c0-0.4,0.1-1.2,0.2-1.6l0.3-1.8c0.1-0.5,0.2-1.2,0.2-1.6c0-0.7-0.3-0.9-0.7-0.9    c-0.9,0-2.1,1.7-2.2,3.9L77,82.4h-1.3L76.5,75.7z"/>
		<path class="st0" d="M83,79.7l0.5-3.2l0.1-0.9l-0.9-0.3V75c0.5-0.2,1-0.3,1.6-0.3c0.3,0,0.5,0,0.7,0.1l-0.7,4.6    c-0.1,0.5-0.1,1.3-0.1,1.7c0,0.5,0.2,0.7,0.6,0.9v0.3c-0.3,0.1-0.7,0.2-1.2,0.2s-0.7-0.3-0.7-0.7C82.7,81.3,82.9,80.4,83,79.7z     M83.7,72.6c0-0.5,0.4-1,0.9-1c0.4,0,0.7,0.3,0.7,0.7c0,0.5-0.4,1-0.9,1C84,73.3,83.7,73,83.7,72.6z"/>
		<path class="st0" d="M85.6,81c0.4,0.4,0.9,0.7,1.5,0.7c0.7,0,1.3-0.4,1.3-1.1c0-0.5-0.2-0.8-1-1.5l-0.5-0.5    c-0.7-0.7-0.9-1.1-0.9-1.8c0-1,1-2.1,2.4-2.1c1.1,0,1.7,0.3,1.7,0.8c0,0.3-0.1,0.6-0.3,0.8c-0.4-0.5-1.1-0.8-1.7-0.8    c-0.7,0-1,0.4-1,0.9c0,0.4,0.2,0.7,1,1.4l0.6,0.5c0.7,0.7,1,1.1,1,1.8c0,1.2-1.2,2.3-2.9,2.3c-1,0-1.4-0.3-1.4-0.9    C85.4,81.4,85.5,81.2,85.6,81z"/>
		<path class="st0" d="M91.6,76.9l0.2-1c-0.3,0-0.5,0-0.9-0.1v-0.2c0.5-0.7,1.3-1.4,2.1-1.9h0.2L93,75h0.4c0.4,0,0.8,0,1.2-0.1    c0,0.7-0.4,1-1.3,1h-0.4l-0.3,1.6c-0.1,0.7-0.3,2-0.3,2.7c0,1,0.5,1.5,1.2,1.5c0.2,0,0.4,0,0.6-0.1v0.3c-0.1,0.4-0.7,0.7-1.4,0.7    c-1,0-1.6-0.7-1.6-1.9C91.1,79.7,91.3,78.1,91.6,76.9z"/>
		<path class="st0" d="M98.1,74.8c1.1,0,1.7,0.5,1.7,1.6c0,1.8-1.9,2.9-3.7,2.9c0,1.9,0.5,2.3,1.4,2.3c0.6,0,1.4-0.3,1.7-0.8    c0.1,0.1,0.2,0.2,0.2,0.4c0,0.7-1,1.4-2.2,1.4c-1.3,0-2.2-0.8-2.2-2.7C94.8,76.4,96.6,74.8,98.1,74.8z M98.5,76.6    c0-0.7-0.3-1-0.7-1c-0.7,0-1.7,1.2-1.7,3C97.5,78.6,98.5,77.8,98.5,76.6z"/>
		<path class="st0" d="M101.3,75.7l-0.9-0.3v-0.3c0.5-0.2,1-0.3,1.5-0.3c0.2,0,0.4,0,0.7,0.1l-0.5,2.2l0,0l0.8-1.4    c0.4-0.7,0.8-1,1.3-1c0.3,0,0.5,0.2,0.5,0.6c0,0.2-0.1,0.6-0.2,0.8c-0.2-0.1-0.3-0.1-0.5-0.1c-1,0-1.9,1.1-2.1,3.9l-0.1,2.3h-1.3    L101.3,75.7z"/>
		<path class="st0" d="M105.2,79.7l0.5-3.2l0.1-0.9l-0.9-0.3V75c0.5-0.2,1-0.3,1.6-0.3c0.3,0,0.5,0,0.7,0.1l-0.7,4.6    c-0.1,0.5-0.1,1.3-0.1,1.7c0,0.5,0.2,0.7,0.6,0.9v0.3c-0.3,0.1-0.7,0.2-1.2,0.2s-0.7-0.3-0.7-0.7C105,81.3,105.2,80.4,105.2,79.7z     M106,72.6c0-0.5,0.4-1,0.9-1c0.4,0,0.7,0.3,0.7,0.7c0,0.5-0.4,1-0.9,1C106.3,73.3,106,73,106,72.6z"/>
		<path class="st0" d="M111.5,74.8c1.1,0,1.7,0.5,1.7,1.6c0,1.8-1.9,2.9-3.7,2.9c0,1.9,0.5,2.3,1.4,2.3c0.6,0,1.4-0.3,1.7-0.8    c0.1,0.1,0.2,0.2,0.2,0.4c0,0.7-1,1.4-2.2,1.4c-1.3,0-2.2-0.8-2.2-2.7C108.2,76.4,110,74.8,111.5,74.8z M111.9,76.6    c0-0.7-0.3-1-0.7-1c-0.7,0-1.7,1.2-1.7,3C110.9,78.6,111.9,77.8,111.9,76.6z"/>
		<path class="st0" d="M116.6,75.6l-0.7-0.3V75c0.5-0.2,0.8-0.2,1.3-0.2c0.2,0,0.4,0,0.6,0.1l0.3,6.3l0,0c1.1-1.4,1.9-3.5,1.9-5.1    c0-0.4-0.2-0.7-0.6-0.8V75c0.3-0.1,0.6-0.2,1-0.2c0.5,0,0.8,0.3,0.8,0.9c0,1.6-1.5,4.9-3,6.3c-0.3,0.3-0.5,0.4-0.8,0.6h-0.3    L116.6,75.6z"/>
		<path class="st0" d="M122,79.8c0-3.2,1.8-5,3.9-5c0.5,0,1.2,0.1,1.7,0.2l-0.5,2.7c-0.2,0.8-0.3,2.2-0.4,2.9c0,1,0.2,1.2,0.7,1.3    v0.3c-0.4,0.1-0.9,0.2-1.4,0.2c-0.2,0-0.4-0.1-0.7-0.1l0.4-2.3l0,0c-0.6,1.5-1.6,2.5-2.4,2.5C122.7,82.6,122,81.6,122,79.8z     M125.9,78.3l0.4-2.6c-0.2-0.1-0.6-0.1-0.8-0.1c-1.3,0-2.3,1.3-2.3,3.9c0,1.3,0.4,1.9,0.8,1.9C124.6,81.5,125.5,80.5,125.9,78.3z"/>
		<path class="st0" d="M129.6,75.7l-0.9-0.3v-0.3c0.5-0.2,1-0.3,1.5-0.3c0.2,0,0.4,0,0.6,0.1l-0.5,2.4l0,0c0.7-1.6,1.7-2.5,2.8-2.5    c0.7,0,1.2,0.5,1.2,1.4c0,0.5-0.1,1.3-0.2,1.9l-0.3,1.7c-0.1,0.4-0.1,1-0.1,1.3c0,0.5,0.2,0.7,0.7,0.8v0.3    c-0.4,0.2-0.8,0.3-1.2,0.3s-0.8-0.3-0.8-0.7c0-0.4,0.1-1.2,0.2-1.6l0.3-1.8c0.1-0.5,0.1-1.2,0.1-1.6c0-0.7-0.3-0.9-0.7-0.9    c-0.9,0-2.1,1.7-2.2,3.9l-0.1,2.6h-1.3L129.6,75.7z"/>
		<path class="st0" d="M138.6,80.6l0.9-7.4l-0.9-0.2v-0.3c0.5-0.2,0.9-0.2,1.4-0.2c0.4,0,0.9,0.1,1.2,0.2V73    c-0.3,0.1-0.6,0.3-0.6,0.7l-0.8,6.9c-0.4,3.1-1.2,3.9-2.2,3.9c-0.3,0-0.5,0-0.7-0.1V84C137.8,83.4,138.4,82.3,138.6,80.6z"/>
		<path class="st0" d="M142.1,79.9l0.4-1.8c0.1-0.5,0.2-1.4,0.2-1.9s-0.3-0.8-0.7-0.9V75c0.4-0.2,0.7-0.3,1.2-0.3s0.8,0.3,0.8,0.7    c0,0.5-0.2,1.5-0.3,2.4l-0.3,1.7c-0.1,0.3-0.1,0.8-0.1,1.2c0,0.4,0.2,0.7,0.5,0.7c0.7,0,2-1.3,2.2-3.7l0.2-2.7    c0.4-0.2,0.9-0.3,1.4-0.3l-0.4,2.4c-0.2,1.1-0.4,2.5-0.4,3.4c0,1,0.2,1.2,0.7,1.3v0.3c-0.4,0.1-0.9,0.2-1.4,0.2    c-0.2,0-0.4,0-0.6-0.1l0.4-2.1l0,0c-0.6,1.1-1.7,2.3-2.6,2.3c-0.7,0-1.2-0.6-1.2-1.4C141.9,80.7,142,80.3,142.1,79.9z"/>
		<path class="st0" d="M148.1,81c0.4,0.4,0.9,0.7,1.5,0.7c0.7,0,1.3-0.4,1.3-1.1c0-0.5-0.2-0.8-1-1.5l-0.5-0.5    c-0.7-0.7-0.9-1.1-0.9-1.8c0-1,1-2.1,2.4-2.1c1.1,0,1.7,0.3,1.7,0.8c0,0.3-0.1,0.6-0.3,0.8c-0.4-0.5-1.1-0.8-1.7-0.8    c-0.7,0-1,0.4-1,0.9c0,0.4,0.2,0.7,1,1.4l0.6,0.5c0.7,0.7,1,1.1,1,1.8c0,1.2-1.2,2.3-2.9,2.3c-1,0-1.4-0.3-1.4-0.9    C147.9,81.4,148,81.2,148.1,81z"/>
		<path class="st0" d="M154.1,76.9l0.2-1c-0.3,0-0.5,0-0.9-0.1v-0.2c0.5-0.7,1.3-1.4,2.1-1.9h0.2l-0.3,1.3h0.4c0.4,0,0.8,0,1.2-0.1    c0,0.7-0.4,1-1.4,1h-0.4l-0.3,1.6c-0.1,0.7-0.3,2-0.3,2.7c0,1,0.5,1.5,1.2,1.5c0.2,0,0.4,0,0.6-0.1v0.3c-0.1,0.4-0.7,0.7-1.4,0.7    c-1,0-1.6-0.7-1.6-1.9C153.6,79.7,153.9,78.1,154.1,76.9z"/>
		<path class="st0" d="M157.8,79.7l0.5-3.2l0.1-0.9l-0.9-0.3V75c0.5-0.2,1-0.3,1.6-0.3c0.3,0,0.5,0,0.7,0.1l-0.7,4.6    c-0.1,0.5-0.1,1.3-0.1,1.7c0,0.5,0.2,0.7,0.6,0.9v0.3c-0.3,0.1-0.7,0.2-1.2,0.2s-0.7-0.3-0.7-0.7    C157.6,81.3,157.7,80.4,157.8,79.7z M158.6,72.6c0-0.5,0.4-1,0.9-1c0.4,0,0.7,0.3,0.7,0.7c0,0.5-0.4,1-0.9,1    C158.8,73.3,158.6,73,158.6,72.6z"/>
		<path class="st0" d="M161.6,76.9l0.2-1c-0.3,0-0.5,0-0.9-0.1v-0.2c0.5-0.7,1.3-1.4,2.1-1.9h0.2L163,75h0.4c0.4,0,0.8,0,1.2-0.1    c0,0.7-0.4,1-1.4,1h-0.4l-0.3,1.6c-0.1,0.7-0.3,2-0.3,2.7c0,1,0.5,1.5,1.2,1.5c0.2,0,0.4,0,0.6-0.1v0.3c-0.1,0.4-0.7,0.7-1.4,0.7    c-1,0-1.6-0.7-1.6-1.9C161.1,79.7,161.3,78.1,161.6,76.9z"/>
		<path class="st0" d="M165.3,79.7l0.5-3.2l0.1-0.9l-0.9-0.3V75c0.5-0.2,1-0.3,1.6-0.3c0.3,0,0.5,0,0.7,0.1l-0.7,4.6    c-0.1,0.5-0.1,1.3-0.1,1.7c0,0.5,0.2,0.7,0.6,0.9v0.3c-0.3,0.1-0.7,0.2-1.2,0.2s-0.7-0.3-0.7-0.7    C165.1,81.3,165.2,80.4,165.3,79.7z M166,72.6c0-0.5,0.4-1,0.9-1c0.4,0,0.7,0.3,0.7,0.7c0,0.5-0.4,1-0.9,1    C166.3,73.3,166,73,166,72.6z"/>
		<path class="st0" d="M171.5,74.8c1.1,0,1.7,0.5,1.7,1.6c0,1.8-1.9,2.9-3.7,2.9c0,1.9,0.5,2.3,1.4,2.3c0.6,0,1.4-0.3,1.7-0.8    c0.1,0.1,0.1,0.2,0.1,0.4c0,0.7-1,1.4-2.2,1.4c-1.3,0-2.2-0.8-2.2-2.7C168.3,76.4,170,74.8,171.5,74.8z M171.9,76.6    c0-0.7-0.3-1-0.7-1c-0.7,0-1.7,1.2-1.7,3C170.9,78.6,171.9,77.8,171.9,76.6z"/>
		<path class="st0" d="M179.6,74.8c1.1,0,1.7,0.5,1.7,1.6c0,1.8-1.9,2.9-3.7,2.9c0,1.9,0.5,2.3,1.4,2.3c0.6,0,1.4-0.3,1.7-0.8    c0.1,0.1,0.1,0.2,0.1,0.4c0,0.7-1,1.4-2.2,1.4c-1.3,0-2.2-0.8-2.2-2.7C176.3,76.4,178.1,74.8,179.6,74.8z M180,76.6    c0-0.7-0.3-1-0.7-1c-0.7,0-1.7,1.2-1.7,3C179,78.6,180,77.8,180,76.6z"/>
		<path class="st0" d="M182.8,75.7l-0.9-0.3v-0.3c0.5-0.2,1-0.3,1.5-0.3c0.2,0,0.4,0,0.6,0.1l-0.5,2.4l0,0c0.7-1.6,1.7-2.5,2.8-2.5    c0.7,0,1.2,0.5,1.2,1.4c0,0.5-0.1,1.3-0.2,1.9l-0.3,1.7c-0.1,0.4-0.1,1-0.1,1.3c0,0.5,0.2,0.7,0.7,0.8v0.3    c-0.4,0.2-0.8,0.3-1.2,0.3s-0.8-0.3-0.8-0.7c0-0.4,0.1-1.2,0.2-1.6l0.3-1.8c0.1-0.5,0.1-1.2,0.1-1.6c0-0.7-0.3-0.9-0.7-0.9    c-0.9,0-2.1,1.7-2.2,3.9l-0.1,2.6H182L182.8,75.7z"/>
		<path class="st0" d="M191.9,73.2l-0.7-0.3v-0.3c0.5-0.2,0.9-0.2,1.3-0.2s0.8,0.1,1.2,0.2v0.3c-0.3,0.1-0.4,0.3-0.4,0.4l0.9,7.6    l0,0l2.7-7.6l-0.8-0.2v-0.3c0.5-0.2,1-0.2,1.5-0.2c0.3,0,0.6,0.1,0.9,0.2v0.3c-0.3,0.1-0.4,0.2-0.5,0.4l-3.6,9.2l-1.1,0.1    L191.9,73.2z"/>
		<path class="st0" d="M201.1,74.8c1.1,0,1.7,0.5,1.7,1.6c0,1.8-1.9,2.9-3.7,2.9c0,1.9,0.5,2.3,1.4,2.3c0.6,0,1.4-0.3,1.7-0.8    c0.1,0.1,0.1,0.2,0.1,0.4c0,0.7-1,1.4-2.2,1.4c-1.3,0-2.2-0.8-2.2-2.7C197.9,76.4,199.6,74.8,201.1,74.8z M201.5,76.6    c0-0.7-0.3-1-0.7-1c-0.7,0-1.7,1.2-1.7,3C200.6,78.6,201.5,77.8,201.5,76.6z"/>
		<path class="st0" d="M203.9,79.7l0.5-3.2l0.1-0.9l-0.9-0.3V75c0.5-0.2,1-0.3,1.6-0.3c0.3,0,0.5,0,0.7,0.1l-0.7,4.6    c-0.1,0.5-0.1,1.3-0.1,1.7c0,0.5,0.2,0.7,0.6,0.9v0.3c-0.3,0.1-0.7,0.2-1.2,0.2s-0.7-0.3-0.7-0.7    C203.6,81.3,203.8,80.4,203.9,79.7z M204.6,72.6c0-0.5,0.4-1,0.9-1c0.4,0,0.7,0.3,0.7,0.7c0,0.5-0.4,1-0.9,1    C204.9,73.3,204.6,73,204.6,72.6z"/>
		<path class="st0" d="M207.3,79.7l1.1-7.7l-1-0.3v-0.3c0.5-0.2,1-0.2,1.6-0.2c0.3,0,0.5,0,0.7,0.1l-1.2,8.1    c-0.1,0.5-0.1,1.2-0.1,1.7s0.2,0.7,0.7,0.9v0.3c-0.3,0.1-0.7,0.2-1.2,0.2s-0.8-0.3-0.8-0.7C207.1,81.3,207.2,80.3,207.3,79.7z"/>
		<path class="st0" d="M210.7,79.7l0.5-3.2l0.1-0.9l-0.9-0.3V75c0.5-0.2,1-0.3,1.6-0.3c0.3,0,0.5,0,0.7,0.1l-0.7,4.6    c-0.1,0.5-0.1,1.3-0.1,1.7c0,0.5,0.2,0.7,0.6,0.9v0.3c-0.3,0.1-0.7,0.2-1.2,0.2s-0.7-0.3-0.7-0.7    C210.5,81.3,210.6,80.4,210.7,79.7z M211.4,72.6c0-0.5,0.4-1,0.9-1c0.4,0,0.7,0.3,0.7,0.7c0,0.5-0.4,1-0.9,1    C211.7,73.3,211.4,73,211.4,72.6z"/>
		<path class="st0" d="M213.6,84.4c0,0.6,0.5,1,1.4,1c1.1,0,2-0.8,2.2-2.6l0.3-2.7l0,0c-0.6,1.5-1.6,2.4-2.4,2.4    c-0.7,0-1.4-0.9-1.4-2.8c0-3,1.8-5,3.9-5c0.6,0,1.3,0.1,1.8,0.2l-0.6,3c-0.1,0.7-0.2,2.3-0.2,3.1c0,3.5-1.7,5-3.8,5    c-1.4,0-2.2-0.6-2.2-1.4c0-0.7,0.8-1.3,1.5-1.3C213.7,83.8,213.6,84.1,213.6,84.4z M217.6,78.2l0.4-2.5c-0.2-0.1-0.5-0.1-0.8-0.1    c-1.2,0-2.3,1.3-2.3,3.9c0,1.3,0.4,1.9,0.8,1.9C216.3,81.5,217.3,80.5,217.6,78.2z"/>
		<path class="st0" d="M221,77.3l0.5-5.3l-1-0.3v-0.3c0.5-0.2,1.1-0.2,1.6-0.2c0.3,0,0.5,0,0.7,0.1L222,77l0,0    c0.6-1.3,1.6-2.2,2.6-2.2c0.8,0,1.2,0.6,1.2,1.4c0,0.5-0.1,1.3-0.2,1.9l-0.3,1.6c-0.1,0.4-0.1,1-0.1,1.3c0,0.5,0.2,0.7,0.7,0.8    v0.3c-0.4,0.2-0.8,0.3-1.2,0.3s-0.8-0.3-0.8-0.7c0-0.4,0.1-1.2,0.2-1.7l0.3-1.7c0.1-0.5,0.2-1.2,0.2-1.6c0-0.7-0.3-0.9-0.7-0.9    c-0.8,0-1.9,1.3-2.1,3.5l-0.2,3h-1.3L221,77.3z"/>
		<path class="st0" d="M230.4,74.8c1.1,0,1.7,0.5,1.7,1.6c0,1.8-1.9,2.9-3.7,2.9c0,1.9,0.5,2.3,1.4,2.3c0.6,0,1.4-0.3,1.7-0.8    c0.1,0.1,0.1,0.2,0.1,0.4c0,0.7-1,1.4-2.2,1.4c-1.3,0-2.2-0.8-2.2-2.7C227.2,76.4,228.9,74.8,230.4,74.8z M230.9,76.6    c0-0.7-0.3-1-0.7-1c-0.7,0-1.7,1.2-1.7,3C229.9,78.6,230.9,77.8,230.9,76.6z"/>
		<path class="st0" d="M233.2,79.7l0.5-3.2l0.1-0.9l-0.9-0.3V75c0.5-0.2,1-0.3,1.6-0.3c0.3,0,0.5,0,0.7,0.1l-0.7,4.6    c-0.1,0.5-0.1,1.3-0.1,1.7c0,0.5,0.2,0.7,0.6,0.9v0.3c-0.3,0.1-0.7,0.2-1.2,0.2s-0.7-0.3-0.7-0.7    C232.9,81.3,233.1,80.4,233.2,79.7z M233.9,72.6c0-0.5,0.4-1,0.9-1c0.4,0,0.7,0.3,0.7,0.7c0,0.5-0.4,1-0.9,1    C234.2,73.3,233.9,73,233.9,72.6z"/>
		<path class="st0" d="M236.1,79.8c0-3.1,1.8-5,3.9-5c0.2,0,0.4,0,0.6,0L241,72l-1-0.3v-0.3c0.5-0.2,1-0.2,1.6-0.2    c0.3,0,0.5,0,0.7,0.1l-1.1,6.4c-0.1,0.7-0.3,2.4-0.3,3c0,1,0.2,1.2,0.7,1.3v0.3c-0.5,0.2-0.9,0.2-1.4,0.2c-0.3,0-0.5-0.1-0.6-0.1    l0.4-2.3l0,0c-0.6,1.4-1.6,2.5-2.4,2.5C236.9,82.6,236.1,81.7,236.1,79.8z M240,78.3l0.4-2.6c-0.2-0.1-0.5-0.1-0.7-0.1    c-1.3,0-2.4,1.2-2.4,3.9c0,1.3,0.4,1.9,0.8,1.9C238.7,81.5,239.7,80.5,240,78.3z"/>
	</g>
</g>
<g>
	<path class="st0" d="M20.6,66.9l-0.4,0.5c-0.1,0.1,0.3,0.4,0.4,0.3l0.5-0.6c0,0,1.5,0.8,1.9,1c0-0.3,0.1-0.6,0.3-0.8   c-0.5-0.1-1.4-0.4-1.4-0.4c0,0.1-0.2,0.1-0.3,0.1c-0.2,0-0.4-0.3-0.4-0.4l0,0c0.1,0,0.2,0.1,0.3,0l0.2-0.3l0.4,0.2l0.2-0.3   l-0.4-0.1l1.7-2.4c0-0.1,0-0.4,0-0.5c-0.1,0-0.5,0.1-0.5,0.2l-1.7,2.4l-0.2-0.3L21,65.8l0.3,0.3l-0.2,0.2c-0.4-0.2-0.7,0-0.8,0.2   l0,0c0.1,0,0.5-0.1,0.5,0.2c-0.4-0.1-0.6,0.2-0.7,0.3l0,0C20.2,66.9,20.5,66.8,20.6,66.9z"/>
	<path class="st0" d="M24.6,65.5c0.4-0.3,0.9-0.2,0.8,0.3c0,0-0.1,0.1-0.6,0.1c0,0,0,0.2,0.1,0.2c0,0-0.1,0.1,0,0.3   c0,0,0.4-0.2,0.7-0.1c0.1,0.2,0,0.6-0.7,0.7c-0.9,0.1-1.3,0.4-1.4,1.3c0.7-0.1,1.1,0.3,1.6,0.5c0.8,0.4,1.6-0.2,1.6-0.2   c-0.2-0.2-0.2-0.7,0.1-0.9c0.2,0.3,0.5,0.4,0.7,0.2c0,0,0,0,0-0.1c-0.4-0.2-0.4-0.5-0.2-0.9c0.2,0.3,0.6,0.1,0.7-0.2l0,0   c-0.3,0.1-0.4-0.2-0.4-0.4c0-0.2,0.1-0.9-0.2-1.3c0.1-0.2,0.6-0.4,0.8-0.4c0.1,0,0.1,0,0-0.1c-0.2-0.1-0.8,0-0.8-0.1l-0.1-0.8   l-0.7,0.3c-0.2,0-0.4-0.5-0.6-0.6c-0.1,0-0.1,0-0.1,0c0.1,0.2,0.2,0.7,0.1,0.9c-0.6-0.1-0.8,0.2-0.9,0.3c-0.1,0-0.7,0.4-0.7,0.5   c0,0,0,0.1,0.1,0.2C24.5,65.1,24.5,65.3,24.6,65.5z M25.7,64.7c-0.2,0.4-0.4,0.4-0.6,0.2C25.1,64.8,25.3,64.7,25.7,64.7z"/>
	<path class="st0" d="M23.5,65.5C23.5,65.4,23.5,65.4,23.5,65.5c-0.2,0.4,0.1,0.6,0.4,0.6c0.4,0,0.4-0.3,1-0.3v-0.1c0,0-0.3,0-0.6,0   C23.8,65.8,23.6,65.6,23.5,65.5z"/>
	<rect x="29" y="64.3" class="st0" width="0.9" height="2.4"/>
	<path class="st0" d="M13,61.2c0-0.3-0.3-0.4-1-0.3C12.1,61.5,12.7,61.6,13,61.2z"/>
	<path class="st0" d="M30.4,67.8c0,0.1-0.1,0.4-0.5,0.4c-0.3,0-0.9-0.2-1.2-0.2c-0.7,0-1,0.5-1,0.9c0,0.8,0.9,1,0.9,1.8   c0,0.6-0.8,0.8-1.4,0.2c-0.2-0.7-0.3-1.2-0.7-1.8c-1.5,0.5-1.8-0.5-2.7-0.5c-0.7,0-1.6,1.3-2.3,1.4l0.1-0.7h0.1v-0.6   c0,0-0.2,0.4-0.2,0.5c0,0,0,0-0.1,0c-0.1-0.2-0.2-0.5-0.2-0.5s0,0.5,0,0.6l0,0l-0.4-0.5c0,0,0.1,0.4,0.1,0.7l0,0L20.2,69   c0,0,0.1,0.3,0.3,0.7l0,0c-0.1-0.1-0.5-0.4-0.5-0.4s0.2,0.3,0.4,0.5l0,0c-0.3-0.1-0.6-0.2-0.6-0.2s0.2,0.2,0.4,0.4l0,0   c-0.1,0-0.5,0-0.5,0l0.6,0.2v-0.1l0.5,0.1c-0.1,0.1-0.1,0.3-0.1,0.4l0,0c0.1-0.1,0.2-0.3,0.5-0.3l0,0c-0.1,0-0.4,0.2-0.3,0.6l0,0   c0.1-0.2,0.3-0.2,0.4-0.3l-0.1,0.7c0.5,0.1,1.1-0.2,1.1-0.8l-0.6-0.1c0.6-0.5,1.5-0.8,2.2-0.8c1.2,0,2,1.3,2,2.1   c0,0.2,0,0.5-0.2,0.7c-0.2,0.3-0.4,0.2-0.5,0.2l0,0c0.1,0.4,0.7,0.4,0.7,0.2c0-0.1,0,0,0,0c0.3,1,1.5-0.1,2.2,1.2   c0,0-0.4,0.2-0.5,0.1c-0.4-0.2-0.6,0-0.6,0.2l0,0c0.4-0.1,0.6,0.2,0.6,0.2c-0.3-0.1-0.7,0-0.5,0.5l0,0c0.1-0.4,0.4-0.2,0.5-0.2   c-0.2,0.1-0.4,0.4,0,0.7l0,0c0-0.3,0.1-0.4,0.3-0.4c0.1,0,0.4,0,0.5-0.3c0.2,0.3,0.5,0.2,0.7,0.1c0,0,0,0,0-0.1   c-0.2-0.1-0.5-0.2-0.3-0.4c0,0,0.5,0.2,0.7-0.3l0,0c0,0-0.5,0.3-0.6-0.2c-0.1-0.3-0.1-0.8-0.4-0.9c0.3-0.1,0.4-0.3,0.2-0.6l0,0   c0,0.7-1.5,0.1-1.5-0.8c1,0.3,2,0,2-1s-1-1.4-1-1.9c0-0.3,0.3-0.4,0.4-0.4c0.4,0,0.8,0.5,0.9,0.8l0,0c0.1-0.2,0.2-0.5,0-0.6   c0,0,0-0.1,0,0c0.1,0.1,0.9,0,0.9-0.5c0-0.2,0-0.3,0-0.4C30.5,67.8,30.4,67.8,30.4,67.8z"/>
	<path class="st0" d="M0,0v100h50V0H0z M37.1,60.5c0.1-0.3,0.5-0.8,1.7-0.6c0.6,0.1,1-0.1,0.8-0.4c0-0.1,0.1-0.1,0.1,0   c0.1,0.1,0.3,0.5-0.2,0.8s-0.6,0.8-0.6,0.9c0,0.1,0.1,0.1,0.2,0c0.2-0.9,1.5-1.1,2.3-0.6c0,0.5-0.6,0.8-0.9,0.8   c-0.2,0-0.4-0.2-0.4-0.4c0-0.1-0.1-0.1-0.1,0c-0.1,0.3,0.4,1,1.1,0.6c0.7,0.7,0.4,1.7,0.4,2c-0.1,0.6,0.2,1.2,0.7,0.9h0.1   c0,0.4-0.5,0.8-1.1,0.5c-0.1,0.1-0.9,1.2,0.4,1.6c0,0,0.1,0.1,0,0.1c-0.9,0.4-1.4-0.3-1.4-0.3c-0.5,1.1,0.2,1.7,0.2,1.7   c-0.1,0.2-0.5,0.5-1.2,0.7c-0.3-0.1-0.6-0.4-0.8-0.8c0,0-0.2,0.5,0,0.9c-1.9,0.2-2.6-1.3-4-1.1c0,0-0.1,0-0.1-0.1   c0-0.9,0.6-2.6,2.4-3c1.8-0.3,1.3-1.1,1.3-1.1c-0.8,0-1.2,0.3-1.2,0.3c-0.1-0.2,0.1-0.5,0.1-0.5c-0.1-0.1-0.1-0.4-0.1-0.4   c0.9,0,1.1-0.2,1.1-0.2c0.1-0.5-0.2-1.2-1.5-0.5C36,62,36,61.6,36,61.6c-0.1,0-0.2-0.2-0.2-0.3C35.9,61.1,36.9,60.6,37.1,60.5z    M34.2,62.3C34.2,62.2,34.3,62.2,34.2,62.3c0.2,0.3,0.5,0.5,0.9,0.5c0.5,0,0.6-0.2,1.3-0.2c0.1,0,0.5,0,0.5,0.1s-0.2,0-0.5,0.1   c-0.7,0.1-1,0.5-1.5,0.5C34.5,63.2,34,62.9,34.2,62.3z M24.2,50.7c0.2,0,0.3,0.1,0.4,0.1c0.2,0.1,0.2,0.1,0.3,0c0,0,0.1-0.1,0-0.3   c0-0.1-0.1-0.2-0.1-0.4c0-0.3,0.2-0.4,0.3-0.4c0.1,0,0.3,0.1,0.3,0.4c0,0.2-0.1,0.3-0.1,0.4c-0.1,0.2-0.1,0.2,0,0.3   c0,0.1,0.1,0.1,0.3,0c0.1,0,0.2-0.1,0.4-0.1c0.3,0,0.4,0.2,0.4,0.3s-0.1,0.3-0.4,0.3c-0.2,0-0.3-0.1-0.4-0.1   c-0.2-0.1-0.2-0.1-0.3,0s0,0.6,0.1,1c0.5,0.1,0.7,0.5,0.7,0.7c0,0.5-0.6,0.9-0.9,1c-0.4-0.2-0.9-0.5-0.9-1c0-0.2,0.2-0.6,0.7-0.7   c0.1-0.4,0.1-1,0.1-1s-0.1-0.1-0.3,0c-0.1,0.1-0.2,0.1-0.4,0.1c-0.3,0-0.4-0.2-0.4-0.3C23.8,50.9,23.9,50.7,24.2,50.7z M25.7,54.9   c0,0.4-0.3,0.7-0.7,0.7c-0.4,0-0.7-0.3-0.7-0.7s0.3-0.7,0.7-0.7C25.4,54.3,25.7,54.6,25.7,54.9z M19.6,55.1c0.6,0,0.5,0.4,1,0.4   c0.1,0,0.1,0,0.1,0c0,0.2-0.1,0.5-0.4,0.5s-0.3-0.3-0.6-0.3c-0.1,0-0.2,0.1-0.2,0.4c0,0.6,0.4,1.3,0.9,1.9c0.1-0.1,0.3-0.2,0.4-0.2   c0.3,0,0.5,0.3,0.5,0.7c0,0.1,0,0.2-0.1,0.4c0.2,0.1,0.3,0.1,0.4,0.1c0.2,0,0.5-0.1,0.5-0.6c0-1.1-1.4-2-1.4-3.4   c0-0.7,0.4-1.3,1.3-1.3c1,0,0.8,0.9,1.6,0.9h0.1c0,0.1-0.1,0.6-0.6,0.6s-0.6-0.8-1-0.8c-0.2,0-0.4,0.1-0.4,0.6   c0,0.4,0.2,1.1,0.5,1.8c0.1-0.1,0.2-0.2,0.4-0.2c0.4,0,0.6,0.3,0.6,0.8c0,0.3-0.1,0.5-0.3,0.7c0.2,0.3,0.4,0.5,0.7,0.5   c0.6,0,0.8-0.3,0.8-0.7s-0.7-0.5-0.7-1.1c0-0.4,0.3-0.6,0.5-0.6c0.3,0,0.4,0.2,0.5,0.2c0,0,0.2-0.2,0.4-0.2c0.2,0,0.5,0.2,0.5,0.6   c0,0.6-0.7,0.7-0.7,1.1c0,0.4,0.2,0.7,0.8,0.7c0.3,0,0.5-0.2,0.7-0.5c-0.2-0.2-0.3-0.4-0.3-0.7c0-0.4,0.3-0.8,0.6-0.8   c0.2,0,0.3,0.1,0.4,0.2c0.3-0.6,0.5-1.3,0.5-1.8s-0.2-0.6-0.4-0.6c-0.4,0-0.5,0.8-1,0.8c-0.4,0-0.6-0.5-0.6-0.6c0,0,0,0,0.1,0   c0.8,0,0.7-0.9,1.6-0.9s1.3,0.6,1.3,1.3c0,1.4-1.4,2.3-1.4,3.4c0,0.5,0.3,0.6,0.5,0.6c0.1,0,0.2-0.1,0.4-0.1   C28,58.8,28,58.7,28,58.5c0-0.4,0.2-0.7,0.5-0.7c0.2,0,0.3,0.1,0.5,0.2c0.5-0.5,0.9-1.2,0.9-1.9c0-0.3-0.2-0.4-0.2-0.4   c-0.2,0-0.2,0.3-0.6,0.3c-0.2,0-0.4-0.3-0.4-0.5h0.1c0.5,0,0.4-0.4,1-0.4c0.2,0,0.9,0.1,0.9,1.1c0,1.5-1.8,1.9-1.4,3   c-0.8-0.1-0.8,0.6-0.8,2c0,0-1.5-0.5-4.2-0.5s-4.2,0.5-4.2,0.5c0-1.4,0-2.1-0.8-2c0.4-1.1-1.4-1.6-1.4-3   C18.7,55.2,19.4,55.1,19.6,55.1z M15.8,62.3c0-0.1,0.1-0.1,0.1,0c0.2,0.6-0.3,0.9-0.7,0.9c-0.5,0-0.8-0.3-1.5-0.5   c-0.3-0.1-0.5,0-0.5-0.1s0.5-0.1,0.5-0.1c0.7,0,0.8,0.2,1.3,0.2C15.4,62.7,15.7,62.6,15.8,62.3z M7.9,64.5c0.5,0.3,0.8-0.3,0.7-0.9   c-0.1-0.3-0.4-1.2,0.4-2c0.7,0.4,1.2-0.3,1.1-0.6c0-0.1-0.1-0.1-0.1,0c0,0.2-0.2,0.4-0.4,0.4c-0.3,0-0.8-0.3-0.9-0.8   c0.8-0.5,2-0.3,2.3,0.6c0,0.1,0.2,0.1,0.2,0s0-0.6-0.6-0.9c-0.5-0.2-0.3-0.6-0.2-0.8c0-0.1,0.2,0,0.1,0c-0.2,0.3,0.2,0.5,0.8,0.4   c1.2-0.2,1.6,0.3,1.7,0.6c0.3,0.1,1.3,0.6,1.3,0.9c0,0.1-0.1,0.2-0.2,0.3c0,0,0,0.4-0.3,0.7c-1.3-0.8-1.6,0-1.5,0.5   c0,0,0.2,0.2,1.1,0.2c0,0,0,0.3-0.1,0.4c0,0,0.2,0.2,0.1,0.5c0,0-0.4-0.3-1.2-0.3c0,0-0.5,0.7,1.3,1.1c1.8,0.3,2.4,2.1,2.4,3   c0,0,0,0.1-0.1,0.1c-1.5-0.3-2.1,1.2-4,1.1c0.2-0.5,0-0.9,0-0.9c-0.2,0.4-0.5,0.7-0.8,0.8c-0.7-0.2-1.1-0.5-1.2-0.7   c0,0,0.7-0.6,0.2-1.7c0,0-0.5,0.7-1.4,0.3c-0.1,0-0.1-0.1,0-0.1C9.8,66.1,9,65.1,8.9,65C8.3,65.3,7.8,64.9,7.9,64.5   C7.8,64.4,7.9,64.5,7.9,64.5z M17.1,84.9c0,1.9-3.1,0.1-6.2-0.1c-2.5-0.2-3.2,0.5-3.2,0.5l0.5-2.5c0-0.1,0.6-0.5,2.3-0.5   c2.1,0,3.1,0.4,3.5,0.5v1.3c0,0.3,0.2,0.5,0.4,0.5c0-0.1,0.3-0.9,2.7-0.9V84.9z M14.3,74.9c-0.3-0.3-1.8-0.8-2.6-1.2c0,0,0,0,0-0.1   c0.2-0.1,0.4-0.2,0.5-0.5c0-0.2,0-0.4-0.2-0.5c0.4-0.4,1.2-0.7,1.6-0.7c1.6,0,3,2.2,3.6,2.2c0.1,0,0.2,0,0.3-0.2l0,0   c0,0.6-0.4,0.7-0.5,0.7s-0.2,0-0.3-0.1l0,0v0.1c0,0.8-0.8,1.6-0.8,1.6c0.4,0.4,1.3,1,1.5,0.7c0.1-0.1,0.6-1,1.2-0.3l0,0   c-0.4,0-0.6,0.2-0.5,0.6c0.5-0.4,1.2-0.3,1.2,0.6c0,0,0,0-0.1,0c-0.3-0.5-0.9-0.2-1-0.1c0.4,0.1,1,0.5,0.4,1.2l0,0   c-0.1-0.5-0.4-0.6-0.6-0.6c-0.5,0-0.9,0.5-1.3,0c-0.1,0.6-0.8,0.6-1,0.5l0,0c0.2-0.1,0.4-0.4,0.4-0.6c0-0.4-0.8-0.9-1.1-0.9   c-0.2,0-0.4,0.3-0.8,0.3c-0.2,0-0.5-0.1-0.7-0.3l0,0c0.2,0,0.6,0.1,0.9-0.7C14.6,75.8,14.7,75.2,14.3,74.9z M14.6,83.6   C14.5,83.7,14.5,83.6,14.6,83.6L14.5,81c0-0.8,5.1-1.2,10.5-1.2s10.5,0.4,10.5,1.2v2.6c0,0.1,0,0.1-0.1,0.1c-0.6-0.7-5.6-1-10.4-1   C20.2,82.6,15.2,82.9,14.6,83.6z M31.5,76.8C31.5,76.8,31.5,76.7,31.5,76.8c0.6-0.7,1.1,0.1,1.2,0.3c0.3,0.3,1.2-0.3,1.5-0.7   c0,0-0.8-0.8-0.8-1.6v-0.1l0,0c-0.1,0-0.2,0.1-0.3,0.1c-0.2,0-0.5-0.1-0.5-0.7l0,0c0.1,0.1,0.2,0.2,0.3,0.2c0.7,0,2-2.2,3.6-2.2   c0.4,0,1.2,0.3,1.6,0.7c-0.2,0.1-0.2,0.4-0.2,0.5c0,0.3,0.2,0.4,0.5,0.5c0,0,0,0,0,0.1c-0.8,0.3-2.3,0.9-2.6,1.2   c-0.4,0.3-0.3,1-0.1,1.9s0.7,0.7,0.9,0.7l0,0c-0.2,0.3-0.5,0.4-0.7,0.4c-0.4,0-0.6-0.3-0.8-0.3c-0.4,0-1.1,0.5-1.1,0.9   c0,0.2,0.2,0.4,0.4,0.6l0,0c-0.2,0-0.9,0.1-1-0.5c-0.4,0.5-0.8,0-1.3,0c-0.2,0-0.5,0.1-0.6,0.6c0,0,0,0-0.1,0   c-0.5-0.8,0.1-1.2,0.4-1.2c-0.1-0.1-0.6-0.4-0.9,0.1h-0.1c0-1,0.7-1,1.2-0.6C32.2,77,31.9,76.8,31.5,76.8z M39.1,84.8   c-3,0.2-6.1,2-6.1,0.1v-1.1c2.4,0,2.7,0.8,2.7,0.9c0.2-0.1,0.4-0.2,0.4-0.5v-1.3c0.4-0.1,1.4-0.5,3.5-0.5c1.7,0,2.3,0.4,2.3,0.5   l0.5,2.5C42.3,85.3,41.6,84.7,39.1,84.8z M45.6,67.5c-0.3,0-0.6-0.1-0.7-0.2c-0.1,0-0.1,0-0.1,0.1c0.3,0.4,0.3,1,0.2,1.2h-0.1   c-0.2-0.7-0.8-1.3-1.6-1.3c-1,0-1,0.9-1,1.1c0,1.3,2.2,2.2,2.2,3.9c0,1.8-1.8,2.1-2.9,1.9c0.1,1.8,2.1,2.4,2.1,1.1c0,0,0-0.1,0.1,0   c0.2,0.6,0.1,1.2-0.6,1.3v0.1c0.8,0.5,0.4,2.4,0.3,3c-0.1,0.8,0.8,0.7,0.8,0.7s0.1,0,0,0.1c-0.6,0.7-1.3,0.1-1.3,0.1   c-0.5,0.2-0.2,0.6,0.2,0.9v0.1c-0.1,0-0.9,0.1-1.1-0.6c-0.4,0.4-0.9,0.3-1,0.2c-0.2-0.1-0.9-0.4-1,0.5c0,0.1,0,0-0.1,0   c-0.6-0.8,0.1-1.2,0.4-1.3c0,0-0.5-0.4-0.9,0.1h-0.1c0-1,0.7-1,1.2-0.6c0-0.1,0.2-0.6-0.6-0.6c0,0-0.1,0,0-0.1   c0.6-0.6,1.1,0,1.2,0.1c0.3,0.3,0.9,0.2,1,0.2c-0.2-3.3-3.1-2.1-3.5-3.7c0-0.1,0-0.1-0.1,0c-0.1,0.4-1.1,0.5-1.3-0.3c0,0,0-0.1,0,0   c0.8,0.8,2.7-1.8,0.2-3.9c-2.2-1.8-4.2-0.8-4.9-0.2c0,0.3,0.1,0.3,0.2,0.4c0,0,0,0,0,0.1c-0.2,0.1-0.5,0.1-0.6-0.1   c-0.5,0.3-0.1,0.7,0.1,0.9c0.1,0,0,0.1,0,0.1c-0.4,0.1-0.8-0.4-0.8-0.6h-0.1v1.9c0,2.7-3.1,3-6.4,5.3c-3.4-2.2-6.4-2.6-6.4-5.3   v-1.9h-0.1c0,0.3-0.4,0.7-0.8,0.6c0,0-0.1,0,0-0.1c0.2-0.1,0.6-0.5,0.1-0.9c-0.1,0.2-0.4,0.2-0.6,0.1c-0.1,0,0-0.1,0-0.1   c0.1,0,0.3-0.1,0.2-0.4c-0.8-0.6-2.7-1.6-4.9,0.2c-2.6,2.1-0.7,4.8,0.2,3.9l0,0c-0.2,0.8-1.2,0.7-1.3,0.3c0,0,0-0.1-0.1,0   c-0.4,1.6-3.3,0.4-3.5,3.7c0.1,0,0.7,0.1,1-0.2c0.1-0.1,0.6-0.7,1.2-0.1v0.1c-0.8,0-0.6,0.5-0.6,0.6c0.5-0.4,1.3-0.3,1.2,0.6   c0,0.1,0,0.1-0.1,0c-0.4-0.5-0.9-0.2-0.9-0.1c0.4,0,1,0.5,0.4,1.3c0,0-0.1,0.1-0.1,0c-0.1-0.9-0.9-0.6-1-0.5s-0.7,0.2-1-0.2   c-0.1,0.7-1,0.6-1.1,0.6s-0.1,0,0-0.1c0.4-0.2,0.7-0.7,0.2-0.9c0,0-0.7,0.6-1.3-0.1c-0.1-0.1,0-0.1,0-0.1c0.1,0,0.9,0.1,0.8-0.7   c0-0.6-0.5-2.5,0.3-3c0.1,0,0.1-0.1,0-0.1c-0.8-0.2-0.9-0.7-0.6-1.3c0-0.1,0.1-0.1,0.1,0c0.1,1.3,2.1,0.7,2.1-1.1   c-1.1,0.3-2.9-0.1-2.9-1.9c0-1.7,2.2-2.7,2.2-3.9c0-0.2,0-1.1-1-1.1c-0.8,0-1.5,0.6-1.6,1.3c0,0,0,0-0.1,0   c-0.1-0.2-0.1-0.8,0.2-1.2c0,0,0-0.1-0.1-0.1c-0.1,0.1-0.4,0.2-0.7,0.2c-0.7,0-1.1-0.4-1.1-1c0-0.4,0.1-0.6,0.1-0.7s0-0.1,0.1,0   c0.1,0.2,0.3,0.7,1,0.7c0,0,1.4,0,1.7,0c1.9,0,2.1,1.5,2.1,1.9c0,1.6-2,2.2-2,3.8c0,0.4,0.2,1,1.2,1c0.4,0,0.8-0.1,1.1-0.2   c0,0,0.5-2.8,1.8-3.7c0,0,1.6,0.8,3.1-0.1c1.2-0.6,1.7-1.1,2.8-0.3c1,0.7,1.9,1.5,2,1.5l0.2-0.1v-6.2c-0.5,0-0.5,0.4-0.5,0.5   s0.2,0.3-0.1,0.8h-0.1c0-0.1-0.1-0.3-0.2-0.3c-0.2,0-0.9,0.5-1.5,1.2c0,0-0.4-1.1-1.2-1.4c0.5-0.1,2.6-0.6,2.6-1.5   c0-0.3,0.3-0.4,0.6-0.4c0,0,0.3-0.8,1-0.4v0.1c-0.3,0.1-0.4,0.4-0.4,0.7c0.2-0.1,0.8-0.2,1.5-0.4v2H21v-2.1c1.1-0.2,2.5-0.4,4-0.4   c3.1,0,5.8,0.7,6.4,0.9c0-0.3-0.1-0.6-0.4-0.7v-0.1c0.6-0.4,1,0.4,1,0.4c0.2,0,0.6,0,0.6,0.4c0,0.9,2.1,1.4,2.6,1.5   c-0.9,0.3-1.2,1.4-1.2,1.4c-0.6-0.6-1.4-1.2-1.5-1.2c-0.2,0-0.2,0.2-0.2,0.3c0,0,0,0.1-0.1,0c-0.3-0.5-0.2-0.6-0.1-0.8   c0-0.1,0-0.5-0.5-0.5v6.2l0.2,0.1c0.1,0,1-0.8,2-1.5s1.6-0.3,2.8,0.3c1.6,0.8,3.1,0.1,3.1,0.1c1.3,1,1.8,3.7,1.8,3.7   c0.3,0.1,0.7,0.2,1.1,0.2c1,0,1.2-0.6,1.2-1c0-1.6-2-2.2-2-3.8c0-0.4,0.2-1.9,2.1-1.9c0.2,0,1.7,0,1.7,0c0.7,0,0.9-0.5,1-0.7   c0-0.1,0.1,0,0.1,0c-0.1,0.1,0.1,0.3,0.1,0.7C46.7,67.1,46.3,67.5,45.6,67.5z"/>
	<path class="st0" d="M23.7,73.6c0-1.1,0.6-1.2,1.8-1.7l0,0c-0.2,0-0.6-0.3-0.2-0.7c-0.2-0.1-0.5-0.3-0.7-0.3c-0.9,0-1.7,1-1.8,1.2   c-0.1,0.1-0.4,0.4-0.5,0.2l0,0c0,0.4,0.3,0.4,0.5,0.3l0,0c0,0.4,0.2,1.2,0.2,1.2s-0.4,0.4-0.7,0.4c-0.2,0-0.2-0.4-0.5-0.4   c-0.1,0-0.2,0-0.3,0.1l0,0c0.2,0,0.3,0.1,0.3,0.3c-0.3-0.2-0.7-0.2-0.7,0.3l0,0c0.2-0.3,0.5-0.1,0.5,0c-0.2,0-0.5,0.3-0.2,0.7l0,0   c0-0.1,0-0.3,0.3-0.3s0.5,0.3,0.7,0c0.1,0.4,0.4,0.3,0.6,0.3l0,0c-0.2-0.1-0.2-0.2-0.2-0.3c0-0.2,0.5-0.5,0.6-0.5s0.2,0.1,0.5,0.1   c0.1,0,0.2-0.1,0.4-0.2l0,0C23.9,74.4,23.7,74.1,23.7,73.6z"/>
	<path class="st0" d="M38.1,60.9c-0.7,0-1,0-1,0.3C37.4,61.6,38,61.5,38.1,60.9z"/>
	<rect x="25" y="74.9" class="st0" width="0.9" height="2.4"/>
</g>
</svg>