<svg xmlns:xlink="http://www.w3.org/1999/xlink" xmlns="http://www.w3.org/2000/svg" width="372" height="58" viewBox="0 0 372 58" fill="none">
<path fill-rule="evenodd" clip-rule="evenodd" d="M95.5444 5.6349C99.0011 11.2293 97.3372 18.6346 91.768 22.1266C88.0585 24.4572 83.5945 24.4248 79.9901 22.5715L79.988 22.5744L79.9304 22.5492L79.8699 22.5233C79.5409 22.3843 79.1967 22.2785 78.5955 22.1871C77.9417 22.087 77.203 22.1583 76.3793 22.398L76.339 22.4103C75.938 22.5543 75.5412 22.7479 75.1611 22.9935C72.7851 24.4983 72.0399 27.6505 73.4842 30.0351L79.0023 38.9675C82.459 44.5619 80.7951 51.9671 75.2252 55.4592C69.6883 58.9512 62.3587 57.27 58.9012 51.6431L53.4919 42.8807C51.9878 40.455 48.819 39.7112 46.4502 41.2319C45.7225 41.6939 45.1219 42.3304 44.7028 43.0836C44.2837 43.8368 44.0594 44.6828 44.0504 45.5447V45.5965C44.0504 49.607 42.0971 53.5195 38.4805 55.7832C32.9437 59.2752 25.614 57.594 22.1566 51.9671L1.79991 19.0486C-1.65683 13.4534 0.00710064 6.0489 5.57633 2.55545C11.1139 -0.936572 18.4435 0.744637 21.9003 6.37147L27.342 15.167C28.831 17.5682 31.9515 18.3206 34.3117 16.8612L34.3837 16.8158C35.8885 15.8784 36.7201 14.2613 36.7842 12.6125C36.7201 8.53724 38.7044 4.56066 42.3534 2.26456C47.8902 -1.22745 55.2206 0.453755 58.6773 6.08058L64.1508 14.9402C65.6556 17.3659 68.8236 18.1097 71.1924 16.5898C71.7504 16.2355 72.2688 15.625 72.7476 14.7573C72.5612 15.1101 72.5777 15.0756 72.798 14.6508C73.1278 14.015 73.3402 13.511 73.4352 13.1409C73.5274 12.7824 73.5944 12.4353 73.6368 12.1013C74.0703 7.52059 75.6168 4.11281 79.2205 1.81816C84.7573 -1.67386 92.0876 0.00735298 95.5444 5.63418V5.6349Z" fill="#F3F2FF"/>
<path d="M138.106 53.4203L146.379 29.4255L155.016 53.4203H161.185L173.596 19.5657H165.613L157.702 42.4021L149.863 19.5664H142.896L135.057 42.4014L127.218 19.5664H119.234L132.009 53.421H138.105L138.106 53.4203ZM192.516 54.1453C202.169 54.1453 210.298 47.1138 210.298 36.3843C210.298 25.6562 202.169 18.8414 192.516 18.8414C182.936 18.8414 174.879 25.6555 174.879 36.3843C174.879 47.1138 182.936 54.1453 192.516 54.1453ZM192.516 46.8964C186.928 46.8964 182.282 42.7635 182.282 36.3843C182.282 30.1505 186.928 26.1631 192.516 26.1631C198.178 26.1631 202.822 30.1505 202.822 36.3843C202.822 42.7635 198.178 46.8964 192.516 46.8964ZM223.629 53.4203V41.2414C223.629 32.2522 226.315 25.873 232.701 25.873C234.153 25.873 235.822 26.0904 237.71 27.0329L238.944 20.1461C237.855 19.421 235.315 18.8414 232.919 18.8414C228.709 18.8414 225.371 21.306 223.629 27.323V19.5664H216.153V53.421H223.629V53.4203ZM250.096 53.4203V39.9958L262.689 53.4203H272.488L256.411 36.5888L272.488 19.5664H262.689L250.096 33.037V1.15308H242.693V53.4203H250.096V53.4203ZM289.992 54.1453C294.202 54.1453 299.137 52.2604 301.387 48.5632V53.4203H308.79V19.5657H301.387V24.3509C299.064 20.5089 294.056 18.8414 289.992 18.8414C280.846 18.8414 272.79 25.6555 272.79 36.457C272.79 47.2585 280.846 54.1453 289.99 54.1453H289.992ZM290.863 46.8964C285.202 46.8964 280.484 42.6195 280.484 36.3843C280.484 30.1505 285.202 26.0904 290.862 26.0904C295.943 26.0904 301.314 29.7149 301.314 36.3843C301.314 43.0537 296.379 46.8964 290.862 46.8964H290.863ZM326.984 53.4203V25.7282H334.169V19.5664H326.984V6.73526H319.508V19.5657H313.411V25.7282H319.508V53.4203H326.984V53.4203ZM353.742 54.1453C363.395 54.1453 371.524 47.1138 371.524 36.3843C371.524 25.6562 363.395 18.8414 353.742 18.8414C344.161 18.8414 336.105 25.6555 336.105 36.3843C336.105 47.1138 344.161 54.1453 353.742 54.1453V54.1453ZM353.742 46.8964C348.153 46.8964 343.508 42.7635 343.508 36.3843C343.508 30.1505 348.153 26.1631 353.742 26.1631C359.402 26.1631 364.048 30.1505 364.048 36.3843C364.048 42.7635 359.402 46.8964 353.742 46.8964Z" fill="#F3F2FF"/>
</svg>