<svg xmlns:xlink="http://www.w3.org/1999/xlink" xmlns="http://www.w3.org/2000/svg" width="268" height="65" viewBox="0 0 268 65" fill="none">
<path fill-rule="evenodd" clip-rule="evenodd" d="M211.96 28.0595L211.811 27.8555H211.994V28.0595H211.96ZM211.811 27.8555H205.056L196.825 16.6317H190.091V27.8555H184.649V0H209.171C210.838 0 211.96 1.12238 211.96 2.78895V14.0128C211.96 15.7133 210.668 16.8357 209.171 16.8357H203.729L211.811 27.8555ZM190.057 5.61191H206.518V11.4279H190.057V5.61191ZM170.602 19.0124V25.2025C170.602 26.903 169.48 28.0594 167.983 27.9574H146.114C144.617 27.9574 143.495 26.665 143.495 25.1684V2.92488C143.495 1.25831 144.617 0.135932 146.114 0.135932H167.813C169.48 0.135932 170.602 1.2243 170.602 2.92488V9.08097H165.16V5.54377H148.699V22.5836H165.16V19.0124H170.602ZM64.5527 0.170093V52.1398L52.0037 52.1397V64.69H0V12.6863H12.515V0.170093H64.5527ZM52.0024 12.6863V52.1398L12.5163 52.1397V12.6863H52.0024ZM109.821 0.170093V28.0596H104.38V9.69333L96.5229 21.2913H93.1557L85.299 9.69333V28.0596H79.8912V0.170093H85.299L94.8563 13.9788L104.584 0.170093H109.821ZM123.837 28.0596H129.245V0.170093H123.837V28.0596ZM253.284 2.92488V25.2025C253.284 26.903 252.161 28.0594 250.665 27.9574H228.625C227.129 27.9574 226.007 26.665 226.007 25.1684V2.92488C226.007 1.25831 227.129 0.135932 228.625 0.135932H250.495C252.161 0.135932 253.284 1.2243 253.284 2.92488ZM247.842 5.61179H231.38V22.6516H247.842V5.61179ZM107.168 42.2423V36.6303H79.8912V64.4858H85.299V53.4661H101.557V47.8542H85.299V42.2423H107.168ZM141.998 39.4534V61.901C141.998 63.3635 140.876 64.4859 139.413 64.4859H117.51C116.013 64.4859 114.891 63.1934 114.891 61.6969V39.4534C114.891 37.7868 116.013 36.6644 117.51 36.6644H139.209C140.876 36.6644 141.998 37.7528 141.998 39.4534ZM136.556 42.2423H120.299H120.095V59.2481H136.556V42.2423ZM179.207 61.901V55.7449H173.765V59.2821H157.303V42.2763H173.799V45.8475H179.241V39.6574C179.241 37.9909 178.118 36.8685 176.452 36.8685H154.548C153.052 36.8685 151.929 37.9909 151.929 39.6574V61.935C151.929 63.4315 153.052 64.7239 154.548 64.7239H176.418C177.88 64.4859 179.207 63.3635 179.207 61.901ZM216.244 36.6644V61.901C216.244 63.3635 215.122 64.4859 213.421 64.5199H191.552C190.056 64.5199 188.933 63.2275 188.933 61.7309V36.6644H194.341V59.1121H210.803V36.6644H216.244ZM253.284 61.901V50.8472C253.284 49.3507 252.162 48.0583 250.495 48.0583H231.415V42.2763H247.876V45.2693H253.284V39.6574C253.284 37.9909 252.162 36.8685 250.495 36.8685H228.626C227.129 36.8685 226.007 37.9909 226.007 39.6574V50.7112C226.007 52.2077 227.129 53.5001 228.626 53.5001H247.706V59.2821H231.245V56.4931H225.803V62.1051C225.803 63.6016 226.925 64.894 228.422 64.894H250.291C252.162 64.4859 253.284 63.3635 253.284 61.901ZM257.432 5.54387C257.432 8.36683 259.677 10.6116 262.466 10.6116C265.255 10.6116 267.5 8.36683 267.5 5.54387C267.5 2.72091 265.255 0.476151 262.466 0.476151C259.677 0.476151 257.432 2.72091 257.432 5.54387ZM257.772 5.6119C257.772 2.99301 259.847 0.918301 262.466 0.918301C265.051 0.918301 266.922 2.95899 266.956 5.6119C266.956 8.02672 265.085 10.1014 262.466 10.1014C259.847 10.1014 257.772 8.23079 257.772 5.6119ZM262.466 5.95201L263.758 8.74096H264.541L263.248 5.95201C264.167 5.74794 264.541 5.20376 264.541 4.25143C264.541 2.95899 263.963 2.3808 262.466 2.3808H260.595V8.74096H261.344V5.95201H262.466ZM262.432 5.20376H261.48V2.95899H262.432C263.35 2.95899 263.724 3.33312 263.724 4.08138C263.724 4.82963 263.384 5.20376 262.432 5.20376Z" fill="#F3F2FF"/>
</svg>