<svg xmlns:xlink="http://www.w3.org/1999/xlink" xmlns="http://www.w3.org/2000/svg" width="258" height="89" viewBox="0 0 258 89" fill="none">
<path fill-rule="evenodd" clip-rule="evenodd" d="M237.276 9.73536V24.2907H247.012V0H222.721V9.73536H237.276ZM232.409 14.5553H222.721V24.2668H232.409V14.5553ZM0 9.73531H14.5553V24.3002H0V9.73531ZM118.497 54.2603C118.497 51.9696 118.402 46.052 115.061 42.0434C110.146 36.3167 101.461 35.6486 97.3565 35.6486C93.2524 35.6486 86.8098 36.4121 82.2762 39.6572C77.7426 42.9024 76.7881 48.7245 76.645 51.3969H90.9617C90.8553 49.8455 91.2213 48.2981 92.0116 46.9588C92.6426 46.0851 93.4757 45.3771 94.4396 44.8951C95.4036 44.4132 96.4698 44.1715 97.5474 44.1909C98.9313 44.1909 102.749 44.7158 104.038 48.3427C104.61 50.1084 104.706 51.6833 104.706 54.9284C99.8858 54.9284 91.1526 54.9284 85.0441 57.6963C75.8814 61.9436 74.4975 69.1974 74.4975 73.1583C74.4502 77.2308 76.0107 81.1575 78.8402 84.0868C80.7968 85.9479 84.0419 88 91.248 88C93.9682 88 100.602 88 106.09 80.0304C106.06 82.2986 106.22 84.5653 106.567 86.8069H119.786C118.934 82.6629 118.534 78.4386 118.593 74.2082L118.497 54.2603ZM101.986 75.6876C101.212 76.5756 100.259 77.2897 99.19 77.7832C98.1208 78.2767 96.9592 78.5384 95.7816 78.551C90.9617 78.551 88.671 74.8286 88.671 71.4881C88.671 65.5705 95.3521 62.6117 104.706 63.3753C104.706 68.7202 104.515 72.538 101.986 75.6876ZM188.695 28.4425L203.155 24.4816V37.0325H214.943V46.6725H203.155V69.4837L203.158 69.6078C203.251 74.0695 203.31 76.8807 209.741 76.8807C211.384 76.8903 213.026 76.7946 214.656 76.5944V86.1389C210.969 87.1459 207.168 87.6752 203.346 87.7137C188.695 87.7137 188.695 78.4556 188.695 74.3037V46.6725H179.151V37.0325H188.695V28.4425ZM14.5553 37.0325H0V86.8307H14.5553V37.0325ZM48.1988 70.7722L59.6045 37.0325H73.6826L55.739 86.8069H39.5611L21.3312 37.0325H36.9841L48.1988 70.7722ZM172.614 45.0977C171.325 41.6617 167.173 35.7442 157.438 35.7442C146.637 35.7442 142.715 42.101 141.32 44.3618L141.308 44.3819L140.926 37.0327H126.943C127.23 40.4687 127.23 45.7659 127.23 45.9567V86.8071H141.88V57.6964C141.88 53.8309 142.787 51.3971 143.646 50.1086C144.506 48.9043 145.647 47.9275 146.969 47.2623C148.29 46.5972 149.754 46.2638 151.234 46.2908C152.696 46.2412 154.142 46.6101 155.402 47.354C156.661 48.098 157.682 49.1861 158.345 50.4904C159.108 52.0652 159.108 53.8309 159.108 55.9307V86.8071H173.95V59.9394C173.95 50.6813 173.664 48.152 172.614 45.0977ZM222.721 37.0325H237.276V86.8307H222.721V37.0325Z" fill="#F3F2FF"/>
</svg>