<svg xmlns:xlink="http://www.w3.org/1999/xlink" xmlns="http://www.w3.org/2000/svg" width="171" height="43" viewBox="0 0 171 43" fill="none">
<mask id="mask0_533_1656" style="mask-type:alpha" maskUnits="userSpaceOnUse" x="0" y="0" width="171" height="43">
<rect x="0.984375" y="0.5" width="170" height="42" fill="#D9D9D9"/>
</mask>
<g mask="url(#mask0_533_1656)">
<path fill-rule="evenodd" clip-rule="evenodd" d="M54.9961 26.0096V35.7342H49.6907V28.1671C49.6907 25.2498 48.707 24.2469 47.2465 24.2469C45.0707 24.2469 43.9679 25.7664 43.9679 29.1093V35.7038H38.6923V13.3979C38.6923 13.3979 42.5967 13.3979 42.8651 13.3979C43.4911 13.3979 43.9679 13.7018 43.9679 14.5831C43.9679 14.887 43.9679 22.4539 43.9679 22.4539H44.0276C45.16 20.8432 46.8292 19.8101 49.1244 19.8101C53.327 19.8101 54.9961 22.7881 54.9961 26.0096ZM26.9784 28.1063C26.9784 25.4016 28.7669 23.8215 31.0618 23.8215C31.956 23.8215 32.7011 23.9431 33.3869 24.2165C33.5358 24.2773 33.655 24.3381 33.7741 24.3685C33.804 24.3685 33.804 24.3685 33.8338 24.3685C34.132 24.3685 34.3703 24.1253 34.3703 23.8519V20.6002C33.2376 20.0837 31.8965 19.8405 30.436 19.8405C25.3689 19.8405 21.4645 22.7881 21.4645 27.9849C21.4645 33.1511 25.339 36.1291 30.4062 36.1291C31.7772 36.1291 33.3272 35.8859 34.6387 35.491V31.4187C33.7445 31.9051 32.5522 32.1785 31.3302 32.1785C29.0649 32.1785 26.9784 30.5984 26.9784 28.1063ZM80.1524 19.8101C77.9766 19.8101 75.9498 20.7218 74.7276 22.7881C73.8931 20.7522 72.1347 19.8101 69.929 19.8101C67.6935 19.8101 65.9945 20.6306 64.2062 22.4235C64.2062 22.4235 63.8784 22.8185 63.5504 22.8185C63.3417 22.8185 63.1629 22.7275 63.0139 22.6059L60.8978 20.4482C60.7488 20.2962 60.5401 20.205 60.3016 20.205C59.8248 20.205 59.4671 20.6002 59.4671 21.056V35.795H64.7427V29.2005C64.7427 25.8576 65.8754 24.3381 67.753 24.3381C69.2433 24.3381 69.8395 25.6448 69.8395 27.4073V35.795H75.1151V29.2005C75.1151 25.8576 76.2179 24.3381 78.1256 24.3381C79.6159 24.3381 80.2417 25.6448 80.2417 27.4073V35.795H85.5176V26.6174C85.5474 22.3323 84.5637 19.8101 80.1524 19.8101ZM17.9473 21.4814V34.5488C17.9473 35.0048 17.5897 35.3998 17.1126 35.3998C16.8741 35.3998 16.6657 35.2782 16.5165 35.1568L15.7118 34.3362C15.5628 34.1842 15.3542 34.093 15.1455 34.093C14.9368 34.093 14.758 34.1842 14.609 34.3058C13.2975 35.5518 11.8669 36.1595 9.92935 36.1595C5.51812 36.1595 1.94141 32.5129 1.94141 28.0151C1.94141 23.5175 5.54794 19.8709 9.95919 19.8709C11.8967 19.8709 13.2975 20.4786 14.6388 21.7246C14.7878 21.8462 14.9667 21.9374 15.1753 21.9374C15.384 21.9374 15.5925 21.8462 15.7417 21.6942L16.5463 20.8736C16.6953 20.7218 16.8741 20.6306 17.1425 20.6306C17.5897 20.6306 17.9473 21.0256 17.9473 21.4814ZM13.5955 27.9849C13.5955 25.9488 12.0755 24.3077 10.1977 24.3077C8.3199 24.3077 6.7998 25.9488 6.7998 27.9849C6.7998 30.0208 8.3199 31.6619 10.1977 31.6619C12.0755 31.6619 13.5955 30.0208 13.5955 27.9849ZM124.385 21.4814V34.5488C124.385 35.0048 124.027 35.3998 123.55 35.3998C123.312 35.3998 123.103 35.2782 122.954 35.1568L122.179 34.3362C122.03 34.1842 121.821 34.093 121.613 34.093C121.404 34.093 121.195 34.1842 121.076 34.3058C119.765 35.5518 118.334 36.1595 116.426 36.1595C111.985 36.1595 108.438 32.5129 108.438 28.0151C108.438 23.5175 112.045 19.8709 116.456 19.8709C118.364 19.8709 119.794 20.4786 121.106 21.7246C121.255 21.8462 121.434 21.9374 121.642 21.9374C121.851 21.9374 122.06 21.8462 122.209 21.6942L122.984 20.8736C123.133 20.7218 123.341 20.6306 123.58 20.6306C124.027 20.6306 124.385 21.0256 124.385 21.4814ZM120.003 27.9849C120.003 25.9488 118.483 24.3077 116.635 24.3077C114.757 24.3077 113.237 25.9488 113.237 27.9849C113.237 30.0208 114.757 31.6619 116.635 31.6619C118.483 31.6619 120.003 30.0208 120.003 27.9849ZM105.19 28.5927V29.5954H94.6978C94.9958 31.7531 96.6053 32.5737 99.1686 32.5737C100.599 32.5737 102.209 32.2393 103.818 31.3883V35.187C102.09 35.8859 100.182 36.1595 98.2446 36.1595C93.2373 36.1595 89.422 33.1815 89.422 28.0151C89.422 22.8793 92.82 19.8709 97.5591 19.8709C103.133 19.8709 105.19 23.9735 105.19 28.5927ZM100.301 25.888C100.122 24.3989 99.2581 23.2745 97.4101 23.2745C95.7409 23.2745 94.8468 24.4293 94.5784 25.9184C94.519 26.283 94.7274 26.5566 95.1149 26.5566H99.7647C100.122 26.5566 100.361 26.3438 100.301 25.888ZM155.234 12C151.448 12 147.842 13.246 145.249 15.6467C144.951 15.9202 144.593 16.0722 144.176 16.0722C143.729 16.0722 143.341 15.8898 143.073 15.6163L141.314 13.8234C141.136 13.641 140.867 13.5195 140.569 13.5195C140.003 13.5195 139.526 14.0057 139.526 14.5831V41.4169C139.526 42.0247 140.003 42.4805 140.569 42.4805C140.867 42.4805 141.106 42.3591 141.314 42.1767L143.073 40.3838C143.371 40.1102 143.759 39.9278 144.176 39.9278C144.593 39.9278 144.951 40.0798 145.249 40.3534C147.842 42.7845 151.419 44 155.234 44C163.907 44 170.941 36.8281 170.941 27.9849C170.912 19.1719 163.878 12 155.234 12ZM154.727 18.1083C157.082 18.1083 159.317 18.8679 160.897 20.357C161.076 20.509 161.284 20.6306 161.553 20.6306C161.821 20.6306 162.059 20.509 162.238 20.357L163.341 19.2631C163.46 19.1415 163.609 19.0807 163.788 19.0807C164.146 19.0807 164.444 19.3847 164.444 19.7493V36.3419C164.444 36.7065 164.146 37.0105 163.788 37.0105C163.609 37.0105 163.46 36.9497 163.341 36.8281L162.238 35.7342C162.059 35.5518 161.821 35.4606 161.553 35.4606C161.314 35.4606 161.076 35.5518 160.897 35.7342C159.287 37.2231 157.052 37.9829 154.727 37.9829C149.362 37.9829 145.01 33.5461 145.01 28.0759C145.04 22.5147 149.362 18.1083 154.727 18.1083ZM154.965 32.2697C157.141 32.2697 158.9 30.3552 158.9 27.9849C158.9 25.6448 157.141 23.6999 154.965 23.6999C152.79 23.6999 151.031 25.6144 151.031 27.9849C151.031 30.3552 152.79 32.2697 154.965 32.2697Z" fill="#F3F2FF"/>
</g>
</svg>