<svg xmlns="http://www.w3.org/2000/svg" xmlns:xlink="http://www.w3.org/1999/xlink" version="1.1" id="Laag_1" x="0px" y="0px" viewBox="0 0 264 125" style="enable-background:new 0 0 264 125;" xml:space="preserve" width="264"  height="125" >
<style type="text/css">
	.st0{fill:none;}
	.st1{fill:#FFFFFF;}
</style>
<g id="Laag_1_1_">
	<g>
		<rect y="0" class="st0" width="314" height="125"/>
	</g>
</g>
<g id="Isolatiemodus">
	<g>
		<path class="st1" d="M61.7,62.4h0.5l0.1,0.4c0.2,0.8,0.7,1.2,1.9,1.2s2-0.7,2-1.6c0-0.6-0.4-1.2-1.3-1.7l-1.5-0.9    c-1-0.6-1.4-1.3-1.4-2.4c0-1.5,1.4-2.7,3.2-2.7c0.9,0,1.6,0.1,2.2,0.4l-0.1,2.2h-0.4L66.8,57c-0.2-1-0.6-1.3-1.7-1.3    s-1.8,0.7-1.8,1.5c0,0.6,0.3,1.1,1.2,1.6l1.5,0.8c1.1,0.6,1.6,1.4,1.6,2.4c0,1.6-1.6,3-3.4,3c-1,0-1.7-0.1-2.4-0.3L61.7,62.4    L61.7,62.4z"/>
		<path class="st1" d="M68.8,62.4h0.4l0.1,0.4c0.2,0.8,0.7,1.2,1.9,1.2c1.2,0,2-0.7,2-1.6c0-0.6-0.4-1.2-1.3-1.7l-1.5-0.9    c-0.9-0.6-1.4-1.3-1.4-2.4c0-1.5,1.4-2.7,3.2-2.7c0.9,0,1.6,0.1,2.2,0.4l-0.1,2.2h-0.4L73.8,57c-0.2-1-0.6-1.3-1.7-1.3    s-1.8,0.7-1.8,1.5c0,0.6,0.3,1.1,1.2,1.6l1.5,0.8c1.1,0.6,1.6,1.4,1.6,2.4c0,1.6-1.6,3-3.4,3c-1,0-1.7-0.1-2.4-0.3L68.8,62.4    L68.8,62.4z"/>
		<path class="st1" d="M80.6,54.7c1.1,0,1.8,0.1,2.3,0.4l-0.1,2.2h-0.4L82.3,57c-0.2-1-0.7-1.3-1.8-1.3c-1.5,0-3,1.5-3,4.2    c0,2.9,1.4,4.1,2.9,4.1c1.2,0,1.7-0.4,2.1-1.2l0.2-0.4H83l-0.2,2.1c-0.6,0.3-1.5,0.5-2.7,0.5c-2.2,0-4.2-1.7-4.2-4.9    C76,56.9,78.2,54.7,80.6,54.7z"/>
		<path class="st1" d="M84.5,60l3.6-0.2L87.9,61l-3.7,0.2L84.5,60z"/>
		<path class="st1" d="M89.3,64.5c0.5-0.2,0.9-0.4,0.9-1.2v-7.6l-1-0.2V55c0.6-0.2,1.2-0.2,1.8-0.2c0.6,0,1,0,1.4,0.2v0.3    c-0.7,0.2-0.9,0.5-0.9,1.1V64l1,0.2v0.3c-0.5,0.2-1.1,0.3-1.8,0.3c-0.6,0-1-0.1-1.4-0.2V64.5z"/>
		<path class="st1" d="M98.6,54.7c1.1,0,1.8,0.1,2.3,0.4l-0.1,2.2h-0.4l-0.1-0.3c-0.2-1-0.7-1.3-1.8-1.3c-1.5,0-3,1.5-3,4.2    c0,2.9,1.4,4.1,2.9,4.1c1.2,0,1.7-0.4,2.1-1.2l0.2-0.4h0.4l-0.2,2.1c-0.6,0.3-1.5,0.5-2.7,0.5C96,65,94,63.3,94,60.1    C94,56.9,96.2,54.7,98.6,54.7z"/>
		<path class="st1" d="M103.8,64.5c0.6-0.2,0.9-0.5,0.9-1.1v-7.6h-1.2c-0.7,0-1.1,0.4-1.2,1l-0.1,0.4h-0.5v-2.3c1.1,0,2.8,0,3.7,0    c1.4,0,2.4,0,3.5-0.1v2.3h-0.5l-0.1-0.4c-0.1-0.7-0.4-1-1-1H106V64l1.2,0.2v0.3c-0.6,0.2-1.1,0.3-1.9,0.3c-0.7,0-1.1,0-1.5-0.2    L103.8,64.5L103.8,64.5z"/>
		<path class="st1" d="M61.2,82.1c0.3-0.1,0.5-0.3,0.5-0.6l1.9-8.3L62.8,73v-0.4c0.4-0.1,1.1-0.2,1.6-0.2h0.5l1.4,7.4l0,0l2.6-7.4    h0.4c0.4,0,1,0,1.5,0.1v0.4L70,73.1l0.4,8.6l0.8,0.2v0.3c-0.5,0.2-0.8,0.2-1.3,0.2c-0.6,0-1-0.1-1.4-0.2v-0.3    c0.3-0.1,0.5-0.3,0.5-0.8v-6.7l0,0l-2.8,8.1h-0.5l-1.5-8.1l0,0l-1.5,7.3l0.9,0.2v0.3c-0.4,0.2-0.8,0.2-1.3,0.2    c-0.4,0-0.8-0.1-1.1-0.2V82.1L61.2,82.1z"/>
		<path class="st1" d="M72.5,79.7l0.5-3.2l0.1-0.9l-0.9-0.3V75c0.5-0.2,1-0.3,1.6-0.3c0.3,0,0.5,0,0.7,0.1l-0.7,4.6    c-0.1,0.5-0.1,1.3-0.1,1.7c0,0.5,0.2,0.7,0.6,0.9v0.3c-0.3,0.1-0.7,0.2-1.2,0.2s-0.7-0.3-0.7-0.7C72.3,81.3,72.4,80.4,72.5,79.7z     M73.2,72.6c0-0.5,0.4-1,0.9-1c0.4,0,0.7,0.3,0.7,0.7c0,0.5-0.4,1-0.9,1C73.5,73.3,73.2,73,73.2,72.6z"/>
		<path class="st1" d="M76.5,75.7l-0.9-0.3v-0.3c0.5-0.2,1-0.3,1.5-0.3c0.2,0,0.4,0,0.6,0.1l-0.5,2.4l0,0c0.7-1.6,1.7-2.5,2.8-2.5    c0.7,0,1.2,0.5,1.2,1.4c0,0.5-0.1,1.3-0.2,1.9l-0.3,1.7c-0.1,0.4-0.1,1-0.1,1.3c0,0.5,0.2,0.7,0.7,0.8v0.3    c-0.4,0.2-0.8,0.3-1.2,0.3s-0.8-0.3-0.8-0.7c0-0.4,0.1-1.2,0.2-1.6l0.3-1.8c0.1-0.5,0.2-1.2,0.2-1.6c0-0.7-0.3-0.9-0.7-0.9    c-0.9,0-2.1,1.7-2.2,3.9L77,82.4h-1.3L76.5,75.7z"/>
		<path class="st1" d="M83,79.7l0.5-3.2l0.1-0.9l-0.9-0.3V75c0.5-0.2,1-0.3,1.6-0.3c0.3,0,0.5,0,0.7,0.1l-0.7,4.6    c-0.1,0.5-0.1,1.3-0.1,1.7c0,0.5,0.2,0.7,0.6,0.9v0.3c-0.3,0.1-0.7,0.2-1.2,0.2s-0.7-0.3-0.7-0.7C82.7,81.3,82.9,80.4,83,79.7z     M83.7,72.6c0-0.5,0.4-1,0.9-1c0.4,0,0.7,0.3,0.7,0.7c0,0.5-0.4,1-0.9,1C84,73.3,83.7,73,83.7,72.6z"/>
		<path class="st1" d="M85.6,81c0.4,0.4,0.9,0.7,1.5,0.7c0.7,0,1.3-0.4,1.3-1.1c0-0.5-0.2-0.8-1-1.5l-0.5-0.5    c-0.7-0.7-0.9-1.1-0.9-1.8c0-1,1-2.1,2.4-2.1c1.1,0,1.7,0.3,1.7,0.8c0,0.3-0.1,0.6-0.3,0.8c-0.4-0.5-1.1-0.8-1.7-0.8    c-0.7,0-1,0.4-1,0.9c0,0.4,0.2,0.7,1,1.4l0.6,0.5c0.7,0.7,1,1.1,1,1.8c0,1.2-1.2,2.3-2.9,2.3c-1,0-1.4-0.3-1.4-0.9    C85.4,81.4,85.5,81.2,85.6,81z"/>
		<path class="st1" d="M91.6,76.9l0.2-1c-0.3,0-0.5,0-0.9-0.1v-0.2c0.5-0.7,1.3-1.4,2.1-1.9h0.2L93,75h0.4c0.4,0,0.8,0,1.2-0.1    c0,0.7-0.4,1-1.3,1h-0.4l-0.3,1.6c-0.1,0.7-0.3,2-0.3,2.7c0,1,0.5,1.5,1.2,1.5c0.2,0,0.4,0,0.6-0.1v0.3c-0.1,0.4-0.7,0.7-1.4,0.7    c-1,0-1.6-0.7-1.6-1.9C91.1,79.7,91.3,78.1,91.6,76.9z"/>
		<path class="st1" d="M98.1,74.8c1.1,0,1.7,0.5,1.7,1.6c0,1.8-1.9,2.9-3.7,2.9c0,1.9,0.5,2.3,1.4,2.3c0.6,0,1.4-0.3,1.7-0.8    c0.1,0.1,0.2,0.2,0.2,0.4c0,0.7-1,1.4-2.2,1.4c-1.3,0-2.2-0.8-2.2-2.7C94.8,76.4,96.6,74.8,98.1,74.8z M98.5,76.6    c0-0.7-0.3-1-0.7-1c-0.7,0-1.7,1.2-1.7,3C97.5,78.6,98.5,77.8,98.5,76.6z"/>
		<path class="st1" d="M101.3,75.7l-0.9-0.3v-0.3c0.5-0.2,1-0.3,1.5-0.3c0.2,0,0.4,0,0.7,0.1l-0.5,2.2l0,0l0.8-1.4    c0.4-0.7,0.8-1,1.3-1c0.3,0,0.5,0.2,0.5,0.6c0,0.2-0.1,0.6-0.2,0.8c-0.2-0.1-0.3-0.1-0.5-0.1c-1,0-1.9,1.1-2.1,3.9l-0.1,2.3h-1.3    L101.3,75.7z"/>
		<path class="st1" d="M105.2,79.7l0.5-3.2l0.1-0.9l-0.9-0.3V75c0.5-0.2,1-0.3,1.6-0.3c0.3,0,0.5,0,0.7,0.1l-0.7,4.6    c-0.1,0.5-0.1,1.3-0.1,1.7c0,0.5,0.2,0.7,0.6,0.9v0.3c-0.3,0.1-0.7,0.2-1.2,0.2s-0.7-0.3-0.7-0.7C105,81.3,105.2,80.4,105.2,79.7z     M106,72.6c0-0.5,0.4-1,0.9-1c0.4,0,0.7,0.3,0.7,0.7c0,0.5-0.4,1-0.9,1C106.3,73.3,106,73,106,72.6z"/>
		<path class="st1" d="M111.5,74.8c1.1,0,1.7,0.5,1.7,1.6c0,1.8-1.9,2.9-3.7,2.9c0,1.9,0.5,2.3,1.4,2.3c0.6,0,1.4-0.3,1.7-0.8    c0.1,0.1,0.2,0.2,0.2,0.4c0,0.7-1,1.4-2.2,1.4c-1.3,0-2.2-0.8-2.2-2.7C108.2,76.4,110,74.8,111.5,74.8z M111.9,76.6    c0-0.7-0.3-1-0.7-1c-0.7,0-1.7,1.2-1.7,3C110.9,78.6,111.9,77.8,111.9,76.6z"/>
		<path class="st1" d="M116.6,75.6l-0.7-0.3V75c0.5-0.2,0.8-0.2,1.3-0.2c0.2,0,0.4,0,0.6,0.1l0.3,6.3l0,0c1.1-1.4,1.9-3.5,1.9-5.1    c0-0.4-0.2-0.7-0.6-0.8V75c0.3-0.1,0.6-0.2,1-0.2c0.5,0,0.8,0.3,0.8,0.9c0,1.6-1.5,4.9-3,6.3c-0.3,0.3-0.5,0.4-0.8,0.6h-0.3    L116.6,75.6z"/>
		<path class="st1" d="M122,79.8c0-3.2,1.8-5,3.9-5c0.5,0,1.2,0.1,1.7,0.2l-0.5,2.7c-0.2,0.8-0.3,2.2-0.4,2.9c0,1,0.2,1.2,0.7,1.3    v0.3c-0.4,0.1-0.9,0.2-1.4,0.2c-0.2,0-0.4-0.1-0.7-0.1l0.4-2.3l0,0c-0.6,1.5-1.6,2.5-2.4,2.5C122.7,82.6,122,81.6,122,79.8z     M125.9,78.3l0.4-2.6c-0.2-0.1-0.6-0.1-0.8-0.1c-1.3,0-2.3,1.3-2.3,3.9c0,1.3,0.4,1.9,0.8,1.9C124.6,81.5,125.5,80.5,125.9,78.3z"/>
		<path class="st1" d="M129.6,75.7l-0.9-0.3v-0.3c0.5-0.2,1-0.3,1.5-0.3c0.2,0,0.4,0,0.6,0.1l-0.5,2.4l0,0c0.7-1.6,1.7-2.5,2.8-2.5    c0.7,0,1.2,0.5,1.2,1.4c0,0.5-0.1,1.3-0.2,1.9l-0.3,1.7c-0.1,0.4-0.1,1-0.1,1.3c0,0.5,0.2,0.7,0.7,0.8v0.3    c-0.4,0.2-0.8,0.3-1.2,0.3s-0.8-0.3-0.8-0.7c0-0.4,0.1-1.2,0.2-1.6l0.3-1.8c0.1-0.5,0.1-1.2,0.1-1.6c0-0.7-0.3-0.9-0.7-0.9    c-0.9,0-2.1,1.7-2.2,3.9l-0.1,2.6h-1.3L129.6,75.7z"/>
		<path class="st1" d="M137.9,82.1c0.3-0.1,0.6-0.4,0.6-0.8l0.9-8l-0.8-0.2v-0.3c0.9-0.2,2-0.2,3.1-0.2c1.9,0,2.9,0.8,2.9,2.1    c0,1.3-1,2.4-2.4,2.7l0,0c1.3,0,2.3,0.9,2.3,2.1c0,1.9-1.7,3.2-4.2,3.2c-1,0-1.7,0-2.3-0.2L137.9,82.1L137.9,82.1z M140.7,81.7    c1.4,0,2.4-0.9,2.4-2.1s-0.8-1.8-2.9-1.8l-0.5,3.9C140,81.6,140.4,81.7,140.7,81.7z M143.2,74.6c0-0.9-0.7-1.5-1.8-1.5    c-0.3,0-0.4,0-0.7,0l-0.4,3.8C142.1,77,143.2,76.1,143.2,74.6z"/>
		<path class="st1" d="M146.1,79.7l0.5-3.2l0.1-0.9l-0.9-0.3V75c0.5-0.2,1-0.3,1.6-0.3c0.3,0,0.5,0,0.7,0.1l-0.7,4.6    c-0.1,0.5-0.1,1.3-0.1,1.7c0,0.5,0.2,0.7,0.6,0.9v0.3c-0.3,0.1-0.7,0.2-1.2,0.2s-0.7-0.3-0.7-0.7C145.9,81.3,146,80.4,146.1,79.7z     M146.9,72.6c0-0.5,0.4-1,0.9-1c0.4,0,0.7,0.3,0.7,0.7c0,0.5-0.4,1-0.9,1C147.1,73.3,146.9,73,146.9,72.6z"/>
		<path class="st1" d="M150.1,75.7l-0.9-0.3v-0.3c0.5-0.2,1-0.3,1.5-0.3c0.2,0,0.4,0,0.6,0.1l-0.5,2.4l0,0c0.7-1.6,1.7-2.5,2.8-2.5    c0.7,0,1.2,0.5,1.2,1.4c0,0.5-0.1,1.3-0.2,1.9l-0.3,1.7c-0.1,0.4-0.1,1-0.1,1.3c0,0.5,0.2,0.7,0.7,0.8v0.3    c-0.4,0.2-0.8,0.3-1.2,0.3s-0.8-0.3-0.8-0.7c0-0.4,0.1-1.2,0.2-1.6l0.3-1.8c0.1-0.5,0.1-1.2,0.1-1.6c0-0.7-0.3-0.9-0.7-0.9    c-0.9,0-2.1,1.7-2.2,3.9l-0.1,2.6h-1.3L150.1,75.7z"/>
		<path class="st1" d="M157.1,75.7l-0.9-0.3v-0.3c0.5-0.2,1-0.3,1.5-0.3c0.2,0,0.4,0,0.6,0.1l-0.5,2.4l0,0c0.7-1.6,1.7-2.5,2.8-2.5    c0.7,0,1.2,0.5,1.2,1.4c0,0.5-0.1,1.3-0.2,1.9l-0.3,1.7c-0.1,0.4-0.1,1-0.1,1.3c0,0.5,0.2,0.7,0.7,0.8v0.3    c-0.4,0.2-0.8,0.3-1.2,0.3s-0.8-0.3-0.8-0.7c0-0.4,0.1-1.2,0.2-1.6l0.3-1.8c0.1-0.5,0.1-1.2,0.1-1.6c0-0.7-0.3-0.9-0.7-0.9    c-0.9,0-2.1,1.7-2.2,3.9l-0.1,2.6h-1.3L157.1,75.7z"/>
		<path class="st1" d="M166.4,74.8c1.1,0,1.7,0.5,1.7,1.6c0,1.8-1.9,2.9-3.7,2.9c0,1.9,0.5,2.3,1.4,2.3c0.6,0,1.4-0.3,1.7-0.8    c0.1,0.1,0.1,0.2,0.1,0.4c0,0.7-1,1.4-2.2,1.4c-1.3,0-2.2-0.8-2.2-2.7C163.2,76.4,164.9,74.8,166.4,74.8z M166.9,76.6    c0-0.7-0.3-1-0.7-1c-0.7,0-1.7,1.2-1.7,3C165.9,78.6,166.9,77.8,166.9,76.6z"/>
		<path class="st1" d="M169.7,75.7l-0.9-0.3v-0.3c0.5-0.2,1-0.3,1.5-0.3c0.2,0,0.4,0,0.6,0.1l-0.5,2.4l0,0c0.7-1.6,1.7-2.5,2.8-2.5    c0.7,0,1.2,0.5,1.2,1.4c0,0.5-0.1,1.3-0.2,1.9l-0.3,1.7c-0.1,0.4-0.1,1-0.1,1.3c0,0.5,0.2,0.7,0.7,0.8v0.3    c-0.4,0.2-0.8,0.3-1.2,0.3s-0.8-0.3-0.8-0.7c0-0.4,0.1-1.2,0.2-1.6l0.3-1.8c0.1-0.5,0.1-1.2,0.1-1.6c0-0.7-0.3-0.9-0.7-0.9    c-0.9,0-2.1,1.7-2.2,3.9l-0.1,2.6h-1.3L169.7,75.7z"/>
		<path class="st1" d="M176.2,79.7l1.1-7.7l-1-0.3v-0.3c0.5-0.2,1-0.2,1.6-0.2c0.3,0,0.5,0,0.7,0.1l-1.2,8.1    c-0.1,0.5-0.1,1.2-0.1,1.7s0.2,0.7,0.7,0.9v0.3c-0.3,0.1-0.7,0.2-1.2,0.2s-0.8-0.3-0.8-0.7C176,81.3,176.1,80.3,176.2,79.7z"/>
		<path class="st1" d="M179.2,79.8c0-3.2,1.8-5,3.9-5c0.5,0,1.2,0.1,1.7,0.2l-0.5,2.7c-0.2,0.8-0.3,2.2-0.4,2.9c0,1,0.2,1.2,0.7,1.3    v0.3c-0.4,0.1-0.9,0.2-1.4,0.2c-0.2,0-0.4-0.1-0.6-0.1L183,80l0,0c-0.6,1.5-1.6,2.5-2.4,2.5C179.9,82.6,179.2,81.6,179.2,79.8z     M183.1,78.3l0.4-2.6c-0.2-0.1-0.6-0.1-0.8-0.1c-1.3,0-2.3,1.3-2.3,3.9c0,1.3,0.4,1.9,0.8,1.9C181.8,81.5,182.7,80.5,183.1,78.3z"/>
		<path class="st1" d="M186.8,75.7l-0.9-0.3v-0.3c0.5-0.2,1-0.3,1.5-0.3c0.2,0,0.4,0,0.6,0.1l-0.5,2.4l0,0c0.7-1.6,1.7-2.5,2.8-2.5    c0.7,0,1.2,0.5,1.2,1.4c0,0.5-0.1,1.3-0.2,1.9l-0.3,1.7c-0.1,0.4-0.1,1-0.1,1.3c0,0.5,0.2,0.7,0.7,0.8v0.3    c-0.4,0.2-0.8,0.3-1.2,0.3s-0.8-0.3-0.8-0.7c0-0.4,0.1-1.2,0.2-1.6l0.3-1.8c0.1-0.5,0.1-1.2,0.1-1.6c0-0.7-0.3-0.9-0.7-0.9    c-0.9,0-2.1,1.7-2.2,3.9l-0.1,2.6H186L186.8,75.7z"/>
		<path class="st1" d="M192.8,79.8c0-3.1,1.8-5,3.9-5c0.2,0,0.4,0,0.6,0l0.4-2.8l-1-0.3v-0.3c0.5-0.2,1-0.2,1.6-0.2    c0.3,0,0.5,0,0.7,0.1l-1.1,6.4c-0.1,0.7-0.3,2.4-0.3,3c0,1,0.2,1.2,0.7,1.3v0.3c-0.5,0.2-0.9,0.2-1.4,0.2c-0.3,0-0.5-0.1-0.6-0.1    l0.4-2.3l0,0c-0.6,1.4-1.6,2.5-2.4,2.5C193.6,82.6,192.8,81.7,192.8,79.8z M196.7,78.3l0.4-2.6c-0.2-0.1-0.5-0.1-0.7-0.1    c-1.3,0-2.4,1.2-2.4,3.9c0,1.3,0.4,1.9,0.8,1.9C195.4,81.5,196.4,80.5,196.7,78.3z"/>
		<path class="st1" d="M199.1,81c0.4,0.4,0.9,0.7,1.5,0.7c0.7,0,1.3-0.4,1.3-1.1c0-0.5-0.2-0.8-1-1.5l-0.5-0.5    c-0.7-0.7-0.9-1.1-0.9-1.8c0-1,1-2.1,2.4-2.1c1.1,0,1.7,0.3,1.7,0.8c0,0.3-0.1,0.6-0.3,0.8c-0.4-0.5-1.1-0.8-1.7-0.8    c-0.7,0-1,0.4-1,0.9c0,0.4,0.2,0.7,1,1.4l0.6,0.5c0.7,0.7,1,1.1,1,1.8c0,1.2-1.2,2.3-2.9,2.3c-1,0-1.4-0.3-1.4-0.9    C198.9,81.4,199,81.2,199.1,81z"/>
		<path class="st1" d="M207.6,74.8c1.1,0,1.7,0.5,1.7,1.6c0,1.8-1.9,2.9-3.7,2.9c0,1.9,0.5,2.3,1.4,2.3c0.6,0,1.4-0.3,1.7-0.8    c0.1,0.1,0.1,0.2,0.1,0.4c0,0.7-1,1.4-2.2,1.4c-1.3,0-2.2-0.8-2.2-2.7C204.3,76.4,206.1,74.8,207.6,74.8z M208,76.6    c0-0.7-0.3-1-0.7-1c-0.7,0-1.7,1.2-1.7,3C207,78.6,208,77.8,208,76.6z"/>
		<path class="st1" d="M211.8,82l5.1-8.7h-2.3c-0.7,0-1,0.3-1.4,1.1l-0.1,0.2h-0.5l0.3-2.1h5.6v0.3l-5.1,8.7h2.6    c0.7,0,1.1-0.3,1.4-1l0.1-0.3h0.5l-0.4,2.1h-5.9L211.8,82L211.8,82z"/>
		<path class="st1" d="M218.9,79.8c0-3.2,1.8-5,3.9-5c0.5,0,1.2,0.1,1.7,0.2l-0.5,2.7c-0.2,0.8-0.3,2.2-0.4,2.9c0,1,0.2,1.2,0.7,1.3    v0.3c-0.4,0.1-0.9,0.2-1.4,0.2c-0.2,0-0.4-0.1-0.6-0.1l0.4-2.3l0,0c-0.6,1.5-1.6,2.5-2.4,2.5C219.6,82.6,218.9,81.6,218.9,79.8z     M222.8,78.3l0.4-2.6c-0.2-0.1-0.6-0.1-0.8-0.1c-1.3,0-2.3,1.3-2.3,3.9c0,1.3,0.4,1.9,0.8,1.9C221.6,81.5,222.5,80.5,222.8,78.3z"/>
		<path class="st1" d="M226.2,78.3l0.6-6.3l-1-0.3v-0.3c0.5-0.2,0.9-0.2,1.6-0.2c0.2,0,0.5,0,0.7,0.1l-0.9,6.8l0,0l0.9-0.7    c0.6-0.5,1.5-1.8,1.7-2.7c0.8,0,1,0.2,1,0.5c0,0.6-1,1.7-2.1,2.5l-0.7,0.5l1.9,3c0.3,0.4,0.6,0.6,1,0.8v0.3    c-0.3,0.2-0.5,0.2-1,0.2s-0.9-0.2-1.3-1l-1.6-2.9l0,0l-0.3,3.8h-1.3L226.2,78.3z"/>
		<path class="st1" d="M234.7,74.8c1.1,0,1.7,0.5,1.7,1.6c0,1.8-1.9,2.9-3.7,2.9c0,1.9,0.5,2.3,1.4,2.3c0.6,0,1.4-0.3,1.7-0.8    c0.1,0.1,0.1,0.2,0.1,0.4c0,0.7-1,1.4-2.2,1.4c-1.3,0-2.2-0.8-2.2-2.7C231.4,76.4,233.2,74.8,234.7,74.8z M235.1,76.6    c0-0.7-0.3-1-0.7-1c-0.7,0-1.7,1.2-1.7,3C234.1,78.6,235.1,77.8,235.1,76.6z"/>
		<path class="st1" d="M238,75.7l-0.9-0.3v-0.3c0.5-0.2,1-0.3,1.5-0.3c0.2,0,0.4,0,0.6,0.1l-0.5,2.4l0,0c0.7-1.6,1.7-2.5,2.8-2.5    c0.7,0,1.2,0.5,1.2,1.4c0,0.5-0.1,1.3-0.2,1.9l-0.3,1.7c-0.1,0.4-0.1,1-0.1,1.3c0,0.5,0.2,0.7,0.7,0.8v0.3    c-0.4,0.2-0.8,0.3-1.2,0.3s-0.8-0.3-0.8-0.7c0-0.4,0.1-1.2,0.2-1.6l0.3-1.8c0.1-0.5,0.1-1.2,0.1-1.6c0-0.7-0.3-0.9-0.7-0.9    c-0.9,0-2.1,1.7-2.2,3.9l-0.1,2.6h-1.3L238,75.7z"/>
		<path class="st1" d="M249.8,74.8c1.1,0,1.7,0.5,1.7,1.6c0,1.8-1.9,2.9-3.7,2.9c0,1.9,0.5,2.3,1.4,2.3c0.6,0,1.4-0.3,1.7-0.8    c0.1,0.1,0.1,0.2,0.1,0.4c0,0.7-1,1.4-2.2,1.4c-1.3,0-2.2-0.8-2.2-2.7C246.5,76.4,248.3,74.8,249.8,74.8z M250.2,76.6    c0-0.7-0.3-1-0.7-1c-0.7,0-1.7,1.2-1.7,3C249.2,78.6,250.2,77.8,250.2,76.6z"/>
		<path class="st1" d="M253,75.7l-0.9-0.3v-0.3c0.5-0.2,1-0.3,1.5-0.3c0.2,0,0.4,0,0.6,0.1l-0.5,2.4l0,0c0.7-1.6,1.7-2.5,2.8-2.5    c0.7,0,1.2,0.5,1.2,1.4c0,0.5-0.1,1.3-0.2,1.9l-0.3,1.7c0,0.4-0.1,1-0.1,1.3c0,0.5,0.2,0.7,0.7,0.8v0.3c-0.4,0.2-0.8,0.3-1.2,0.3    s-0.8-0.3-0.8-0.7c0-0.4,0.1-1.2,0.2-1.6l0.3-1.8c0.1-0.5,0.2-1.2,0.2-1.6c0-0.7-0.3-0.9-0.7-0.9c-0.9,0-2.1,1.7-2.2,3.9l-0.1,2.6    h-1.3L253,75.7z"/>
		<path class="st1" d="M61.5,99.7c0.3-0.1,0.6-0.4,0.6-0.7l1-8.2l-0.9-0.2v-0.3c0.5-0.2,0.9-0.2,1.4-0.2c0.4,0,0.9,0.1,1.2,0.2v0.3    c-0.3,0.1-0.5,0.3-0.6,0.7l-1,8.2l0.9,0.2v0.3c-0.5,0.2-0.8,0.2-1.4,0.2c-0.5,0-0.9-0.1-1.2-0.2L61.5,99.7L61.5,99.7z M64,94.9    L64,94.9l1.4-1.3c1.2-1.1,1.7-2,1.7-2.6c0-0.3-0.1-0.5-0.6-0.6v-0.2c0.4-0.2,0.7-0.2,1.1-0.2s0.8,0.2,0.8,0.7c0,0.9-0.7,2-2.1,3.2    l-1.1,1l1.5,2.7c0.8,1.4,1.4,1.9,2,2v0.3c-0.4,0.3-0.7,0.3-1.1,0.3c-0.6,0-1.1-0.4-1.9-2.1L64,94.9z"/>
		<path class="st1" d="M72.6,92.3c1.3,0,2.2,0.8,2.2,2.6c0,3.3-1.8,5.2-3.3,5.2c-1.2,0-2.2-0.9-2.2-2.8    C69.2,94.1,70.9,92.3,72.6,92.3z M73.5,95.2c0-1.4-0.5-2-1.2-2c-0.8,0-1.9,1.4-1.9,3.6c0,1.8,0.6,2.4,1.3,2.4    C72.4,99.3,73.5,98,73.5,95.2z"/>
		<path class="st1" d="M76.8,93.3l-1-0.3v-0.3c0.5-0.2,1-0.3,1.5-0.3c0.2,0,0.4,0,0.6,0.1l-0.5,2.4l0,0c0.7-1.6,1.7-2.5,2.8-2.5    c0.7,0,1.2,0.5,1.2,1.4c0,0.5-0.1,1.3-0.2,1.9L81,97.4c-0.1,0.4-0.1,1-0.1,1.3c0,0.5,0.2,0.7,0.7,0.8v0.3    c-0.4,0.2-0.8,0.3-1.2,0.3s-0.8-0.3-0.8-0.7c0-0.4,0.1-1.2,0.2-1.6l0.3-1.8c0.1-0.5,0.2-1.2,0.2-1.6c0-0.7-0.3-0.9-0.7-0.9    c-0.9,0-2.1,1.7-2.2,3.9l-0.1,2.6H76L76.8,93.3z"/>
		<path class="st1" d="M83.2,97.3l0.5-3.2l0.1-0.9L82.9,93v-0.3c0.5-0.2,1-0.3,1.6-0.3c0.3,0,0.5,0,0.7,0.1l-0.7,4.6    c-0.1,0.5-0.1,1.3-0.1,1.7c0,0.5,0.2,0.7,0.6,0.9v0.3c-0.3,0.1-0.7,0.2-1.2,0.2s-0.7-0.3-0.7-0.7C83,98.9,83.2,98,83.2,97.3z     M84,90.2c0-0.5,0.4-1,0.9-1c0.4,0,0.7,0.3,0.7,0.7c0,0.5-0.4,1-0.9,1C84.3,90.9,84,90.6,84,90.2z"/>
		<path class="st1" d="M87.2,93.3L86.3,93v-0.3c0.5-0.2,1-0.3,1.5-0.3c0.2,0,0.4,0,0.6,0.1L88,94.9l0,0c0.7-1.6,1.7-2.5,2.8-2.5    c0.7,0,1.2,0.5,1.2,1.4c0,0.5-0.1,1.3-0.2,1.9l-0.3,1.7c-0.1,0.4-0.1,1-0.1,1.3c0,0.5,0.2,0.7,0.7,0.8v0.3    c-0.4,0.2-0.8,0.3-1.2,0.3s-0.8-0.3-0.8-0.7c0-0.4,0.1-1.2,0.2-1.6l0.3-1.8c0.1-0.5,0.2-1.2,0.2-1.6c0-0.7-0.3-0.9-0.7-0.9    c-0.9,0-2.1,1.7-2.2,3.9l-0.1,2.6h-1.3L87.2,93.3z"/>
		<path class="st1" d="M94,95.9l0.6-6.3l-1-0.3V89c0.5-0.2,0.9-0.2,1.6-0.2c0.2,0,0.5,0,0.7,0.1L95,95.7l0,0l0.9-0.7    c0.7-0.5,1.5-1.8,1.7-2.7c0.8,0,1,0.2,1,0.5c0,0.6-1,1.7-2.1,2.5l-0.7,0.5l1.9,3c0.3,0.4,0.6,0.6,1,0.8v0.3    c-0.3,0.2-0.5,0.2-1,0.2s-0.9-0.2-1.3-1L95,96.2l0,0l-0.3,3.8h-1.3L94,95.9z"/>
		<path class="st1" d="M100.1,93.3L99.2,93v-0.3c0.5-0.2,1-0.3,1.5-0.3c0.2,0,0.4,0,0.7,0.1l-0.5,2.2l0,0l0.8-1.4    c0.4-0.7,0.8-1,1.3-1c0.3,0,0.5,0.2,0.5,0.6c0,0.2-0.1,0.6-0.2,0.8c-0.2-0.1-0.3-0.1-0.5-0.1c-1,0-1.9,1.1-2.1,3.9l-0.1,2.3h-1.3    L100.1,93.3z"/>
		<path class="st1" d="M104,97.3l0.5-3.2l0.1-0.9l-0.9-0.3v-0.3c0.5-0.2,1-0.3,1.6-0.3c0.3,0,0.5,0,0.7,0.1l-0.7,4.6    c-0.1,0.5-0.1,1.3-0.1,1.7c0,0.5,0.2,0.7,0.6,0.9v0.3c-0.3,0.1-0.7,0.2-1.2,0.2s-0.7-0.3-0.7-0.7C103.8,98.9,103.9,98,104,97.3z     M104.8,90.2c0-0.5,0.4-1,0.9-1c0.4,0,0.7,0.3,0.7,0.7c0,0.5-0.4,1-0.9,1C105.1,90.9,104.8,90.6,104.8,90.2z"/>
		<path class="st1" d="M107.9,94.2l0.1-0.9l-1-0.3v-0.3c0.5-0.2,1-0.3,1.5-0.3c0.2,0,0.5,0,0.7,0.1l-1,8.4c-0.3,2.1-1.1,2.9-2.2,2.9    c-0.4,0-0.9-0.2-1.1-0.4v-0.3c1,0,1.8-0.6,2-2.1L107.9,94.2z M108.1,90.2c0-0.5,0.4-1,0.9-1c0.4,0,0.7,0.3,0.7,0.7    c0,0.5-0.4,1-0.9,1C108.3,90.9,108.1,90.6,108.1,90.2z"/>
		<path class="st1" d="M111,95.9l0.6-6.3l-1-0.3V89c0.5-0.2,0.9-0.2,1.6-0.2c0.2,0,0.5,0,0.7,0.1l-0.9,6.8l0,0l1-0.7    c0.7-0.5,1.5-1.8,1.7-2.7c0.8,0,1,0.2,1,0.5c0,0.6-1,1.7-2.1,2.5l-0.7,0.5l1.9,3c0.3,0.4,0.6,0.6,1,0.8v0.3    c-0.3,0.2-0.5,0.2-1,0.2s-0.9-0.2-1.3-1l-1.6-2.9l0,0l-0.3,3.8h-1.3L111,95.9z"/>
		<path class="st1" d="M116,98.6c0.4,0.4,0.9,0.7,1.5,0.7c0.7,0,1.3-0.4,1.3-1.1c0-0.5-0.2-0.8-1-1.5l-0.5-0.5    c-0.7-0.7-0.9-1.1-0.9-1.8c0-1,1-2.1,2.4-2.1c1.1,0,1.7,0.3,1.7,0.8c0,0.3-0.1,0.6-0.3,0.8c-0.4-0.5-1.1-0.8-1.7-0.8    c-0.7,0-1,0.4-1,0.9c0,0.4,0.2,0.7,1,1.4l0.6,0.5c0.7,0.7,1,1.1,1,1.8c0,1.2-1.2,2.3-2.9,2.3c-1,0-1.4-0.3-1.4-0.9    C115.8,99,115.9,98.8,116,98.6z"/>
		<path class="st1" d="M122.2,93.3l-0.9-0.3v-0.3c0.5-0.2,1-0.3,1.5-0.3c0.2,0,0.4,0,0.7,0.1l-0.5,2.2l0,0l0.8-1.4    c0.4-0.7,0.8-1,1.3-1c0.3,0,0.5,0.2,0.5,0.6c0,0.2-0.1,0.6-0.2,0.8c-0.2-0.1-0.3-0.1-0.5-0.1c-1,0-1.9,1.1-2.1,3.9l-0.1,2.3h-1.3    L122.2,93.3z"/>
		<path class="st1" d="M128.9,92.4c1.1,0,1.7,0.5,1.7,1.6c0,1.8-1.9,2.9-3.7,2.9c0,1.9,0.5,2.3,1.4,2.3c0.6,0,1.4-0.3,1.7-0.8    c0.1,0.1,0.1,0.2,0.1,0.4c0,0.7-1,1.4-2.2,1.4c-1.3,0-2.2-0.8-2.2-2.7C125.6,94,127.4,92.4,128.9,92.4z M129.3,94.2    c0-0.7-0.3-1-0.7-1c-0.7,0-1.7,1.2-1.7,3C128.3,96.2,129.3,95.4,129.3,94.2z"/>
		<path class="st1" d="M131.6,97.3l1.1-7.7l-1-0.3V89c0.5-0.2,1-0.2,1.6-0.2c0.3,0,0.5,0,0.7,0.1l-1.2,8.1c-0.1,0.5-0.1,1.2-0.1,1.7    s0.2,0.7,0.7,0.9v0.3c-0.3,0.1-0.7,0.2-1.2,0.2s-0.8-0.3-0.8-0.7C131.4,98.9,131.6,97.9,131.6,97.3z"/>
		<path class="st1" d="M134.6,97.4c0-3.2,1.8-5,3.9-5c0.5,0,1.2,0.1,1.7,0.2l-0.5,2.7c-0.2,0.8-0.3,2.2-0.4,2.9c0,1,0.2,1.2,0.7,1.3    v0.3c-0.4,0.1-0.9,0.2-1.4,0.2c-0.2,0-0.4-0.1-0.6-0.1l0.4-2.3l0,0c-0.6,1.5-1.6,2.5-2.4,2.5C135.3,100.2,134.6,99.2,134.6,97.4z     M138.5,95.9l0.4-2.6c-0.2-0.1-0.6-0.1-0.8-0.1c-1.3,0-2.3,1.3-2.3,3.9c0,1.3,0.4,1.9,0.8,1.9C137.2,99.1,138.1,98.1,138.5,95.9z"/>
		<path class="st1" d="M142,94.5l0.2-1c-0.3,0-0.5,0-0.9-0.1v-0.2c0.5-0.7,1.3-1.4,2.1-1.9h0.2l-0.3,1.3h0.4c0.4,0,0.8,0,1.2-0.1    c0,0.7-0.4,1-1.4,1h-0.4l-0.3,1.6c-0.1,0.7-0.3,2-0.3,2.7c0,1,0.5,1.5,1.2,1.5c0.2,0,0.4,0,0.6-0.1v0.3c-0.1,0.4-0.7,0.7-1.4,0.7    c-1,0-1.6-0.7-1.6-1.9C141.5,97.3,141.8,95.7,142,94.5z"/>
		<path class="st1" d="M145.7,97.3l0.5-3.2l0.1-0.9l-0.9-0.3v-0.3c0.5-0.2,1-0.3,1.6-0.3c0.3,0,0.5,0,0.7,0.1L147,97    c-0.1,0.5-0.1,1.3-0.1,1.7c0,0.5,0.2,0.7,0.6,0.9v0.3c-0.3,0.1-0.7,0.2-1.2,0.2s-0.7-0.3-0.7-0.7C145.5,98.9,145.6,98,145.7,97.3z     M146.5,90.2c0-0.5,0.4-1,0.9-1c0.4,0,0.7,0.3,0.7,0.7c0,0.5-0.4,1-0.9,1C146.8,90.9,146.5,90.6,146.5,90.2z"/>
		<path class="st1" d="M152,92.4c1.1,0,1.7,0.5,1.7,1.6c0,1.8-1.9,2.9-3.7,2.9c0,1.9,0.5,2.3,1.4,2.3c0.6,0,1.4-0.3,1.7-0.8    c0.1,0.1,0.1,0.2,0.1,0.4c0,0.7-1,1.4-2.2,1.4c-1.3,0-2.2-0.8-2.2-2.7C148.7,94,150.5,92.4,152,92.4z M152.4,94.2    c0-0.7-0.3-1-0.7-1c-0.7,0-1.7,1.2-1.7,3C151.4,96.2,152.4,95.4,152.4,94.2z"/>
		<path class="st1" d="M153.9,98.6c0.4,0.4,0.9,0.7,1.5,0.7c0.7,0,1.3-0.4,1.3-1.1c0-0.5-0.2-0.8-1-1.5l-0.5-0.5    c-0.7-0.7-0.9-1.1-0.9-1.8c0-1,1-2.1,2.4-2.1c1.1,0,1.7,0.3,1.7,0.8c0,0.3-0.1,0.6-0.3,0.8c-0.4-0.5-1.1-0.8-1.7-0.8    c-0.7,0-1,0.4-1,0.9c0,0.4,0.2,0.7,1,1.4l0.6,0.5c0.7,0.7,1,1.1,1,1.8c0,1.2-1.2,2.3-2.9,2.3c-1,0-1.4-0.3-1.4-0.9    C153.7,99,153.8,98.8,153.9,98.6z"/>
	</g>
</g>
<g>
	<path class="st1" d="M20.6,66.9l-0.4,0.5c-0.1,0.1,0.3,0.4,0.4,0.3l0.5-0.6c0,0,1.5,0.8,1.9,1c0-0.3,0.1-0.6,0.3-0.8   c-0.5-0.1-1.4-0.4-1.4-0.4c0,0.1-0.2,0.1-0.3,0.1c-0.2,0-0.4-0.3-0.4-0.4l0,0c0.1,0,0.2,0.1,0.3,0l0.2-0.3l0.4,0.2l0.2-0.3   l-0.4-0.1l1.7-2.4c0-0.1,0-0.4,0-0.5c-0.1,0-0.5,0.1-0.5,0.2l-1.7,2.4l-0.2-0.3L21,65.8l0.3,0.3l-0.2,0.2c-0.4-0.2-0.7,0-0.8,0.2   l0,0c0.1,0,0.5-0.1,0.5,0.2c-0.4-0.1-0.6,0.2-0.7,0.3l0,0C20.2,66.9,20.5,66.8,20.6,66.9z"/>
	<path class="st1" d="M24.6,65.5c0.4-0.3,0.9-0.2,0.8,0.3c0,0-0.1,0.1-0.6,0.1c0,0,0,0.2,0.1,0.2c0,0-0.1,0.1,0,0.3   c0,0,0.4-0.2,0.7-0.1c0.1,0.2,0,0.6-0.7,0.7c-0.9,0.1-1.3,0.4-1.4,1.3c0.7-0.1,1.1,0.3,1.6,0.5c0.8,0.4,1.6-0.2,1.6-0.2   c-0.2-0.2-0.2-0.7,0.1-0.9c0.2,0.3,0.5,0.4,0.7,0.2c0,0,0,0,0-0.1c-0.4-0.2-0.4-0.5-0.2-0.9c0.2,0.3,0.6,0.1,0.7-0.2l0,0   c-0.3,0.1-0.4-0.2-0.4-0.4c0-0.2,0.1-0.9-0.2-1.3c0.1-0.2,0.6-0.4,0.8-0.4c0.1,0,0.1,0,0-0.1c-0.2-0.1-0.8,0-0.8-0.1l-0.1-0.8   l-0.7,0.3c-0.2,0-0.4-0.5-0.6-0.6c-0.1,0-0.1,0-0.1,0c0.1,0.2,0.2,0.7,0.1,0.9c-0.6-0.1-0.8,0.2-0.9,0.3c-0.1,0-0.7,0.4-0.7,0.5   c0,0,0,0.1,0.1,0.2C24.5,65.1,24.5,65.3,24.6,65.5z M25.7,64.7c-0.2,0.4-0.4,0.4-0.6,0.2C25.1,64.8,25.3,64.7,25.7,64.7z"/>
	<path class="st1" d="M23.5,65.5C23.5,65.4,23.5,65.4,23.5,65.5c-0.2,0.4,0.1,0.6,0.4,0.6c0.4,0,0.4-0.3,1-0.3v-0.1c0,0-0.3,0-0.6,0   C23.8,65.8,23.6,65.6,23.5,65.5z"/>
	<rect x="29" y="64.3" class="st1" width="0.9" height="2.4"/>
	<path class="st1" d="M13,61.2c0-0.3-0.3-0.4-1-0.3C12.1,61.5,12.7,61.6,13,61.2z"/>
	<path class="st1" d="M30.4,67.8c0,0.1-0.1,0.4-0.5,0.4c-0.3,0-0.9-0.2-1.2-0.2c-0.7,0-1,0.5-1,0.9c0,0.8,0.9,1,0.9,1.8   c0,0.6-0.8,0.8-1.4,0.2c-0.2-0.7-0.3-1.2-0.7-1.8c-1.5,0.5-1.8-0.5-2.7-0.5c-0.7,0-1.6,1.3-2.3,1.4l0.1-0.7h0.1v-0.6   c0,0-0.2,0.4-0.2,0.5c0,0,0,0-0.1,0c-0.1-0.2-0.2-0.5-0.2-0.5s0,0.5,0,0.6l0,0l-0.4-0.5c0,0,0.1,0.4,0.1,0.7l0,0L20.2,69   c0,0,0.1,0.3,0.3,0.7l0,0c-0.1-0.1-0.5-0.4-0.5-0.4s0.2,0.3,0.4,0.5l0,0c-0.3-0.1-0.6-0.2-0.6-0.2s0.2,0.2,0.4,0.4l0,0   c-0.1,0-0.5,0-0.5,0l0.6,0.2v-0.1l0.5,0.1c-0.1,0.1-0.1,0.3-0.1,0.4l0,0c0.1-0.1,0.2-0.3,0.5-0.3l0,0c-0.1,0-0.4,0.2-0.3,0.6l0,0   c0.1-0.2,0.3-0.2,0.4-0.3l-0.1,0.7c0.5,0.1,1.1-0.2,1.1-0.8l-0.6-0.1c0.6-0.5,1.5-0.8,2.2-0.8c1.2,0,2,1.3,2,2.1   c0,0.2,0,0.5-0.2,0.7c-0.2,0.3-0.4,0.2-0.5,0.2l0,0c0.1,0.4,0.7,0.4,0.7,0.2c0-0.1,0,0,0,0c0.3,1,1.5-0.1,2.2,1.2   c0,0-0.4,0.2-0.5,0.1c-0.4-0.2-0.6,0-0.6,0.2l0,0c0.4-0.1,0.6,0.2,0.6,0.2c-0.3-0.1-0.7,0-0.5,0.5l0,0c0.1-0.4,0.4-0.2,0.5-0.2   c-0.2,0.1-0.4,0.4,0,0.7l0,0c0-0.3,0.1-0.4,0.3-0.4c0.1,0,0.4,0,0.5-0.3c0.2,0.3,0.5,0.2,0.7,0.1c0,0,0,0,0-0.1   c-0.2-0.1-0.5-0.2-0.3-0.4c0,0,0.5,0.2,0.7-0.3l0,0c0,0-0.5,0.3-0.6-0.2c-0.1-0.3-0.1-0.8-0.4-0.9c0.3-0.1,0.4-0.3,0.2-0.6l0,0   c0,0.7-1.5,0.1-1.5-0.8c1,0.3,2,0,2-1s-1-1.4-1-1.9c0-0.3,0.3-0.4,0.4-0.4c0.4,0,0.8,0.5,0.9,0.8l0,0c0.1-0.2,0.2-0.5,0-0.6   c0,0,0-0.1,0,0c0.1,0.1,0.9,0,0.9-0.5c0-0.2,0-0.3,0-0.4C30.5,67.8,30.4,67.8,30.4,67.8z"/>
	<path class="st1" d="M0,0v100h50V0H0z M37.1,60.5c0.1-0.3,0.5-0.8,1.7-0.6c0.6,0.1,1-0.1,0.8-0.4c0-0.1,0.1-0.1,0.1,0   c0.1,0.1,0.3,0.5-0.2,0.8s-0.6,0.8-0.6,0.9c0,0.1,0.1,0.1,0.2,0c0.2-0.9,1.5-1.1,2.3-0.6c0,0.5-0.6,0.8-0.9,0.8   c-0.2,0-0.4-0.2-0.4-0.4c0-0.1-0.1-0.1-0.1,0c-0.1,0.3,0.4,1,1.1,0.6c0.7,0.7,0.4,1.7,0.4,2c-0.1,0.6,0.2,1.2,0.7,0.9h0.1   c0,0.4-0.5,0.8-1.1,0.5c-0.1,0.1-0.9,1.2,0.4,1.6c0,0,0.1,0.1,0,0.1c-0.9,0.4-1.4-0.3-1.4-0.3c-0.5,1.1,0.2,1.7,0.2,1.7   c-0.1,0.2-0.5,0.5-1.2,0.7c-0.3-0.1-0.6-0.4-0.8-0.8c0,0-0.2,0.5,0,0.9c-1.9,0.2-2.6-1.3-4-1.1c0,0-0.1,0-0.1-0.1   c0-0.9,0.6-2.6,2.4-3c1.8-0.3,1.3-1.1,1.3-1.1c-0.8,0-1.2,0.3-1.2,0.3c-0.1-0.2,0.1-0.5,0.1-0.5c-0.1-0.1-0.1-0.4-0.1-0.4   c0.9,0,1.1-0.2,1.1-0.2c0.1-0.5-0.2-1.2-1.5-0.5C36,62,36,61.6,36,61.6c-0.1,0-0.2-0.2-0.2-0.3C35.9,61.1,36.9,60.6,37.1,60.5z    M34.2,62.3C34.2,62.2,34.3,62.2,34.2,62.3c0.2,0.3,0.5,0.5,0.9,0.5c0.5,0,0.6-0.2,1.3-0.2c0.1,0,0.5,0,0.5,0.1s-0.2,0-0.5,0.1   c-0.7,0.1-1,0.5-1.5,0.5C34.5,63.2,34,62.9,34.2,62.3z M24.2,50.7c0.2,0,0.3,0.1,0.4,0.1c0.2,0.1,0.2,0.1,0.3,0c0,0,0.1-0.1,0-0.3   c0-0.1-0.1-0.2-0.1-0.4c0-0.3,0.2-0.4,0.3-0.4c0.1,0,0.3,0.1,0.3,0.4c0,0.2-0.1,0.3-0.1,0.4c-0.1,0.2-0.1,0.2,0,0.3   c0,0.1,0.1,0.1,0.3,0c0.1,0,0.2-0.1,0.4-0.1c0.3,0,0.4,0.2,0.4,0.3s-0.1,0.3-0.4,0.3c-0.2,0-0.3-0.1-0.4-0.1   c-0.2-0.1-0.2-0.1-0.3,0s0,0.6,0.1,1c0.5,0.1,0.7,0.5,0.7,0.7c0,0.5-0.6,0.9-0.9,1c-0.4-0.2-0.9-0.5-0.9-1c0-0.2,0.2-0.6,0.7-0.7   c0.1-0.4,0.1-1,0.1-1s-0.1-0.1-0.3,0c-0.1,0.1-0.2,0.1-0.4,0.1c-0.3,0-0.4-0.2-0.4-0.3C23.8,50.9,23.9,50.7,24.2,50.7z M25.7,54.9   c0,0.4-0.3,0.7-0.7,0.7c-0.4,0-0.7-0.3-0.7-0.7s0.3-0.7,0.7-0.7C25.4,54.3,25.7,54.6,25.7,54.9z M19.6,55.1c0.6,0,0.5,0.4,1,0.4   c0.1,0,0.1,0,0.1,0c0,0.2-0.1,0.5-0.4,0.5s-0.3-0.3-0.6-0.3c-0.1,0-0.2,0.1-0.2,0.4c0,0.6,0.4,1.3,0.9,1.9c0.1-0.1,0.3-0.2,0.4-0.2   c0.3,0,0.5,0.3,0.5,0.7c0,0.1,0,0.2-0.1,0.4c0.2,0.1,0.3,0.1,0.4,0.1c0.2,0,0.5-0.1,0.5-0.6c0-1.1-1.4-2-1.4-3.4   c0-0.7,0.4-1.3,1.3-1.3c1,0,0.8,0.9,1.6,0.9h0.1c0,0.1-0.1,0.6-0.6,0.6s-0.6-0.8-1-0.8c-0.2,0-0.4,0.1-0.4,0.6   c0,0.4,0.2,1.1,0.5,1.8c0.1-0.1,0.2-0.2,0.4-0.2c0.4,0,0.6,0.3,0.6,0.8c0,0.3-0.1,0.5-0.3,0.7c0.2,0.3,0.4,0.5,0.7,0.5   c0.6,0,0.8-0.3,0.8-0.7s-0.7-0.5-0.7-1.1c0-0.4,0.3-0.6,0.5-0.6c0.3,0,0.4,0.2,0.5,0.2c0,0,0.2-0.2,0.4-0.2c0.2,0,0.5,0.2,0.5,0.6   c0,0.6-0.7,0.7-0.7,1.1c0,0.4,0.2,0.7,0.8,0.7c0.3,0,0.5-0.2,0.7-0.5c-0.2-0.2-0.3-0.4-0.3-0.7c0-0.4,0.3-0.8,0.6-0.8   c0.2,0,0.3,0.1,0.4,0.2c0.3-0.6,0.5-1.3,0.5-1.8s-0.2-0.6-0.4-0.6c-0.4,0-0.5,0.8-1,0.8c-0.4,0-0.6-0.5-0.6-0.6c0,0,0,0,0.1,0   c0.8,0,0.7-0.9,1.6-0.9s1.3,0.6,1.3,1.3c0,1.4-1.4,2.3-1.4,3.4c0,0.5,0.3,0.6,0.5,0.6c0.1,0,0.2-0.1,0.4-0.1   C28,58.8,28,58.7,28,58.5c0-0.4,0.2-0.7,0.5-0.7c0.2,0,0.3,0.1,0.5,0.2c0.5-0.5,0.9-1.2,0.9-1.9c0-0.3-0.2-0.4-0.2-0.4   c-0.2,0-0.2,0.3-0.6,0.3c-0.2,0-0.4-0.3-0.4-0.5h0.1c0.5,0,0.4-0.4,1-0.4c0.2,0,0.9,0.1,0.9,1.1c0,1.5-1.8,1.9-1.4,3   c-0.8-0.1-0.8,0.6-0.8,2c0,0-1.5-0.5-4.2-0.5s-4.2,0.5-4.2,0.5c0-1.4,0-2.1-0.8-2c0.4-1.1-1.4-1.6-1.4-3   C18.7,55.2,19.4,55.1,19.6,55.1z M15.8,62.3c0-0.1,0.1-0.1,0.1,0c0.2,0.6-0.3,0.9-0.7,0.9c-0.5,0-0.8-0.3-1.5-0.5   c-0.3-0.1-0.5,0-0.5-0.1s0.5-0.1,0.5-0.1c0.7,0,0.8,0.2,1.3,0.2C15.4,62.7,15.7,62.6,15.8,62.3z M7.9,64.5c0.5,0.3,0.8-0.3,0.7-0.9   c-0.1-0.3-0.4-1.2,0.4-2c0.7,0.4,1.2-0.3,1.1-0.6c0-0.1-0.1-0.1-0.1,0c0,0.2-0.2,0.4-0.4,0.4c-0.3,0-0.8-0.3-0.9-0.8   c0.8-0.5,2-0.3,2.3,0.6c0,0.1,0.2,0.1,0.2,0s0-0.6-0.6-0.9c-0.5-0.2-0.3-0.6-0.2-0.8c0-0.1,0.2,0,0.1,0c-0.2,0.3,0.2,0.5,0.8,0.4   c1.2-0.2,1.6,0.3,1.7,0.6c0.3,0.1,1.3,0.6,1.3,0.9c0,0.1-0.1,0.2-0.2,0.3c0,0,0,0.4-0.3,0.7c-1.3-0.8-1.6,0-1.5,0.5   c0,0,0.2,0.2,1.1,0.2c0,0,0,0.3-0.1,0.4c0,0,0.2,0.2,0.1,0.5c0,0-0.4-0.3-1.2-0.3c0,0-0.5,0.7,1.3,1.1c1.8,0.3,2.4,2.1,2.4,3   c0,0,0,0.1-0.1,0.1c-1.5-0.3-2.1,1.2-4,1.1c0.2-0.5,0-0.9,0-0.9c-0.2,0.4-0.5,0.7-0.8,0.8c-0.7-0.2-1.1-0.5-1.2-0.7   c0,0,0.7-0.6,0.2-1.7c0,0-0.5,0.7-1.4,0.3c-0.1,0-0.1-0.1,0-0.1C9.8,66.1,9,65.1,8.9,65C8.3,65.3,7.8,64.9,7.9,64.5   C7.8,64.4,7.9,64.5,7.9,64.5z M17.1,84.9c0,1.9-3.1,0.1-6.2-0.1c-2.5-0.2-3.2,0.5-3.2,0.5l0.5-2.5c0-0.1,0.6-0.5,2.3-0.5   c2.1,0,3.1,0.4,3.5,0.5v1.3c0,0.3,0.2,0.5,0.4,0.5c0-0.1,0.3-0.9,2.7-0.9V84.9z M14.3,74.9c-0.3-0.3-1.8-0.8-2.6-1.2c0,0,0,0,0-0.1   c0.2-0.1,0.4-0.2,0.5-0.5c0-0.2,0-0.4-0.2-0.5c0.4-0.4,1.2-0.7,1.6-0.7c1.6,0,3,2.2,3.6,2.2c0.1,0,0.2,0,0.3-0.2l0,0   c0,0.6-0.4,0.7-0.5,0.7s-0.2,0-0.3-0.1l0,0v0.1c0,0.8-0.8,1.6-0.8,1.6c0.4,0.4,1.3,1,1.5,0.7c0.1-0.1,0.6-1,1.2-0.3l0,0   c-0.4,0-0.6,0.2-0.5,0.6c0.5-0.4,1.2-0.3,1.2,0.6c0,0,0,0-0.1,0c-0.3-0.5-0.9-0.2-1-0.1c0.4,0.1,1,0.5,0.4,1.2l0,0   c-0.1-0.5-0.4-0.6-0.6-0.6c-0.5,0-0.9,0.5-1.3,0c-0.1,0.6-0.8,0.6-1,0.5l0,0c0.2-0.1,0.4-0.4,0.4-0.6c0-0.4-0.8-0.9-1.1-0.9   c-0.2,0-0.4,0.3-0.8,0.3c-0.2,0-0.5-0.1-0.7-0.3l0,0c0.2,0,0.6,0.1,0.9-0.7C14.6,75.8,14.7,75.2,14.3,74.9z M14.6,83.6   C14.5,83.7,14.5,83.6,14.6,83.6L14.5,81c0-0.8,5.1-1.2,10.5-1.2s10.5,0.4,10.5,1.2v2.6c0,0.1,0,0.1-0.1,0.1c-0.6-0.7-5.6-1-10.4-1   C20.2,82.6,15.2,82.9,14.6,83.6z M31.5,76.8C31.5,76.8,31.5,76.7,31.5,76.8c0.6-0.7,1.1,0.1,1.2,0.3c0.3,0.3,1.2-0.3,1.5-0.7   c0,0-0.8-0.8-0.8-1.6v-0.1l0,0c-0.1,0-0.2,0.1-0.3,0.1c-0.2,0-0.5-0.1-0.5-0.7l0,0c0.1,0.1,0.2,0.2,0.3,0.2c0.7,0,2-2.2,3.6-2.2   c0.4,0,1.2,0.3,1.6,0.7c-0.2,0.1-0.2,0.4-0.2,0.5c0,0.3,0.2,0.4,0.5,0.5c0,0,0,0,0,0.1c-0.8,0.3-2.3,0.9-2.6,1.2   c-0.4,0.3-0.3,1-0.1,1.9s0.7,0.7,0.9,0.7l0,0c-0.2,0.3-0.5,0.4-0.7,0.4c-0.4,0-0.6-0.3-0.8-0.3c-0.4,0-1.1,0.5-1.1,0.9   c0,0.2,0.2,0.4,0.4,0.6l0,0c-0.2,0-0.9,0.1-1-0.5c-0.4,0.5-0.8,0-1.3,0c-0.2,0-0.5,0.1-0.6,0.6c0,0,0,0-0.1,0   c-0.5-0.8,0.1-1.2,0.4-1.2c-0.1-0.1-0.6-0.4-0.9,0.1h-0.1c0-1,0.7-1,1.2-0.6C32.2,77,31.9,76.8,31.5,76.8z M39.1,84.8   c-3,0.2-6.1,2-6.1,0.1v-1.1c2.4,0,2.7,0.8,2.7,0.9c0.2-0.1,0.4-0.2,0.4-0.5v-1.3c0.4-0.1,1.4-0.5,3.5-0.5c1.7,0,2.3,0.4,2.3,0.5   l0.5,2.5C42.3,85.3,41.6,84.7,39.1,84.8z M45.6,67.5c-0.3,0-0.6-0.1-0.7-0.2c-0.1,0-0.1,0-0.1,0.1c0.3,0.4,0.3,1,0.2,1.2h-0.1   c-0.2-0.7-0.8-1.3-1.6-1.3c-1,0-1,0.9-1,1.1c0,1.3,2.2,2.2,2.2,3.9c0,1.8-1.8,2.1-2.9,1.9c0.1,1.8,2.1,2.4,2.1,1.1c0,0,0-0.1,0.1,0   c0.2,0.6,0.1,1.2-0.6,1.3v0.1c0.8,0.5,0.4,2.4,0.3,3c-0.1,0.8,0.8,0.7,0.8,0.7s0.1,0,0,0.1c-0.6,0.7-1.3,0.1-1.3,0.1   c-0.5,0.2-0.2,0.6,0.2,0.9v0.1c-0.1,0-0.9,0.1-1.1-0.6c-0.4,0.4-0.9,0.3-1,0.2c-0.2-0.1-0.9-0.4-1,0.5c0,0.1,0,0-0.1,0   c-0.6-0.8,0.1-1.2,0.4-1.3c0,0-0.5-0.4-0.9,0.1h-0.1c0-1,0.7-1,1.2-0.6c0-0.1,0.2-0.6-0.6-0.6c0,0-0.1,0,0-0.1   c0.6-0.6,1.1,0,1.2,0.1c0.3,0.3,0.9,0.2,1,0.2c-0.2-3.3-3.1-2.1-3.5-3.7c0-0.1,0-0.1-0.1,0c-0.1,0.4-1.1,0.5-1.3-0.3c0,0,0-0.1,0,0   c0.8,0.8,2.7-1.8,0.2-3.9c-2.2-1.8-4.2-0.8-4.9-0.2c0,0.3,0.1,0.3,0.2,0.4c0,0,0,0,0,0.1c-0.2,0.1-0.5,0.1-0.6-0.1   c-0.5,0.3-0.1,0.7,0.1,0.9c0.1,0,0,0.1,0,0.1c-0.4,0.1-0.8-0.4-0.8-0.6h-0.1v1.9c0,2.7-3.1,3-6.4,5.3c-3.4-2.2-6.4-2.6-6.4-5.3   v-1.9h-0.1c0,0.3-0.4,0.7-0.8,0.6c0,0-0.1,0,0-0.1c0.2-0.1,0.6-0.5,0.1-0.9c-0.1,0.2-0.4,0.2-0.6,0.1c-0.1,0,0-0.1,0-0.1   c0.1,0,0.3-0.1,0.2-0.4c-0.8-0.6-2.7-1.6-4.9,0.2c-2.6,2.1-0.7,4.8,0.2,3.9l0,0c-0.2,0.8-1.2,0.7-1.3,0.3c0,0,0-0.1-0.1,0   c-0.4,1.6-3.3,0.4-3.5,3.7c0.1,0,0.7,0.1,1-0.2c0.1-0.1,0.6-0.7,1.2-0.1v0.1c-0.8,0-0.6,0.5-0.6,0.6c0.5-0.4,1.3-0.3,1.2,0.6   c0,0.1,0,0.1-0.1,0c-0.4-0.5-0.9-0.2-0.9-0.1c0.4,0,1,0.5,0.4,1.3c0,0-0.1,0.1-0.1,0c-0.1-0.9-0.9-0.6-1-0.5s-0.7,0.2-1-0.2   c-0.1,0.7-1,0.6-1.1,0.6s-0.1,0,0-0.1c0.4-0.2,0.7-0.7,0.2-0.9c0,0-0.7,0.6-1.3-0.1c-0.1-0.1,0-0.1,0-0.1c0.1,0,0.9,0.1,0.8-0.7   c0-0.6-0.5-2.5,0.3-3c0.1,0,0.1-0.1,0-0.1c-0.8-0.2-0.9-0.7-0.6-1.3c0-0.1,0.1-0.1,0.1,0c0.1,1.3,2.1,0.7,2.1-1.1   c-1.1,0.3-2.9-0.1-2.9-1.9c0-1.7,2.2-2.7,2.2-3.9c0-0.2,0-1.1-1-1.1c-0.8,0-1.5,0.6-1.6,1.3c0,0,0,0-0.1,0   c-0.1-0.2-0.1-0.8,0.2-1.2c0,0,0-0.1-0.1-0.1c-0.1,0.1-0.4,0.2-0.7,0.2c-0.7,0-1.1-0.4-1.1-1c0-0.4,0.1-0.6,0.1-0.7s0-0.1,0.1,0   c0.1,0.2,0.3,0.7,1,0.7c0,0,1.4,0,1.7,0c1.9,0,2.1,1.5,2.1,1.9c0,1.6-2,2.2-2,3.8c0,0.4,0.2,1,1.2,1c0.4,0,0.8-0.1,1.1-0.2   c0,0,0.5-2.8,1.8-3.7c0,0,1.6,0.8,3.1-0.1c1.2-0.6,1.7-1.1,2.8-0.3c1,0.7,1.9,1.5,2,1.5l0.2-0.1v-6.2c-0.5,0-0.5,0.4-0.5,0.5   s0.2,0.3-0.1,0.8h-0.1c0-0.1-0.1-0.3-0.2-0.3c-0.2,0-0.9,0.5-1.5,1.2c0,0-0.4-1.1-1.2-1.4c0.5-0.1,2.6-0.6,2.6-1.5   c0-0.3,0.3-0.4,0.6-0.4c0,0,0.3-0.8,1-0.4v0.1c-0.3,0.1-0.4,0.4-0.4,0.7c0.2-0.1,0.8-0.2,1.5-0.4v2H21v-2.1c1.1-0.2,2.5-0.4,4-0.4   c3.1,0,5.8,0.7,6.4,0.9c0-0.3-0.1-0.6-0.4-0.7v-0.1c0.6-0.4,1,0.4,1,0.4c0.2,0,0.6,0,0.6,0.4c0,0.9,2.1,1.4,2.6,1.5   c-0.9,0.3-1.2,1.4-1.2,1.4c-0.6-0.6-1.4-1.2-1.5-1.2c-0.2,0-0.2,0.2-0.2,0.3c0,0,0,0.1-0.1,0c-0.3-0.5-0.2-0.6-0.1-0.8   c0-0.1,0-0.5-0.5-0.5v6.2l0.2,0.1c0.1,0,1-0.8,2-1.5s1.6-0.3,2.8,0.3c1.6,0.8,3.1,0.1,3.1,0.1c1.3,1,1.8,3.7,1.8,3.7   c0.3,0.1,0.7,0.2,1.1,0.2c1,0,1.2-0.6,1.2-1c0-1.6-2-2.2-2-3.8c0-0.4,0.2-1.9,2.1-1.9c0.2,0,1.7,0,1.7,0c0.7,0,0.9-0.5,1-0.7   c0-0.1,0.1,0,0.1,0c-0.1,0.1,0.1,0.3,0.1,0.7C46.7,67.1,46.3,67.5,45.6,67.5z"/>
	<path class="st1" d="M23.7,73.6c0-1.1,0.6-1.2,1.8-1.7l0,0c-0.2,0-0.6-0.3-0.2-0.7c-0.2-0.1-0.5-0.3-0.7-0.3c-0.9,0-1.7,1-1.8,1.2   c-0.1,0.1-0.4,0.4-0.5,0.2l0,0c0,0.4,0.3,0.4,0.5,0.3l0,0c0,0.4,0.2,1.2,0.2,1.2s-0.4,0.4-0.7,0.4c-0.2,0-0.2-0.4-0.5-0.4   c-0.1,0-0.2,0-0.3,0.1l0,0c0.2,0,0.3,0.1,0.3,0.3c-0.3-0.2-0.7-0.2-0.7,0.3l0,0c0.2-0.3,0.5-0.1,0.5,0c-0.2,0-0.5,0.3-0.2,0.7l0,0   c0-0.1,0-0.3,0.3-0.3s0.5,0.3,0.7,0c0.1,0.4,0.4,0.3,0.6,0.3l0,0c-0.2-0.1-0.2-0.2-0.2-0.3c0-0.2,0.5-0.5,0.6-0.5s0.2,0.1,0.5,0.1   c0.1,0,0.2-0.1,0.4-0.2l0,0C23.9,74.4,23.7,74.1,23.7,73.6z"/>
	<path class="st1" d="M38.1,60.9c-0.7,0-1,0-1,0.3C37.4,61.6,38,61.5,38.1,60.9z"/>
	<rect x="25" y="74.9" class="st1" width="0.9" height="2.4"/>
</g>
</svg>