<svg xmlns:xlink="http://www.w3.org/1999/xlink" xmlns="http://www.w3.org/2000/svg" width="126" height="36" viewBox="0 0 126 36" fill="none">
<g clip-path="url(#clip0_35_392)">
<path d="M26.9161 0C32.208 0 36.4964 4.23 36.4964 9.45V26.19C36.4964 31.59 32.0255 36 26.5511 36H9.58029C4.28832 36 0 31.77 0 26.55V9.45C0 4.23 4.28832 0 9.58029 0H26.9161ZM90.5109 25.92C93.0657 25.92 95.438 26.91 95.8029 29.16H93.3394C93.0657 28.35 91.9708 27.81 90.6022 27.81C88.4124 27.81 87.2263 28.8 87.2263 30.42C87.2263 32.04 88.5036 32.94 90.5109 32.94C91.9708 32.94 93.0657 32.49 93.3394 31.68H95.8029C95.438 33.93 93.0657 34.83 90.4197 34.83C87.0438 34.83 84.7628 33.12 84.7628 30.42C84.7628 27.63 87.0438 25.92 90.5109 25.92ZM44.0693 26.01V30.33C44.0693 31.86 44.708 32.94 46.8066 32.94C48.7226 32.94 49.5438 31.86 49.5438 30.33V26.01H51.9161V30.42C51.9161 33.48 49.8175 34.74 46.8066 34.74C43.7044 34.74 41.6971 33.48 41.6971 30.42V26.01H44.0693ZM118.704 26.01V27.9H114.781V34.65H112.409V27.9H108.577V26.01H118.704ZM99.4526 26.01V29.25H105.292V26.01H107.664V34.65H105.292V31.23H99.4526V34.65H97.0803V26.01H99.4526ZM83.9416 26.01V27.81H77.4635V29.43H83.2117V31.23H77.4635V32.85H83.9416V34.65H75.2737V26.01H83.9416ZM63.0474 26.01V27.9H59.1241V34.65H56.7518V27.9H52.9197V26.01H63.0474ZM70.438 26.01C72.9015 26.01 73.7226 27.18 73.7226 28.53C73.7226 29.7 72.9927 30.33 72.0803 30.6V30.69C73.0839 30.78 73.5401 31.41 73.5401 32.22V33.3C73.5401 33.75 73.6314 34.11 73.8139 34.47V34.65H71.4416C71.2591 34.38 71.1679 33.93 71.1679 33.39V32.49C71.1679 31.86 70.8029 31.59 70.073 31.59H66.4234V34.65H64.1423V26.01H70.438ZM26.9161 2.61H9.58029C5.74818 2.61 2.64599 5.67 2.64599 9.45V26.55C2.64599 30.33 5.74818 33.39 9.58029 33.39H26.5511C30.5657 33.39 33.9416 30.15 33.9416 26.1V9.45C33.8504 5.67 30.7482 2.61 26.9161 2.61ZM70.073 27.81H66.3321V29.79H70.073C70.8029 29.79 71.3504 29.52 71.3504 28.8C71.2591 28.17 70.8029 27.81 70.073 27.81ZM65.4197 13.59C67.9745 13.59 70.3467 14.58 70.7117 16.83H68.2482C67.9745 16.02 66.8796 15.48 65.511 15.48C63.3212 15.48 62.135 16.47 62.135 18.09C62.135 19.71 63.4124 20.61 65.4197 20.61C66.8796 20.61 67.9745 20.16 68.2482 19.35H70.7117C70.3467 21.6 67.9745 22.5 65.3285 22.5C61.9526 22.5 59.6715 20.79 59.6715 18.09C59.6715 15.21 61.9526 13.59 65.4197 13.59ZM84.5803 13.68V18C84.5803 19.53 85.219 20.61 87.3175 20.61C89.2336 20.61 90.0547 19.53 90.0547 18V13.68H92.427V18.09C92.427 21.15 90.3285 22.41 87.3175 22.41C84.2153 22.41 82.208 21.15 82.208 18.09V13.68H84.5803ZM97.1715 13.68L100.365 20.34H100.456L103.65 13.68H106.752V22.32H104.562V16.47H104.471L101.734 22.32H99.1788L96.4416 16.47H96.3504V22.32H94.1606V13.68H97.1715ZM44.0693 13.68V20.43H50.7299V22.32H41.6971V13.68H44.0693ZM51.8248 13.68L54.4708 16.65H54.562L57.208 13.68H60.1277L55.6569 18.54V22.32H53.2847V18.54L48.8139 13.68H51.8248ZM80.8394 13.68V15.48H74.3613V17.1H80.1095V18.9H74.3613V20.52H80.8394V22.32H72.0803V13.68H80.8394ZM47.0803 1.17C49.8175 1.17 52.281 2.16 52.646 4.23H50.1825C49.8175 3.51 48.7226 3.15 47.1715 3.15C45.2555 3.15 43.7956 4.05 43.7956 5.76C43.7956 7.65 45.438 8.28 47.1715 8.28C48.7226 8.28 50.1825 7.74 50.365 6.66H46.9891V4.95H52.9197V5.76C52.9197 8.46 50.365 9.99 47.2628 9.99C44.0693 9.99 41.4234 8.55 41.4234 5.58C41.3321 2.88 43.7956 1.17 47.0803 1.17ZM96.2591 1.17C98.7226 1.17 101.186 1.89 101.369 4.14H98.9964C98.7226 3.24 97.6277 2.97 96.2591 2.97C94.9818 2.97 94.0693 3.24 94.0693 3.78C94.0693 4.32 94.6168 4.5 96.8066 4.68C100.182 4.86 101.46 5.76 101.46 7.47C101.46 9.63 98.9051 10.08 96.5329 10.08C93.8869 10.08 91.6058 9.27 91.3321 7.02H93.7956C93.9781 8.01 95.438 8.28 96.7153 8.28C97.9927 8.28 99.0876 8.1 99.0876 7.47C99.0876 6.93 98.6314 6.66 96.4416 6.57C93.4307 6.39 91.6971 5.67 91.6971 3.96C91.5146 1.8 93.9781 1.17 96.2591 1.17ZM107.847 1.17C110.401 1.17 112.774 2.16 113.139 4.41H110.675C110.401 3.6 109.307 3.06 107.938 3.06C105.748 3.06 104.562 4.05 104.562 5.67C104.562 7.29 105.839 8.19 107.847 8.19C109.307 8.19 110.401 7.74 110.675 6.93H113.139C112.774 9.18 110.401 10.08 107.755 10.08C104.38 10.08 102.099 8.37 102.099 5.67C102.19 2.88 104.471 1.17 107.847 1.17ZM116.88 1.35V4.59H122.719V1.35H125.091V9.99H122.719V6.48H116.88V9.9H114.507V1.35H116.88ZM89.8723 1.35V9.99H87.5V1.35H89.8723ZM86.2226 1.35V3.15H79.562V5.04H85.4015V6.84H79.562V9.9H77.281V1.35H86.2226ZM60.4927 1.35C62.9562 1.35 63.7774 2.52 63.7774 3.87C63.7774 5.04 63.0474 5.67 62.135 5.94V6.03C63.1387 6.12 63.5949 6.75 63.5949 7.56V8.64C63.5949 9.09 63.6861 9.45 63.8686 9.81V9.99H61.4964C61.3139 9.72 61.2226 9.27 61.2226 8.73V7.83C61.2226 7.2 60.8577 6.93 60.1277 6.93H56.4781V9.99H54.1971V1.35H60.4927ZM71.8978 1.35L76.3686 9.99H73.9051L72.9927 8.19H67.9745L67.062 9.99H64.5985L69.0693 1.35H71.8978ZM70.5292 3.24L68.8869 6.39H72.1715L70.5292 3.24ZM60.1277 3.15H56.3869V5.13H60.1277C60.8577 5.13 61.4051 4.86 61.4051 4.14C61.4051 3.42 60.8577 3.15 60.1277 3.15Z" fill="#F3F2FF"/>
</g>
<defs>
<clipPath id="clip0_35_392">
<rect width="125.091" height="36" fill="white"/>
</clipPath>
</defs>
</svg>