<svg xmlns:xlink="http://www.w3.org/1999/xlink" xmlns="http://www.w3.org/2000/svg" width="201" height="12" viewBox="0 0 201 12" fill="none">
<path d="M4.23205 7.728H2.00805V11.728H0.248047V0.24H4.23205C6.80805 0.24 8.47205 1.552 8.47205 3.952C8.47205 6.368 6.80805 7.728 4.23205 7.728ZM4.21605 1.728H2.00805V6.24H4.21605C5.76805 6.24 6.71205 5.392 6.71205 3.968C6.71205 2.544 5.76805 1.728 4.21605 1.728Z" fill="#F3F2FF"/>
<path d="M18.1204 11.968C14.7924 11.968 12.2804 9.36 12.2804 5.968C12.2804 2.576 14.7924 0 18.1204 0C21.4484 0 23.9604 2.576 23.9604 5.968C23.9604 9.36 21.4484 11.968 18.1204 11.968ZM18.1204 10.384C20.5524 10.384 22.1364 8.432 22.1364 5.968C22.1364 3.504 20.5524 1.584 18.1204 1.584C15.6884 1.584 14.1044 3.504 14.1044 5.968C14.1044 8.432 15.6884 10.384 18.1204 10.384Z" fill="#F3F2FF"/>
<path d="M35.4605 11.728H28.5005V0.24H30.2605V10.144H35.4605V11.728Z" fill="#F3F2FF"/>
<path d="M41.668 11.728H39.908V0.24H41.668V11.728Z" fill="#F3F2FF"/>
<path d="M51.438 11.728H49.678V1.824H45.934V0.24H55.182V1.824H51.438V11.728Z" fill="#F3F2FF"/>
<path d="M61.2174 11.728H59.4574V0.24H61.2174V11.728Z" fill="#F3F2FF"/>
<path d="M73.7074 10.192V11.728H66.4274V0.24H73.5954V1.776H68.1874V5.04H73.1154V6.576H68.1874V10.192H73.7074Z" fill="#F3F2FF"/>
<path d="M92.2349 11.728L86.1869 2.752V11.728H84.5549V0.24H86.4749L92.3789 8.976V0.24H94.0109V11.728H92.2349Z" fill="#F3F2FF"/>
<path d="M106.492 10.192V11.728H99.2124V0.24H106.38V1.776H100.972V5.04H105.9V6.576H100.972V10.192H106.492Z" fill="#F3F2FF"/>
<path d="M114.908 11.728H111.276V0.24H114.908C118.572 0.24 120.684 2.576 120.684 5.936C120.684 9.248 118.492 11.728 114.908 11.728ZM113.036 1.76V10.208H114.828C117.468 10.208 118.892 8.576 118.892 5.936C118.892 3.344 117.484 1.76 114.828 1.76H113.036Z" fill="#F3F2FF"/>
<path d="M132.526 10.192V11.728H125.246V0.24H132.414V1.776H127.006V5.04H131.934V6.576H127.006V10.192H132.526Z" fill="#F3F2FF"/>
<path d="M139.07 11.728H137.31V0.24H141.598C144.238 0.24 145.822 1.536 145.822 3.824C145.822 5.472 144.782 6.736 143.038 7.152L146.158 11.728H144.046L141.182 7.408H139.07V11.728ZM139.07 1.712V5.936H141.486C143.118 5.936 144.046 5.216 144.046 3.824C144.046 2.448 143.118 1.712 141.486 1.712H139.07Z" fill="#F3F2FF"/>
<path d="M157.537 11.728H150.577V0.24H152.337V10.144H157.537V11.728Z" fill="#F3F2FF"/>
<path d="M169.888 11.728L168.848 8.88H163.888L162.832 11.728H161.056L165.456 0.24H167.392L171.76 11.728H169.888ZM166.384 2.16L164.416 7.456H168.32L166.384 2.16Z" fill="#F3F2FF"/>
<path d="M183.744 11.728L177.696 2.752V11.728H176.064V0.24H177.984L183.888 8.976V0.24H185.52V11.728H183.744Z" fill="#F3F2FF"/>
<path d="M194.353 11.728H190.721V0.24H194.353C198.017 0.24 200.129 2.576 200.129 5.936C200.129 9.248 197.937 11.728 194.353 11.728ZM192.481 1.76V10.208H194.273C196.913 10.208 198.337 8.576 198.337 5.936C198.337 3.344 196.929 1.76 194.273 1.76H192.481Z" fill="#F3F2FF"/>
</svg>