<svg xmlns:xlink="http://www.w3.org/1999/xlink" xmlns="http://www.w3.org/2000/svg" width="112" height="40" viewBox="0 0 112 40" fill="none">
<path d="M16.6284 8.89344C17.0841 8.89541 17.5302 8.76195 17.91 8.50999C18.2897 8.25802 18.5861 7.89891 18.7614 7.47824C18.9367 7.05756 18.9831 6.59428 18.8947 6.1472C18.8062 5.70011 18.587 5.28937 18.2647 4.96711C17.9425 4.64485 17.5317 4.42559 17.0846 4.33717C16.6376 4.24874 16.1743 4.29513 15.7536 4.47045C15.3329 4.64577 14.9738 4.94211 14.7219 5.32188C14.4699 5.70164 14.3364 6.14769 14.3384 6.60344C14.3384 7.21078 14.5797 7.79325 15.0091 8.22271C15.4386 8.65217 16.0211 8.89344 16.6284 8.89344Z" fill="#F3F2FF"/>
<path d="M13.0085 11.1733H11.0685C7.59851 11.1733 8.40851 15.5633 8.40851 15.5633C7.9697 16.8674 7.29143 18.0781 6.40851 19.1333C5.47851 20.2333 4.98851 19.5633 4.96851 18.4733L4.59851 11.7033C4.59851 11.1933 3.99851 11.1833 3.99851 11.1833H1.51851C0.358508 11.1833 0.308508 11.9433 0.308508 11.9433L0.258508 14.0533C0.255952 14.1568 0.277039 14.2595 0.320163 14.3535C0.363286 14.4476 0.427309 14.5306 0.507354 14.5961C0.587399 14.6617 0.681356 14.7082 0.782066 14.7319C0.882777 14.7557 0.987586 14.7562 1.08851 14.7333C1.00138 17.1397 1.2096 19.5477 1.70851 21.9033C1.81807 22.6791 2.22673 23.3811 2.84713 23.8595C3.46752 24.3379 4.25043 24.5546 5.02851 24.4633C6.2795 24.2293 7.4262 23.6105 8.30851 22.6933C12.3085 18.4633 13.6085 11.7433 13.6085 11.7433C13.6985 11.2333 13.0085 11.2233 13.0085 11.2233" fill="#F3F2FF"/>
<path d="M59.8185 16.4035L63.4285 12.4035C63.4285 12.4035 64.7485 10.8435 65.8585 10.8435H72.5985L73.5985 0.973471C69.0138 -0.511754 64.047 -0.291569 59.6117 1.59352C55.1764 3.47862 51.5709 6.90183 49.4585 11.2335H56.9585L59.8185 16.4035Z" fill="#F3F2FF"/>
<path d="M65.9285 27.1634C67.3885 28.5134 68.4785 28.4634 70.8585 27.7634L72.4485 11.9834L63.2585 22.8434C63.9186 24.4224 64.8342 25.8819 65.9685 27.1634" fill="#F3F2FF"/>
<path d="M49.2585 11.5737C48.0312 14.3599 47.3913 17.3692 47.3785 20.4137L46.9885 20.5737C44.9885 21.3137 45.4285 19.2137 45.5785 18.2437L46.7085 11.7137C46.7985 11.2037 46.1085 11.1937 46.1085 11.1937H43.5885C43.3658 11.1723 43.1427 11.231 42.9594 11.3593C42.7761 11.4876 42.6446 11.6771 42.5885 11.8937C42.1985 11.7437 39.3885 10.1737 36.8385 12.1737C35.5847 13.0916 34.5866 14.315 33.939 15.7275C33.2913 17.14 33.0158 18.6947 33.1385 20.2437L33.2185 20.5837C31.2185 21.2837 31.7285 19.2337 31.8285 18.2437L33.3385 5.11369C33.3385 4.60369 32.7485 4.59369 32.7485 4.59369H30.5985C30.3766 4.5842 30.1579 4.64884 29.9769 4.77739C29.7958 4.90595 29.6627 5.09111 29.5985 5.30369V5.41369L28.7885 11.8937C28.3985 11.7437 25.5985 10.1737 23.0485 12.1737C21.8095 13.1412 20.8283 14.3993 20.1916 15.8366C19.555 17.2739 19.2825 18.846 19.3985 20.4137L18.7885 20.6137C16.7885 21.3137 17.2985 19.2737 17.3985 18.2737L18.1485 11.7237C18.1485 11.2037 17.5485 11.2037 17.5485 11.2037H15.5485C15.3247 11.1757 15.0985 11.2318 14.9137 11.3612C14.729 11.4905 14.5988 11.6838 14.5485 11.9037L13.8585 19.3337C13.8585 19.3337 13.2185 25.0937 16.8585 24.6237C18.9285 24.3537 19.7085 21.3837 19.7085 21.3837C22.1585 27.3037 27.8885 22.8137 27.8885 22.8137C30.5485 26.7237 33.4385 23.3637 34.0785 22.4837C36.7485 26.6937 41.6985 22.8137 41.6985 22.8137C44.6285 26.2837 46.6985 24.0037 47.3185 23.1137L47.6685 22.6137V23.1537C47.9445 24.9932 48.4799 26.7844 49.2585 28.4737L54.8185 21.9637L49.2585 11.5737ZM27.6185 17.7937C26.9685 19.3837 25.9985 20.9737 24.4585 20.6337C23.4585 20.4137 23.0585 19.2137 23.7085 17.6337C24.3585 16.0537 25.5685 14.6337 26.8185 14.8837C27.7485 15.0937 28.2685 16.2137 27.6185 17.8037M41.4285 17.8037C40.7685 19.3937 39.8085 20.9837 38.2585 20.6437C37.2585 20.4237 36.8685 19.2237 37.5185 17.6437C38.1685 16.0637 39.3785 14.6437 40.6185 14.8937C41.5485 15.1037 42.0785 16.2237 41.4285 17.8137" fill="#F3F2FF"/>
<path d="M80.1685 4.66357L77.8785 23.2536C77.8785 23.2536 77.4085 26.4236 78.0085 27.2536C78.9485 28.5336 79.9385 28.4136 81.4685 28.0636C80.9185 36.0636 74.8985 34.1436 74.8985 34.1436C74.2242 33.9746 73.6001 33.6468 73.0783 33.1875C72.5564 32.7283 72.1519 32.1509 71.8985 31.5036C71.8985 31.5036 64.2385 39.1336 58.3385 28.5036L53.2485 34.1536C55.1606 36.0503 57.436 37.5413 59.9384 38.5372C62.4408 39.533 65.1185 40.0132 67.811 39.949C70.5034 39.8847 73.1552 39.2773 75.6072 38.1631C78.0592 37.049 80.2609 35.4511 82.0803 33.4653C83.8997 31.4795 85.2992 29.1467 86.195 26.6068C87.0908 24.0669 87.4643 21.3722 87.2933 18.6844C87.1222 15.9966 86.4101 13.371 85.1995 10.9651C83.989 8.55929 82.305 6.42272 80.2485 4.68357" fill="#F3F2FF"/>
<path d="M87.0385 35.0536C87.4934 35.0536 87.9381 34.9187 88.3163 34.666C88.6946 34.4133 88.9894 34.0541 89.1634 33.6338C89.3375 33.2135 89.3831 32.7511 89.2943 32.3049C89.2056 31.8588 88.9865 31.4489 88.6649 31.1273C88.3432 30.8056 87.9334 30.5866 87.4872 30.4978C87.0411 30.4091 86.5786 30.4546 86.1583 30.6287C85.7381 30.8028 85.3789 31.0976 85.1261 31.4758C84.8734 31.854 84.7385 32.2987 84.7385 32.7536C84.7385 33.3636 84.9808 33.9486 85.4122 34.38C85.8435 34.8113 86.4285 35.0536 87.0385 35.0536Z" fill="#F3F2FF"/>
<path d="M105.258 31.8435C105.199 32.3333 105.034 32.8043 104.775 33.2246C104.517 33.6449 104.171 34.0045 103.761 34.2788C103.351 34.5531 102.886 34.7358 102.399 34.8142C101.912 34.8927 101.414 34.8652 100.938 34.7335C100.557 34.6022 100.213 34.3789 99.9384 34.0835C99.5923 33.7384 99.3142 33.3314 99.1184 32.8835C98.893 32.301 98.7941 31.6772 98.8284 31.0535L99.2584 27.4435V26.1635C99.2513 25.9854 99.1883 25.8139 99.0784 25.6735C99.011 25.586 98.9223 25.5171 98.8208 25.4734C98.7194 25.4296 98.6084 25.4125 98.4984 25.4235C98.2371 25.429 97.9799 25.4897 97.7438 25.6017C97.5076 25.7138 97.2979 25.8746 97.1284 26.0735C96.6849 26.5645 96.3145 27.1169 96.0284 27.7135C95.6887 28.4066 95.4045 29.1255 95.1784 29.8635C94.9384 30.6569 94.7318 31.3869 94.5584 32.0535C94.3784 32.7335 94.2384 33.3235 94.1284 33.8035C94.0822 34.0899 94.0086 34.3712 93.9084 34.6435H90.1484L91.7484 21.6435C91.7484 21.6435 91.7484 21.2535 91.9084 21.1335C92.0541 21.0744 92.2117 21.0504 92.3684 21.0635H95.0684C95.0684 21.0635 95.5184 21.0035 95.4484 21.5135V23.1735C95.6957 23.0175 95.921 22.8291 96.1184 22.6135C96.4351 22.3111 96.7689 22.0273 97.1184 21.7635C97.513 21.4788 97.9392 21.2405 98.3884 21.0535C98.8807 20.8379 99.411 20.7225 99.9484 20.7139C100.486 20.7053 101.019 20.8038 101.518 21.0035C101.925 21.1776 102.29 21.4367 102.588 21.7635C102.884 22.0851 103.106 22.4673 103.238 22.8835C103.379 23.3299 103.45 23.7954 103.448 24.2635C103.448 24.2635 102.928 28.3635 102.938 29.7435C102.933 30.0347 103.018 30.3204 103.181 30.5619C103.344 30.8034 103.577 30.989 103.848 31.0935C104.079 31.1163 104.312 31.0906 104.533 31.0183C104.753 30.946 104.956 30.8286 105.128 30.6735C105.215 31.0654 105.271 31.4632 105.298 31.8635" fill="#F3F2FF"/>
<path d="M108.828 34.6437C108.496 34.6668 108.161 34.6668 107.828 34.6437C107.445 34.591 107.076 34.461 106.744 34.2616C106.413 34.0622 106.125 33.7976 105.898 33.4837C105.698 33.1237 105.378 32.8437 105.158 30.5937C105.158 30.5937 106.888 13.8837 107.068 13.6637C107.248 13.4437 107.338 13.5437 107.618 13.5437H108.428H109.288H110.088C110.338 13.5437 110.868 13.5437 110.828 13.7637C110.828 14.5837 108.628 28.7637 109.168 30.0337C109.283 30.2538 109.452 30.4407 109.659 30.5763C109.867 30.7119 110.106 30.7916 110.353 30.8077C110.601 30.8238 110.848 30.7757 111.072 30.6681C111.295 30.5606 111.487 30.3971 111.628 30.1937C112.018 30.9137 111.468 34.3537 108.868 34.6037" fill="#F3F2FF"/>
</svg>