<svg xmlns="http://www.w3.org/2000/svg" xmlns:xlink="http://www.w3.org/1999/xlink" version="1.1" id="Layer_1" x="0px" y="0px" viewBox="0 0 946.5 418.5" style="enable-background:new 0 0 946.5 418.5;" xml:space="preserve" width="946.5"  height="418.5" >
<style type="text/css">
	.st0{fill:#FFFFFF;}
</style>
<g>
	<g>
		<path class="st0" d="M181.8,18.2h4.6c25.7,0.5,51.1,7.8,73.2,20.9c26.1,15.3,47.5,38,62.8,64.1c38.1,65.2,38.3,150.7,0.6,216.1    c-14,24.3-33.3,45.7-56.8,61c-23.5,15.5-51.4,24.5-79.7,24.9h-4.5c-19.6-0.4-39.1-4.6-57-12.6c-34.5-15.2-62.6-43-80.8-75.7    C26.8,286.2,18,251,17.2,215.8v-7.5c0.6-29.3,6.6-58.5,18.6-85.3c14-31.5,36.2-59.7,65-78.9C124.6,28,153,18.7,181.8,18.2z     M166.2,21.8c-28.1,3.5-54.7,15.7-76.5,33.6c-23.8,19.5-42.1,45.4-53.8,73.7c-21.5,52.2-21.5,113,0,165.2    c10.5,25.4,26.2,48.9,46.6,67.5c24.4,22.5,56,37.6,89.2,40.3c32.6,3,65.9-5.9,93-24c22.3-14.6,40.7-34.6,54.4-57.4    c19-31.6,28.9-68.5,29.4-105.3c0.9-44.9-12.1-90.4-38.7-126.9c-17-23.4-39.5-42.9-65.9-54.9C219.8,22.7,192.5,18.5,166.2,21.8z"/>
	</g>
	<path class="st0" d="M180.7,27.9c4-3.2,9.5-2.8,14.2-1.6c0.1,1.9,0.3,3.7,0.2,5.6c-1.6-1.3-2-3.7-4-4.5c-2.7-1.2-6.4-0.4-7.8,2.4   c-1.5,3-1.5,6.9,0.1,9.8c1.3,2.4,4.6,4,7.1,2.6c0.6-1.7,0.3-3.5,0.2-5.3c-1.1-0.2-2.1-0.4-3.2-0.6l0-1.1c3.3,0.2,6.7-0.3,9.8,0.7   c-0.6,0.3-1.7,0.9-2.2,1.2c-0.1,2-0.1,4,0,6c-4.8,1.2-10.4,1.7-14.5-1.6C176.3,38.4,176.4,31.1,180.7,27.9z"/>
	<path class="st0" d="M164.2,27.8c2.5-1.6,5.7-1.4,8.5-1.9c-0.8,0.9-2,1.6-2.5,2.7c-0.3,4.6,2.4,9.7-0.2,14   c-2.7,3.3-8.3,4.3-11.8,1.8c-3.5-3.7-2.1-9.4-4.2-13.8c-1-0.3-2-0.5-3-0.7c3.2-1.6,6.9-1.6,10.4-2.1c-0.9,0.8-1.9,1.4-2.6,2.3   c0.1,2.9,0.7,5.8,1.3,8.7c0.4,1.9,1.4,4,3.4,4.6c2.5,0.9,5.5-0.9,5.7-3.6c0.3-3.5-0.4-7-1.4-10.4C167.6,27.8,165.3,28.5,164.2,27.8   z"/>
	<g>
		<path class="st0" d="M204,26.9c5.2,1.1,10.9,1.5,15.5,4.4c4.9,3.2,3.6,11.2-1.2,13.9c-3.5,2-7.6,1.3-11.4,0.5    c-2.3-0.6-4.8-0.8-6.9-2.1c1.2-0.5,3.4,0.1,3.7-1.7c1.1-3.6,1.8-7.3,2.5-11C206.9,29.1,204.8,28.2,204,26.9z M210.8,29.9    c-1,4.3-2.2,8.7-2.8,13.1c-0.2,2.2,2.8,2.1,4.3,2c4.7-0.8,6.3-6.6,5.5-10.7C217,31.2,213.6,30.2,210.8,29.9z"/>
	</g>
	<path class="st0" d="M132,36c3.4-1.2,6.7-3.2,10.3-3.1c-0.8,0.8-1.9,1.4-2.5,2.4c1,4,2.4,7.9,3.9,11.7c0.5,2.1,2.9,1.2,4.3,0.6   c2.6-0.7,1.9-3.9,3.1-5.8c0.6,1.9,0.9,3.9,1.1,5.9c-5,1.6-9.8,3.6-14.8,4.8c0.8-1,1.7-1.8,2.5-2.8c-0.9-4-2.4-7.8-3.8-11.6   C135.7,36.2,133.4,36.6,132,36z"/>
	<path class="st0" d="M229.2,33.1c3.3,1.2,6.7,2.4,9.7,4.3c-1.1,0.1-2.2,0.3-3.3,0.4c-1.4,1.8-2.1,4-3,6.1c-0.8,2.2-1.9,4.8-0.8,7   c1.4,2.5,5.3,3,7.1,0.7c2.1-2.6,3.3-5.9,4.3-9c0.8-1.8-1.3-2.9-2.1-4.2c2.9,0.8,5.7,1.9,8.1,3.6c-1.1,0.1-2.2,0.2-3.2,0.4   c-3.1,3.7-3.2,9.9-8.1,12c-4.1,1.2-9.7-1-10.9-5.4c-0.4-4.7,3-8.5,4-12.9C230.6,35.1,229.8,34.1,229.2,33.1z"/>
	<path class="st0" d="M121.7,44.7c3.1-1.6,7,1.6,6.1,5c-0.4,3.2-4.9,4.6-7.1,2.3C118.4,50.1,119,45.9,121.7,44.7z"/>
	<path class="st0" d="M253.1,44.1c2.2,0.8,4.1,2.2,6,3.5c0.8,5.3,1.6,10.6,2.4,15.8c1.8-2.7,3.9-5.3,5.1-8.4   c-0.5-1.2-1.2-2.2-1.7-3.4c2.7,1.4,5.1,3.1,7.5,4.9c-1.2,0-2.5-0.1-3.7,0c-3.5,4-6.1,8.6-9.1,12.9c-0.4-0.3-1.2-0.8-1.6-1.1   c-0.8-5.8-1.6-11.7-2.4-17.5c-1.9,3.1-4.3,6-5.7,9.3c0.4,1.2,1.3,2.2,2,3.3c-2.9-1-5.3-2.9-7.7-4.8c1.1,0,2.2,0.1,3.4,0.1   c1.6-1,2.4-2.7,3.5-4.2c1.5-2.4,3.6-4.7,4.2-7.6C254.4,46.1,253.7,45.1,253.1,44.1z"/>
	<g>
		<path class="st0" d="M102.4,52.6c0.1-0.4,0.4-1.3,0.6-1.8c4.6,2.9,9.1,6,13.8,8.8c1.5,1.1,3.4,0.3,5.1,0.5    c-2.6,2.2-5.3,4.1-8.2,5.8c0.3-0.9,0.6-1.8,1-2.7c-1.1-0.8-2.3-1.6-3.4-2.3c-1.5,1.1-3,2.1-4.5,3.2c0.4,1.3,0.8,2.5,1.3,3.8    c0.6-0.1,1.7-0.3,2.3-0.4l0.4,0.7c-2.1,1.5-4.2,3-6.5,4.3c0.5-1.5,1.7-3,1.3-4.7C104.6,62.6,103.2,57.7,102.4,52.6z M104.6,56.5    c0.5,2,1,4,1.5,6c1.2-0.8,2.4-1.7,3.6-2.5C108,58.8,106.3,57.6,104.6,56.5z"/>
	</g>
	<g>
		<path class="st0" d="M134,64.5c12.2-9.2,27.9-12.2,42.9-13c16.7-0.8,34.3,0.9,49,9.4c13.4,7.7,22.6,22.7,22.7,38.3    c0,20.2,0,40.3,0,60.5c-1.4,0.4-3.1,0.6-3.8,2.1c-1.1,1.6-0.1,3.4,0.5,5c0.5-1.5,0.6-3.2,1.8-4.3c1.1-1.2,2.8-1.1,4.3-1.4    c0.2,1.4,0.9,2.8,0.4,4.1c-0.5,1-1.5,1.7-2.2,2.5c1.9,4.1,6.9,6.4,11.1,4.6c2.8-1.2,5.4-4.6,3.8-7.6c-1.2,1.1-2.3,3-4.2,2.8    c-2.3,0.1-4.4-2.3-3.8-4.6c0.4-2.3,3-3.7,5.1-2.8c1.6,0.6,2.1,2.3,2.9,3.6c0.5-0.7,0.9-1.4,1.4-2.1c-1.7-1-3.8-2.4-3.3-4.7    c0.3-3.5,5.7-4.5,7.1-1.3c1.4,2.4-0.6,5-2.9,5.8c0.5,0.8,1,1.5,1.5,2.2c0.8-1.4,1.4-3.3,3.1-3.7c2.3-0.8,5,1.2,4.9,3.6    c0,2.2-2,4-4.2,3.8c-1.8-0.1-2.8-1.8-3.9-2.9c-1.5,3.2,1.2,6.7,4.1,7.8c4.1,1.6,9.1-0.6,10.8-4.7c-1.7-1.3-1.3-3.5,0-4.9    c1.1-1.3,2.9-1.4,4.5-2c-1.3-0.4-2.6-0.8-3.9-1.2c0.1-18.5,0-37,0-55.4c15.8,21.3,26.3,46.2,31.1,72.2c6.4,34.1,3.3,70-9.1,102.4    c-4.8,0-9.5,0.1-14.3,0c1.3,1.7,3,3.8,2,6c-0.8,1.8-3.2,1.5-4.8,1.7c-15,0.1-30,0-45,0c-1.8-0.1-4.5,0.1-5.2-2.1    c-0.7-2.2,0.9-4.1,2.2-5.7c-8.9,0.1-17.9,0-26.8,0.1c4.1-6.3,5.8-13.7,7.2-21c3.1-16.7,2.7-33.7,3-50.6c0.1-4.7-0.2-9.4-0.3-14.1    c1.4-2.1,1.1-4.8-0.4-6.8c-2.5-3.3-5.6-6.8-5.7-11.2c-0.3-5.8-2-11.5-3.9-16.9c1.3-0.4,3.5,0.1,3.9-1.6c0.5-2-0.9-3.8-1.9-5.4    c-2.5-3.4-4.5-7.2-5.3-11.4c-0.9-9.2,2-19.3-2.7-27.8c-2.2-4.3-7.3-5.3-11-7.7c-1.5,4.1-6.2,5.5-10.1,5.7c-3.7,0.1-7.8-0.4-10.6-3    c-1.2-1-1.1-2.6-1.3-3.9c-2.4,0.4-4.9,0.7-7.3,1.3c-2.5,0.6-4.4,2.6-5.3,5c-1.7,4.2-3.4,8.5-4.9,12.8c-3.3-3.7-6.9-7.3-10.7-10.5    c-1.6-0.2-3.2,0.4-4.7,0.7c6.2,5.3,12.2,11,16.7,17.9c-7.1-3.1-14.9-3.8-22.6-3.2c-0.9,1.3-1.9,2.6-2.8,3.9    c6.8-0.5,13.8-0.9,20.5,0.9c2.2,0.5,3.9,2,5.6,3.4c1.2,1.1,3.6,0.5,3.7-1.3c1.1-4.3,3.9-7.8,7-10.8c4.6-4.4,10.2-7.8,16.1-10.2    c2.2,6.8,4.3,13.5,6.5,20.3c1.6,0.3,3.1,0.5,4.7,0.8c-1.1-1.5-2-3.1-2.7-4.7c2.4-0.4,5.3-0.3,6.7-2.7c1.9-3.3,0-7-1.2-10.1    c0.3-0.1,0.9-0.2,1.1-0.3c1.1,3.2,2.9,6.7,2,10.2c-0.6,2.2-2.8,3.3-3.9,5.3c-0.5,1.7,0.7,3.1,1.9,4.1c0,1.4,0.1,2.8,0.1,4.3    c-5.4-1.7-11.1-2-16.8-2.3c0.5-0.5,1.6-1.4,2.1-1.9c-1.5,0.1-3,0.1-4.5,0.2c2.2-1.5,4.4-3.1,6-5.3c-0.5-0.7-1.1-1.4-1.6-2.1    c-2.3,0.9-4.6,2-7,2.5c1.4-2.3,3.3-4.3,4.3-6.8c-4.2,1-6.4,5.4-10.6,6.8c0-2,0.3-4.3-1.5-5.7c-0.9,3.3-2.4,6.3-3.3,9.6    c-3.2,2.6-7.5,3.9-11.5,3.2c-2.5-1.5-5.4-3.5-8.4-2.1c-3,1.9-4.3,5.5-4.9,8.8c-0.6,4.1-0.5,8.3,0.4,12.4c0.7,2.2,2,4.8,4.5,5.2    c2,0.2,3.6-1.2,4.9-2.5c3.2-3.4,5.2-7.8,6.6-12.2c6.4-1.6,10.8-7.9,17.8-7.8c-2.9,2.9-7.1,4.5-9.6,7.8c-2.3,5.6-5.9,10.5-7.4,16.4    c-1,2.5,2.3,4.2,1.4,6.6c-2.2,9.7-3.5,19.5-4.8,29.4c-0.1,1.4-0.2,3.2,1.1,4.1c4.8,2,10.3,0.3,15.1,2.3c-0.3,2.5-0.2,5.2-1.7,7.3    c-0.5-1.6-0.8-3.3-1-5c-3.4-0.6-6.9-0.7-10.3-0.7c-0.2,0.2-0.6,0.7-0.9,0.9c-0.8,3.3-0.4,6.8-0.9,10.2c-1,6.8-0.6,13.7-1,20.6    c-0.6,10.3-1,20.6-1.4,31c-5.9,0-12,0.1-17.8-1.5c-1.5-0.5-3.7-1.2-3.7-3.1c1.8-3.4,5.5-5.2,8.8-7c4-3.9,5.8-9.3,7.3-14.6    c0.9-3.7,2.3-7.4,2.2-11.2c-1.7,0.7-3,2.1-3.7,3.7c-1.9,3.6-3.6,8-7.7,9.7c-2.3,0.8-3.8-1.9-3.8-3.8c-0.1-3.8,2-8.4,6-9.3    c0.8,0.7,1.6,1.4,2.4,2.2c5.5-8.1,9.3-17.6,9.7-27.4c0-2.4,0.1-5.7-2.4-7c-1.7,0.6-2.1,2.8-3.6,3.8c-0.9-1-1.1-2.3-0.8-3.5    c1.2-6.7,3.4-13.2,5.7-19.6c1.2-3.5,2.9-6.8,3.7-10.4c-0.6-1-1.7-1.8-2-2.9c1.3-7.3,5.6-13.4,8-20.3c-2.6,1.6-3.6,4.7-5.1,7.2    c-7.4,14.7-11.8,30.7-14.8,46.8c-0.6,3.6-1.7,7.7,0.4,10.9c1.2,1.5,3,0.1,4.4-0.2c-2.3,8-8.8,13.7-11.8,21.3    c-2.2,5.4-4.3,11.9-1.1,17.3c1,1.8,2.2,3.9,1.4,6c-1.8,4.6-7.5,6.1-9.2,10.7c-0.9,2.1,0.2,4.4,1.8,5.8c2.3,2,5,3.4,7.5,5    c-4.1,0-8.1,0-12.2,0c1.3,1.7,3,3.8,2,6.1c-0.8,1.9-3.3,1.5-5,1.7c-15,0-30,0-45,0c-1.7-0.1-4,0.1-4.9-1.6c-1-2.2,0.6-4.4,1.9-6    c-4.3,0.1-8.5,0-12.8,0.1c-10.6-27.7-14.3-58-11.2-87.5c3.3-31.5,14.6-62.3,33.7-87.7c0,18.8,0,37.6,0,56.3    c-1.7-0.2-3.3,0.1-4.9,0.7c1.8,0.6,4,0.9,5,2.8c1.1,1.6-0.1,3.4,0,5.1c2.3,4.1,8.3,5.5,12,2.6c1.9-1.5,3.6-4.3,2.2-6.7    c-1.1,1.1-2,2.8-3.8,2.9c-2.2,0.3-4.4-1.6-4.3-3.8c-0.1-2.5,2.6-4.4,4.9-3.6c1.8,0.4,2.3,2.4,3.1,3.7c0.5-0.8,1-1.5,1.4-2.3    c-1.2-0.8-2.8-1.5-3.2-3.1c-0.7-2.4,1.4-5,3.8-4.8c2.3,0,4.2,2.4,3.6,4.7c-0.3,1.6-2,2.3-3.2,3.2c0.4,0.7,0.9,1.5,1.3,2.2    c0.8-1.3,1.4-3.1,3-3.7c2.3-1,5.2,1,5.2,3.5c0.1,2.4-2.3,4.3-4.6,3.8c-1.6-0.3-2.4-1.8-3.5-2.8c-1.6,3.1,1.1,6.5,4,7.6    c4.2,1.7,9.2-0.6,11-4.6c-2.3-1.5-3-4.1-1.9-6.6c1.4,0.3,3.1,0.3,4.2,1.5c1.1,1.1,1.2,2.8,1.8,4.2c0.4-1.6,1.4-3.4,0.3-5    c-0.8-1.7-2.7-1.8-4.2-2.1c0-20.9,0.1-41.9,0-62.8C117.8,84.4,124,72,134,64.5z M174.1,58.6c0.5,1,3.1,3,0.8,3.4    c-2.7-1.5-5.1-3.6-8.2-4c-3-0.4-6.6,0.7-7.9,3.6c-0.7,1.6,1,2.8,1.8,3.9c-1,1.8-2.2,3.7-1.7,5.9c0.7,4.2,7,6.4,9.8,2.8    c2.1-2.4,0.9-5.8,1.8-8.6c0.8-1.8,5.1-1.9,4.9,0.3c-1.4,1.8-3.3,3.3-4.3,5.5c-1.3,2.5-1.2,5.4-1.8,8.1c-1,2.8-4.4,3.6-5.6,6.2    c-1,2.6,1.8,4.5,2.6,6.7c-0.9,2.6-3.3,4.1-4.9,6.1c5,0.8,10.1,0.1,15.1-0.5c-0.4-0.3-1.1-1-1.4-1.4c-3.2,0.1-6.3,0.3-9.5,0.3    c2.3-2,4.6-5,3.3-8.2c-0.4-1.6-2.3-3.6-0.4-4.9c3.2-1.7,7-1.3,10.4-0.1c-2.1,0.3-4.5,0-6.4,1.1c0,0.4-0.1,1.3-0.1,1.8    c2.2-0.5,4.3-0.9,6.6-1c-0.7,0.4-1.4,0.8-2,1.2c-0.1,0.5-0.4,1.4-0.5,1.9c-0.9-0.2-1.6-0.7-2-1.7c-0.4,0.1-1.1,0.2-1.4,0.3    c1.2,3.7,1.7,7.9,4.7,10.6c1.7,1.6,4.3,1,6.4,1.3c-1.4,1-3.1,1.5-4.7,1.7c0.1,0.3,0.2,0.9,0.3,1.2c-1,0.2-2,0.4-3,0.6    c0.7,5.1,6.7,6.6,11,6.1c3.2-0.3,7.5-2.1,7.6-5.9c-1.1-2.5-2.7-4.7-3.1-7.4c4.8-0.5,9.8-0.5,14.4-2.3c-2.5-1.7-6.1-1.7-7.9-4.3    c-1.1-2.4,0.1-5.2-1.2-7.6c-0.9-1.8-3-2.4-4.6-3.3c0.1-3.9-2.2-6.9-4.5-9.8c4,0.2,4.7,5.4,8.5,6c2.7,0.6,5.9,0.8,8.1-1.3    c2.4-2.2,2.7-5.7,1.9-8.7c-1.1-3.5-6.2-4.2-8.9-2.2c-0.9,1.8-0.8,4.4-3,5.3c-2.3,1.1-4.6-0.7-6.4-1.8c2-1.4,4.9-3.1,4.4-6.1    c0-3.1-3.8-4.9-6.5-3.6c-1.9,0.7-2.2,2.9-3.1,4.4c-2.7-1-1-5-3.8-5.8C176.7,53.3,172.8,55.6,174.1,58.6z M59.7,160.9    c1.3,0.5,2.7,0.7,3.9,1.5c1.4,1.1,1.6,3,2.2,4.6c0.6-1.8,1.4-4.2-0.2-5.7C64,159.4,61.6,160.1,59.7,160.9z M136.1,160.9    c1.3,0.5,2.7,0.8,3.9,1.6c1.3,1,1.4,2.8,2,4.3c0.8-1.7,1.6-3.9,0-5.5C140.4,159.5,137.9,160.1,136.1,160.9z M225.8,160.8    c-2,1.4-1.3,4.1-0.6,6c0.7-1.6,1-3.8,2.6-4.8c1.1-0.6,2.3-0.8,3.5-1.2C229.6,160.2,227.4,159.3,225.8,160.8z M301.9,161.1    c-1.7,1.6-0.9,3.9-0.3,5.8c0.5-1.3,0.7-2.6,1.5-3.8c1.1-1.5,3.1-1.6,4.6-2.2C305.8,160.2,303.4,159.3,301.9,161.1z M68.1,163.8    c1.7,0.7,3.9,0.9,4.8,2.6c0.5,1.1,0.8,2.3,1.2,3.5c0.8-1.9,1.6-4.3-0.3-5.9C72.3,162.4,70,163.2,68.1,163.8z M127.7,163.9    c1.5,0.6,3.3,0.8,4.4,2c1,1.1,1.1,2.7,1.5,4c0.8-1.7,1.6-3.9,0.1-5.5C132.2,162.4,129.6,163.2,127.7,163.9z M233.8,164.2    c-1.7,1.6-0.9,3.9,0,5.6c0.4-1.4,0.5-3,1.5-4.1c1.1-1.2,2.9-1.4,4.3-1.9C237.8,163.2,235.3,162.4,233.8,164.2z M293.2,164.4    c-1.5,1.6-0.6,3.8,0.1,5.5c0.5-1.6,0.7-3.6,2.2-4.6c1.1-0.7,2.5-1,3.8-1.4C297.3,163,294.7,162.3,293.2,164.4z M118.7,168.6    c0.7,2.1,1.5,4.4,3.6,5.4c2.2,1.2,4.7,0.5,7-0.1c-2.1-0.1-4.5,0.3-6.3-0.9c-1.9-1.2-2.5-3.5-3.2-5.4    C119.4,167.9,118.9,168.4,118.7,168.6z M247.6,167.6c-0.7,1.9-1.2,4-3,5.2c-1.9,1.4-4.3,0.9-6.5,1.1c2.2,0.5,4.7,1.2,6.9,0.1    c2.2-1,2.9-3.4,3.6-5.5C248.4,168.3,247.8,167.8,247.6,167.6z M133.4,181.5c-21.8,0-43.5,0-65.2,0c0,14.3,0,28.6,0,42.9    c0,3.5,0.2,7.1,1,10.6c2.6,10.5,10.7,19.5,20.9,23.1c7.3,2.7,15.2,2.3,22.6,0.2c-8.6,4.4-19.1,5.1-28.1,1.5c0,5.5,0,10.9,0,16.4    c11.2,0,22.4,0,33.6,0c0-6.9,0-13.8,0-20.7c7.3-4.4,12.9-11.6,15.1-19.8c1.5-5.4,1.2-11,1.2-16.5c0-13.7,0.1-27.4-0.1-41.2    c-0.2-3.2,0.7-6.2,1.8-9.1C133.2,172.3,133.3,177.2,133.4,181.5z M231.8,168.8c0.9,2.5,1.9,5,1.8,7.6c0.1,14.6,0,29.1,0,43.7    c5.4,0,10.7,0,16.1,0c0-3,0-6,0-8.9c-1.7,0.4-3.3,0.7-5,1.1c0,0.7,0,1.9,0.1,2.6c-0.5-0.7-1.1-1.4-1.6-2.1    c-0.2,0.6-0.5,1.7-0.6,2.3c-0.1-0.6-0.4-1.8-0.5-2.4c-0.4,0.3-1.2,0.8-1.6,1c0.2-1.2,0.5-2.5,0.7-3.7c0.8,0.4,1.7,0.7,2.5,1.1    c1.2-0.7,2.4-1.4,3.6-2.1c-0.6-0.4-1.2-0.8-1.8-1.2c1.8-0.9,3-2.4,4.3-3.9c0-0.6,0.1-1.8,0.1-2.3c-0.8-0.4-1.7-0.8-2.5-1.2    c-1.9,2-4.5,3.4-5.7,5.9c-0.5-0.2-1-0.4-1.5-0.6c-0.5,0.5-1,1.1-1.5,1.6c0.1-0.6,0.2-1.8,0.3-2.4c-0.5,0.3-1.4,0.8-1.8,1.1    c0.3-1.1,0.4-2.2,0.4-3.4c1.1,0.2,2.2,0.6,3.2,1c1.3-1.5,2.7-2.9,4.1-4.3c-0.9-0.2-1.8-0.3-2.8-0.5c1.1-0.4,2.2-0.8,3.3-1.2    c-3-2.1-5.2-5.3-8.8-6.4c0.6-0.1,1.7-0.4,2.2-0.5c-0.5-0.4-1.5-1.3-1.9-1.7l1.9,0.3c-0.2-0.4-0.7-1.1-1-1.5c0.9,0.2,1.7,0.1,2.6,0    c0.2,0.9,0.4,1.8,0.6,2.7c2.8,1.4,5.5,5.7,8.9,3.9c2.2-1-0.2-2.8-1.5-3.1c1-0.3,2-0.5,3-0.8c-1.1-0.7-2.2-1.4-3.3-2.2    c1-0.6,2.1-1.2,3.1-1.8c1.7,0.3,3.5,0.4,5.2,0.1c-0.6,2.3-1.4,4.8-0.1,7.1c-0.7,0-2-0.1-2.7-0.1c1.2,1.5,2.9,2.2,4.6,2.9    c-1.6,0.4-3.2,0.6-4.8,0.9c2.7,1.8,5.5,3.6,8.9,3c-0.2-4.1-4.5-6.4-4.6-10.5c0.5-2.6,3.7-2.1,5.7-2.5c3,1.6,0.8,5.3,1.1,7.9    c-2.3-1.5-3.9-3.8-3.6-6.6c-0.9,0.4-2.3,0.5-2.2,1.8c0.9,3.6,4.6,5.9,4.6,9.8c1.1,0,2.2,0,3.3,0c0-6.4,0-12.7,0-19    c-10.6,0-21.1,0-31.7,0C235,177.1,235.2,172.1,231.8,168.8z M67.5,170.4c1.3,1.7,2.7,3.5,4.8,4c2,0.7,4.1,0,6-0.5    c-2.5-0.1-5.5,0.3-7.4-1.7C69.9,171.5,69.1,169.8,67.5,170.4z M298.6,169.9c-1.2,1.3-2.3,2.8-4.1,3.5c-1.8,0.6-3.7,0.4-5.5,0.5    c2,0.5,4.1,1.1,6.1,0.4c2-0.5,3.3-2.1,4.6-3.6C299.4,170.5,298.9,170.1,298.6,169.9z M267.9,181.5c0.1,6.3,0,12.7,0,19    c3.2,0,6.4,0,9.6,0c-0.5-0.4-1.6-1.2-2.1-1.6c1.1-0.3,2.1-0.6,3.2-0.9c-2.7-2.2-4.8-5.3-8.3-6.2c0.3-0.2,1-0.6,1.4-0.9    c-0.2-0.4-0.6-1.1-0.8-1.4c0.9-0.5,1.8-1.1,2.8-1.6c0.4,1.3,0.3,3.1,1.7,3.8c1.9,1.3,4,3.8,6.5,2.2c-0.8-0.5-1.5-1.1-2.3-1.6    c1.8-0.6,2.3-2.3,2.6-4c1.8,0.3,3.6,0.7,5.4,1.1c-0.2,1.7-0.3,3.5,0,5.2c-0.5,0-1.5,0-2,0c0.3,3.6,4.2,4.5,6.6,6.4    c1,0.9,3.5,0.4,3.2-1.3c-0.4-3.4-4-5.5-4.4-9c-0.2-1.4,1.1-2.6,2.4-2.6c1.6-0.3,4-1.1,4.7,1c0.5,2.1-0.4,4.3-0.2,6.4    c-2.4-1.4-4-3.8-3.6-6.7c-1.2,0.3-2.8,1.1-2,2.6c1,3.2,4.6,5.4,4.2,9c-0.3,1.6-2.3,1.8-3.5,2.3c0.4,0.8,0.8,1.5,1.2,2.3    c-0.3,0.4-0.8,1.3-1.1,1.7c0.8,1,1.9,1.5,3.2,1.7c-0.4,3.5-3.3,5.6-6,7.3c0.2,0.3,0.7,1,1,1.4c-0.2,0.4-0.4,0.8-0.7,1.2    c-0.3-0.4-0.9-1.2-1.2-1.6l-1,1.3c-0.1-0.4-0.4-1.1-0.5-1.5c-0.3,0.4-1,1.3-1.4,1.7c0.1-0.5,0.4-1.6,0.5-2.2    c-0.6,0.3-1.7,0.9-2.3,1.1c0.8-2.5,3.5-2.3,5.5-3.2c1.1-0.9,0.7-2.4,1-3.6c-1,0.4-2,0.9-3,1.3c0.8-2.4,0.5-5,0.5-7.5    c-1.2,1.7-2.6,3.2-4.2,4.5c0.4,0.2,1.2,0.6,1.6,0.8c-0.6,0.5-1.2,1-1.8,1.5c0,3.1,0,6.3,0,9.4c5.3,0,10.6,0,15.9,0    c0-12.9,0-25.8,0-38.8C289.4,181.5,278.6,181.4,267.9,181.5z M285.6,191.3c0.2-0.3,0.6-0.8,0.9-1c-1.4,0.2-2.7-0.3-4-0.8    C283.3,190.4,284.5,190.8,285.6,191.3z M282.1,193c1.1,0.1,2.2,0.3,3.3,0.4c-0.6-0.5-1.2-0.9-1.8-1.4    C283.1,192.4,282.6,192.7,282.1,193z M257.1,201.8c2.2,2.7,4.3,5.4,6.5,8.1c0.6,1.1,1.9,1.1,3,1.4c0-3.1,0-6.3,0-9.4    C263.5,201.8,260.3,201.8,257.1,201.8z M267.9,201.8c0,0.9-0.1,2.6-0.1,3.5c3,1,6.2,0.3,9.3,0.4c-1,0.6-2.1,1-3.1,1.7    c-0.2,1.2-0.2,2.4-0.3,3.6c0.5,0,1.4,0,1.8,0c0,1.4,0,2.7,0,4.1c1.3-0.1,2.8,0.2,3.8-0.9c1.2-1.6,0.7-3.8,1-5.7    c1.6,1.1,0.7,3.2,0.5,4.8c-0.6,2.3-3.3,2.5-5.2,2.8c0,1.3,0,2.7,0,4c2.5,0,5,0,7.6,0c0-6.1,0-12.3,0-18.4    C278,201.8,272.9,201.8,267.9,201.8z M284.3,202.1c-0.4,1.2,0.1,1.6,1.3,1.2C286,202.1,285.5,201.7,284.3,202.1z M267.7,205.9    c0.1,1.7,0.1,3.4,0.1,5.1c1.3,0,2.6,0,3.9,0c-0.1-1.3-0.1-2.6-0.3-3.8C270.3,206.6,269,206.3,267.7,205.9z M251.1,207.7    c0,4.2,0,8.3,0,12.5c2.5,0,5,0,7.6,0c0-1.1,0-2.1,0-3.2C256.2,213.9,253.6,210.8,251.1,207.7z M259.9,212.2c0,1.5,0,3,0,4.6    c1.5,0,3,0,4.6,0c0.1,1.7-0.3,3.6,0.4,5.2c1.4,0.2,2.9-0.2,4.2,0.3c1.2,2,0.3,4.6,0.6,6.8c2.7-1.5,4.4-4.1,4.7-7.1    c-1.4,0-2.9,0.2-4.3,0c-0.9-1.6-0.4-3.5-0.5-5.2c-1.7,0-3.4,0-5.1,0c0-1.5,0-3.1,0-4.6C263,212.2,261.4,212.2,259.9,212.2z     M269.7,212.2c0,1.5,0,3,0,4.6c1.5,0,3,0,4.6,0c0-1.5,0-3,0-4.6C272.7,212.2,271.2,212.2,269.7,212.2z M233.8,221.5    c0,3.7,0,7.5,0.5,11.2c6,0,12,0,18,0c-1.9-3.4-2.5-7.3-2.4-11.2C244.5,221.5,239.1,221.5,233.8,221.5z M251,221.4    c0,3.7,0.3,7.5,2.4,10.6c2.7,4.7,7.9,7.5,13.2,7.8c0-3,0.2-6.1-0.1-9.1c-0.3-0.2-1-0.5-1.3-0.7c-0.5,1.3-0.5,3.2-1.9,4    c-2.1,1.3-5.2,1.3-7-0.5c-1.2-2.3-0.4-5-0.9-7.4c-0.9-0.6-1.9-1-2.9-1.5c2.2-0.1,4.3-0.1,6.5-0.1c-0.1-1.1-0.2-2.2-0.3-3.3    C256.1,221.4,253.5,221.4,251,221.4z M275.5,221.5c-0.1,0.9-0.2,1.9-0.3,2.8c2,2.4,3.9,4.9,5.9,7.3c1.6-3.1,2-6.6,2-10    C280.6,221.5,278,221.5,275.5,221.5z M284.4,221.5c0,2.4-0.2,4.7-0.6,7.1c2.7-0.2,5.4-0.2,8-0.1c2,0.1,4-1.1,4.6-3.1    c-2.6,0.4-5.2,1.2-7.9,1.4c0.1-1,0.2-1.9,0.4-2.8c0.6-0.1,1.9-0.4,2.6-0.5c-0.9,1-1.9,1.9-2.8,2.8c2.9,0.2,5.9-2.6,8.6-0.6    c-1.1,1.6-2.7,2.8-4.5,3.5c0.7,1.3,1.5,2.6,3.1,2.6c-0.3,1.2-0.7,2.3-1,3.4c-0.6-0.1-1.2-0.1-1.8-0.2c0.7-0.6,1.3-1.2,1.9-1.9    c-1.4-0.5-2.8-1.2-4-2.2c-1.6,1.8-3.2,3.7-5.6,4.4c1.5-1.8,3.3-3.3,4.5-5.3c-2.6,0.7-5.1,1.8-7.8,2.2c-3,5-8.4,8.4-14.3,8.8    c0,6.3,0,12.7,0,19c12.1-0.4,23.7-7.7,28.9-18.7c3.1-6.1,3.6-13.2,3.4-20C295,221.5,289.7,221.5,284.4,221.5z M259.8,221.9    c0.3,3,2,5.7,4.7,7.1c-0.2-2.2,0.7-4.8-0.6-6.8C262.5,221.9,261.1,222,259.8,221.9z M258,232.7c1.6,3.1,6.7,1.2,6.1-2.3    c-2-1.4-3.9-3.1-5.3-5.2C257,227.3,257.5,230.2,258,232.7z M268,230.1c-0.2,3.3-0.2,6.6-0.1,9.9c2.6-0.4,5.1-1.1,7.4-2.3    C272.9,235.2,271.4,231.4,268,230.1z M239.9,246.3c2.4,3.2,5.3,6,8.6,8.3c0,7.2,0,14.5,0,21.7c11.8,0,23.6,0,35.4,0    c0-5.5,0-11,0-16.4c-9.1,3.7-19.6,2.9-28.3-1.5c3.6,0.9,7.3,1.7,11.1,1.9c0-4.6,0-9.3,0-13.9C257.7,246.3,248.8,246.2,239.9,246.3    z M73.6,284.1c17.9,0.2,35.8,0.1,53.7,0c-0.8-4-4.9-6.8-8.8-6.6c-12,0-24,0-36,0C78.5,277.4,74.4,280.1,73.6,284.1z M239.7,284.2    c17.9,0,35.8,0.1,53.7-0.1c-0.9-4.1-5.1-6.9-9.2-6.6c-12.3,0.1-24.5,0-36.8,0C243.9,277.9,240.1,280.4,239.7,284.2z"/>
	</g>
	<path class="st0" d="M83.4,68.5c2-3,4.8-5.6,8.1-7.2c-0.5,1-1,1.9-1.6,2.8c1.9,2.8,4.3,5.1,6.5,7.6c1,1.1,1.9,2.3,3.3,2.9   c0.6-0.2,1.7-0.7,2.2-0.9c0.1,0.2,0.4,0.5,0.6,0.7c-2.7,2.1-4.7,5.2-8,6.3c0.5-0.9,1-1.8,1.6-2.7c-2.6-3.6-5.6-6.8-8.7-9.9   C86.2,66.8,84.6,68.4,83.4,68.5z"/>
	<g>
		<path class="st0" d="M274.8,63.6c6.1-1.5,12.7,3.9,12.6,10.1c-0.1,4.3-3.5,8-7.6,8.9c-6.3,1.3-12.8-4.8-12.1-11.1    C268.1,67.7,271.2,64.5,274.8,63.6z M278.4,66.2c-3.8,1.4-6.8,5-7.4,9c-0.5,3.2,3,6.1,6,4.7c3.7-1.6,6.6-5.2,7.1-9.2    C284.5,67.6,281.2,65,278.4,66.2z"/>
	</g>
	<path class="st0" d="M73.8,77.7c1.8-1.8,3-4.6,5.6-5.6c-0.4,1-0.9,2.1-1.4,3.1c3.1,2.9,6.5,5.5,9.9,8.1c1.4,1.5,3.1-0.4,4.6-0.8   c-1.9,3.2-4.4,6-7.1,8.6c0.3-1.2,0.6-2.3,1-3.4c-3.1-3.1-6.6-5.6-10-8.3c2.2,5,4.9,9.9,7.1,15c-5.2-0.7-10-2.7-15.1-4   c2.9,2.5,5.6,5.5,8.9,7.6c1.2-0.3,2.4-0.8,3.6-1.1c-1.7,2.3-3.4,4.7-5.6,6.5c0-1.3,1.1-3-0.2-4.1c-2.9-3.1-5.9-6.3-9.3-8.8   c-1.2,0.3-2.2,1-3.3,1.5c1.1-2.2,2.8-4,4.3-5.8c4.2,1.1,8.4,2.2,12.6,3.3C77.5,85.5,75.6,81.6,73.8,77.7z"/>
	<path class="st0" d="M178.7,83.4c3.1-3.4,7.9-5.5,12.5-4.4c1.9,0.5,2.2,2.6,2.4,4.2c-1.4-1-2.6-2.7-4.5-2.6   C185.4,80.4,182,81.9,178.7,83.4z"/>
	<path class="st0" d="M180.4,85.7c1.9-1.3,4.3-2,6.6-1.4c-0.7,0.2-2.1,0.6-2.8,0.8c-0.3,0.7-0.5,1.5-0.8,2.2   C182.4,86.8,181.4,86.2,180.4,85.7z"/>
	<path class="st0" d="M290.6,83.9c2.5-1.3,6,0.4,6.2,3.2c0.6,3.4-3.5,6.2-6.4,4.5C287.3,90.2,287.5,85.3,290.6,83.9z"/>
	<path class="st0" d="M177.7,92.3c1.2-0.6,2.5-0.9,3.8-1.3c0.1,0.2,0.5,0.7,0.6,1C180.6,92.1,179.2,92.3,177.7,92.3z"/>
	<g>
		<path class="st0" d="M304.7,90.5c2.5,2.7,4.3,5.9,6.3,9c1.2,1.9,2.2,4.8,0.2,6.5c-1.7,1.7-4.2,0.6-5.8-0.5    c0.3,1.4,0.9,2.8,0.5,4.3c-0.7,2.3-3.5,3.7-5.7,2.7c-2.2-0.9-3.6-2.8-4.9-4.6c-1.7-2.6-3.5-5.1-5-7.9c1,0.4,2,1,3.1,1.4    c1.4-0.3,2.5-1.3,3.8-2c2.6-1.9,5.5-3.3,7.8-5.5C304.9,92.7,304.8,91.6,304.7,90.5z M302.5,100.6c1.2,1.5,3,3.8,5.2,2.5    c2.7-1.2,1.6-4.3,0.1-6C306,98.3,304.2,99.4,302.5,100.6z M296.2,105.2c-0.6,1.2,0.4,2.4,1.3,3.2c2,1.5,5.1,0,5.6-2.4    c0.2-1.8-0.9-3.3-1.6-4.8C299.7,102.5,297.6,103.5,296.2,105.2z"/>
	</g>
	<path class="st0" d="M178.1,94.9c1.8-0.4,3.6-0.7,5.4-0.9C182.2,95.7,179.8,96.9,178.1,94.9z"/>
	<path class="st0" d="M57.9,98.4c1.5,0.8,3.1,1.6,4.5,2.5c-1.3,0.2-2.6,0.2-3.9,0.4c-1.6,1-2.3,2.9-3.3,4.4c1.8,1.1,3.6,2.2,5.4,3.3   c0.7-1.3,1.5-2.5,2-3.8c-0.4-1-0.8-1.9-1.3-2.9c2.2,0.8,4.6,1.8,5.9,3.9c-0.7-0.1-2.1-0.2-2.8-0.3c-0.9,1.3-1.7,2.6-2.5,3.9   c2,1,3.8,2.8,6.1,2.9c1.3-1.2,2.2-2.8,2.8-4.5c0.1-1.7-1.2-3.1-1.4-4.8c1.5,1.1,2.8,2.3,4.1,3.6c-2.1,3.5-4.3,7.1-6.4,10.6   c-0.6,1.1-1.4,2.1-2.4,2.9c0.1-1.1,0.3-2.2,0.4-3.3c-1.3-1.5-3.1-2.3-4.8-3.4c-2.4-1.3-4.6-3-7.2-3.9c-1,0.4-2,1.1-3,1.5   C52.5,107,55.3,102.8,57.9,98.4z"/>
	<g>
		<path class="st0" d="M301.2,116.8c1.5,0.7,2.9,1.9,4.6,1.8c5.3-0.2,10.5-0.6,15.8-0.8c0.2,0.3,0.6,0.9,0.8,1.2    c-3.6,4.1-7.2,8-10.7,12.2c-1.2,1.2-0.7,3-0.8,4.5c-2.3-2.5-3.5-5.9-4.6-9.1c0.8,0.6,1.5,1.1,2.3,1.7c1-1,2-2,3-3    c-0.8-1.7-1.6-3.3-2.5-5c-1.4,0.2-2.7,0.4-4,0.6c0,1,0,2.1,0,3.1C303.4,122,302.3,119.4,301.2,116.8z M310.8,120.1    c0.7,1.3,1.3,2.7,2,4c1.4-1.5,2.8-3.1,4.2-4.6C314.9,119.7,312.9,119.9,310.8,120.1z"/>
	</g>
	<g>
		<path class="st0" d="M44.1,123.9c1.6-3.1,4.7-6,8.4-5.5c5.2,0.4,9.2,5.8,7.9,10.9c-1,4.5-3,8.9-5.5,12.7c0-0.8-0.1-2.3-0.1-3.1    c-1-1.4-2.8-1.7-4.2-2.5c-2.8-1.1-5.5-2.8-8.5-3.4c-1,0.6-1.8,1.2-2.8,1.9C40.6,131,42.3,127.4,44.1,123.9z M43.5,128.5    c4,1.9,7.9,3.8,12.1,5.4c1.9,0.9,2.8-1.7,3-3.1c0.8-5-4.8-8.2-9.1-8.2C46.2,122.6,44.5,125.8,43.5,128.5z"/>
	</g>
	<path class="st0" d="M90.4,121.5c2.2-0.9,4.5-1.3,6.8-1.8c0.1,4.9-0.2,9.7,0.1,14.6c0.8,0.6,1.5,1.2,2.3,1.7   c-3.1,0.1-6.2,0.1-9.2,0c0.9-0.5,1.8-1,2.6-1.5c-0.1-4,0.4-8.1-0.2-12.1C92.3,122.1,91,121.7,90.4,121.5z"/>
	<path class="st0" d="M103.7,120c2.7,0,5.4,0,8.2,0c-0.2,1-0.3,2-0.5,3c-2.2,0-4.4,0-6.6,0c-0.2,1.1-0.4,2.2-0.5,3.2   c2.5-0.6,5.8-0.9,7.4,1.5c1.9,2.5,0.3,6-2.2,7.3c-2.4,1.8-5.4,1.3-8,0.2c0.5-0.9,1-1.8,1.5-2.7c1.4,0.8,2.7,2,4.3,2.2   c2.3-1.4,1.8-5.7-0.8-6.6c-1.3-0.3-2.6,0-3.8,0C103,125.5,103.4,122.8,103.7,120z"/>
	<path class="st0" d="M254.1,125c0.2-1.7,0.4-3.3,0.6-5c3.8,0,7.6,0,11.5,0c-2.5,5.3-4.9,10.7-7.2,16.1c-1.3,0.1-2.7,0.1-4,0.2   c2.7-4.3,5.5-8.7,7.9-13.2C259.9,123.2,256.4,122.5,254.1,125z"/>
	<path class="st0" d="M268.9,120c2.7,0,5.4,0,8.1,0c-0.2,1-0.3,2-0.5,3c-2.2,0-4.4,0-6.6,0c-0.2,1.1-0.4,2.2-0.5,3.2   c1.9-0.3,3.9-0.9,5.7,0.1c2.3,1,3.3,4.1,2,6.3c-1.9,3.4-6.9,5.1-10.2,2.6c-0.2-1,0.7-1.7,1.1-2.5c1.6,0.7,3.6,3.3,5.3,1.5   c1-1.8,0.7-4.5-1.2-5.6c-1.4-0.6-2.9-0.2-4.4-0.2C268.2,125.5,268.5,122.8,268.9,120z"/>
	<path class="st0" d="M322.1,131.4c1.8-0.8,3.8-1.3,5.7-1.9c0.1,2.8,1.3,5.3,2.3,7.8c1.1,2.8,1.8,5.7,3.6,8.1   c-1.8,0.8-3.7,1.6-5.6,2.2c0.7-1.6,3-2.8,2.3-4.8c-0.2-0.9-0.5-1.9-0.8-2.8c-4.5,1.8-9.3,3.1-13.6,5.3c-0.2,1.2-0.3,2.4-0.3,3.7   c-2-3.2-3-6.9-4.2-10.5c1.3,0.7,2.3,2.8,4.1,2.1c4.2-1.4,8.3-3.1,12.5-4.5c-0.7-1.2-1.1-2.6-2.1-3.6   C324.7,132.1,323.3,131.9,322.1,131.4z"/>
	<path class="st0" d="M145.7,144.9c0.4-3,1.3-6.8,4.6-7.8c-0.7,3.1-2.5,6.6-0.5,9.6c1.7,2.6,5.2,1.7,7.7,1.6c-1.4,3.4-3,7.2-6.3,9.2   c-1.7,1.2-4,0.2-4.6-1.6C145.1,152.4,145.4,148.5,145.7,144.9z"/>
	<g>
		<path class="st0" d="M50.1,146.8c1.9,0,2.9-1.8,4.2-2.9c-0.7,3.3-1.2,6.9-3.3,9.7c-0.1-0.7-0.3-2-0.3-2.7    c-1.4,0.1-2.8,0.1-4.3,0.2c-0.5,1.8-1.1,3.5-1.6,5.3c1.1,0.8,2.3,1.5,3.4,2.2c0.7-0.7,1.5-1.4,2.2-2.2c-0.5,2.7-1.3,5.4-2.4,7.9    c-0.6-1.6-0.8-3.5-2.3-4.6c-3.9-3.4-7.9-6.6-11.8-10c0-0.4,0-1.1,0.1-1.5C39.5,147.7,44.8,147.3,50.1,146.8z M38.6,151.8    c1.6,1.3,3.3,2.6,4.9,3.8c0.4-1.4,0.9-2.9,1.3-4.3C42.7,151.5,40.7,151.6,38.6,151.8z"/>
	</g>
	<path class="st0" d="M204.7,153.4c3.6-3.4,11.2-3.4,12.7,2.2c0.1,2.2-2,1.7-3.5,1.6c-0.6-1.4-0.9-3.3-2.5-3.9   C209.2,152.3,206.9,153.2,204.7,153.4z"/>
	<g>
		<path class="st0" d="M318.8,160c-0.9-2.6-1.9-5.3-1.9-8.1c1.1,0.9,1.8,2.5,3.3,2.7c5.2,1.1,10.5,1.4,15.7,2.6    c0.3,0.3,1,0.8,1.4,1.1c-4.2,3.3-8.6,6.4-12.9,9.7c-1.6,1.1-1.8,3-2.5,4.6c-0.9-3.2-2-6.3-2.3-9.7c0.5,0.4,1.5,1.3,2,1.8    c1.2-0.6,2.3-1.4,3.4-2.2c-0.5-1.8-0.9-3.6-1.4-5.4c-1.3-0.1-2.7-0.1-4-0.1C319.4,158,319.1,159,318.8,160z M325.3,157.1    c0.4,1.4,0.7,2.9,1.1,4.3c1.7-1.2,3.4-2.4,5.1-3.6C329.4,157.6,327.4,157.4,325.3,157.1z"/>
	</g>
	<path class="st0" d="M205.5,158c1,2.5,1.4,5.2,2.6,7.6c1,2.3,2.7,4.1,3.7,6.4c0.7,2.8-2.7,3.7-3.7,6c-1.2,0.6-2.3,1.2-3.4,1.9   c-2.7,0.4-5.4,0.7-8,1.2c0.4-1.2,0.7-2.4,1.3-3.5c1.2-0.7,2.5-1.1,3.6-1.9c1.5-1.2,1.7-3.2,2.2-4.9   C207.4,167.4,205.4,162.1,205.5,158z"/>
	<path class="st0" d="M30.1,178.5c-2.7-4.4-1.5-9.8,0.4-14.2c1.7,0.1,3.5,0.3,5.2,0.4c-0.1,0.3-0.4,0.8-0.5,1   c-1.6,0.5-3.5,0.9-4.4,2.5c-1.8,2.9-0.7,7.1,2.5,8.6c4.1,2.3,11.1,1.8,12.3-3.5c1-3.4-2.4-5.3-3.7-7.9c1.9,0.6,3.7,1.5,5.5,2.5   c-0.1,4.4-0.3,9.3-3.6,12.6C40,184.3,32.8,183.2,30.1,178.5z"/>
	<path class="st0" d="M163.6,165.6c4.1-1.2,8.5-0.5,12,1.9c0.1,1.9-0.2,4,1,5.7c1.4,2.5,4.3,3.3,6.9,3.9c0.5,2.6,1.9,4.9,4.1,6.5   c-1.5,0.2-3.1,0.8-4.5,0.2c-2-0.6-3.1-2.8-5.2-3.2c-1.5-0.4-3.1-0.9-4.1-2.2c-2.4-2.7-2.4-6.5-2.4-9.9c-2.2-1.2-4.6-1.8-7.1-2   C164.1,166.2,163.8,165.8,163.6,165.6z"/>
	<path class="st0" d="M335.8,171c1.6-0.9,2-2.8,2.8-4.2c0.7,3.4,1.4,6.8,1.4,10.2c-0.6-0.8-1.3-1.6-1.9-2.5c-3.4,2-6.7,4.2-10,6.2   c3.8,0.7,7.5,1.7,11.4,2.2c0.4-1,0.7-1.9,1.1-2.9c0.8,2.7,1.2,5.5,1.4,8.3c-1.3-1.1-2.4-2.8-4.1-3.3c-5-1.7-10.2-2.6-15.2-4.2   c-0.1-0.3-0.2-1-0.3-1.3C326.7,176.5,331.4,173.9,335.8,171z"/>
	<path class="st0" d="M242.1,186.4c-2.2-0.3-2-3.5-0.1-4.2C242.1,183.6,242.1,185,242.1,186.4z"/>
	<path class="st0" d="M258.8,183.1c0.4,0,1.1,0,1.5,0c0,1.1,0,2.1,0,3.2c-0.4,0-1.1,0-1.5,0C258.8,185.2,258.8,184.2,258.8,183.1z"/>
	<g>
		<path class="st0" d="M185,187.7c7.8-2.1,15.7-4.5,23.9-3.9c0.7,0.9,1.5,1.8,2.3,2.7c-1,0.8-2,1.7-2.9,2.6c-1.2-1.6-2.8-3.4-5-3.4    c-2.7-0.5-4.5,1.9-5.8,3.8c-1.9-0.3-4-0.8-5.9,0.1c-2.4,1.1-3.4,3.9-3.5,6.4c-0.3,4.4,1.5,8.7,3.4,12.6c-1.8,5.1-3.1,10.6-2.1,16    c0.8,5.7,4.1,10.5,6.6,15.5c3.3,7.4,5.2,15.3,7.8,22.9c-0.2-8-1.4-16.1-4-23.7c-2.5-5.8-6.1-11.4-6.4-18c-0.5-7.2,3.9-13.3,5-20.2    c0-1.7-1.5-2.7-2.7-3.7c-1.5,1.6-1.9,3.8-2.5,5.8c-0.8-2.8-2.1-5.7-1.5-8.6c0.5-2.3,3.5-2.2,5.1-1.2c2.4,1.6,3.7,4.4,4.6,7.1    c1,3.3-1.3,6.4-1.3,9.6c0.8,1.8,2.8,2.5,4.3,3.5c-1.3,3.4-2.5,7.1-1.7,10.8c0.8,3.7,6.2,5.4,9,2.9c0.2-1.6,0.1-3.3,0.4-4.9    c0.6-2.7,2.3-5.1,2.8-7.9c0-1.8-0.6-3.6-0.8-5.4c-0.4-0.1-1.3-0.4-1.7-0.5c-0.3,1-0.7,1.9-1.5,2.6c-0.1-1-0.2-2.1-0.2-3.1    c-0.3-0.4-1-1.3-1.4-1.7c1.8,0.5,3.6,1.1,5.4,1.7c0.5-2.3-0.4-4.4-1.5-6.3c-0.3-3.8,2.8-7,6.2-8.1c1.6,1.9,1.7,4.4,1.4,6.8    c-0.8-1.2-1.2-3.7-3.2-3.4c-1.5,0-2.5,1.8-1.8,3.1c1.9,5.4,3.7,10.8,5.1,16.3c1.3,6.8-2,13.2-3.7,19.5c-2.2,8.5-4.2,17.3-3.2,26.1    c1.8-11.3,4.4-22.5,8.8-33c-0.4,13-1.9,26-5.2,38.7c-1.4,5.6-4.5,10.6-8.5,14.6c-11.6-7.2-19.9-19.2-22.8-32.5    c-1.7-7.9-2-16-2.2-24C183.8,213.2,183.2,200.4,185,187.7z M196.8,211.7c-1.1,1.5-1.6,3.4-1.4,5.2c0.3,4.2-0.5,8.9,1.9,12.7    c2,3.3,5.8,4.7,9.1,6.2c-1,2.1-2.1,4.2-2,6.6c0.1,2.7,1.4,5.2,2.4,7.7c-0.1-3.3-0.7-6.7,0.4-9.9c1.7-3.8,5-6.4,7.8-9.3    c2.2-2.2,2.6-5.3,3.4-8.1c0.6-2.6,1.7-5.4,0.7-8c-0.3-0.8-1.1-2.6-2.1-1.4c-1.7,4.3-1.1,9.2-3.1,13.5c-1.2,2.6-3.5,4.3-5.4,6.3    c-2.9-1.5-6.6-2.5-8.3-5.6c-2.1-4.3-0.7-9.3-2-13.8C197.8,213,197.8,211.8,196.8,211.7z M209.9,237.8c2.3,3.7,1.7,8.1,1.2,12.2    c2.2-4.4,3.6-9.8,0.7-14.2C211.1,236.5,210.5,237.2,209.9,237.8z"/>
	</g>
	<path class="st0" d="M282.2,185c0.7,0.7,1.4,1.5,2.1,2.2l1-1.8l1.2,1.7c-1.3,0.6-2.8,0.6-4.2,0.5   C282.2,187.1,282.2,185.7,282.2,185z"/>
	<g>
		<path class="st0" d="M40.6,189.3c1.8-0.5,2.5-2.3,3.7-3.6c-0.4,3.3,0.3,7-1.3,10c-0.2-0.6-0.6-1.9-0.8-2.5    c-1.4,0.4-2.8,0.7-4.1,1.1c-0.1,1.8-0.3,3.7-0.4,5.5c1.3,0.5,2.6,1.1,3.9,1.4c0.4-0.6,1.1-1.9,1.4-2.5c0.6,2.6,0,5.2-0.1,7.7h-0.8    c-0.5-1.4-1-2.9-2.5-3.5c-4-2.2-8.2-4.2-12.3-6.4c-1-0.4-1.7-1.3-2.2-2.2C30.2,192.6,35.4,191.1,40.6,189.3z M30.5,196.6    c1.8,0.9,3.7,1.8,5.5,2.7c0.1-1.5,0.2-3,0.3-4.5C34.5,195.4,32.5,196,30.5,196.6z"/>
	</g>
	<path class="st0" d="M287.5,188.6c-1.9,0.1-0.1-2.8,1-2C288.7,187.5,288.4,188.1,287.5,188.6z"/>
	<path class="st0" d="M216,187.6c1.1-0.3,2.2-0.5,3.3-0.8c1.7,1.4,2.9,3.3,3.7,5.4c-1.8-0.7-3.7-1.1-5.6-1   C216.9,189.9,216.4,188.7,216,187.6z"/>
	<path class="st0" d="M243.6,187.3c0.5-0.1,1.4-0.2,1.8-0.3c0,0.5-0.1,1.6-0.1,2.1c0.6,0.3,1.8,0.8,2.5,1   C246,189.9,243.7,189.6,243.6,187.3z"/>
	<g>
		<path class="st0" d="M89.1,187.8c1.8-0.3,3.6,0.3,5.3,0.6c2-0.3,4-1.1,6-1c1.7,0.9,3.3,2,5,2.9c0,0.7-0.1,1.5-0.1,2.2    c-1.3,0.3-2.6,0.4-3.9,0.8c-1,1-1.2,2.5-1.8,3.7c1.8-0.4,3.6-0.7,5.5-1c0,0.8,0,1.7,0,2.5c-1.4,0.3-3.9,0-4,2    c0.6,2.2,3.3,3.2,5.3,2.4c2.3-0.8,3.5-3,4.9-4.8c0.3,1.6,0.6,3.2,0.7,4.9c2.8-2.6,6.1-4.7,8.7-7.5c0.2-2.6,0.8-5.2,2.9-6.9    c-0.2,0.8-0.4,2.5-0.6,3.3c1.4-0.7,2.8-1.4,4.3-2c-0.8,1.2-1.7,2.3-2.6,3.5c1.5-0.1,2.9-0.2,4.4-0.3c-1.3,0.9-2.7,1.8-4,2.7    c1.4,0.6,2.8,0.8,4.3,1.1c-1.4,1.3-3.1,1.8-5,1.9c-2.9,3.6-6.3,6.7-10,9.5c1,3.4,5.2,0.9,7.1-0.5c-0.2,1.4,0.2,3-0.8,4.2    c-1.6,1.9-4.3,2-6.6,2.4c2.6,2.6,5,5.3,7.4,8c1.6-3,5.5-2.8,7.5-0.4c-1.3,0.1-2.6,0.2-3.9,0.3c1.5,1,2.9,2.1,3.2,4    c-1.1-0.6-2.1-1.2-3.1-1.9c-0.2,1.6-0.5,3.3-0.9,4.8c-1-1.3-1.6-3.9-3.8-3.2c-0.6,0.7-1.2,1.5-1.7,2.3c-0.4-1.5-0.7-3-1.3-4.5    c-4.5-1.5-8.6-4-11.8-7.4c-2.9,1.7-6.5,1.4-9.2,3.4c2.8,0.7,5.8,0.7,8.3,2.3c1.9,1.1,3.2,2.9,4.7,4.5c1.1,1.4,3.1,1.2,4.7,1.6    c-1.2,2.4-3.7,3.2-6.1,3.4c2.3,1.6,4.4,3.4,6.6,5.2c1.7-0.9,3.3-2,5.2-2.2c1.4-0.1,2.2,1.3,3.1,2.2c-1.2,0-2.4,0.1-3.6,0.1    c0.9,1.6,1.7,3.3,2.2,5.1c-1.1-0.6-2.2-1.2-3.4-1.7c-0.1,1.4-0.3,2.8-0.8,4.1c-0.7-1.3-1.3-2.7-2.7-3.3c-0.7,1-1.4,1.9-2.2,2.9    c-0.2-1.6,0.7-4.6-1.7-4.9c-5-1.2-10.9-1.8-14.1-6.4c1.1-0.5,2.2-1,3.4-1.5c-3.3-2.5-6.2-5.5-8.5-8.9c1.2,3.2,1.3,6.5,1.1,9.9    c-0.3,2,1.1,3.4,2.4,4.7c-3,0.3-5.8-0.9-7.8-3c0.5,2.7,0.5,5.9,2.5,8.1c1.9,2.1,5.1,0.9,7.2,2.5c1.3,1,1.5,2.7,2,4.2    c-1.2-0.8-2.5-1.6-3.7-2.4c0.2,0.9,0.7,2.8,0.9,3.8c-1-0.8-2.1-1.6-3.1-2.3c0,0.8,0.1,2.4,0.2,3.2c-0.9-1.4-1.8-2.9-2.8-4.3    c-1.1,1.1-1.7,2.6-2.1,4.1c-2.2-1.4-1-3.8,0.5-5.2c-5.7-3.3-12.4-8-11.8-15.5c1.4,0.3,3.2,1.3,4.3-0.1c1.3-2.5-0.9-4.9-2.4-6.8    c1.3-0.5,2.6-1,3.9-1.4c0.1-0.5,0.3-1.6,0.4-2.1c-2.4-0.3-5.4-0.8-6.5-3.2c-1.6-3.6,0.6-7.4,2.7-10.3c2.2-3.5,5.7-6.7,5.7-11.1    c-0.2-2-2.4-2.2-4-2.4c0,2.1-0.3,4.3-2.1,5.7c-2.1,1.7-4.4,3.4-5.2,6.1c-0.4-4.6-1.6-10.1,2-13.8c1.2-1.4,3-0.6,4.4-0.1    c2.1,0.2,4.7,0.1,6.1,2.1c1.9,2.8,0.5,6.3-1.1,8.9c-2.3,4.1-6.3,7.4-6.9,12.2c-0.5,2.4,2.2,3.6,4.1,3.7c2.3,0.4,3.7-1.9,5.4-2.9    c2.4-2.1,5.7-2.7,7.8-5.1c-3.2-0.1-6.7,0.4-9.3-2c2.4-1.1,4.9-2.3,6.5-4.6c-1.9,0.3-3.8,0.6-5.8,0.4c1.3-1.7,3.2-3.1,3.8-5.3    c0-2.2-0.8-4.4-0.4-6.7C91.1,189.5,89.8,188.7,89.1,187.8z M97.5,189.3c0.9,0.8,1.8,1.6,2.7,2.4c0.6-0.9,1.2-1.7,1.8-2.6    C100.5,189.2,99,189.3,97.5,189.3z"/>
	</g>
	<path class="st0" d="M111.3,188.7c2.4-0.7,3.2,2.6,1.8,4c-1.9,2.1-5,1.6-7.6,1.7c1.9-0.5,3.8-1,5.6-1.9   C111,191.3,109.5,189.3,111.3,188.7z"/>
	<g>
		<path class="st0" d="M324.4,187.5c1.1,1.3,1.9,3,3.6,3.5c3.4,1.3,6.8,2.4,10.2,3.6c1.9,0.7,4.1,1.1,5.4,2.9    c-5,2.6-10.1,4.9-15.1,7.5c-1.5,0.7-1.7,2.5-2.3,3.8c-1.2-3.1-0.8-6.6-1.1-9.9c0.5,0.5,1.5,1.5,2,2c1.3-0.4,2.4-0.9,3.7-1.5    c-0.1-1.9-0.2-3.7-0.3-5.6c-1.3-0.3-2.6-0.6-4-0.9c-0.4,0.9-0.8,1.9-1.5,2.7C324.5,193,324.3,190.2,324.4,187.5z M332.2,198.7    c1.9-0.9,3.7-1.7,5.5-2.6c-1.9-0.7-3.9-1.3-5.8-1.8C332,195.7,332.1,197.2,332.2,198.7z"/>
	</g>
	<path class="st0" d="M200.5,191.5c1.1-0.8,2.3-1.5,3.5-2.1c2.3,2.9,3.3,7.2,1.7,10.5C204.2,196.9,202.6,194,200.5,191.5z"/>
	<path class="st0" d="M210.3,192.3c0.3-1.4,1.7-2.7,3.2-2.1c0.6,1.4,0.5,3-0.6,4.2c-1.4,1.6-1.6,4.1-3.6,5.1   C209.4,197,209.7,194.6,210.3,192.3z"/>
	<path class="st0" d="M236.7,195.4c0.4,0,1.1,0,1.5,0c0,1.1,0,2.2,0,3.2c-0.4,0-1.1,0-1.5,0C236.7,197.6,236.6,196.5,236.7,195.4z"/>
	<path class="st0" d="M223.4,204.1c0.1,2.4,0.1,4.8,0.1,7.3C222.4,209,222,206.5,223.4,204.1z"/>
	<path class="st0" d="M201.6,209.3c2.2-1,4.6-1.8,6.8-2.7c-0.5,0.6-0.9,1.3-1.4,1.9c-0.2,1.1-0.5,2.2-0.8,3.2   c-0.5-0.8-1-1.6-1.5-2.4C203.7,209.5,202.6,209.7,201.6,209.3z"/>
	<path class="st0" d="M176.1,206.6c1.5,0.1,3.1,0.3,4.6,0.4c0,12.3-0.2,24.6,1.3,36.8c1.3,10.8,5.5,21.4,12.8,29.6   c2.2,2.6,5,4.6,7.5,6.9c0.4,1-0.8,1.2-1.5,1.5c-4.2,1.7-8.7,1.9-13.1,2.5c-3.2,2.9-7.1,4.8-11.1,6.3c-2.5,0.9-5.2,0.4-7.6-0.3   c3.5-0.2,9.1-0.7,9.6-5.1c-1.6-1.6-4-1.2-6.1-1.5c-2.7-0.1-5.1-1.7-7.5-2.7c-20.4,5.4-40.8,10.8-61.2,16.2   c-0.5,1.4-0.9,2.7-1.4,4.1c-9,0.8-18.1,1.8-27.1,2.5c8.1-3.4,16.3-6.8,24.4-10.2c1.2,0.7,2.4,1.4,3.7,2.2c20-5.1,40-10.4,60-15.4   c-1.3-0.7-2.6-1.4-3.8-2.2c2.9-0.6,5.7,0.4,8.3,1.5c3.4,0.3,6.9,0.6,10.3,0.8c1.6-14.7,1-29.5,0.7-44.2c-0.4-4.1,0.1-8.5-1.3-12.5   c-1,7.4,0.3,14.9-0.6,22.3c-0.1,1.2-0.6,2.2-1,3.3c-0.7-2.6-0.9-5.2-0.8-7.8C175.4,230,175.7,218.3,176.1,206.6z"/>
	<path class="st0" d="M235.3,211.6c0.4,0,1.1-0.1,1.4-0.2c0,1.1,0.1,2.3,0.1,3.4c-0.4,0-1.2-0.1-1.6-0.2   C235.3,213.6,235.3,212.6,235.3,211.6z"/>
	<path class="st0" d="M31,212.2c2.8-1.7,6.9,0.6,6.6,3.9c0,3.4-4.5,5.4-7.1,3.2C28.1,217.7,28.4,213.6,31,212.2z"/>
	<path class="st0" d="M333.3,212.2c3-1.5,6.8,1.3,6.2,4.6c-0.4,3.3-5,4.8-7.4,2.5C329.8,217.4,330.5,213.3,333.3,212.2z"/>
	<path class="st0" d="M206.8,213.4c1.2-0.2,2.4-0.3,3.6-0.4c0.2,0.2,0.7,0.7,1,0.9C209.9,214.2,208.3,214.2,206.8,213.4z"/>
	<path class="st0" d="M246.5,215.6c0.4,0,1.1-0.1,1.5-0.1c0,1.1,0,2.2,0,3.4c-0.4,0-1.1-0.1-1.5-0.1   C246.5,217.7,246.5,216.7,246.5,215.6z"/>
	<path class="st0" d="M206.2,223c0.5-2.3-0.2-5.8,2.4-7.1c3.5,0.3,1.4,4.7,1.5,7C208.8,222.9,207.5,223,206.2,223z"/>
	<path class="st0" d="M42.4,225.4c1.5,3.4,1.4,7.2,1.8,10.8c-0.8-1-1.4-2-2.2-3c-4.1,0.2-8.3,1-12.3,1.8c5.1,1.9,10.6,2.8,15.5,5.1   c-4.3,2.9-8.8,5.4-13.1,8.2c3.9-0.5,8.1-0.3,11.8-1.6c0.3-1,0.6-2.1,0.9-3.1c1.5,2.5,1.1,5.6,1.5,8.3c-1.1-0.8-1.8-2.8-3.5-2.5   c-4.2,0.1-8.5,0-12.6,0.9c-0.3,0.9-0.5,1.8-0.6,2.7c-0.2,0-0.7,0.1-0.9,0.1c-0.3-2.2-0.6-4.4-0.9-6.6c3.6-2.4,7.3-4.6,10.8-7.1   c-4.1-1.3-8.1-2.4-12.2-3.7c-0.4-2.6-0.8-5.2-0.8-7.8c0.8,1,1.4,2.1,2.2,3.1c4.3-0.3,8.5-1.1,12.8-1.9   C42.3,228.9,41.7,226.5,42.4,225.4z"/>
	<path class="st0" d="M324.8,228.2c0-1,0.3-1.9,1-2.7c0.3,1,0.5,2.1,0.9,3.1c4.3,1.1,8.8,1.3,13.1,1.6c1.4,0.2,1.5-1.7,2.1-2.5   c0.2,0.1,0.6,0.3,0.8,0.4c-0.6,3.4-0.3,6.9-1.5,10.1c-0.7-1.2-0.3-3.5-2.2-3.7c-4.2-0.5-8.4-1.3-12.7-1.1c-1.2,1.4-1.1,3.4-0.9,5.1   c0.8,1.6,3,2,3.5,3.8c-1.9-0.5-3.7-1.1-5.5-1.7C323.9,236.6,324.3,232.4,324.8,228.2z"/>
	<path class="st0" d="M284.9,237.8c0.9-0.1,1.8,0,2.7,0.1c-0.9,1.3-2.5,1.6-3.8,2.1c2.9,2.4,7.7-1.6,9.8,2.3c-1.7,1.7-4,2.4-6.4,2.6   c0.5,1,1,2,1.9,2.8c-1.7,1.4-3,3.6-5.3,4.2c0.9-1.1,1.9-2.1,2.8-3.2c-0.8-0.8-1.6-1.6-2.4-2.5c-2.4,2.1-2.5,6.9-6.4,7   c1.9-1.6,3.3-3.7,4.4-5.9c-2.5,0.8-5.5,1.1-7.4,3.1c-1.5,1.4-3.2,3.6-5.5,2.5c2.6-0.9,4.7-2.7,5.8-5.2c-1.5-1.9-3.7-3.2-4.7-5.4   c1.7,1.2,3.3,3.4,5.7,2.6c1.9-0.3,1.3-2.9,1.7-4.2c0.3,0.4,1,1.3,1.4,1.7c0.6-0.1,1.7-0.2,2.3-0.2c-0.8,1.3-1.6,2.6-2.3,4   c1.8-0.5,3.4-1.5,5.1-2c2.7-0.4,5.9,0.6,8-1.6l-0.2-1.1c-3-0.7-6.4,1.2-9-1.1C283.7,239.4,284.2,238.5,284.9,237.8z"/>
	<path class="st0" d="M320.1,258.5c0.6-3.5,1-7.2,2.4-10.5c0.6,1.2,0.2,3.6,2.1,3.7c4,1,8,1.9,12.1,2.5c0.9-0.7,1.7-1.6,2.6-2.4   c-0.6,3.4-0.8,7.1-2.5,10.2c-0.5-1.2,0-3.3-1.7-3.5c-3.7-1-7.4-1.7-11.2-2.4C322.1,255.4,321.3,257.6,320.1,258.5z"/>
	<path class="st0" d="M33.1,262.6c4.3,0.1,8.4-2.8,12.8-1.9c3.4,0.7,5.2,4.2,5.6,7.4c0.4,2.3-0.3,4.9-2.4,6.2   c-3.4,2.1-7.6,2.2-11.2,3.9c-0.8,1-0.7,2.4-1.2,3.5c-1.3-3.3-2.3-6.8-2.9-10.3c1.2,0.8,2,2.8,3.7,2.2c3.5-0.9,7.3-1.6,10.2-3.8   c2.9-2.3,1-7.6-2.7-7.6c-3.8,0.1-7.6,1.3-11,2.9c-0.4,1.2-0.7,2.5-1,3.7c-1.1-2.7-1.9-5.6-2.4-8.4C31.4,261.2,32.2,262,33.1,262.6z   "/>
	<g>
		<path class="st0" d="M315.7,273.2c0.9-2.4,1.4-5.1,2.9-7.2c0.5,1.2-0.4,3.2,1.1,3.8c3.6,1.5,7.4,2.7,11.1,3.8    c1.7,0.8,2.7-1.2,3.9-1.9c-0.9,3.7-2.2,7.4-3.5,11c-0.8,2.1-2.6,4.3-5.1,3.6c-2.2-0.4-2.6-2.8-2.9-4.7c-0.9,1-1.7,2.3-3.1,2.8    c-2.2,0.9-5.1-0.6-5.7-2.9C313.9,278.6,314.9,275.8,315.7,273.2z M318.8,280c3,1.2,4.7-2,5.6-4.3c-2.1-0.7-4.2-1.6-6.4-1.8    C315.2,274.9,316,279.5,318.8,280z M325.4,276c-0.2,1-0.5,2.1-0.6,3.1c-0.1,2.2,2.8,3.6,4.5,2.4c1.1-0.8,1.4-2.3,2-3.4    C329.5,277.4,327.4,276.7,325.4,276z"/>
	</g>
	<g>
		<g>
			<path class="st0" d="M563.4,198.8c6.9-1.2,13.7-2.5,20.5-4c0.1,24.5-0.2,49.1,0.2,73.6c-0.6,5,5.2,3.8,8.3,4     c0,0.8-0.1,2.4-0.1,3.2c-6.9,1.1-13.8,2.6-20.5,4.7c0-2.3,0-4.5,0-6.8c-5.3,2.5-10.4,7.6-16.7,6.3c-8.1-1.2-15.4-6.9-18.5-14.4     c-3.9-9.5-2.1-21,4.7-28.7c7.4-8.7,19.6-12,30.6-10.1c-0.2-7.3,0.4-14.6-0.4-21.8c-1.1-3.2-5.4-2.2-8-2.9     C563.4,200.8,563.4,199.8,563.4,198.8z M554.9,233.6c-5.8,4.9-6.6,13.1-6.3,20.2c0.3,7.2,3.7,15.2,10.9,17.9     c4.2,1.7,8.7-0.1,12.4-2.1c-0.1-11,0.2-21.9-0.1-32.9C569.1,230.5,559.8,229.3,554.9,233.6z"/>
		</g>
		<path class="st0" d="M513.2,198.7c4.7-2.1,10.5,2,10.4,7.1c0.4,6-7.8,10-12.3,5.9C506.6,208.5,507.9,200.5,513.2,198.7z"/>
		<path class="st0" d="M391.5,208c11.6,0,23.2-0.1,34.8,0c0,0.8,0,2.3,0,3.1c-3.3,0.6-7.6,0.3-9.7,3.5c-1.8,3.4-1.6,7.5-1.7,11.2    c0,12.7-0.1,25.4,0.1,38c0.1,3,0.5,7.2,4.1,7.8c4.8,0.8,10.1,1.1,14.5-1.2c5.3-3.3,8.4-8.9,12-13.8c0.9,0.2,2.7,0.7,3.6,0.9    c-2.3,7-4.7,14-6.8,21c-17.1,0-34.3,0-51.4,0c0-0.8,0-2.4,0-3.2c3.2-0.6,7.4-0.2,9.4-3.3c1.6-3.3,1.2-7.1,1.4-10.6    c0-13.2,0.1-26.3-0.1-39.5c-0.2-2.9,0.1-6.1-1.9-8.5c-2.2-2.2-5.6-2-8.5-2.5C391.4,210.3,391.5,208.8,391.5,208z"/>
		<g>
			<path class="st0" d="M462,232.1c5.5-4.9,13.4-7.3,20.6-5.4c7.4,2,13.1,9.2,12.9,16.9c-0.1,1.5,0.1,4-1.9,4.2     c-10.1,1.3-20.3,1.4-30.4,2.1c0.1,7.3,2.7,15.4,9.7,18.9c6.7,3.8,15.1,1.9,20.8-2.8c0.4,0.5,1.3,1.5,1.7,2     c-4.3,5.7-10.2,10.9-17.5,11.9c-8.8,0.8-18.3-3.4-22.7-11.2C448.5,256.9,451.8,240.8,462,232.1z M470.7,232     c-4.4,2.9-5.9,8.2-6.9,13.1c6.5-0.1,13.1,0.1,19.6-0.5c0.6-4.2-0.4-8.7-3.6-11.7C477.5,230.4,473.4,230,470.7,232z"/>
		</g>
		<path class="st0" d="M502.6,230.4c6.7-1.2,13.3-2.7,19.8-4.5c0,14.1-0.1,28.2,0,42.3c0.2,2-0.2,4.9,2.1,6c1.9,0.8,3.9,0.9,6,1.3    c0,0.8,0.1,2.4,0.1,3.2c-9.6,0-19.1,0-28.7,0c-0.7-4.8,4.8-2.9,7.2-5.1c1.3-1.9,0.9-4.3,1.1-6.4c0-8.9,0-17.9,0-26.8    c-0.2-2,0.2-4.5-1.4-6.1c-1.9-0.9-4-0.9-6.1-1.3C502.7,232.4,502.6,231,502.6,230.4z"/>
		<g>
			<path class="st0" d="M606.5,232.8c6.2-6.1,16.3-8.8,24.4-4.9c7,3.3,11.8,11.9,9.2,19.5c-10.3,2.1-21.1,1.6-31.6,2.5     c0.3,4.6,0.8,9.5,3.6,13.5c3.9,6.1,11.9,8.9,18.8,6.9c3.1-0.8,5.6-2.9,8.4-4.2c0.3,0.5,0.9,1.4,1.1,1.9     c-3.8,5.7-9.7,10.4-16.5,11.8c-8.9,1.2-18.5-2.8-23.2-10.6C593.8,257.8,596.7,241.8,606.5,232.8z M615.8,232.1     c-4.3,2.9-5.8,8.2-6.7,13c6.5-0.1,13.1,0.1,19.6-0.5c0.5-4.2-0.4-8.9-3.7-11.8C622.6,230.4,618.5,230.1,615.8,232.1z"/>
		</g>
		<path class="st0" d="M647.8,230.4c6.7-1.2,13.3-2.7,19.8-4.5c0,2.8,0,5.5,0,8.3c3.5-2.2,6.9-4.7,10.7-6.5    c6.2-3.1,14.8-1.6,18.9,4.3c2.3,3.1,2.8,7,2.9,10.7c0.1,8.2-0.1,16.4,0,24.6c0.1,2.2,0,4.5,1,6.6c2.1,1.1,4.4,1.4,6.7,2v3    c-9.2-0.1-18.5,0.1-27.7-0.1c0.4-3.9,4.5-3.4,7.1-5.1c1.6-7.5,0.4-15.4,0.8-23c-0.1-5.1,0.7-11.9-4.2-15.1c-5.3-3.2-11.5,0-16,3.1    c-0.2,9.2,0,18.4-0.1,27.6c0.1,2.5-0.2,5.2,1,7.6c1.7,1.2,3.7,1.4,5.7,2.1c0,0.7,0,2.2,0,3c-9.1,0-18.1,0-27.2,0    c0-1-0.1-2.1,0-3.1c3.2-0.7,8.5-0.5,8.2-5.1c0.3-11.2,0.4-22.4-0.1-33.5c0-3.8-4.7-3.2-7.3-4.1C647.9,232.2,647.8,231,647.8,230.4    z"/>
	</g>
	<g>
		<path class="st0" d="M538.2,85.4c4.6-1.6,9.8,2.2,9.7,7.1c0.3,5.7-7.2,9.6-11.6,6C531.2,95.4,532.6,86.9,538.2,85.4z"/>
		<path class="st0" d="M755.7,85.4c4.6-1.8,10.1,2.1,9.9,7c0.3,5.8-7.5,9.7-11.9,5.8C749,95.2,750.4,87.1,755.7,85.4z"/>
		<path class="st0" d="M874.4,85.6c4.7-2.3,10.6,1.7,10.4,6.8c0.3,5.7-7.2,9.6-11.6,6C868.4,95.6,869.4,87.7,874.4,85.6z"/>
		<path class="st0" d="M384.6,94.6c10.8,0,21.6,0,32.4,0c0,0.8,0,2.3,0,3.1c-2.1,0.4-4.3,0.5-6.3,1.3c-2,0.9-2.6,3.3-2.8,5.3    c-0.6,6.9-0.3,13.9-0.3,20.8c0,7.5-0.1,15.2,2.5,22.4c1.7,4.7,5.5,8.8,10.5,9.8c6.2,1.2,13.6,0.7,18.2-4.2c4.5-5,5.8-12,6.3-18.5    c0.5-9,0.3-18-0.2-27c-0.4-2.6-0.2-5.8-2.5-7.5c-2.7-1.8-6.1-1.8-9.2-2.4c0-0.8,0-2.3,0-3.1c10,0,20,0,30.1,0c0,0.8,0,2.3,0,3    c-3.2,0.6-7.9,0.9-8.9,4.7c-3.3,15,1.1,30.9-4.4,45.5c-3.3,9.2-12,15.8-21.7,17.1c-8.4,1-17.8-0.2-24.6-5.5    c-6.1-4.8-8.1-12.9-8.6-20.2c-0.7-11.2,0.1-22.4-0.5-33.6c-0.2-2.2-0.4-5-2.6-6.2c-2.3-1.1-4.9-1.1-7.3-1.5    C384.6,97,384.6,95.4,384.6,94.6z"/>
		<path class="st0" d="M783.8,106.6c3.3-2.9,6.4-6.1,10-8.7c0.3,0.1,1,0.4,1.3,0.5c0.6,5.3,0.1,10.6,0.2,15.9    c4.7,0.2,9.4-0.5,14,0.4c0.4,1.6-0.2,3.3-0.5,4.8c-4.5,0.1-9,0-13.5,0c0,9.1,0,18.2,0,27.3c0.1,3.5,0.3,7.7,3.4,10    c3.2,2.1,7,0.2,10.2-0.8c0.3,0.7,0.9,2.1,1.2,2.8c-6.1,2.4-12,8-19,5.4c-5.3-1.2-7.5-7-7.4-11.9c-0.2-11,0-21.9-0.1-32.9    c-2.8-0.3-6.2,0.8-8.7-0.9c1.1-1.6,2.5-3.1,3.9-4.5c1.6,0,3.2,0.1,4.8,0.1C783.8,111.6,783.8,109.1,783.8,106.6z"/>
		<path class="st0" d="M903,106.6c3.7-3.1,6.9-7,11.3-9.1c0.4,5.6,0.2,11.2,0.2,16.8c4.7,0,9.3,0,14,0c0,1.7,0.4,3.5-0.6,5    c-4.4,0.7-8.9,0.2-13.3,0.3c-0.1,9.1-0.1,18.3,0,27.4c0.1,3.6,0.4,7.8,3.6,10c3.2,1.8,6.8,0,10-1c0.4,0.9,0.9,1.8,1.3,2.8    c-6,2.4-11.9,7.9-18.8,5.6c-5-1-7.6-6.2-7.6-10.9c-0.3-11.3,0-22.6-0.1-33.9c-2.7,0-5.3,0.1-8-0.2c-1.2-2.2,2.1-3.5,3.1-5.1    c1.6,0,3.3,0,4.9,0C903,111.6,903,109.1,903,106.6z"/>
		<path class="st0" d="M463.5,116.5c6.6-1.2,13.1-2.7,19.6-4.5c0,2.7,0,5.4,0,8.1c4-2.4,7.8-5.4,12.2-7.1c6.2-2.1,14,0.1,17.3,6    c2.8,4.8,2,10.5,2.2,15.8c0.1,7.3-0.3,14.6,0.3,21.9c0.1,3.4,4.2,3.1,6.6,3.8c0,0.8,0,2.3,0,3.1c-8.6,0-17.2,0-25.8,0    c0-1,0-2,0-3.1c2-0.6,4.5-0.4,6.1-1.9c1.1-1.9,0.8-4.2,0.9-6.3c0-7.3,0.1-14.6,0-21.8c0-3.3-0.9-7-3.8-9c-3.9-2.6-9-1.5-12.8,0.8    c-1.3,1-3.6,1.7-3.2,3.8c0,10.2-0.4,20.4,0.2,30.6c0,4.5,7.5,1.7,6.4,6.8c-8.9,0.1-17.9,0-26.8,0c0-0.8,0-2.3,0-3.1    c2.4-0.6,5.2-0.3,7.2-2c1.4-2.9,0.8-6.3,1-9.4c-0.2-8.9,0.4-17.9-0.3-26.7C470.5,117.9,463.3,121.2,463.5,116.5z"/>
		<path class="st0" d="M527.4,116.5c6.5-1.3,13-2.7,19.3-4.5c0,13.4,0,26.8,0,40.2c0.2,2.1-0.2,4.5,1.2,6.3c1.9,1.5,4.5,1.3,6.8,1.9    c0,1,0,2.1,0,3.1c-9.2,0-18.4,0-27.7,0c0-0.8,0-2.3,0-3.1c2.3-0.6,5.2-0.3,7-2.2c1.2-2.9,0.7-6.2,0.8-9.3    c-0.2-8.7,0.3-17.5-0.2-26.2c-0.1-3.7-4.5-3.2-7.1-3.8C527.5,118.3,527.4,117.1,527.4,116.5z"/>
		<g>
			<path class="st0" d="M621.8,116.5c5.3-3.7,12.2-5.3,18.5-3.5c7,2.1,12.5,9,12.3,16.4c-0.1,1.4,0.2,3.8-1.7,4     c-9.9,1.3-19.9,1.4-29.8,2.1c0,7.2,2.7,15.3,9.7,18.6c6.6,3.6,14.5,1.5,20.1-2.9c0.4,0.5,1.2,1.5,1.5,2.1     c-4.2,5.4-9.7,10.3-16.6,11.5c-9,1.1-18.6-3.4-22.9-11.5C606.2,141,610.5,124.5,621.8,116.5z M630,117.1     c-5.5,2.1-7.5,8.3-8.5,13.6c6.2-0.2,12.4,0.2,18.5-0.4C643,124.5,637,114.9,630,117.1z"/>
		</g>
		<path class="st0" d="M659.4,116.4c6.3-1.1,12.5-2.6,18.7-4.3c-0.1,4.3-0.3,8.5-0.4,12.8c3.8-4.9,7.6-12,14.6-12.1    c5.9-0.1,7.9,8.2,3.4,11.5c-3.7,3.5-7.1-3.2-11.2-1.6c-3.9,1.5-7,5.6-6.5,10c0.2,7.6-0.5,15.3,0.4,22.9c1.1,4.4,6.5,4.2,10,4.8    c0,1,0,2.1,0,3.2c-9.8,0-19.6,0-29.4,0c-0.7-4.5,4.4-2.9,6.7-5c1.2-1.8,0.9-4.1,1-6.2c0-8.7,0-17.4,0-26.1c-0.2-2,0.2-4.3-1.3-5.8    c-1.8-0.9-4-1-5.9-1.4C659.6,118.3,659.5,117,659.4,116.4z"/>
		<path class="st0" d="M713.9,113.8c6-2.3,12.7-1.7,18.7,0.4c1.2,4,2,8,2.7,12.1c-0.8,0.1-2.3,0.2-3.1,0.3    c-2.8-4.3-5.8-9.8-11.6-9.9c-5.1-0.6-9.1,6-5.9,10.1c4.5,5.9,13,6.1,18.1,11.2c6.6,5.4,6.2,16.5-0.3,21.9    c-8.1,6.8-20.5,6.5-29.1,0.8c-1.1-4.5-1.6-9.2-1.7-13.8c0.8,0,2.2,0,3,0c2,5.9,6.1,12.1,12.6,13.5c4.8,1.1,10.2-2.9,9.3-8.1    c-0.7-5.7-6.6-7.9-11.1-10c-5.4-2.3-11.1-6.5-11.7-12.9C702.9,122.6,707.6,116,713.9,113.8z"/>
		<path class="st0" d="M749.8,115.5c5-0.8,9.8-2.2,14.7-3.5c0,13.4,0,26.9,0,40.3c0.1,2-0.1,4.4,1.1,6.2c1.9,1.6,4.6,1.4,6.9,2    c0,0.8,0,2.3,0,3.1c-9.2,0-18.4,0-27.6,0c-0.1-1-0.1-2.1-0.1-3.1c2.4-0.7,6-0.2,7.3-2.8c0.9-3.9,0.5-8,0.6-11.9    c-0.1-7.6,0.3-15.3-0.2-22.9c0-3.9-4.9-3.2-7.5-4C744.7,115.9,747.7,116,749.8,115.5z"/>
		<g>
			<path class="st0" d="M824.7,118.3c6.4-5.9,16.8-8.2,24.6-3.5c6.1,3.6,10.1,11.5,7.6,18.4c-10.1,1.9-20.5,1.6-30.8,2.4     c0.2,4.5,0.8,9.2,3.4,13c3.8,5.9,11.6,8.7,18.3,6.8c3-0.8,5.5-2.9,8.4-4c0.3,0.4,0.8,1.3,1,1.8c-3.7,5.6-9.4,10.1-16.1,11.5     c-8.7,1.2-18.1-2.7-22.6-10.4C811.6,142.8,814.8,126.9,824.7,118.3z M833.2,118.1c-4.2,2.8-5.7,8-6.6,12.7     c6.4-0.1,12.8,0.1,19.1-0.5c0.5-4.2-0.4-8.7-3.7-11.6C839.8,116.4,835.8,116.1,833.2,118.1z"/>
		</g>
		<path class="st0" d="M864.4,116.4c6.5-1.2,12.9-2.6,19.3-4.4c0,12.7,0,25.4,0,38c0.1,2.4,0,4.9,0.5,7.2c1.2,4,8.6,0.8,7.7,6.2    c-9.3,0.1-18.6,0-28,0c0-0.8,0-2.3,0-3.1c2.5-0.7,6.9-0.2,7.5-3.6c0.7-6.2,0.2-12.5,0.3-18.7c-0.2-5.4,0.4-10.9-0.4-16.3    c-0.9-2.8-4.7-2.1-6.9-2.8C864.4,118.3,864.4,117.1,864.4,116.4z"/>
		<path class="st0" d="M555.4,114.3c8.1,0,16.3,0,24.4,0c0,0.8,0,2.3,0,3.1c-2.1,0.3-4.1,0.7-6.1,1.1c2.9,12.8,6.8,25.3,10.1,38    c3.4-11.1,6.7-22.1,10.1-33.2c0.3-1.5,1.1-3.1,0.4-4.6c-2-0.7-4.2-1-6.3-1.4c0-0.8,0-2.3,0-3.1c6.9,0,13.8,0,20.7,0    c0,0.8,0,2.2,0,3c-2.7,0.7-6.1,1.1-7,4.2c-5.5,13.7-9.4,28.1-14.1,42.1c-4.2,0-8.4,0-12.6,0c-4.2-13.1-8.4-26.1-12.6-39.2    c-0.6-1.8-1.2-3.7-2.1-5.4c-1.4-1.1-3.2-1.1-4.8-1.6C555.4,116.5,555.4,115,555.4,114.3z"/>
	</g>
	<path class="st0" d="M54.8,280.8c1.9,3.1,3.3,6.5,4.1,10c-0.9-0.8-1.7-1.6-2.6-2.3c-4.5,1.3-9,3.2-13.2,5.4c0.1,0.8,0.3,2.3,0.4,3   c-2.7-2.4-3.2-6.4-4.6-9.7c1,0.7,1.9,1.5,3,2.1c4.3-1.4,8.5-3.1,12.5-5.2C54.6,283.1,54.7,281.9,54.8,280.8z"/>
	<path class="st0" d="M309.5,290.4c0.4,1.6-0.3,3.9,1.7,4.6c3.7,1.9,7.3,3.9,11.1,5.4c0.9-0.7,1.8-1.4,2.7-2   c-1.8,4.7-4.4,9-6.5,13.6c-1.7-0.6-3.4-1.3-4.7-2.4c1.5-0.4,3.9,0.4,4.8-1.3c0.8-1.2,1.4-2.4,2-3.7c-1.9-1-3.8-2-5.7-2.9   c-0.6,1.3-1.3,2.5-1.7,3.8c0.3,1,0.8,2,1.1,3.1c-2.1-0.9-4.2-1.9-6.1-3.1c1-0.2,2-0.4,3.1-0.5c0.8-1.3,1.5-2.6,2.2-4   c-2-1-4.1-2-6.2-2.7c-1.1,1.6-2.2,3.1-2.6,5c0.1,1.7,1.4,3,2,4.5c-1.7-0.8-3.1-2-4.6-3.1C304.7,299.9,306.9,295,309.5,290.4z"/>
	<g>
		<path class="st0" d="M150.2,297.4c22.6,0,45.1,0,67.7,0c0,3.5,0,7.1,0,10.6c24.6,0,49.2,0,73.8,0c-14.1,22.5-34,41.8-58.1,53.3    c-8.9,4.2-18.3,7.4-28,9.2c-2,0.3-3.6,1.6-5.3,2.5c-9.8,5.6-22.6,5.6-32.4,0c-1.8-1-3.4-2.3-5.4-2.6    c-20.5-3.9-39.7-13.8-55.5-27.2c-11.9-10-22-22.1-30.3-35.2c24.5,0,49,0,73.6,0C150.2,304.5,150.2,300.9,150.2,297.4z     M151.5,298.6c0,15.1,0,30.1,0,45.2c0,10.4,5.4,20.5,14,26.4c8.4,5.9,19.6,7.4,29.3,4c10.5-3.6,18.7-12.8,21-23.6    c0.9-3.9,0.8-8,0.8-12c0-13.3,0-26.6,0-39.9C194.9,298.6,173.2,298.6,151.5,298.6z"/>
	</g>
	<g>
		<path class="st0" d="M49.2,305.1c1.7-5.4,9.3-7.6,13.6-4c4.2,3.3,6.1,8.5,8.6,13c-1.5-0.6-3-2.4-4.6-1.1c-3.6,2-7.5,3.8-10.8,6.3    c0.1,0.8,0.3,2.4,0.4,3.1c-2.2-2-3.2-4.8-4.7-7.3C50.1,312.2,48.3,308.7,49.2,305.1z M52.5,307c-2,2.6-0.5,5.9,1,8.3    c4-1.8,7.8-4,11.5-6.3c2.2-1.1,0.3-3.6-0.9-4.7C60.6,301.2,55.1,303.7,52.5,307z"/>
	</g>
	<g>
		<path class="st0" d="M166.8,307.1c0.8-0.6,1.6-1.2,2.5-1.8c4.8,6.2,9.7,12.4,14.5,18.6c4.8-6.2,9.7-12.4,14.5-18.6    c0.8,0.6,1.6,1.3,2.4,1.9c-1.4,1.8-2.9,3.6-4.3,5.4c0.9,0.7,1.8,1.4,2.7,2.1c1.4-1.8,2.8-3.7,4.3-5.5c0.9,0.7,1.8,1.4,2.7,2.1    c-0.7,0.9-1.4,1.8-2.1,2.8c0.9,0.7,1.8,1.4,2.7,2.1c0.7-0.9,1.4-1.8,2.1-2.7c0.9,0.7,1.8,1.3,2.8,2c-1.4,1.9-2.8,3.7-4.3,5.6    c-1.8-1.4-3.6-2.9-5.5-4.3c-0.7,0.9-1.4,1.8-2.1,2.7c1.8,1.4,3.7,2.8,5.5,4.3c-0.7,0.9-1.4,1.8-2.1,2.7c-3.7-2.8-7.3-5.7-11-8.5    c-2.1,2.8-4.3,5.5-6.4,8.3c3.6,4.7,7.3,9.4,10.9,14.1c1.3-1.4,2.5-3.1,4.4-3.6c3-1,6.6,0.5,7.8,3.4c1.4,3.6,0.1,7.5-1.9,10.6    c1,0.5,3.1,0.6,2.7,2.2c-0.5,2.1-3.2,0.9-4.7,1.1c-0.5,1.4,0,3.5-1.7,4.2c-2.1,0.2-1.6-2.2-1.8-3.5c-3.4,1-7.4,1.5-10.5-0.6    c-2.8-1.8-3.4-5.9-1.6-8.6c1-1.7,2.9-2.5,4.6-3.4c-3.5-4.5-7-9-10.5-13.5c-3.5,4.5-7,9-10.4,13.5c1.6,0.8,3.3,1.6,4.4,3.2    c1.9,2.6,1.4,6.7-1.2,8.6c-3.1,2.3-7.3,1.9-10.8,0.8c-0.2,1.2,0.5,3.1-1.2,3.4c-2.2,0.2-1.7-2.8-2.3-4.1c-1.2,0-2.5,0.2-3.7,0    c-1.1-0.3-1.3-1.9-0.3-2.5c0.8-0.3,1.6-0.5,2.5-0.7c-1.9-3-3.3-6.7-2.1-10.2c1-3.3,4.9-4.9,8.1-3.8c1.9,0.6,3.1,2.2,4.4,3.6    c3.6-4.7,7.3-9.4,10.9-14.1c-2.1-2.8-4.3-5.5-6.4-8.3c-3.7,2.8-7.3,5.7-11,8.5c-0.7-0.9-1.4-1.8-2.1-2.7c1.8-1.4,3.7-2.8,5.5-4.3    c-0.7-0.9-1.4-1.8-2.1-2.7c-1.8,1.4-3.7,2.8-5.5,4.3c-1.4-1.8-2.8-3.7-4.3-5.5c0.9-0.7,1.8-1.4,2.8-2.1c0.7,0.9,1.4,1.8,2.1,2.8    c0.9-0.8,1.8-1.5,2.8-2.2c-0.7-0.9-1.4-1.8-2.2-2.7c0.9-0.7,1.8-1.4,2.8-2.1c1.4,1.8,2.8,3.7,4.3,5.5c0.9-0.7,1.8-1.4,2.8-2.1    C169.6,310.8,168.2,309,166.8,307.1z M161.2,342.2c-0.8,3.5,1.6,6.4,2.9,9.4c3.5,0.5,7.7,2.3,10.8-0.2c2.2-2.4-0.2-5.9-3-6.4    c-3-0.5-3.5-4.2-6.3-5.1C163.9,339.2,161.5,340.2,161.2,342.2z M197.6,344c-1.7,1-4,1.2-5.2,3c-1.1,1.6-0.8,4.2,1.2,5    c3.1,1.5,6.6,0,9.8-0.5c1.2-3,3.6-5.9,2.9-9.4c-0.2-2.1-2.7-3-4.5-2.4C199.8,340.5,199,342.6,197.6,344z"/>
	</g>
	<g>
		<path class="st0" d="M292.4,320.6c1.4-3.3,3.6-6.3,6.1-8.9c-0.1,1.5-1.3,3.5,0.5,4.4c3.4,2.5,6.8,5,10.5,7.1c1-0.6,2-1.1,3-1.6    c-2.1,3.8-4.6,7.4-7.4,10.7c-1.5,1.9-4.5,2.2-6.3,0.5c-1.8-1.3-1.5-3.6-1.4-5.5c-3.7-0.2-7.5,0-11.1,0.9c1.1-1.5,2.1-3.2,3.7-4.2    c3.2-2.1,7.7,1.1,10.4-1.9c-1.7-1.2-3.4-2.4-5.3-3.3C294.2,319.4,293.3,320.1,292.4,320.6z M299.5,326.5c0.1,2.1,2.2,3.6,4.2,3.6    c1.8-0.1,2.7-1.8,3.7-3c-2-1.6-4.1-3-6.3-4.4C300.6,323.9,299.7,325.1,299.5,326.5z"/>
	</g>
	<path class="st0" d="M74.3,318.5c2.6,2.2,4.2,5.3,6.4,8l-0.6,0.5c-0.5-0.3-1.7-1-2.2-1.3c-3.8,2-7.1,4.8-10.5,7.4   c-1.5,0.7-0.5,2.2-0.2,3.4c-0.2,0.1-0.6,0.4-0.8,0.6c-1.9-2.8-4.2-5.4-5.8-8.4c1.5,0.4,3,2.2,4.5,0.8c3.4-2.4,6.9-4.7,9.9-7.6   C74.8,320.7,74.5,319.6,74.3,318.5z"/>
	<path class="st0" d="M78.6,336.9c0.4-2.8,3.5-4.7,6.1-4c3.7,0.8,6.1,4.2,7.1,7.6c-1.1,1.5-2.3,3-3.6,4.3c0.1-2.9,2-6.4-0.6-8.7   c-1.5-1.6-4.3-0.6-4.7,1.5c-0.3,2.9,1.9,5.5,1.5,8.4c-0.2,3-3.8,4.8-6.5,3.7c-2.9-0.9-4.6-3.6-6-6.1c1.1-1.3,2.1-2.9,3.8-3.5   c-0.4,2.1-1.8,4.6-0.1,6.4c1.3,1.8,4.6,0.9,4.6-1.4C80.1,342.4,78.2,339.9,78.6,336.9z"/>
	<path class="st0" d="M273.6,342.5c2.4-2.9,5-5.6,7.8-8.1c-0.2,1.5-1.7,3.5-0.1,4.7c3,3.1,6.3,6,9.4,9.1c0.8-1,1.6-1.9,2.2-3   c0.3-1.5-0.5-3.1-0.6-4.6c1.5,1.4,2.9,2.9,4.2,4.4c-2.4,1.2-4,3.3-5.9,5.2c-2.1,2.2-4.5,4.2-5.9,7c-1.5-1.3-3-2.5-4.4-3.9   c1.3-0.2,2.6,0.4,3.9,0.6c1.5-0.3,2.4-1.7,3.6-2.6c-3.2-3-6.3-6.2-9.6-9.1C276.9,340.6,275.2,342.5,273.6,342.5z"/>
	<path class="st0" d="M94,349.1c0.8-1.8,2.4-2.7,3.9-3.9c4,3.6,8.6,6.6,12.2,10.6c-1.4,0-3.3-1.6-4.3-0.2c-2.9,3.2-5.8,6.5-8.2,10.2   c0.5,1,0.9,2,1.2,3c-4.1-2.9-7.8-6.3-11.7-9.5c1-1.4,1.9-3,3.5-3.9c-0.2,1.3-0.6,2.6-0.6,4c1,1.5,2.5,2.5,3.9,3.7   c1.4-1.6,2.8-3.2,4.1-4.8c-1.3-1-2.6-2-3.9-2.9c-0.6,0.3-1.7,1-2.3,1.4c0.2-2.5,2.5-3.9,3.9-5.8c0.1,1.1,0,2.2,0.2,3.2   c0.9,1.1,2,1.9,3.1,2.8c1.4-1.7,2.8-3.5,4.1-5.3c-1.3-1.6-2.7-3.2-4.7-3.9C96.8,348,95.4,348.7,94,349.1z"/>
	<g>
		<path class="st0" d="M263.4,352c1.2-2.6,3.9-4,6.3-5.2c-2.3,3.2-0.4,6.9,0.4,10.3c0.8,3.3,1.9,6.5,2.4,9.9c-0.2,0.2-0.7,0.6-1,0.8    c-4.9-2.5-9.5-5.7-14.5-8.1c-1.3-0.7-2.8,0.1-4.1,0.3c1.6-2.7,4.7-4.1,6.9-6.1c0.3,0.1,0.8,0.4,1,0.5c-0.3,0.4-1,1.3-1.4,1.7    c1.2,0.9,2.4,1.7,3.7,2.5c1.5-1.1,2.9-2.3,4.4-3.4c-0.5-1.3-1-2.6-1.5-3.9C265.3,351.4,264.4,351.7,263.4,352z M264.7,359.3    c1.8,1.1,3.5,2.1,5.3,3.2c-0.6-2-1.2-4-1.8-5.9C267.1,357.4,265.9,358.3,264.7,359.3z"/>
	</g>
	<g>
		<path class="st0" d="M112.1,357.5c3.2,1.2,6.2,3.1,8.9,5.1c-0.7,0.1-2,0.1-2.7,0.2c-0.5,1.3-0.6,2.6-0.9,4    c1.6,0.9,3.2,1.9,4.8,2.8c1-1,2-1.9,3-2.9c-0.6-0.8-1.2-1.6-1.8-2.4c2.8,0.7,5.2,2.4,7.4,4.1c-1.6,0.2-3.5-0.3-4.9,0.7    c-3.8,2.6-7.5,5.5-11.3,8.3c-0.8,0.7-1.9,0.9-3,1c0.6-6.1,2-12.1,2.3-18.2C113.4,359.4,112.7,358.5,112.1,357.5z M117.2,368.5    c-0.3,2-0.7,4.1-1,6.1c1.6-1.3,3.2-2.6,4.8-3.9C119.7,370,118.4,369.2,117.2,368.5z"/>
	</g>
	<path class="st0" d="M237.2,368.5c2.8-2.6,6.4-4,9.8-5.6c-0.6,1.1-1.4,2.1-2,3.2c1.8,4.5,4.4,8.5,6.6,12.8c1.1-0.8,2.3-1.5,3.2-2.5   c0.3-1.4,0.2-2.8,0.3-4.1c1.3,1.6,2.1,3.5,2.9,5.3c-3,0.5-5.5,2.3-8.2,3.6c-2.4,1.3-4.9,2.4-6.8,4.4c-1.1-1.7-2.2-3.5-2.8-5.5   c1.1,0.7,2.2,1.5,3.4,2.2c1.5,0,2.8-0.9,4.1-1.5c-2.5-4.2-4.3-8.8-7.2-12.7C239.5,368.3,238.4,368.4,237.2,368.5z"/>
	<g>
		<path class="st0" d="M132.4,368.8c2.6,0.7,5.8,1.7,6.5,4.7c0.9,2.5,0.3,5.9,3.1,7.2c0.7-1.8,1.4-3.6,1.7-5.6    c-0.7-0.9-1.6-1.7-2.4-2.6c3.5,0.7,6.8,2.1,10.1,3.5c-1.1,0.4-2.2,0.5-3.3,0.5c-1.9,3.7-3.1,7.8-4.6,11.7    c-0.9,1.7,1.1,2.8,1.8,4.2c-4.2-1.4-8.4-2.7-12.3-4.7c-2.2-1.1-3-4.2-1.5-6.3c1-1.7,3-1.8,4.7-2.2    C135.5,375.6,134.4,372,132.4,368.8z M136.1,387.5c0.9,0.6,1.9,0.9,2.9,1.3c0.9-2.4,1.8-4.8,2.6-7.2c-1.4-0.2-2.9-0.9-4.4-0.5    C135,382.1,134.1,385.8,136.1,387.5z"/>
	</g>
	<path class="st0" d="M226.6,372.5c0.4,0,1.1,0.1,1.4,0.2c-0.8,0.6-1.7,1.2-2.5,1.8c1.2,4.6,2.5,9.4,4.7,13.6c0.6,0,1.8,0.1,2.4,0.1   c0.1,0.2,0.3,0.6,0.4,0.8c-3.3,1.1-6.5,2.4-9.9,3.1c0.7-1.2,2.9-2.1,2.2-3.8c-1.1-3.8-2.3-7.6-3.8-11.2c-0.5-1.6-2.6-0.7-3.8-1.2   C220.4,374.2,223.6,373.4,226.6,372.5z"/>
	<g>
		<path class="st0" d="M162.2,378.2c3.5,0.3,6.9,1,10.3,1.6c0,0.2,0,0.6-0.1,0.8c-1,0.4-2.7,0-2.9,1.4c-1,4.2-1.7,8.5-2.1,12.7    c0.7,0.9,1.6,1.7,2.4,2.5c-4.4-0.7-8.9-1-13.1-2.5c-3.2-1.2-3.9-5.8-1.4-8.1c2.5-2.2,6.3-2,9.2-0.7c0.1-1.8,0.9-3.7,0.4-5.4    C164.1,379.7,163.1,379,162.2,378.2z M160.4,387.1c-1.8,0.9-2.4,3.4-1.9,5.2c0.6,1.8,2.6,2.3,4.3,2.4c1-2.4,1.1-5.1,1.5-7.6    C163,387,161.6,386.4,160.4,387.1z"/>
	</g>
	<path class="st0" d="M198.7,380.4c2.6-2.7,6.9-3,10.4-2c0.7,1.7,1.3,3.5,1.8,5.3c-2.4-1.3-3.8-4.5-6.9-4.4c-2.1,0-3.8,2.3-2.6,4.2   c1.8,2.8,5.9,1.9,8.3,3.9c2.4,1.7,2,5.7-0.3,7.4c-2.3,2-5.6,1.9-8.5,1.8c-0.5-1.7-1-3.4-1.1-5.2c1.7,1.3,3.1,4,5.6,3.7   c2.3-0.1,3.3-3.4,1.3-4.6c-2.4-1.3-5.5-1-7.7-2.9C196.8,386,196.8,382.4,198.7,380.4z"/>
	<path class="st0" d="M182.4,385.8c3.1-1.6,7,1.8,5.9,5.1c-0.6,2.9-4.6,4.4-6.8,2.3C179,391.3,179.5,387,182.4,385.8z"/>
</g>
<g>
	<path class="st0" d="M250.5,187.8"/>
	<path class="st0" d="M284.3,202.1c1.2-0.4,1.6,0,1.3,1.2C284.4,203.7,284,203.3,284.3,202.1z"/>
</g>
</svg>