<svg xmlns:xlink="http://www.w3.org/1999/xlink" xmlns="http://www.w3.org/2000/svg" width="109" height="57" viewBox="0 0 109 57" fill="none">
<path d="M39.3212 14.5234V9.39196C41.3235 8.9539 42.8272 7.16957 42.8272 5.03882C42.8272 2.58031 40.8274 0.580566 38.3684 0.580566C35.9099 0.580566 33.9102 2.58031 33.9102 5.03882C33.9102 7.24672 35.5247 9.07973 37.6347 9.43132V16.2104H47.1565V14.5234H39.3212V14.5234ZM35.5971 5.03882C35.5971 3.51079 36.8404 2.26756 38.3684 2.26756C39.8964 2.26756 41.1402 3.51079 41.1402 5.03882C41.1402 6.56685 39.8964 7.81008 38.3684 7.81008C36.8404 7.81008 35.5971 6.56685 35.5971 5.03882" fill="#F3F2FF"/>
<path d="M47.1566 23.0688H27.7453C27.3942 20.9593 25.5612 19.3438 23.3528 19.3438C20.8948 19.3438 18.8945 21.3435 18.8945 23.8015C18.8945 26.2605 20.8948 28.2603 23.3528 28.2603C25.4835 28.2603 27.2674 26.7571 27.7054 24.7558H47.1566V23.0688V23.0688ZM23.3528 26.5728C21.8248 26.5728 20.5815 25.329 20.5815 23.801C20.5815 22.2735 21.8248 21.0302 23.3528 21.0302C24.8808 21.0302 26.1241 22.2735 26.1241 23.801C26.1241 25.3295 24.8808 26.5728 23.3528 26.5728Z" fill="#F3F2FF"/>
<path d="M47.1576 31.6138H9.83616C9.48509 29.5032 7.65156 27.8877 5.44315 27.8877C2.98412 27.8877 0.984375 29.8874 0.984375 32.3454C0.984375 34.8039 2.98412 36.8037 5.44315 36.8037C7.57338 36.8037 9.35719 35.3005 9.79577 33.3003H47.1576V31.6138V31.6138ZM5.44315 35.1167C3.9146 35.1167 2.67085 33.8735 2.67085 32.3449C2.67085 30.8174 3.9146 29.5736 5.44315 29.5736C6.97117 29.5736 8.21441 30.8169 8.21441 32.3449C8.21441 33.8735 6.97117 35.1167 5.44315 35.1167Z" fill="#F3F2FF"/>
<path d="M47.1569 41.8457V40.1587H25.1706V47.6078C23.1678 48.0458 21.6641 49.8291 21.6641 51.9609C21.6641 54.4199 23.6643 56.4197 26.1234 56.4197C28.5819 56.4197 30.5816 54.4199 30.5816 51.9609C30.5816 49.7525 28.9671 47.9195 26.8571 47.5689V41.8457H47.1569ZM28.8946 51.9609C28.8946 53.4894 27.6514 54.7332 26.1234 54.7332C24.5948 54.7332 23.3511 53.4894 23.3511 51.9609C23.3511 50.4324 24.5948 49.1891 26.1234 49.1891C27.6514 49.1891 28.8946 50.4324 28.8946 51.9609Z" fill="#F3F2FF"/>
<path d="M65.0985 41.8457L60.2648 31.6771H57.9995V41.8457H51.2852V14.5234H62.1087C68.1701 14.5234 71.4327 18.8227 71.4327 23.311C71.4327 27.034 69.1296 29.3739 66.9797 30.4499L72.8909 41.8457H65.0985V41.8457ZM61.7991 20.5491H57.9995V26.0745H61.7991C63.6424 26.0745 64.7174 24.7313 64.7174 23.311C64.7174 21.8907 63.6424 20.5491 61.7991 20.5491" fill="#F3F2FF"/>
<path d="M83.0346 14.5234H76.3203V41.8457H83.0346V14.5234Z" fill="#F3F2FF"/>
<path d="M106.059 39.1603C104.181 41.04 101.532 41.8457 98.6917 41.8457H88.5625V14.5234H98.6917C101.532 14.5234 104.182 15.3297 106.059 17.2103C109.246 20.3958 108.899 23.8873 108.899 28.1851C108.9 32.4833 109.247 35.9748 106.059 39.1603M101.457 22.0455C100.842 21.1238 99.923 20.5097 98.2324 20.5097H95.2768V35.8589H98.2324C99.923 35.8589 100.842 35.2447 101.457 34.3251C101.995 33.5583 102.185 32.8282 102.185 28.1851C102.185 23.5803 101.995 22.8124 101.457 22.0455" fill="#F3F2FF"/>
</svg>