<svg xmlns="http://www.w3.org/2000/svg" xmlns:xlink="http://www.w3.org/1999/xlink" version="1.1" id="logo" x="0px" y="0px" viewBox="0 0 117 71" style="enable-background:new 0 0 117 71;" xml:space="preserve" width="117"  height="71" >
<style type="text/css">
	.st0{fill:#FFFFFF;}
</style>
<g>
	<path class="st0" d="M11.7,65.6c0.1,1,0.9,1.7,1.9,1.7c0.9,0,1.5-0.4,1.9-1l1.3,1c-0.8,1-1.9,1.4-3,1.4c-2.1,0-3.8-1.5-3.8-3.7   c0-2.2,1.6-3.7,3.7-3.7c2,0,3.4,1.4,3.4,3.8v0.5H11.7z M15.3,64.3c0-1-0.7-1.7-1.8-1.7c-1,0-1.7,0.7-1.8,1.7H15.3z"/>
	<path class="st0" d="M35.7,65.6c0.1,1,0.9,1.7,1.9,1.7c0.9,0,1.5-0.4,1.9-1l1.3,1c-0.8,1-1.9,1.4-3,1.4c-2.1,0-3.8-1.5-3.8-3.7   c0-2.2,1.6-3.7,3.7-3.7c2,0,3.4,1.4,3.4,3.8v0.5H35.7z M39.3,64.3c0-1-0.7-1.7-1.8-1.7c-1,0-1.7,0.7-1.8,1.7H39.3z"/>
	<path class="st0" d="M48.4,63.5c-0.4-0.4-0.9-0.7-1.4-0.7c-1.3,0-2.1,1.1-2.1,2.2c0,1.1,0.8,2.2,2.1,2.2c0.5,0,1.1-0.2,1.4-0.7   l1.2,1.2c-0.7,0.7-1.9,1-2.5,1c-2.1,0-3.8-1.5-3.8-3.7c0-2.2,1.7-3.7,3.8-3.7c0.9,0,1.9,0.3,2.5,1.1L48.4,63.5z"/>
	<path class="st0" d="M71.8,63.4c-0.3-0.5-0.8-0.7-1.4-0.7c-0.5,0-1,0.3-1,0.8c0,1.3,3.8,0.2,3.8,3c0,1.7-1.5,2.3-3,2.3   c-1.1,0-2.1-0.3-2.8-1.1l1.1-1.1c0.5,0.5,1,0.8,1.7,0.8c0.5,0,1.2-0.3,1.2-0.8c0-1.5-3.8-0.3-3.8-3c0-1.6,1.4-2.3,2.9-2.3   c0.9,0,1.9,0.3,2.5,1.1L71.8,63.4z"/>
	<path class="st0" d="M96.7,67.5L96.7,67.5c-0.5,0.8-1.4,1.1-2.3,1.1c-1.3,0-2.6-0.7-2.6-2.1c0-2.3,2.7-2.4,4.4-2.4h0.4v-0.2   c0-0.9-0.7-1.3-1.6-1.3c-0.7,0-1.4,0.3-1.9,0.7l-0.9-0.9c0.8-0.8,1.8-1.1,3-1.1c3,0,3,2.2,3,3.2v4h-1.6L96.7,67.5L96.7,67.5z    M96.6,65.3h-0.4c-1,0-2.6,0.1-2.6,1.1c0,0.6,0.7,0.9,1.2,0.9c1.1,0,1.8-0.6,1.8-1.6V65.3z"/>
	<path class="st0" d="M105.7,67.5L105.7,67.5c-0.5,0.8-1.4,1.1-2.3,1.1c-1.3,0-2.6-0.7-2.6-2.1c0-2.3,2.7-2.4,4.4-2.4h0.4v-0.2   c0-0.9-0.7-1.3-1.6-1.3c-0.7,0-1.4,0.3-1.9,0.7l-0.9-0.9c0.8-0.8,1.8-1.1,3-1.1c3,0,3,2.2,3,3.2v4h-1.6L105.7,67.5L105.7,67.5z    M105.7,65.3h-0.4c-1,0-2.6,0.1-2.6,1.1c0,0.6,0.7,0.9,1.2,0.9c1.1,0,1.8-0.6,1.8-1.6V65.3z"/>
	<path class="st0" d="M5.7,58.7v3.7l0,0c-0.4-0.5-1.1-1.1-2.4-1.1c-2,0-3.4,1.6-3.4,3.7s1.3,3.7,3.5,3.7c1,0,1.9-0.4,2.4-1.2l0,0   v1.1h1.7v-9.8L5.7,58.7L5.7,58.7z M3.7,67.1c-1.3,0-2.1-1.1-2.1-2.2s0.8-2.2,2.1-2.2s2.1,1.1,2.1,2.2C5.8,66.1,5,67.1,3.7,67.1z"/>
	<path class="st0" d="M55.6,61.3c-1.1,0-1.8,0.6-2.1,1.2l0,0v-3.7h-1.8v9.8h1.8v-3.8c0-0.9,0.5-1.8,1.6-1.8c1.2,0,1.3,1.3,1.3,2.1   v3.6h1.8v-4.4C58.2,62.6,57.5,61.3,55.6,61.3z"/>
	<polygon class="st0" points="113.9,64.7 116.9,61.5 114.6,61.5 111.9,64.4 111.9,58.7 110.2,58.7 110.2,68.5 111.9,68.5    111.9,64.9 112,64.9 114.8,68.5 117.1,68.5  "/>
	<path class="st0" d="M79.9,61.3c-1,0-1.9,0.4-2.4,1.2l0,0v-1.1h-1.7V71h1.8v-3.4l0,0c0.4,0.5,1.1,1.1,2.4,1.1c2,0,3.4-1.6,3.4-3.7   C83.4,62.9,82.1,61.3,79.9,61.3z M79.6,67.1c-1.3,0-2.1-1.1-2.1-2.2s0.8-2.2,2.1-2.2c1.3,0,2.1,1.1,2.1,2.2   C81.6,66.1,80.8,67.1,79.6,67.1z"/>
	<path class="st0" d="M26.4,68.5v-3.9h1.3l2.4,3.9h2.1l-2.6-4.1c1.5-0.2,2.4-1.3,2.4-2.8c0-2.3-1.9-2.9-3.9-2.9h-3.5v9.8H26.4z    M26.4,60.3H28c1,0,2.1,0.1,2.1,1.3c0,1.3-1.2,1.4-2.3,1.4h-1.4C26.4,63,26.4,60.3,26.4,60.3z"/>
	<path class="st0" d="M65.1,67c-0.2,0.1-0.6,0.2-0.8,0.2c-0.8,0-1-0.5-1-1.2v-3h1.8v-1.5h-1.8v-1.6h-1.8v1.6h-1.3V63h1.3v3.2   c0,1.7,0.4,2.5,2.3,2.5c0.4,0,0.9-0.1,1.3-0.2V67z"/>
	<path class="st0" d="M90.2,61.3c-0.1,0-0.3-0.1-0.5-0.1c-0.9,0-1.7,0.5-2.1,1.3l0,0v-1.1h-1.8v7h1.8v-3.8c0-0.4,0.2-1.8,1.9-1.8   c0.2,0,0.4,0,0.7,0.1V61.3z"/>
	<path class="st0" d="M21,48.7c0,0-2,1-4,1.4l-6.4-39.9c-0.1-0.7-0.4-1.4-0.8-2l-2-2.9L7,9c-0.2,0.7-0.2,1.4-0.1,2.1l7,39.2   c-3.4-0.3-6.3-1.6-6.3-1.6c-1.1,3.2,0.8,5.1,0.8,5.1c4.5-1.6,8.4-1.8,12.9-1.6C21.4,52.2,22.1,50.3,21,48.7z"/>
	<path class="st0" d="M78.7,32.1c-0.1,0.2-0.9,2.4-16.6,8.6c-10.3,4.1-1.6,11.5-10.4,14.4c0.4-1.4,2-4.4-2.4-9.9   c-3-3.8-0.6-8.1,4.9-10.6c-4.9,1-8,3.9-11.7,5.5c-5.8,2.6-10.9,1.5-19.2,5.5c5.3-5,11.7-4,12.3-7.5c0.2-1.4,0.3-3.3,0.3-3.3   c-2.3,1.6-6,0.9-6.2-1.9c-3.7,0.3-6.6-5,0.4-9.7c0.1-0.1,0.5-2.9,0.7-4.8c0.8-7.8,7.5-10.9,11-9.2c2.4-1,4.3,0.7,4.8,2.1   c-1.7-1-8.8-3.1-8.6,5c2.1,1.2,3.8-2.5,4,3.5c0.1,1.4-0.6,2.8,2.7,2.3c0,0,0.1,0.6-0.4,1.3c-1.1,1.6,0.6,1.4,1.5,1.1   c0.3-0.1,0.7,1.2-0.9,2.2c-0.8,0.5-1.5,0.2-1.5,1.4c0,0.4,0.2,1.2,0.5,1.3c1,0.3,3.1-0.1,4.8-4c-0.1,4.6-3.2,5.5-3.6,6.4   c-0.2,0.5-0.3,1.2-0.3,2.3c0,0.9,0.5,1.8,2,1.2c9.3-3.6,12.8-2,23.1-4.9c0.6-1.7,1.6-3,2.5-4.2c0,0,7.3-7.4,9.5-16.5   C82.7,6.3,82,6.2,82,3.8c0-2.3,1.7-3.7,3-3.7c1.2,0,1.3,1.7,3.2,0.5l0,0c1,0.5,1.2,1.6,1.3,2.7c1.3-1.1,1.2-1.8,1.9-1.6   C92.3,2,91.1,4,90.5,5c-1.4,2.4-2.7,3.6-4,4.1C86.6,9.3,82.9,25,78.7,32.1z M39.1,23.5c1.9,0,1.6-4.6,1.6-5.4   c-0.2-2.3-5.1,0.1-4.5,1.5C36.7,20.9,37.8,23.5,39.1,23.5z M43.2,32.3c-3,1.1-0.8,3.2-2.7,5.9C41.9,37.3,43.4,37.6,43.2,32.3z"/>
	<path class="st0" d="M30.1,23.1c0,0,4.2-3.2,8.9-3.8c1.7-0.2,2.6-0.6,3.1-1.1c0.2-0.2,1.5-1.2,1.9,0.1c0.4,1.2,0.7,1.9,1.7,1.9   c1.1,0.1,3.5-0.4,3.6,1.4c0,0,1.5-2.5-0.9-3.3c0,0,0.8-0.5,1-1.1c0,0-2.8-3.8-9.1-2.4c0-0.4,0.5-1.2,2.7-1.1c0,0-4.2-2.4-12.2,4.4   C30.7,18.2,30.4,20.9,30.1,23.1z"/>
	<path class="st0" d="M70.6,40.4c-2,0.1-3.9,0.3-5.7,0.7c1-2.3,5.8-16.1,7.5-21.8C71.9,23.3,70.7,35.7,70.6,40.4z M70.9,40.4   c0.5-2.8,1.8-11.9,2.6-21.1c0.2,0.8,5.5,15.4,8.6,22.1c-2.7-0.7-5.9-1-9.3-1C72.1,40.4,71.5,40.4,70.9,40.4z M100.3,18.9   c-0.4,1-5.5,16.4-6.9,22.3c-0.8,0.2-1.5,0.3-2.2,0.5c-0.2,0-0.2,0.2-0.1,0.4c2.2,2.7,6.1,4.4,10.5,4.4s8.3-1.8,10.5-4.4   c0.1-0.1,0.1-0.3-0.1-0.4c-0.2-0.1-0.5-0.1-0.7-0.2c-2.1-7.4-6.5-18.8-8-22.7c0.3,0,0.6-0.3,0.6-0.6v-0.4c0-0.3-0.3-0.6-0.6-0.6   H101c-3.6,0-4-3-7.8-3c-1.3,0-2.1,0.4-2.3,0.4c-0.2-1.3-1-2.3-2-2.8c1.6-0.6,2.7-2.1,2.9-3.9C92,6.2,91,4.6,89.6,3.8   c0,0.4-0.1,0.8-0.3,1.1c0.9,0.6,1.5,1.7,1.4,3c-0.1,1.8-1.7,3.2-3.5,3.1S84,9.3,84.1,7.5c0.1-1.1,0.7-2.1,1.6-2.6   C85.5,4.5,85.3,4.2,85,4c-1.1,0.7-1.9,2-2,3.4c-0.1,2,1,3.7,2.8,4.4c-1.1,0.5-1.9,1.6-2,2.8c-0.2-0.1-1-0.4-2.3-0.4   c-3.7,0-4.2,3-7.8,3h-2.3c-0.3,0-0.6,0.3-0.6,0.6v0.4c0,0.3,0.3,0.6,0.6,0.6h0.1c-0.4,1-5.5,16.4-6.9,22.3   c-0.8,0.2-1.5,0.3-2.2,0.5c-0.2,0-0.2,0.2-0.1,0.4c2.2,2.7,6.1,4.4,10.5,4.4c4.4,0,8.3-1.8,10.5-4.4c0.1-0.1,0.1-0.3-0.1-0.4   c-0.2-0.1-0.5-0.1-0.7-0.2C80.4,34,76,22.6,74.6,18.8c2.9,0,4.5-2.3,6.7-2.3c2.7,0,4,2.2,6.1,2.2s3.4-2.2,6.1-2.2   C95.7,16.6,97.3,19,100.3,18.9z M99.5,40.4c-2,0.1-3.9,0.3-5.7,0.7c1-2.3,5.8-16.1,7.5-21.8C100.8,23.3,99.6,35.7,99.5,40.4z    M99.8,40.4c0.5-2.8,1.8-11.9,2.6-21.1c0.2,0.8,5.5,15.4,8.6,22.1c-2.7-0.7-5.9-1-9.3-1C101,40.4,100.4,40.4,99.8,40.4z M88.6,15.1   c0,0.7-0.6,1.3-1.3,1.3c-0.7,0-1.3-0.6-1.3-1.3s0.6-1.3,1.3-1.3C88,13.8,88.6,14.4,88.6,15.1z"/>
</g>
</svg>