<svg xmlns:xlink="http://www.w3.org/1999/xlink" xmlns="http://www.w3.org/2000/svg" width="99" height="99" viewBox="0 0 99 99" fill="none">
<path d="M48.5441 81.8225C48.2481 81.8225 48.1153 81.9613 48.1094 82.5469C48.2724 82.5469 48.6648 82.5406 48.9306 82.5288C48.9368 82.4383 48.9368 82.3779 48.9368 82.3176C48.9368 81.9554 48.8039 81.8225 48.5444 81.8225H48.5441Z" fill="#F3F1F9"/>
<path d="M41.543 82.8976C41.543 83.6345 41.7362 83.7431 41.9961 83.7431C42.1411 83.7431 42.2799 83.7007 42.5272 83.5498V81.9925C42.3583 81.9561 42.1772 81.9321 42.0623 81.9321C41.7425 81.9321 41.543 82.0646 41.543 82.898V82.8976Z" fill="#F3F1F9"/>
<path d="M35.1847 81.8225C34.8888 81.8225 34.7559 81.9613 34.75 82.5469C34.9131 82.5469 35.3054 82.5406 35.5712 82.5288C35.5774 82.4383 35.5774 82.3779 35.5774 82.3176C35.5774 81.9554 35.4446 81.8225 35.1851 81.8225H35.1847Z" fill="#F3F1F9"/>
<path d="M57.5975 81.9614C57.4522 81.9614 57.3196 82.0097 57.0664 82.1543V83.6881C57.2655 83.7602 57.4106 83.7786 57.5313 83.7786C57.8813 83.7786 58.0506 83.6277 58.0506 82.8124C58.0506 82.13 57.8931 81.9614 57.5979 81.9614H57.5975Z" fill="#F3F1F9"/>
<path d="M63.6566 82.8976C63.6566 83.6345 63.8499 83.7431 64.109 83.7431C64.2544 83.7431 64.3931 83.7007 64.6405 83.5498V81.9925C64.4712 81.9561 64.2901 81.9321 64.1752 81.9321C63.8554 81.9321 63.6562 82.0646 63.6562 82.898L63.6566 82.8976Z" fill="#F3F1F9"/>
<path d="M60.9113 81.8225C60.6153 81.8225 60.4825 81.9613 60.4766 82.5469C60.6393 82.5469 61.032 82.5406 61.2974 82.5288C61.3036 82.4383 61.3036 82.3779 61.3036 82.3176C61.3036 81.9554 61.1711 81.8225 60.9113 81.8225Z" fill="#F3F1F9"/>
<path d="M26.8736 25.5133H26.7951C26.7874 25.7489 26.7558 25.9918 26.6855 26.2664L26.2695 27.8355H27.376L26.9759 26.2741C26.9052 25.9995 26.8816 25.7485 26.8739 25.5129L26.8736 25.5133Z" fill="#F3F1F9"/>
<path d="M51.7241 81.8225C51.4278 81.8225 51.2953 81.9613 51.2891 82.5469C51.4521 82.5469 51.8449 82.5406 52.1099 82.5288C52.1165 82.4383 52.1165 82.3779 52.1165 82.3176C52.1165 81.9554 51.9836 81.8225 51.7241 81.8225Z" fill="#F3F1F9"/>
<path d="M77.4791 25.5598H76.8516V27.2861H77.4479C77.8638 27.2861 78.1538 27.1135 78.1538 26.3758C78.1538 25.717 77.8638 25.5598 77.4791 25.5598Z" fill="#F3F1F9"/>
<path d="M57.8045 17.8622C57.8045 16.3869 57.4044 16.1594 56.6749 16.1594H55.9844V19.7217H56.6668C57.5141 19.7217 57.8045 19.3923 57.8045 17.8622Z" fill="#F3F1F9"/>
<path d="M7.76562 7.76514V91.2348H91.2353V7.76514H7.76562ZM65.0104 15.0686H66.4227L67.898 17.8932C67.9922 18.0736 68.0941 18.3169 68.1567 18.5602H68.2355C68.2119 18.3481 68.1965 18.0971 68.1965 17.8932V15.0686H69.4126V20.8198H68.1335L66.525 17.7364C66.4153 17.5244 66.3292 17.2815 66.2821 17.054H66.2033C66.2192 17.2737 66.235 17.517 66.235 17.7364V20.8198H65.0107V15.0686H65.0104ZM60.2864 15.0686H63.8333V16.1905H61.6358V17.3595H63.6919V18.4737H61.6358V19.7056H63.8645L63.9429 20.8198H60.2864V15.0686ZM61.2512 26.7764V27.8906H59.1958V29.1226H61.4242L61.5026 30.2367H57.8461V24.4855H61.3929V25.6074H59.1958V26.7764H61.2512ZM54.6519 15.0686H56.6686C58.1593 15.0686 59.2264 15.7749 59.2264 17.8303C59.2264 19.8234 58.3161 20.8198 56.6918 20.8198H54.6519V15.0686ZM54.9817 24.4067C55.3976 24.4067 55.8055 24.4538 56.645 24.6659L56.3627 25.7959C55.4683 25.5838 55.1462 25.5367 54.8407 25.5367C54.4719 25.5367 54.2282 25.6935 54.2282 26.094C54.2282 26.3609 54.3931 26.4783 54.7148 26.5961L55.6328 26.9255C56.3388 27.1765 56.8412 27.6315 56.8412 28.5104C56.8412 29.7107 55.931 30.3151 54.7539 30.3151C54.2518 30.3151 53.8362 30.2835 52.8785 29.9305L53.1928 28.8086C54.3538 29.1697 54.5503 29.1851 54.9029 29.1851C55.2953 29.1851 55.5147 28.9812 55.5147 28.6047C55.5147 28.3065 55.3579 28.1729 55.0443 28.0632L54.1263 27.7415C53.4277 27.4982 52.9024 27.0278 52.9024 26.1724C52.9024 25.0582 53.7888 24.4071 54.9813 24.4071L54.9817 24.4067ZM51.9528 15.0686H53.3022V20.8198H51.9528V15.0686ZM50.5636 30.2364L48.9551 27.153C48.8455 26.9409 48.759 26.698 48.7118 26.4705H48.6334C48.6489 26.6903 48.6647 26.9336 48.6647 27.153V30.2364H47.4409V24.4851H48.8532L50.3281 27.3098C50.4223 27.4901 50.5243 27.7334 50.5868 27.9767H50.6656C50.642 27.7647 50.6266 27.5137 50.6266 27.3098V24.4851H51.8427V30.2364H50.5636ZM50.6078 39.3467L50.6052 45.0699C49.8286 45.4531 49.0917 45.9176 48.4166 46.4731C47.2719 47.4187 46.3646 48.542 45.7006 49.7659V39.0666L50.6078 39.347V39.3467ZM47.2207 15.0686H50.7672V16.1905H48.5701V17.3595H50.6255V18.4737H48.5701V19.7056H50.7985L50.8769 20.8198H47.2207V15.0686ZM42.9989 15.0686H44.3486V19.6821H46.3259L46.4279 20.8198H42.9993V15.0686H42.9989ZM42.7166 24.4851H46.263V25.607H44.0659V26.7761H46.1217V27.8902H44.0659V29.1222H46.2943L46.3727 30.2364H42.7162V24.4851H42.7166ZM38.7144 20.7804V15.0682H40.0638V20.5603C40.0561 21.8158 39.6166 22.302 38.0398 22.4747L37.8907 21.2821C38.5967 21.1956 38.7144 21.0936 38.7144 20.78V20.7804ZM35.9049 15.0682H37.2546V20.8194H35.9049V15.0682ZM35.6226 24.4848H37.2392L38.2669 28.0154C38.3298 28.2428 38.3846 28.5804 38.3924 28.7843H38.463C38.4708 28.5804 38.5102 28.2428 38.5727 28.0154L39.5378 24.4848H41.1699L41.5464 30.236H40.2674L40.1183 26.9954C40.1106 26.8541 40.1106 26.6343 40.1106 26.3991H40.0322C40.0167 26.5718 39.9851 26.7757 39.9225 26.9954L39.0358 30.236H37.7096L36.7916 26.9954C36.7445 26.8228 36.7055 26.6112 36.6896 26.3991H36.6112C36.6112 26.5953 36.6112 26.7915 36.6035 26.9954L36.4309 30.236H35.2383L35.623 24.4848H35.6226ZM29.172 15.0682L29.7134 18.3794C29.7528 18.6227 29.7918 19.0387 29.7918 19.2345H29.8702C29.8702 19.0464 29.9096 18.7637 30.0035 18.3794L30.7253 15.4057H32.1141L32.8517 18.3794C32.9065 18.6069 32.9536 19.0387 32.9536 19.2345H33.032C33.032 19.0383 33.0714 18.6069 33.1104 18.3794L33.6909 15.0682H34.9387L33.8087 20.8194H32.3651L31.5255 17.6182C31.4706 17.4066 31.4235 17.0532 31.4235 16.8416H31.3451C31.3451 17.0536 31.3061 17.3989 31.2509 17.6182L30.4113 20.8194H28.9677L27.8381 15.0682H29.172ZM22.6901 30.236H21.0893L19.4573 24.4848H20.838L21.7795 28.1961C21.8266 28.3923 21.8737 28.7611 21.8737 28.9102H21.9444C21.9444 28.7611 21.9915 28.3923 22.0386 28.1961L22.9802 24.4848H24.3222L22.6901 30.236ZM24.5489 84.4544V80.029H27.2779V80.8925H25.5873V81.7921H27.1693V82.6493H25.5873V83.5971H27.3022L27.3625 84.4544H24.5489ZM27.6029 28.8708H26.0179L25.6727 30.236H24.331L25.9395 24.4848H27.7597L29.3211 30.236H27.94L27.6025 28.8708H27.6029ZM29.9277 82.1602C29.801 82.1237 29.6682 82.0935 29.5714 82.0935C29.3719 82.0935 29.2151 82.1539 29.0159 82.2566V84.4544H28.1105V81.2484H29.0159V81.5503H29.0704C29.3781 81.2602 29.5353 81.1881 29.7223 81.1881C29.8007 81.1881 29.8791 81.1998 30.0061 81.23L29.9277 82.1598V82.1602ZM30.0197 24.4848H31.3617V27.1132H31.4324C31.5262 26.8622 31.644 26.6189 31.8008 26.3914L33.1034 24.4848H34.4999V24.5632L32.8756 26.7444L33.974 28.8785C34.0524 29.0434 34.0995 29.0828 34.2721 29.0828C34.3428 29.0828 34.3976 29.0747 34.4447 29.067V30.236C34.2563 30.2595 34.1072 30.2754 33.9581 30.2754C33.4244 30.2754 33.1815 30.1499 32.8281 29.4516L32.0515 27.9296L31.3613 28.8634V30.2364H30.0193V24.4851L30.0197 24.4848ZM33.0059 83.4282C33.0843 83.567 33.1204 83.585 33.2172 83.585C33.2595 83.585 33.314 83.5787 33.3379 83.5732V84.4544C33.2411 84.4665 33.1506 84.4724 33.078 84.4724C32.7217 84.4724 32.4924 84.3639 32.2874 83.9593L31.8829 83.1742L31.4541 83.7116V84.4544H30.5663V79.8538L31.4541 79.757V82.6008H31.5086C31.587 82.3895 31.7139 82.1841 31.8284 82.0394L32.4807 81.2304L33.4285 81.2668L32.4685 82.4686L33.0059 83.4286V83.4282ZM33.6416 62.7823V47.4838L38.5484 47.7658L38.5462 54.9588C39.9976 54.1195 41.6734 53.6278 43.4689 53.6278C43.798 53.6278 44.1223 53.6465 44.4425 53.6775C44.2275 55.3809 44.4101 57.1319 45.0027 58.7897C44.5202 58.6325 44.0056 58.542 43.4689 58.542C40.7547 58.542 38.5547 60.7442 38.5547 63.4573C38.5547 64.1563 38.7038 64.8177 38.9636 65.4181L38.8116 65.5465L35.1076 68.6038C34.1838 67.1054 33.6419 65.3474 33.6419 63.4577C33.6419 63.3399 33.6548 63.2243 33.6585 63.1077C33.6482 63.0017 33.6419 62.892 33.6419 62.7834L33.6416 62.7823ZM36.4405 83.0597C36.1806 83.0719 35.4742 83.0962 34.7377 83.1142C34.7377 83.585 34.8769 83.712 35.2814 83.712C35.4021 83.712 35.6134 83.6939 36.2535 83.5066L36.4106 84.2796C35.8791 84.4485 35.5169 84.5151 35.2817 84.5151C34.2854 84.5151 33.7844 83.984 33.7844 82.9092C33.7844 81.7196 34.328 81.1884 35.2033 81.1884C36.0065 81.1884 36.4714 81.6353 36.4714 82.4988C36.4714 82.6313 36.4651 82.8308 36.4412 83.0601L36.4405 83.0597ZM39.9055 84.4544H38.9938V82.2264C38.9938 82.0814 38.9393 82.0151 38.7645 82.0151C38.5532 82.0151 38.2875 82.0755 38.064 82.1841V84.4544H37.1582V81.2484H38.064V81.5079H38.1185C38.5834 81.2422 38.8492 81.1881 39.1208 81.1881C39.61 81.1881 39.9059 81.4111 39.9059 82.0332V84.4544H39.9055ZM43.4428 84.4544H42.5793V84.2188H42.5189C42.1505 84.4544 41.9635 84.5148 41.7036 84.5148C41.0035 84.5148 40.5688 84.0981 40.5688 82.8787C40.5688 81.6769 41.1603 81.1881 41.8247 81.1881C42.0544 81.1881 42.2594 81.23 42.5252 81.3452V79.8538L43.4428 79.757V84.4544ZM46.4544 84.4544H45.5427V79.8538L46.4544 79.757V84.4544ZM49.7991 83.0597C49.5393 83.0719 48.8329 83.0962 48.0964 83.1142C48.0964 83.585 48.2355 83.712 48.6401 83.712C48.7608 83.712 48.9721 83.6939 49.6118 83.5066L49.7693 84.2796C49.2378 84.4485 48.8756 84.5151 48.6401 84.5151C47.6437 84.5151 47.1427 83.984 47.1427 82.9092C47.1427 81.7196 47.6864 81.1884 48.5617 81.1884C49.3648 81.1884 49.8297 81.6353 49.8297 82.4988C49.8297 82.6313 49.8231 82.8308 49.7995 83.0601L49.7991 83.0597ZM52.9801 83.0597C52.7202 83.0719 52.0139 83.0962 51.277 83.1142C51.277 83.585 51.4161 83.712 51.8206 83.712C51.9414 83.712 52.1526 83.6939 52.7927 83.5066L52.9503 84.2796C52.4188 84.4485 52.0566 84.5151 51.821 84.5151C50.825 84.5151 50.3237 83.984 50.3237 82.9092C50.3237 81.7196 50.8673 81.1884 51.7426 81.1884C52.5457 81.1884 53.0106 81.6353 53.0106 82.4988C53.0106 82.6313 53.004 82.8308 52.9805 83.0601L52.9801 83.0597ZM49.7185 71.0364C47.8866 72.55 45.6689 73.288 43.4645 73.288C40.6336 73.288 37.8241 72.07 35.8795 69.7184C35.8769 69.7121 35.874 69.7103 35.8718 69.7077L39.6622 66.5775C39.6641 66.5801 39.6667 66.5849 39.6689 66.586C40.6417 67.7639 42.0463 68.3745 43.4616 68.3745C44.5647 68.3745 45.6733 68.0042 46.5895 67.2493C48.4453 65.717 48.8823 63.1077 47.7541 61.0773C44.5294 56.8982 45.1698 50.8907 49.2702 47.5048C51.101 45.9912 53.3183 45.2532 55.522 45.2532C58.3526 45.2532 61.1636 46.4712 63.1074 48.8255C63.11 48.8277 63.1137 48.8324 63.1162 48.8358L59.325 51.9648C59.3213 51.9611 59.3202 51.9589 59.3177 51.9545C58.3448 50.7766 56.9395 50.1682 55.5239 50.1682C54.4204 50.1682 53.3132 50.5359 52.397 51.2931C50.5427 52.8243 50.1028 55.431 51.231 57.4613C54.4564 61.6412 53.8164 67.6527 49.7174 71.0364H49.7185ZM55.515 82.1602C55.3884 82.1237 55.2555 82.0935 55.1587 82.0935C54.9592 82.0935 54.8024 82.1539 54.6033 82.2566V84.4544H53.6975V81.2484H54.6033V81.5503H54.6578C54.9659 81.2602 55.1227 81.1881 55.3097 81.1881C55.3884 81.1881 55.4668 81.1998 55.5934 81.23L55.515 82.1598V82.1602ZM57.7787 84.5148C57.5126 84.5148 57.3197 84.4724 57.054 84.3396L57.0117 84.4544H56.1544V79.8538L57.0661 79.757V81.4597H57.1202C57.4467 81.2363 57.6698 81.1881 57.8873 81.1881C58.5819 81.1881 59.0225 81.5985 59.0225 82.8242C59.0225 84.0197 58.4365 84.5148 57.7787 84.5148ZM62.1673 83.0597C61.9075 83.0719 61.2015 83.0962 60.4646 83.1142C60.4646 83.585 60.6034 83.712 61.0083 83.712C61.129 83.712 61.3403 83.6939 61.9803 83.5066L62.1375 84.2796C61.606 84.4485 61.2438 84.5151 61.0086 84.5151C60.0122 84.5151 59.5113 83.984 59.5113 82.9092C59.5113 81.7196 60.0546 81.1884 60.9302 81.1884C61.7334 81.1884 62.1979 81.6353 62.1979 82.4988C62.1979 82.6313 62.1916 82.8308 62.1677 83.0601L62.1673 83.0597ZM55.5287 64.8704C55.1992 64.8704 54.8753 64.8479 54.5536 64.8148C54.7623 63.1088 54.5698 61.356 53.9673 59.697C54.4587 59.8608 54.9824 59.9539 55.5287 59.9539C58.2432 59.9539 60.4444 57.7539 60.4444 55.0397C60.4444 54.3514 60.3004 53.6992 60.0468 53.1051L60.179 52.9954L63.9065 49.9172C64.819 51.4123 65.3578 53.1607 65.3578 55.0397C65.3578 60.4678 60.9575 64.8704 55.5283 64.8704H55.5287ZM65.5599 84.4544H64.6964V84.2188H64.636C64.2676 84.4544 64.0802 84.5148 63.8207 84.5148C63.1207 84.5148 62.6856 84.0981 62.6856 82.8787C62.6856 81.6769 63.2775 81.1881 63.9415 81.1881C64.1708 81.1881 64.3765 81.23 64.6419 81.3452V79.8538L65.5595 79.757V84.4544H65.5599ZM64.0839 27.1522C63.9742 26.9402 63.8881 26.6973 63.841 26.4698H63.7622C63.778 26.6896 63.7939 26.9328 63.7939 27.1522V30.2356H62.57V24.4844H63.982L65.4572 27.309C65.5515 27.4894 65.6534 27.7327 65.716 27.976H65.7948C65.7712 27.764 65.7557 27.5129 65.7557 27.309V24.4844H66.9719V30.2356H65.6928L64.0843 27.1522H64.0839ZM68.2576 82.1598C68.1306 82.1234 67.9981 82.0932 67.9013 82.0932C67.7021 82.0932 67.545 82.1535 67.3458 82.2562V84.454H66.44V81.2481H67.3458V81.5499H67.3999C67.708 81.2598 67.8648 81.1877 68.0522 81.1877C68.1306 81.1877 68.2094 81.1995 68.3356 81.2297L68.2572 82.1594L68.2576 82.1598ZM69.8087 84.454H68.8969V81.2481H69.8087V84.454ZM69.35 80.8678C69.0239 80.8678 68.8189 80.6867 68.8189 80.3606C68.8189 80.0345 69.0243 79.8597 69.35 79.8597C69.6581 79.8597 69.8874 80.0165 69.8874 80.3606C69.8874 80.6742 69.6942 80.8678 69.35 80.8678ZM71.6137 84.7135C71.6137 85.3838 71.324 85.7217 70.4668 85.8487L70.2794 84.9914C70.6781 84.9675 70.702 84.913 70.702 84.7437V81.2481H71.6137V84.7135ZM71.1429 80.8678C70.8168 80.8678 70.6118 80.6867 70.6118 80.3606C70.6118 80.0345 70.8172 79.8597 71.1429 79.8597C71.451 79.8597 71.6803 80.0165 71.6803 80.3606C71.6803 80.6742 71.4871 80.8678 71.1429 80.8678ZM74.4391 81.2481V82.0269H73.6602V84.454H72.7485V82.0269H72.3017V81.2481H72.7485V80.9702C72.7485 80.1795 73.2255 79.7566 73.9742 79.7566C74.1008 79.7566 74.3485 79.7746 74.4512 79.7989L74.4026 80.5958C74.2455 80.5719 74.131 80.5594 74.0224 80.5594C73.7327 80.5594 73.6602 80.6437 73.6602 80.8432V81.2481H74.4391ZM72.0411 30.314C70.4874 30.314 69.6246 29.5057 69.6246 27.3874C69.6246 25.3394 70.519 24.4056 72.0411 24.4056C73.5789 24.4056 74.4579 25.2375 74.4579 27.3639C74.4579 29.4586 73.5553 30.314 72.0411 30.314ZM77.471 28.368H76.8511V30.2353H75.5172V24.484H77.5258C78.7813 24.484 79.5425 25.0096 79.5425 26.3594C79.5425 27.8188 78.601 28.368 77.471 28.368Z" fill="#F3F1F9"/>
<path d="M72.032 25.5054C71.3102 25.5054 71.043 25.7722 71.043 27.3649C71.043 28.9263 71.3102 29.2167 72.0397 29.2167C72.7615 29.2167 73.0361 28.934 73.0361 27.3649C73.0361 25.7722 72.7221 25.5054 72.0316 25.5054H72.032Z" fill="#F3F1F9"/>
<path opacity="0.2" d="M26.8736 25.5138H26.7951C26.7874 25.7494 26.7558 25.9923 26.6855 26.2669L26.2695 27.836H27.376L26.9759 26.2746C26.9052 26 26.8816 25.749 26.8739 25.5134L26.8736 25.5138Z" fill="#F3F1F9"/>
<path opacity="0.2" d="M57.8045 17.8626C57.8045 16.3874 57.4044 16.1599 56.6749 16.1599H55.9844V19.7222H56.6668C57.5141 19.7222 57.8045 19.3927 57.8045 17.8626Z" fill="#F3F1F9"/>
<path opacity="0.2" d="M35.1847 81.8237C34.8888 81.8237 34.7559 81.9625 34.75 82.5481C34.9131 82.5481 35.3054 82.5418 35.5712 82.5301C35.5774 82.4395 35.5774 82.3792 35.5774 82.3188C35.5774 81.9566 35.4446 81.8237 35.1851 81.8237H35.1847Z" fill="#F3F1F9"/>
<path opacity="0.2" d="M57.5975 81.9626C57.4522 81.9626 57.3196 82.0109 57.0664 82.1555V83.6893C57.2655 83.7615 57.4106 83.7799 57.5313 83.7799C57.8813 83.7799 58.0506 83.6289 58.0506 82.8136C58.0506 82.1312 57.8931 81.9626 57.5979 81.9626H57.5975Z" fill="#F3F1F9"/>
<path opacity="0.2" d="M63.6566 82.8981C63.6566 83.635 63.8499 83.7436 64.109 83.7436C64.2544 83.7436 64.3931 83.7012 64.6405 83.5503V81.993C64.4712 81.9565 64.2901 81.9326 64.1752 81.9326C63.8554 81.9326 63.6562 82.0651 63.6562 82.8985L63.6566 82.8981Z" fill="#F3F1F9"/>
<path opacity="0.2" d="M41.543 82.8981C41.543 83.635 41.7362 83.7436 41.9961 83.7436C42.1411 83.7436 42.2799 83.7012 42.5272 83.5503V81.993C42.3583 81.9565 42.1772 81.9326 42.0623 81.9326C41.7425 81.9326 41.543 82.0651 41.543 82.8985V82.8981Z" fill="#F3F1F9"/>
<path opacity="0.2" d="M60.9113 81.8237C60.6153 81.8237 60.4825 81.9625 60.4766 82.5481C60.6393 82.5481 61.032 82.5418 61.2974 82.5301C61.3036 82.4395 61.3036 82.3792 61.3036 82.3188C61.3036 81.9566 61.1711 81.8237 60.9113 81.8237Z" fill="#F3F1F9"/>
<path opacity="0.2" d="M72.032 25.5063C71.3102 25.5063 71.043 25.7732 71.043 27.3659C71.043 28.9273 71.3102 29.2177 72.0397 29.2177C72.7615 29.2177 73.0361 28.935 73.0361 27.3659C73.0361 25.7732 72.7221 25.5063 72.0316 25.5063H72.032Z" fill="#F3F1F9"/>
<path opacity="0.2" d="M81.6462 0L0 17.3546L17.3542 99.0004L99 81.6462L81.6458 0.000367877L81.6462 0ZM65.0105 15.0688H66.4228L67.8981 17.8934C67.9923 18.0738 68.0943 18.3171 68.1568 18.5604H68.2356C68.212 18.3484 68.1966 18.0973 68.1966 17.8934V15.0688H69.4127V20.82H68.1336L66.5251 17.7366C66.4154 17.5246 66.3293 17.2817 66.2822 17.0542H66.2034C66.2193 17.2739 66.2351 17.5172 66.2351 17.7366V20.82H65.0109V15.0688H65.0105ZM60.2866 15.0688H63.8334V16.1907H61.6359V17.3597H63.692V18.4739H61.6359V19.7058H63.8647L63.9431 20.82H60.2866V15.0688ZM61.2513 26.7766V27.8908H59.1959V29.1228H61.4243L61.5027 30.237H57.8462V24.4857H61.393V25.6076H59.1959V26.7766H61.2513ZM54.652 15.0688H56.6687C58.1594 15.0688 59.2265 15.7751 59.2265 17.8305C59.2265 19.8236 58.3162 20.82 56.6919 20.82H54.652V15.0688ZM54.9818 24.407C55.3977 24.407 55.8056 24.4541 56.6452 24.6661L56.3628 25.7961C55.4684 25.5841 55.1463 25.537 54.8408 25.537C54.472 25.537 54.2283 25.6938 54.2283 26.0942C54.2283 26.3611 54.3932 26.4785 54.7149 26.5963L55.6329 26.9257C56.3389 27.1767 56.8413 27.6317 56.8413 28.5107C56.8413 29.711 55.9311 30.3154 54.754 30.3154C54.2519 30.3154 53.8363 30.2837 52.8786 29.9307L53.1929 28.8088C54.3539 29.1699 54.5504 29.1854 54.903 29.1854C55.2954 29.1854 55.5148 28.9814 55.5148 28.6049C55.5148 28.3067 55.358 28.1731 55.0444 28.0634L54.1264 27.7417C53.4278 27.4984 52.9025 27.028 52.9025 26.1726C52.9025 25.0585 53.7889 24.4073 54.9814 24.4073L54.9818 24.407ZM51.9529 15.0688H53.3023V20.82H51.9529V15.0688ZM50.5638 30.2366L48.9552 27.1532C48.8456 26.9412 48.7591 26.6982 48.7119 26.4708H48.6335C48.649 26.6905 48.6648 26.9338 48.6648 27.1532V30.2366H47.441V24.4854H48.8533L50.3282 27.31C50.4224 27.4904 50.5244 27.7337 50.5869 27.9769H50.6657C50.6421 27.7649 50.6267 27.5139 50.6267 27.31V24.4854H51.8428V30.2366H50.5638ZM50.6079 39.3469L50.6053 45.0702C49.8287 45.4533 49.0918 45.9179 48.4167 46.4733C47.272 47.4189 46.3647 48.5423 45.7007 49.7661V39.0668L50.6079 39.3473V39.3469ZM47.2209 15.0688H50.7673V16.1907H48.5702V17.3597H50.6256V18.4739H48.5702V19.7058H50.7986L50.877 20.82H47.2209V15.0688ZM42.999 15.0688H44.3487V19.6823H46.3261L46.428 20.82H42.9994V15.0688H42.999ZM42.7167 24.4854H46.2631V25.6073H44.0661V26.7763H46.1218V27.8905H44.0661V29.1224H46.2944L46.3728 30.2366H42.7163V24.4854H42.7167ZM38.7146 20.7806V15.0684H40.0639V20.5605C40.0562 21.816 39.6167 22.3023 38.0399 22.4749L37.8908 21.2823C38.5968 21.1958 38.7146 21.0939 38.7146 20.7803V20.7806ZM35.905 15.0684H37.2547V20.8197H35.905V15.0684ZM35.6227 24.485H37.2393L38.267 28.0156C38.3299 28.2431 38.3848 28.5806 38.3925 28.7845H38.4632C38.4709 28.5806 38.5103 28.2431 38.5728 28.0156L39.5379 24.485H41.17L41.5466 30.2362H40.2675L40.1184 26.9957C40.1107 26.8543 40.1107 26.6346 40.1107 26.3994H40.0323C40.0168 26.572 39.9852 26.7759 39.9226 26.9957L39.0359 30.2362H37.7097L36.7917 26.9957C36.7446 26.823 36.7056 26.6114 36.6897 26.3994H36.6113C36.6113 26.5956 36.6113 26.7917 36.6036 26.9957L36.431 30.2362H35.2384L35.6231 24.485H35.6227ZM29.1721 15.0684L29.7135 18.3797C29.7529 18.623 29.7919 19.0389 29.7919 19.2347H29.8703C29.8703 19.0466 29.9097 18.7639 30.0036 18.3797L30.7254 15.4059H32.1142L32.8518 18.3797C32.9066 18.6071 32.9537 19.0389 32.9537 19.2347H33.0321C33.0321 19.0385 33.0715 18.6071 33.1105 18.3797L33.691 15.0684H34.9388L33.8088 20.8197H32.3652L31.5256 17.6185C31.4708 17.4068 31.4236 17.0535 31.4236 16.8418H31.3452C31.3452 17.0538 31.3062 17.3991 31.251 17.6185L30.4114 20.8197H28.9678L27.8382 15.0684H29.1721ZM22.6902 30.2362H21.0895L19.4574 24.485H20.8381L21.7796 28.1963C21.8267 28.3925 21.8738 28.7613 21.8738 28.9104H21.9445C21.9445 28.7613 21.9916 28.3925 22.0387 28.1963L22.9803 24.485H24.3223L22.6902 30.2362ZM24.549 84.4546V80.0292H27.278V80.8927H25.5874V81.7923H27.1694V82.6496H25.5874V83.5974H27.3023L27.3626 84.4546H24.549ZM27.603 28.871H26.018L25.6728 30.2362H24.3311L25.9396 24.485H27.7598L29.3212 30.2362H27.9401L27.6026 28.871H27.603ZM29.9278 82.1604C29.8011 82.1239 29.6683 82.0938 29.5715 82.0938C29.372 82.0938 29.2152 82.1541 29.016 82.2568V84.4546H28.1106V81.2487H29.016V81.5505H29.0705C29.3782 81.2604 29.5354 81.1883 29.7224 81.1883C29.8008 81.1883 29.8792 81.2001 30.0062 81.2303L29.9278 82.16V82.1604ZM30.0198 24.485H31.3618V27.1134H31.4325C31.5263 26.8624 31.6441 26.6191 31.8009 26.3916L33.1036 24.485H34.5V24.5634L32.8757 26.7446L33.9741 28.8787C34.0525 29.0436 34.0996 29.083 34.2722 29.083C34.3429 29.083 34.3977 29.0749 34.4448 29.0672V30.2362C34.2564 30.2598 34.1073 30.2756 33.9582 30.2756C33.4245 30.2756 33.1816 30.1501 32.8282 29.4518L32.0516 27.9298L31.3614 28.8637V30.2366H30.0194V24.4854L30.0198 24.485ZM33.006 83.4284C33.0844 83.5672 33.1205 83.5852 33.2173 83.5852C33.2596 83.5852 33.3141 83.579 33.338 83.5734V84.4546C33.2412 84.4668 33.1507 84.4727 33.0782 84.4727C32.7219 84.4727 32.4925 84.3641 32.2875 83.9596L31.883 83.1744L31.4542 83.7118V84.4546H30.5664V79.854L31.4542 79.7572V82.601H31.5087C31.5871 82.3897 31.7141 82.1843 31.8285 82.0397L32.4808 81.2306L33.4286 81.2671L32.4686 82.4688L33.006 83.4288V83.4284ZM33.6417 62.7825V47.484L38.5485 47.766L38.5463 54.959C39.9977 54.1198 41.6735 53.628 43.469 53.628C43.7981 53.628 44.1224 53.6468 44.4426 53.6777C44.2276 55.3812 44.4102 57.1321 45.0028 58.79C44.5203 58.6328 44.0057 58.5422 43.469 58.5422C40.7548 58.5422 38.5548 60.7445 38.5548 63.4576C38.5548 64.1565 38.7039 64.818 38.9637 65.4183L38.8117 65.5468L35.1077 68.604C34.1839 67.1056 33.6421 65.3476 33.6421 63.4579C33.6421 63.3401 33.6549 63.2246 33.6586 63.1079C33.6483 63.0019 33.6421 62.8922 33.6421 62.7836L33.6417 62.7825ZM36.4406 83.06C36.1807 83.0721 35.4743 83.0964 34.7378 83.1145C34.7378 83.5852 34.877 83.7122 35.2815 83.7122C35.4022 83.7122 35.6135 83.6942 36.2536 83.5068L36.4107 84.2798C35.8792 84.4487 35.517 84.5154 35.2818 84.5154C34.2855 84.5154 33.7845 83.9842 33.7845 82.9094C33.7845 81.7198 34.3282 81.1887 35.2034 81.1887C36.0066 81.1887 36.4715 81.6355 36.4715 82.499C36.4715 82.6315 36.4652 82.831 36.4413 83.0603L36.4406 83.06ZM39.9057 84.4546H38.9939V82.2266C38.9939 82.0816 38.9394 82.0154 38.7646 82.0154C38.5533 82.0154 38.2876 82.0757 38.0642 82.1843V84.4546H37.1583V81.2487H38.0642V81.5082H38.1186C38.5835 81.2424 38.8493 81.1883 39.1209 81.1883C39.6101 81.1883 39.906 81.4113 39.906 82.0334V84.4546H39.9057ZM43.4429 84.4546H42.5794V84.2191H42.519C42.1506 84.4546 41.9636 84.515 41.7037 84.515C41.0036 84.515 40.5689 84.0983 40.5689 82.8789C40.5689 81.6771 41.1604 81.1883 41.8248 81.1883C42.0545 81.1883 42.2595 81.2303 42.5253 81.3455V79.854L43.4429 79.7572V84.4546ZM46.4545 84.4546H45.5428V79.854L46.4545 79.7572V84.4546ZM49.7993 83.06C49.5394 83.0721 48.833 83.0964 48.0965 83.1145C48.0965 83.5852 48.2356 83.7122 48.6402 83.7122C48.7609 83.7122 48.9722 83.6942 49.6119 83.5068L49.7694 84.2798C49.2379 84.4487 48.8757 84.5154 48.6402 84.5154C47.6438 84.5154 47.1428 83.9842 47.1428 82.9094C47.1428 81.7198 47.6865 81.1887 48.5618 81.1887C49.3649 81.1887 49.8298 81.6355 49.8298 82.499C49.8298 82.6315 49.8232 82.831 49.7996 83.0603L49.7993 83.06ZM52.9802 83.06C52.7203 83.0721 52.014 83.0964 51.2771 83.1145C51.2771 83.5852 51.4162 83.7122 51.8207 83.7122C51.9415 83.7122 52.1527 83.6942 52.7928 83.5068L52.9504 84.2798C52.4189 84.4487 52.0567 84.5154 51.8211 84.5154C50.8251 84.5154 50.3238 83.9842 50.3238 82.9094C50.3238 81.7198 50.8674 81.1887 51.7427 81.1887C52.5459 81.1887 53.0107 81.6355 53.0107 82.499C53.0107 82.6315 53.0041 82.831 52.9806 83.0603L52.9802 83.06ZM49.7186 71.0367C47.8867 72.5502 45.669 73.2882 43.4646 73.2882C40.6337 73.2882 37.8242 72.0702 35.8796 69.7186C35.877 69.7123 35.8741 69.7105 35.8719 69.7079L39.6624 66.5778C39.6642 66.5803 39.6668 66.5851 39.669 66.5862C40.6418 67.7641 42.0464 68.3747 43.4617 68.3747C44.5648 68.3747 45.6735 68.0044 46.5896 67.2495C48.4455 65.7172 48.8824 63.1079 47.7542 61.0776C44.5295 56.8984 45.1699 50.891 49.2703 47.505C51.1011 45.9915 53.3184 45.2535 55.5221 45.2535C58.3527 45.2535 61.1637 46.4714 63.1075 48.8257C63.1101 48.8279 63.1138 48.8327 63.1163 48.836L59.3251 51.965C59.3214 51.9613 59.3203 51.9591 59.3178 51.9547C58.3449 50.7769 56.9396 50.1684 55.524 50.1684C54.4205 50.1684 53.3133 50.5361 52.3971 51.2933C50.5428 52.8245 50.1029 55.4312 51.2311 57.4616C54.4566 61.6415 53.8165 67.6529 49.7175 71.0367H49.7186ZM55.5151 82.1604C55.3885 82.1239 55.2556 82.0938 55.1588 82.0938C54.9593 82.0938 54.8025 82.1541 54.6034 82.2568V84.4546H53.6976V81.2487H54.6034V81.5505H54.6579C54.966 81.2604 55.1228 81.1883 55.3098 81.1883C55.3885 81.1883 55.4669 81.2001 55.5935 81.2303L55.5151 82.16V82.1604ZM57.7788 84.515C57.5127 84.515 57.3198 84.4727 57.0541 84.3398L57.0118 84.4546H56.1545V79.854L57.0662 79.7572V81.4599H57.1203C57.4468 81.2365 57.6699 81.1883 57.8874 81.1883C58.582 81.1883 59.0226 81.5987 59.0226 82.8244C59.0226 84.0199 58.4366 84.515 57.7788 84.515ZM62.1674 83.06C61.9076 83.0721 61.2016 83.0964 60.4647 83.1145C60.4647 83.5852 60.6035 83.7122 61.0084 83.7122C61.1291 83.7122 61.3404 83.6942 61.9805 83.5068L62.1376 84.2798C61.6061 84.4487 61.2439 84.5154 61.0087 84.5154C60.0123 84.5154 59.5114 83.9842 59.5114 82.9094C59.5114 81.7198 60.0547 81.1887 60.9303 81.1887C61.7335 81.1887 62.198 81.6355 62.198 82.499C62.198 82.6315 62.1917 82.831 62.1678 83.0603L62.1674 83.06ZM55.5288 64.8706C55.1993 64.8706 54.8754 64.8482 54.5537 64.815C54.7624 63.109 54.5699 61.3562 53.9674 59.6973C54.4588 59.8611 54.9825 59.9542 55.5288 59.9542C58.2433 59.9542 60.4445 57.7542 60.4445 55.04C60.4445 54.3517 60.3005 53.6994 60.0469 53.1053L60.1791 52.9957L63.9066 49.9174C64.8191 51.4125 65.3579 53.1609 65.3579 55.04C65.3579 60.468 60.9576 64.8706 55.5284 64.8706H55.5288ZM65.56 84.4546H64.6965V84.2191H64.6361C64.2677 84.4546 64.0804 84.515 63.8209 84.515C63.1208 84.515 62.6857 84.0983 62.6857 82.8789C62.6857 81.6771 63.2776 81.1883 63.9416 81.1883C64.1709 81.1883 64.3766 81.2303 64.642 81.3455V79.854L65.5597 79.7572V84.4546H65.56ZM64.084 27.1525C63.9743 26.9404 63.8882 26.6975 63.8411 26.47H63.7623C63.7782 26.6898 63.794 26.9331 63.794 27.1525V30.2359H62.5701V24.4846H63.9821L65.4573 27.3093C65.5516 27.4896 65.6535 27.7329 65.7161 27.9762H65.7949C65.7713 27.7642 65.7558 27.5132 65.7558 27.3093V24.4846H66.972V30.2359H65.6929L64.0844 27.1525H64.084ZM68.2577 82.16C68.1307 82.1236 67.9982 82.0934 67.9014 82.0934C67.7022 82.0934 67.5451 82.1538 67.3459 82.2565V84.4543H66.4401V81.2483H67.3459V81.5501H67.4001C67.7081 81.2601 67.8649 81.1879 68.0523 81.1879C68.1307 81.1879 68.2095 81.1997 68.3357 81.2299L68.2573 82.1597L68.2577 82.16ZM69.8088 84.4543H68.897V81.2483H69.8088V84.4543ZM69.3501 80.8681C69.024 80.8681 68.819 80.687 68.819 80.3609C68.819 80.0347 69.0244 79.8599 69.3501 79.8599C69.6582 79.8599 69.8875 80.0167 69.8875 80.3609C69.8875 80.6745 69.6943 80.8681 69.3501 80.8681ZM71.6138 84.7138C71.6138 85.384 71.3241 85.7219 70.4669 85.8489L70.2795 84.9917C70.6782 84.9677 70.7021 84.9133 70.7021 84.7439V81.2483H71.6138V84.7138ZM71.1431 80.8681C70.8169 80.8681 70.6119 80.687 70.6119 80.3609C70.6119 80.0347 70.8173 79.8599 71.1431 79.8599C71.4511 79.8599 71.6804 80.0167 71.6804 80.3609C71.6804 80.6745 71.4872 80.8681 71.1431 80.8681ZM74.4392 81.2483V82.0271H73.6603V84.4543H72.7486V82.0271H72.3018V81.2483H72.7486V80.9704C72.7486 80.1798 73.2256 79.7568 73.9743 79.7568C74.1009 79.7568 74.3486 79.7749 74.4513 79.7992L74.4028 80.5961C74.2456 80.5721 74.1311 80.5596 74.0225 80.5596C73.7329 80.5596 73.6603 80.6439 73.6603 80.8434V81.2483H74.4392ZM72.0412 30.3143C70.4875 30.3143 69.6247 29.506 69.6247 27.3877C69.6247 25.3397 70.5191 24.4058 72.0412 24.4058C73.579 24.4058 74.458 25.2377 74.458 27.3641C74.458 29.4588 73.5554 30.3143 72.0412 30.3143ZM77.4711 28.3682H76.8512V30.2355H75.5173V24.4842H77.5259C78.7814 24.4842 79.5426 25.0099 79.5426 26.3596C79.5426 27.819 78.6011 28.3682 77.4711 28.3682Z" fill="#F3F1F9"/>
<path opacity="0.2" d="M51.7241 81.8237C51.4278 81.8237 51.2953 81.9625 51.2891 82.5481C51.4521 82.5481 51.8449 82.5418 52.1099 82.5301C52.1165 82.4395 52.1165 82.3792 52.1165 82.3188C52.1165 81.9566 51.9836 81.8237 51.7241 81.8237Z" fill="#F3F1F9"/>
<path opacity="0.2" d="M48.5441 81.8237C48.2481 81.8237 48.1153 81.9625 48.1094 82.5481C48.2724 82.5481 48.6648 82.5418 48.9306 82.5301C48.9368 82.4395 48.9368 82.3792 48.9368 82.3188C48.9368 81.9566 48.8039 81.8237 48.5444 81.8237H48.5441Z" fill="#F3F1F9"/>
<path opacity="0.2" d="M77.4791 25.5603H76.8516V27.2866H77.4479C77.8638 27.2866 78.1538 27.114 78.1538 26.3763C78.1538 25.7175 77.8638 25.5603 77.4791 25.5603Z" fill="#F3F1F9"/>
</svg>