<svg width="117" height="24" viewBox="0 0 117 24" fill="none" xmlns="http://www.w3.org/2000/svg">
<path fill-rule="evenodd" clip-rule="evenodd" d="M51.9239 0.802294C52.4033 0.313167 52.9814 0.0686035 53.6595 0.0686035V0.0699931C54.3376 0.0699931 54.9156 0.308998 55.395 0.788398C55.8744 1.26641 56.1134 1.85558 56.1134 2.55315C56.1134 3.21041 55.873 3.77874 55.395 4.25814C54.9156 4.73754 54.3376 4.97655 53.6595 4.97655C52.9814 4.97655 52.4019 4.73754 51.9239 4.25814C51.4445 3.78013 51.2055 3.23125 51.2055 2.55315C51.2055 1.87504 51.4445 1.29142 51.9239 0.802294ZM81.5272 2.83524V7.11649H80.4294C79.5262 7.11649 78.8425 6.86081 78.3784 6.34806C77.9143 5.83531 77.6822 5.16554 77.6822 4.33458V2.83524H81.5272ZM63.2196 11.5506C64.0893 10.6475 65.1494 10.1959 66.3983 10.1958C67.536 10.1959 68.4223 10.4919 69.0586 11.0823C69.6936 11.6729 70.123 12.3927 70.3467 13.2403L73.8276 11.9689C73.4482 10.4973 72.6173 9.23697 71.3347 8.18785C70.0521 7.13873 68.3958 6.61487 66.3656 6.61487C64.0006 6.61487 62.0204 7.42915 60.4252 9.05772C58.83 10.6863 58.0324 12.772 58.0324 15.2482C58.0324 17.7244 58.8411 19.7879 60.4586 21.4387C62.076 23.0895 64.0784 23.9149 66.4657 23.9149C68.4514 23.9149 70.0855 23.3911 71.368 22.342C72.6506 21.2942 73.5149 20.045 73.961 18.5943L70.5482 17.3562C70.3259 18.1371 69.8743 18.8347 69.1934 19.4475C68.5125 20.0617 67.6037 20.3674 66.4657 20.3674C65.1942 20.3674 64.1173 19.9116 63.2363 18.9959C62.3553 18.0816 61.9148 16.8087 61.9148 15.2482C61.9148 13.6878 62.3498 12.4538 63.2196 11.5506ZM3.88244 14.0115V23.4133H0V7.11649H3.78101V9.29116C4.29376 8.39906 4.9802 7.73485 5.83895 7.29991C6.6977 6.86498 7.6176 6.64682 8.60002 6.64682C10.519 6.64682 11.9794 7.2485 12.9841 8.45325C13.9874 9.65801 14.4904 11.2088 14.4904 13.1055V23.4119H10.6079V13.7767C10.6079 12.6845 10.3398 11.8077 9.80477 11.149C9.26979 10.4917 8.42076 10.1624 7.26187 10.1624C6.19051 10.1624 5.35955 10.5251 4.76899 11.2504C4.17703 11.9758 3.88244 12.8957 3.88244 14.0115ZM50.1286 7.11644L43.7366 23.4133H39.8541L33.2287 7.11644H37.5113L41.8287 18.7624L46.0446 7.11644H50.1272H50.1286ZM98.195 21.6068C97.8156 22.3211 97.1959 22.8783 96.3372 23.2799C95.4784 23.6814 94.5585 23.8815 93.5761 23.8815C91.6793 23.8815 90.18 23.2687 89.0753 22.0418C87.9706 20.8148 87.4189 19.264 87.4189 17.3895V7.11644H91.3014V16.6878C91.3014 17.7814 91.5696 18.6735 92.1045 19.3655C92.6395 20.0575 93.4649 20.4035 94.5807 20.4035C95.6966 20.4035 96.5164 20.0686 97.107 19.3988C97.6975 18.729 97.9935 17.848 97.9935 16.7545V7.11644H101.876V20.4354C101.876 21.4178 101.932 22.41 102.044 23.4133H98.3298C98.2409 22.9227 98.1964 22.3211 98.1964 21.6068H98.195ZM107.497 18.0593L104.117 18.9959V18.9972C104.162 19.5114 104.323 20.0297 104.602 20.5536C104.882 21.0788 105.272 21.6027 105.774 22.1265C106.275 22.6504 106.967 23.0798 107.848 23.4147C108.729 23.7496 109.727 23.9163 110.843 23.9163C112.784 23.9163 114.295 23.3869 115.377 22.3266C116.459 21.2678 117 20.0575 117 18.6957C117 17.4687 116.598 16.4196 115.795 15.5497C114.992 14.6799 113.832 14.0782 112.314 13.7433L109.838 13.2417C108.745 13.0193 108.198 12.4496 108.198 11.5353C108.198 11.0225 108.422 10.582 108.868 10.2138C109.314 9.84696 109.872 9.66215 110.541 9.66215C111.5 9.66215 112.218 9.91366 112.699 10.4153C113.179 10.9169 113.464 11.4811 113.552 12.105L116.832 11.1684C116.765 10.7002 116.608 10.2319 116.364 9.76358C116.118 9.29391 115.766 8.80895 115.309 8.30732C114.852 7.80569 114.21 7.39854 113.384 7.08589C112.559 6.77324 111.611 6.61761 110.54 6.61761C108.867 6.61761 107.451 7.13592 106.291 8.17392C105.13 9.21054 104.551 10.4445 104.551 11.8716C104.551 13.0318 104.93 14.0351 105.689 14.8827C106.448 15.7304 107.53 16.3098 108.935 16.6225L111.344 17.1575C112.616 17.4243 113.252 18.0273 113.252 18.9639C113.252 19.4989 113.034 19.9449 112.599 20.302C112.164 20.6592 111.568 20.837 110.809 20.837C109.827 20.837 109.046 20.5688 108.467 20.0339C107.887 19.4989 107.563 18.8402 107.497 18.0593ZM84.9108 7.11783V10.5626H81.5314V18.126C81.5314 18.8402 81.6981 19.3585 82.033 19.6823C82.3679 20.006 82.8918 20.1672 83.606 20.1672C84.0521 20.1672 84.4981 20.1228 84.9442 20.0338V23.2465C84.3633 23.4911 83.5727 23.6147 82.568 23.6147C81.0506 23.6147 79.857 23.1854 78.9871 22.3266C78.1172 21.4679 77.6823 20.2798 77.6823 18.7624V10.5639H74.6711V7.11783H84.9108ZM55.5812 7.11644H51.7363V23.5091H55.5812V7.11644ZM33.5524 14.7424L32.2434 14.6451L33.5121 14.2769C33.4357 13.6099 33.2828 12.9499 33.0508 12.3121L31.6084 12.7303L31.5897 12.6831L31.5709 12.6358L32.8507 11.8076C32.5992 11.2282 32.281 10.671 31.896 10.1457L30.6441 10.9558C30.5807 10.8713 30.5135 10.7881 30.4474 10.7061L30.4473 10.7059L30.4471 10.7057L30.4471 10.7057L30.437 10.6932L31.4639 9.6024C31.3249 9.44121 31.179 9.28419 31.0262 9.13134C30.7455 8.85065 30.4509 8.59497 30.1452 8.36152L29.1225 9.44677C29.0113 9.36618 28.8988 9.28836 28.7834 9.21332L29.4393 7.87517C28.9474 7.57225 28.4333 7.32352 27.9024 7.12759L27.248 8.46018C27.1076 8.41154 26.9659 8.36569 26.8227 8.32539L27.0673 6.86635C26.5462 6.73156 26.0154 6.6468 25.4818 6.60928L25.2386 8.06693C25.09 8.05999 24.9413 8.05582 24.7898 8.05721L24.7551 8.39209L24.5397 6.59816C24.0394 6.61901 23.5392 6.68154 23.0473 6.78714L23.2238 8.25175C23.0779 8.28648 22.9334 8.32261 22.7902 8.36569L22.9431 9.19804L22.0232 7.07478C21.5841 7.22764 21.1561 7.41801 20.742 7.64312L21.3298 8.99933C21.3019 9.0152 21.274 9.03095 21.246 9.0467C21.1441 9.10404 21.0419 9.16152 20.9449 9.22583L21.6202 10.5515L19.7054 8.30872C19.3733 8.55606 19.0565 8.8298 18.7549 9.13134L18.7453 9.14127C18.7387 9.14822 18.7318 9.15538 18.7244 9.16191L19.6818 10.2833L19.6204 10.3477C19.5379 10.434 19.4557 10.5199 19.3788 10.6112L20.8045 12.0828L17.8378 10.2124C17.603 10.5404 17.3918 10.8808 17.207 11.231L18.4548 12.0175L18.4337 12.0595L18.4337 12.0596L18.4337 12.0596L18.4337 12.0597L18.4337 12.0597L18.4336 12.0597L18.4336 12.0598L18.4336 12.0598C18.3738 12.1791 18.3138 12.2988 18.2616 12.4218L20.1876 13.4737L16.665 12.5024C16.5483 12.8498 16.4538 13.2042 16.3829 13.5613L17.8031 13.9531C17.7767 14.099 17.7503 14.2463 17.7336 14.3964L20.2029 14.9133L16.2204 14.9814C16.2093 15.3121 16.2176 15.6442 16.244 15.9749L17.7169 15.9499C17.7322 16.1 17.7489 16.2487 17.7725 16.396L20.3502 16.1889C20.3085 15.9819 20.2751 15.7721 20.2612 15.5553C20.2543 15.4361 20.2557 15.3197 20.257 15.2019V15.2018V15.2018V15.2017V15.2017V15.2017V15.2016V15.2016L20.2571 15.201H20.2515C20.2543 15.1092 20.2584 15.0175 20.2654 14.9272H20.2696C20.296 14.5562 20.3654 14.1963 20.4766 13.8517H20.4738C20.4961 13.7822 20.5211 13.7141 20.5461 13.646C20.6837 13.275 20.8685 12.9249 21.0922 12.6053C21.1269 12.5553 21.1644 12.5066 21.2019 12.458L21.202 12.458C21.2603 12.3801 21.3215 12.3037 21.3854 12.2301C21.3965 12.2165 21.4086 12.2039 21.4208 12.1911C21.4299 12.1816 21.439 12.1721 21.4479 12.162C21.4979 12.1064 21.548 12.0508 21.5994 11.998C21.6314 11.965 21.6656 11.9333 21.6994 11.9021L21.7383 11.866L21.7608 11.8444L21.7609 11.8443L21.7609 11.8443L21.7609 11.8443C21.7836 11.8224 21.806 11.8007 21.83 11.7799C21.8898 11.727 21.9537 11.6756 22.0162 11.6256L22.0292 11.6151L22.0475 11.5999C22.0579 11.5912 22.0684 11.5825 22.0788 11.5742C22.1089 11.5509 22.1401 11.5293 22.1714 11.5076L22.1715 11.5075C22.1906 11.4942 22.2098 11.4809 22.2288 11.4672C22.2733 11.4352 22.3178 11.4047 22.3636 11.3741C23.0709 10.9128 23.9088 10.6404 24.812 10.6237C24.8315 10.6237 24.851 10.6234 24.8704 10.623C24.8899 10.6227 24.9093 10.6223 24.9288 10.6223C25.0663 10.6223 25.2025 10.6307 25.3373 10.6432L25.3901 10.6474C25.5318 10.6626 25.6722 10.6835 25.8098 10.7113C25.8136 10.7122 25.8176 10.713 25.8217 10.7138L25.8271 10.7147C25.833 10.7158 25.8389 10.7168 25.8445 10.7182C25.9862 10.7474 26.1252 10.7835 26.2614 10.8252L26.2666 10.8268L26.2723 10.8283C26.2768 10.8295 26.2811 10.8306 26.285 10.8322C26.4239 10.8752 26.5601 10.9253 26.6921 10.9809C26.6944 10.982 26.6967 10.9829 26.6989 10.9838L26.699 10.9838C26.7021 10.985 26.705 10.9862 26.7074 10.9878C26.8436 11.0448 26.9756 11.1087 27.1034 11.1782C27.1048 11.1782 27.1059 11.1789 27.1069 11.1796C27.108 11.1803 27.109 11.1809 27.1104 11.1809C28.1581 11.7507 28.9613 12.7122 29.3254 13.8698C29.3267 13.8732 29.3278 13.8767 29.3288 13.8802C29.3299 13.8837 29.3309 13.8871 29.3323 13.8906C29.374 14.024 29.4087 14.1602 29.4379 14.2991C29.4393 14.3068 29.441 14.3144 29.4428 14.3221C29.4445 14.3297 29.4462 14.3373 29.4476 14.345C29.474 14.477 29.4935 14.6118 29.5088 14.7494C29.5116 14.7702 29.5143 14.7924 29.5157 14.8133C29.5282 14.9397 29.5338 15.0676 29.5352 15.1968V15.3107C29.5352 15.4497 29.5255 15.5859 29.5129 15.7207L29.5103 15.7463L29.5077 15.7732L29.5077 15.7732L29.5077 15.7733L29.5076 15.7735C29.5058 15.7926 29.504 15.8115 29.5018 15.8304C29.4865 15.9597 29.4643 16.0861 29.4379 16.2112C29.4296 16.2542 29.4198 16.2973 29.4101 16.339C29.3823 16.4543 29.349 16.5669 29.3142 16.6795L29.2979 16.7295L29.2978 16.7296C29.287 16.7629 29.2762 16.7962 29.2642 16.8295C29.2281 16.931 29.1864 17.0296 29.1433 17.1283L29.1247 17.17C29.1062 17.2117 29.0877 17.2534 29.0669 17.295C29.0238 17.384 28.9766 17.4701 28.9279 17.5549L28.9125 17.5819C28.8843 17.6315 28.8557 17.6818 28.8251 17.73C28.7765 17.8078 28.7237 17.8842 28.6695 17.9592C28.6278 18.0176 28.5847 18.076 28.5403 18.1329C28.4861 18.2024 28.4277 18.2691 28.3693 18.3344C28.3193 18.3914 28.2693 18.447 28.2165 18.5012C28.1234 18.5957 28.0289 18.6902 27.9288 18.7763L30.8344 21.5971L30.9511 21.4846C30.9643 21.4714 30.9779 21.4582 30.9914 21.445C31.005 21.4318 31.0185 21.4186 31.0317 21.4054C31.0456 21.3915 31.0609 21.3762 31.0748 21.3609C31.5542 20.8746 31.9641 20.3465 32.306 19.7879L31.2485 18.761L32.5366 19.3863C32.8951 18.7221 33.1606 18.0232 33.3329 17.3048L32.224 16.767L33.4287 16.8559C33.558 16.1584 33.601 15.4483 33.558 14.741L33.5524 14.7424ZM23.8713 23.8884L24.1979 19.8531L24.1993 19.8517C24.2936 19.8663 24.3911 19.8734 24.4881 19.8805H24.4881L24.5314 19.8837C24.6773 19.8948 24.8246 19.9018 24.9732 19.899L24.9274 22.4502C24.7745 22.4516 24.6231 22.4461 24.4716 22.4377L24.3507 23.9315C24.1909 23.9218 24.0311 23.9079 23.8713 23.8884ZM22.5304 19.2598C22.3331 19.1431 22.1469 19.0083 21.9704 18.8637L21.9676 18.8679C21.8926 18.8054 21.8175 18.7415 21.7467 18.6762L19.2371 21.8541C19.4122 22.0042 19.5914 22.1473 19.7749 22.2807L20.7031 21.1065L20.7601 21.1475C20.8635 21.2218 20.9675 21.2967 21.0755 21.3636L22.5332 19.2598H22.5304ZM21.4952 18.426L19.4692 20.0032H19.4678C19.3678 19.8906 19.2733 19.7739 19.1802 19.6544L17.956 20.4895C17.7962 20.2783 17.6475 20.0615 17.5099 19.8392L20.8532 17.5575C20.9019 17.6423 20.9547 17.7243 21.0075 17.8035H21.0102C21.1561 18.0244 21.3159 18.2343 21.4952 18.426ZM18.3562 18.3024L20.7615 17.3783C20.6267 17.1157 20.5169 16.8392 20.4349 16.5502L20.4237 16.5111L20.4236 16.511L20.4236 16.5109L20.4236 16.5108C20.4007 16.4319 20.3776 16.3519 20.3585 16.2709L16.4983 17.4812C16.5733 17.7674 16.6637 18.0509 16.7679 18.3302L18.1769 17.8883C18.2325 18.0287 18.2922 18.1662 18.3562 18.3024ZM27.4064 19.1667L28.7348 21.3288C28.6348 21.3928 28.4472 21.5067 28.3443 21.5651L29.0475 22.8907C28.9432 22.9477 28.8376 23.0019 28.732 23.0547L26.8339 19.4793C26.9242 19.4376 27.0117 19.3932 27.0993 19.3459C27.2035 19.289 27.3063 19.2306 27.4064 19.1667ZM23.1599 19.5725C23.0681 19.5349 22.9792 19.496 22.8903 19.453L21.4312 23.2326C21.6105 23.3104 21.7911 23.3813 21.9746 23.4466L22.5137 22.0501C22.6568 22.1001 22.8 22.1487 22.9459 22.189L23.7143 19.7531C23.5239 19.7031 23.3405 19.6406 23.1599 19.5669V19.5725ZM26.2322 19.7058L26.8965 22.1612L26.8937 22.1626C26.7728 22.1973 26.5769 22.2488 26.4532 22.2779L26.7533 23.7481C26.6297 23.7745 26.506 23.7981 26.3809 23.8203L25.5722 19.8545C25.6709 19.8392 25.7681 19.8198 25.864 19.799C25.9891 19.7725 26.1113 19.742 26.2322 19.7058Z" fill="#F3F2FF"/>
</svg>
