<svg xmlns:xlink="http://www.w3.org/1999/xlink" xmlns="http://www.w3.org/2000/svg" width="59" height="57" viewBox="0 0 59 57" fill="none">
<path d="M5.16968 41.4338H14.9311M17.5616 41.4338H27.3266M5.16968 46.7925H32.1178M5.16968 36.0751H18.8773M5.1967 30.7164H13.7649M15.4768 29.5267C9.65804 21.4689 11.473 10.2231 19.5309 4.40439C19.5668 4.37923 19.6028 4.35767 19.6387 4.33251H4.49341C2.56341 4.33251 1 5.89951 1 7.82951V48.5823C1 50.5123 2.56341 52.0757 4.49341 52.0757H35.7544C37.6844 52.0757 39.2478 50.5123 39.2478 48.5823V34.4649C31.3265 39.1767 20.9757 37.1425 15.4768 29.5267ZM18.1788 27.5788C22.9194 34.1415 32.0806 35.6222 38.6469 30.8817C38.8517 30.7343 39.053 30.5798 39.2471 30.4253V7.82952C39.2471 7.73608 39.2399 7.64623 39.2327 7.55638C34.2154 3.53105 26.9483 3.16087 21.4817 7.11072C14.919 11.8513 13.4383 21.0125 18.1788 27.5788ZM57.15 50.0631L52.3304 43.389C51.4714 42.2029 50.0374 41.6854 48.686 41.9406L41.9472 32.6069L40.5958 33.5808C48.6537 27.7621 50.4686 16.5163 44.6499 8.45849C38.8347 0.404241 27.589 -1.41075 19.5311 4.408C11.4733 10.2268 9.65831 21.4725 15.4771 29.5304C21.2958 37.5882 32.5416 39.4032 40.5994 33.5844L39.248 34.5584L45.9869 43.8921C45.322 45.0926 45.3579 46.62 46.2169 47.8096L51.0365 54.4838C52.2189 56.1227 54.5047 56.4893 56.1436 55.3068L56.3305 55.1738C57.9694 53.9914 58.336 51.7056 57.1536 50.0667L57.15 50.0631ZM38.6442 30.8817C32.0815 35.6223 22.9167 34.1415 18.1762 27.5788C13.4356 21.0161 14.9164 11.8513 21.4791 7.11072C28.0418 2.37018 37.2066 3.85093 41.9472 10.4136C46.6877 16.9764 45.207 26.1412 38.6442 30.8817Z" stroke="url(#paint0_linear_20_1782)" stroke-miterlimit="10" stroke-linecap="round"/>
<defs>
<linearGradient id="paint0_linear_20_1782" x1="5.26351" y1="10.0543" x2="61.3331" y2="41.5799" gradientUnits="userSpaceOnUse">
<stop stop-color="#FF46FF"/>
<stop offset="1" stop-color="#00FAB8"/>
</linearGradient>
</defs>
</svg>