<svg xmlns:xlink="http://www.w3.org/1999/xlink" xmlns="http://www.w3.org/2000/svg" width="54" height="54" viewBox="0 0 54 54" fill="none">
<path d="M16.6096 24.443L31.6254 39.9611M39.0292 30.6229L48.1059 39.2843M31.6259 39.9611C31.3273 40.8325 31.0518 41.5864 30.8202 42.3538C30.7769 42.4986 30.8649 42.7334 30.9701 42.8635C33.5171 45.7532 32.8569 44.7313 30.1231 48.1523C29.6294 48.7162 29.3634 48.7564 28.7249 48.3571C28.1852 48.0196 27.6462 47.6809 27.1181 47.3256C26.8866 47.1699 26.6761 47.1604 26.435 47.2848C25.7658 47.6299 25.0942 47.9692 24.4219 48.308C24.175 48.4323 24.0283 48.6167 24.0066 48.8993C23.9556 49.5659 23.8995 50.2319 23.8433 50.8985C23.7942 51.477 23.5965 51.7105 23.023 51.7596C21.8175 51.8623 20.61 51.9459 19.4026 52.0192C18.9592 52.046 18.7124 51.8559 18.5989 51.4062C18.4356 50.7588 18.2838 50.1075 18.1683 49.4498C18.1001 49.0626 17.9093 48.8616 17.5406 48.7507C16.8811 48.5523 16.2254 48.3367 15.5824 48.0904C15.2341 47.9571 14.9847 48.0209 14.72 48.2652C14.2525 48.6971 13.7639 49.1066 13.2791 49.5187C12.8409 49.8912 12.5201 49.9059 12.0901 49.5404C8.85556 46.4976 8.21451 47.4857 10.3239 44.4155C10.5102 44.1406 10.5452 43.8975 10.3794 43.592C8.91935 40.8695 9.82574 41.3224 6.69705 41.0442C6.18548 40.99 5.96606 40.7451 5.92906 40.236C5.84614 39.0929 5.76513 37.9492 5.68795 36.8054C5.64585 36.1809 5.85124 35.8983 6.45721 35.7599C7.067 35.6202 7.67807 35.485 8.29233 35.3676C8.6221 35.3044 8.81601 35.1258 8.91871 34.8126C9.15025 34.1084 9.38562 33.4048 9.63311 32.7063C9.72943 32.4358 9.69115 32.217 9.50043 32.004C6.91455 29.1985 7.73803 30.0705 10.3258 26.7956C10.8521 26.1908 11.1231 26.1481 11.8006 26.5774C12.3293 26.9123 12.8562 27.2497 13.3767 27.598C13.5968 27.7454 13.8022 27.7518 14.0318 27.6331C14.6282 27.2351 16.2101 26.7617 16.4378 26.1513C16.529 25.6123 16.5532 25.0624 16.61 24.4436C7.03192 26.8415 -0.263273 19.507 1.18339 9.9417C4.04546 12.5807 6.56501 15.4665 9.46216 18.043C10.8801 19.1115 12.0276 17.3324 12.9985 16.4821C14.6607 14.7719 16.4518 13.1701 18.0184 11.3731C18.4891 10.7136 18.523 10.0648 18.0108 9.4384C15.5103 6.63613 12.7191 4.16045 10.1498 1.4124C18.5363 -0.965041 26.9216 7.35057 24.5571 15.7364C24.3925 16.3991 24.5686 16.8699 25.0508 17.3247C29.7276 21.739 34.3501 26.2132 39.0301 30.6223C39.6246 29.3395 40.2752 30.8551 41.1733 29.9283C42.375 28.9427 40.6477 28.1422 41.9751 27.7435C42.3094 27.6082 42.6449 27.4756 42.9804 27.3422C43.4148 27.17 43.5072 27.2032 43.7445 27.6184C44.2261 28.6429 44.4602 28.3903 45.4565 28.3788C45.9477 28.2021 45.9828 27.0628 46.6436 27.3256C48.1738 28.1173 48.5814 27.5885 48.0903 29.2106C48.1834 30.066 49.1172 30.6516 49.9566 30.2089C50.6226 29.8798 50.7706 31.4114 51.0582 31.8145C51.1801 32.0888 51.1016 32.2853 50.8382 32.4135C49.9241 32.6202 49.6415 33.7716 50.1735 34.4165C50.4714 34.7106 51.2687 34.8069 51.0353 35.367C50.7546 35.7829 50.5358 37.2615 49.9209 37.014C49.5197 36.9151 49.1364 36.7123 48.7313 36.9158C48.1107 37.3661 47.7694 37.8956 48.1509 38.6776C48.2172 38.8167 48.1298 39.0298 48.1069 39.2836C48.9673 40.1008 49.8973 40.9696 50.8107 41.855C57.0809 47.7575 48.5176 57.0063 42.2405 51.109C38.664 47.4308 35.0939 43.7406 31.6271 39.9605L31.6259 39.9611ZM20.2069 43.1474C27.7279 43.0491 27.7241 31.923 20.2764 31.7463C12.8275 31.8707 12.6674 42.9669 20.2069 43.1474ZM44.8455 31.0235C43.4077 30.9712 41.903 32.4263 42.4197 33.85C43.034 34.3317 44.4034 36.0846 45.0694 36.0489C48.1706 35.7861 47.9946 31.0274 44.8461 31.0235H44.8455ZM32.5125 7.63252C34.028 8.35717 33.7659 8.9249 35.4371 7.87046C36.1795 7.40926 35.3101 5.86682 36.3792 5.79857C37.0253 5.752 37.6708 5.70544 38.3176 5.66971C38.7954 5.64356 38.8962 5.72521 39.0001 6.18386C39.2534 7.71608 39.3395 7.55023 40.7568 7.97379C41.6007 8.17409 42.0708 6.4454 42.8783 7.17196C44.5763 8.80115 45.195 8.35079 43.8906 10.149C43.7567 10.3378 43.7433 10.4999 43.8562 10.704C44.1725 11.0937 44.2842 12.0519 44.8321 12.0921C45.3698 12.2228 46.4108 11.8956 46.4873 12.6636C46.525 15.0953 47.3223 15.1858 45.1102 15.5488C44.8882 15.5903 44.7562 15.6955 44.6905 15.9201C44.2044 17.4944 43.9627 17.1595 45.1287 18.4302C45.3749 18.723 45.3819 18.9022 45.137 19.1893C44.6892 19.7136 44.2274 20.2259 43.7771 20.7477C43.0735 21.5068 42.3355 19.7991 41.5796 20.1991C40.3186 20.8344 40.1419 20.7406 40.1304 22.2423C40.096 22.6633 39.9824 22.7915 39.5685 22.8285C38.8917 22.8884 38.2137 22.9325 37.5363 22.9822C36.4953 23.0071 37.1842 21.2943 36.3677 21.0354C34.8891 20.5333 35.0225 20.3834 33.8405 21.4851C33.5547 21.723 33.4004 21.7262 33.1121 21.4844C32.5763 21.0341 32.0468 20.5754 31.5193 20.1155C30.803 19.4004 32.5067 18.6675 32.0819 17.9103C31.319 16.4221 31.6303 16.5714 29.9343 16.454C29.6459 16.4304 29.4846 16.2696 29.4622 15.9877C29.4061 15.2681 29.357 14.548 29.3123 13.8278C29.3512 12.8505 31.0295 13.5235 31.2604 12.6783C31.7502 11.3215 31.8906 11.3068 30.8413 10.2262C30.5759 9.91364 30.5708 9.71142 30.8279 9.41097C31.3816 8.8139 31.8351 8.09691 32.5118 7.63316L32.5125 7.63252ZM34.5925 14.324C34.6799 18.797 41.269 18.7479 41.3602 14.324C41.276 9.85112 34.6755 9.85559 34.5925 14.324Z" stroke="url(#paint0_linear_21_1847)" stroke-linecap="round" stroke-linejoin="round"/>
<defs>
<linearGradient id="paint0_linear_21_1847" x1="4.9" y1="9.56044" x2="56.9888" y2="37.8964" gradientUnits="userSpaceOnUse">
<stop stop-color="#FF46FF"/>
<stop offset="1" stop-color="#00FAB8"/>
</linearGradient>
</defs>
</svg>