<svg width="573" height="572" viewBox="0 0 573 572" fill="none" xmlns="http://www.w3.org/2000/svg">
<g clip-path="url(#clip0_504_1613)">
<mask id="path-1-inside-1_504_1613" fill="white">
<path d="M571.555 268.278L528.239 264.884L570.055 252.782C567.509 230.705 562.417 209.059 554.838 188.052L507.29 201.851L506.058 198.666L548.246 171.288C539.841 151.757 529.274 133.296 516.776 116.312L475.553 143.05C473.344 140.074 470.972 137.109 468.682 134.354L502.535 98.4783C497.955 93.1772 493.363 87.8644 488.143 82.7725C479.017 73.8558 469.322 65.3693 459.068 57.5222L425.366 93.1772C421.739 90.6312 417.984 88.0853 414.183 85.5393L435.806 41.6071C419.821 31.8418 402.929 23.7738 385.375 17.624L363.787 61.5562C359.206 59.8589 354.614 58.3709 349.778 56.8828L357.776 8.91664C340.676 4.46413 323.156 1.48804 305.521 0.430138L297.499 48.3963C292.593 48.3963 287.652 47.9662 282.7 47.9662L281.549 58.9986L274.481 0C257.926 0.639394 241.476 2.75521 225.282 6.16143L231.06 54.1276C226.247 55.3948 221.493 56.6736 216.819 57.9407L221.853 85.5393L191.546 15.4966C176.991 20.5885 162.854 26.7499 149.311 34.1785L168.69 78.9594C164.424 81.2961 160.076 83.6328 155.96 86.388L178.269 130.111L115.109 56.2551C104.03 64.5323 93.5672 73.6582 83.7786 83.4235L82.8021 84.4814L114.365 121.415C110.97 125.019 107.552 128.414 104.39 132.238L151.334 180.635L53.5062 119.067C45.8219 129.681 38.8583 140.934 32.7085 152.606L73.9436 178.496C71.7348 183.169 69.3632 187.203 67.5729 191.865L131.059 226.462L14.945 194.411C11.1435 205.873 8.086 217.545 5.77256 229.217L52.5878 242.168C51.6694 247.05 50.844 251.933 50.2511 256.816L131.419 274.009L0.157517 276.346C-0.202869 287.169 0.0528889 298.213 0.948041 309.037L49.4839 308.188C49.9954 313.071 50.5418 318.163 51.3323 323.045L136.337 316.035C134.849 309.246 133.872 302.236 133.407 295.237C133.128 291.203 133.175 287.39 133.407 283.565C133.407 280.38 133.407 277.416 133.849 274.44C134.698 262.338 136.988 250.457 140.685 238.994C141.429 236.657 142.231 234.321 143.056 232.205C147.579 219.893 153.624 208.431 161.052 197.817C162.203 196.12 163.447 194.632 164.645 192.934C166.621 190.388 168.574 187.842 170.69 185.506L172.747 183.169C174.34 181.472 175.991 179.565 177.735 177.868C179.479 176.171 180.746 174.892 182.315 173.415L185.326 170.66C187.349 168.963 189.407 167.266 191.464 165.568C192.162 164.929 192.848 164.51 193.522 163.871C195.138 162.592 196.835 161.534 198.486 160.476C200.125 159.198 201.416 158.349 203.055 157.291C227.061 141.585 255.032 133.099 283.723 132.668H287.559C292.082 132.668 296.581 132.878 301.08 133.308H302.754C307.334 133.738 311.926 134.366 316.506 135.435L317.657 135.645C322.238 136.493 326.807 137.772 331.387 139.039H332.212C336.793 140.527 341.385 142.225 345.628 144.131L346.174 144.34C350.755 146.247 354.986 148.165 359.23 150.502C394.141 169.602 420.228 201.653 432.028 239.645C432.109 239.854 432.202 240.075 432.237 240.284C433.62 244.958 434.76 249.201 435.713 253.653C435.713 254.293 435.945 254.711 436.05 255.351C436.922 259.803 437.561 264.058 438.049 268.511L438.328 270.638C438.712 274.881 438.875 279.125 438.921 283.368V286.972C438.921 291.645 438.608 296.307 438.201 300.55C438.201 301.829 437.968 302.887 437.794 304.154C437.282 308.397 436.538 312.64 435.666 316.674C435.387 318.163 435.12 319.651 434.748 320.918C433.876 324.742 432.772 328.556 431.586 332.171C431.039 333.868 430.551 335.566 429.935 337.054C428.749 340.448 427.389 343.843 425.971 347.028C425.145 348.726 424.355 350.632 423.448 352.55C422.03 355.306 420.472 358.282 418.868 361.037C417.763 362.943 416.682 364.862 415.496 366.768C413.846 369.314 412.102 371.86 410.358 374.197C408.614 376.743 407.556 378.231 406.045 380.137C404.534 381.835 402.371 384.59 400.418 386.717C398.442 388.845 397.105 390.321 395.373 392.228C392.362 395.413 389.235 398.389 385.887 401.354L481.668 494.321C482.947 493.043 484.237 491.985 485.516 490.718L488.236 488.172C488.678 487.532 489.143 487.114 489.631 486.684C505.105 470.978 518.683 453.575 530.169 434.683L495.316 400.935L537.783 421.524C549.455 399.877 558.29 376.743 564.022 352.76L527.39 335.147L567.103 338.123C571.416 314.989 572.892 291.645 571.543 268.29L571.555 268.278Z"/>
</mask>
<path d="M571.555 268.278L528.239 264.884L570.055 252.782C567.509 230.705 562.417 209.059 554.838 188.052L507.29 201.851L506.058 198.666L548.246 171.288C539.841 151.757 529.274 133.296 516.776 116.312L475.553 143.05C473.344 140.074 470.972 137.109 468.682 134.354L502.535 98.4783C497.955 93.1772 493.363 87.8644 488.143 82.7725C479.017 73.8558 469.322 65.3693 459.068 57.5222L425.366 93.1772C421.739 90.6312 417.984 88.0853 414.183 85.5393L435.806 41.6071C419.821 31.8418 402.929 23.7738 385.375 17.624L363.787 61.5562C359.206 59.8589 354.614 58.3709 349.778 56.8828L357.776 8.91664C340.676 4.46413 323.156 1.48804 305.521 0.430138L297.499 48.3963C292.593 48.3963 287.652 47.9662 282.7 47.9662L281.549 58.9986L274.481 0C257.926 0.639394 241.476 2.75521 225.282 6.16143L231.06 54.1276C226.247 55.3948 221.493 56.6736 216.819 57.9407L221.853 85.5393L191.546 15.4966C176.991 20.5885 162.854 26.7499 149.311 34.1785L168.69 78.9594C164.424 81.2961 160.076 83.6328 155.96 86.388L178.269 130.111L115.109 56.2551C104.03 64.5323 93.5672 73.6582 83.7786 83.4235L82.8021 84.4814L114.365 121.415C110.97 125.019 107.552 128.414 104.39 132.238L151.334 180.635L53.5062 119.067C45.8219 129.681 38.8583 140.934 32.7085 152.606L73.9436 178.496C71.7348 183.169 69.3632 187.203 67.5729 191.865L131.059 226.462L14.945 194.411C11.1435 205.873 8.086 217.545 5.77256 229.217L52.5878 242.168C51.6694 247.05 50.844 251.933 50.2511 256.816L131.419 274.009L0.157517 276.346C-0.202869 287.169 0.0528889 298.213 0.948041 309.037L49.4839 308.188C49.9954 313.071 50.5418 318.163 51.3323 323.045L136.337 316.035C134.849 309.246 133.872 302.236 133.407 295.237C133.128 291.203 133.175 287.39 133.407 283.565C133.407 280.38 133.407 277.416 133.849 274.44C134.698 262.338 136.988 250.457 140.685 238.994C141.429 236.657 142.231 234.321 143.056 232.205C147.579 219.893 153.624 208.431 161.052 197.817C162.203 196.12 163.447 194.632 164.645 192.934C166.621 190.388 168.574 187.842 170.69 185.506L172.747 183.169C174.34 181.472 175.991 179.565 177.735 177.868C179.479 176.171 180.746 174.892 182.315 173.415L185.326 170.66C187.349 168.963 189.407 167.266 191.464 165.568C192.162 164.929 192.848 164.51 193.522 163.871C195.138 162.592 196.835 161.534 198.486 160.476C200.125 159.198 201.416 158.349 203.055 157.291C227.061 141.585 255.032 133.099 283.723 132.668H287.559C292.082 132.668 296.581 132.878 301.08 133.308H302.754C307.334 133.738 311.926 134.366 316.506 135.435L317.657 135.645C322.238 136.493 326.807 137.772 331.387 139.039H332.212C336.793 140.527 341.385 142.225 345.628 144.131L346.174 144.34C350.755 146.247 354.986 148.165 359.23 150.502C394.141 169.602 420.228 201.653 432.028 239.645C432.109 239.854 432.202 240.075 432.237 240.284C433.62 244.958 434.76 249.201 435.713 253.653C435.713 254.293 435.945 254.711 436.05 255.351C436.922 259.803 437.561 264.058 438.049 268.511L438.328 270.638C438.712 274.881 438.875 279.125 438.921 283.368V286.972C438.921 291.645 438.608 296.307 438.201 300.55C438.201 301.829 437.968 302.887 437.794 304.154C437.282 308.397 436.538 312.64 435.666 316.674C435.387 318.163 435.12 319.651 434.748 320.918C433.876 324.742 432.772 328.556 431.586 332.171C431.039 333.868 430.551 335.566 429.935 337.054C428.749 340.448 427.389 343.843 425.971 347.028C425.145 348.726 424.355 350.632 423.448 352.55C422.03 355.306 420.472 358.282 418.868 361.037C417.763 362.943 416.682 364.862 415.496 366.768C413.846 369.314 412.102 371.86 410.358 374.197C408.614 376.743 407.556 378.231 406.045 380.137C404.534 381.835 402.371 384.59 400.418 386.717C398.442 388.845 397.105 390.321 395.373 392.228C392.362 395.413 389.235 398.389 385.887 401.354L481.668 494.321C482.947 493.043 484.237 491.985 485.516 490.718L488.236 488.172C488.678 487.532 489.143 487.114 489.631 486.684C505.105 470.978 518.683 453.575 530.169 434.683L495.316 400.935L537.783 421.524C549.455 399.877 558.29 376.743 564.022 352.76L527.39 335.147L567.103 338.123C571.416 314.989 572.892 291.645 571.543 268.29L571.555 268.278Z" stroke="url(#paint0_linear_504_1613)" stroke-width="3" mask="url(#path-1-inside-1_504_1613)"/>
<path d="M274.136 438.593C278.755 439.004 283.39 439.025 287.993 439.026L286.509 521.577C281.702 521.576 276.99 521.557 272.324 521.161L271.574 521.098L271.513 521.848L267.586 570.345C265.545 570.18 263.51 570.016 261.479 569.853C258.731 569.632 255.99 569.412 253.247 569.188L263.891 437.619C265.44 437.786 266.997 437.921 268.553 438.055L268.604 438.06C270.439 438.218 272.274 438.377 274.116 438.591L274.126 438.592L274.136 438.593Z" stroke="url(#paint1_linear_504_1613)" stroke-width="1.5"/>
<path d="M189.419 404.681C195.027 409.42 200.967 413.557 207.154 417.291L160.033 485.644C156.241 483.153 152.658 480.508 149.032 477.833C148.819 477.675 148.606 477.518 148.393 477.361L147.808 476.929L147.358 477.5L117.234 515.754C116.458 515.149 115.682 514.548 114.908 513.948C110.09 510.211 105.329 506.52 100.866 502.306L182.686 398.827C184.386 400.339 186.107 401.847 187.874 403.359H187.854L189.419 404.681Z" stroke="url(#paint2_linear_504_1613)" stroke-width="1.5"/>
<path d="M173 389.588L107.432 440.648C105.043 437.959 102.704 435.065 100.383 432.194C99.7168 431.37 99.0525 430.548 98.3889 429.734L97.9534 429.199L97.3842 429.588L57.59 456.782C52.6377 450.169 48.0157 443.383 43.7339 436.581L152.854 362.099C154.34 364.642 155.935 367.162 157.54 369.506C162.147 376.738 167.312 383.365 173 389.588Z" stroke="url(#paint3_linear_504_1613)" stroke-width="1.5"/>
<path d="M65.481 371.582L65.2293 370.92L64.5544 371.133L18.7917 385.566C15.517 376.708 12.7138 367.839 10.3522 358.98L136.143 319.536C136.824 322.291 137.653 325.194 138.449 327.912C141.049 337.233 144.543 346.168 148.887 354.685L71.0215 384.697C69.0363 380.443 67.1694 376.018 65.481 371.582Z" stroke="url(#paint4_linear_504_1613)" stroke-width="1.5"/>
<path d="M411.737 485.184C408.353 487.328 402.71 490.61 399.612 492.406L398.989 492.766L399.324 493.403L422.07 536.684C419.072 538.323 416.068 539.813 412.995 541.299L351.127 424.816C353.86 423.451 356.561 422.076 359.193 420.7L359.201 420.696L359.209 420.692L359.223 420.684C362.429 418.908 365.66 417.117 368.735 415.143L411.737 485.184Z" stroke="url(#paint5_linear_504_1613)" stroke-width="1.5"/>
<path d="M228.695 428.155L228.747 428.032C234.47 430.461 240.301 432.302 246.209 433.933L221.339 512.733C216.773 511.501 212.192 510.082 207.858 508.475L207.162 508.218L206.897 508.91L189.522 554.288C183.938 552.309 178.456 550.146 173 547.634L220.541 424.475C223.218 425.818 225.962 426.996 228.695 428.155Z" stroke="url(#paint6_linear_504_1613)" stroke-width="1.5"/>
<path d="M318.291 435.628L318.291 435.628L318.297 435.627C322.148 434.833 325.999 434.031 329.74 432.868L351.249 512.284C347.258 513.525 341.278 515.09 337.418 516.09L336.729 516.269L336.871 516.966L346.568 564.41C346.227 564.48 345.887 564.551 345.546 564.622C342.293 565.299 339.042 565.975 335.75 566.652L309.394 437.392C311.471 436.99 313.507 436.583 315.547 436.175C316.459 435.993 317.373 435.81 318.291 435.628Z" stroke="url(#paint7_linear_504_1613)" stroke-width="1.5"/>
</g>
<defs>
<linearGradient id="paint0_linear_504_1613" x1="42.902" y1="81.3771" x2="574.724" y2="416.162" gradientUnits="userSpaceOnUse">
<stop stop-color="#FF46FF"/>
<stop offset="1" stop-color="#00FAB8"/>
</linearGradient>
<linearGradient id="paint1_linear_504_1613" x1="255.163" y1="458.908" x2="301.311" y2="465.693" gradientUnits="userSpaceOnUse">
<stop stop-color="#FF46FF"/>
<stop offset="1" stop-color="#00FAB8"/>
</linearGradient>
<linearGradient id="paint2_linear_504_1613" x1="107.981" y1="417.339" x2="220.965" y2="473.28" gradientUnits="userSpaceOnUse">
<stop stop-color="#FF46FF"/>
<stop offset="1" stop-color="#00FAB8"/>
</linearGradient>
<linearGradient id="paint3_linear_504_1613" x1="52.5699" y1="376.957" x2="162.939" y2="458.475" gradientUnits="userSpaceOnUse">
<stop stop-color="#FF46FF"/>
<stop offset="1" stop-color="#00FAB8"/>
</linearGradient>
<linearGradient id="paint4_linear_504_1613" x1="19.9803" y1="329.762" x2="100.452" y2="420.319" gradientUnits="userSpaceOnUse">
<stop stop-color="#FF46FF"/>
<stop offset="1" stop-color="#00FAB8"/>
</linearGradient>
<linearGradient id="paint5_linear_504_1613" x1="355.576" y1="435.199" x2="442.016" y2="461.966" gradientUnits="userSpaceOnUse">
<stop stop-color="#FF46FF"/>
<stop offset="1" stop-color="#00FAB8"/>
</linearGradient>
<linearGradient id="paint6_linear_504_1613" x1="177.68" y1="445.129" x2="266.637" y2="472.705" gradientUnits="userSpaceOnUse">
<stop stop-color="#FF46FF"/>
<stop offset="1" stop-color="#00FAB8"/>
</linearGradient>
<linearGradient id="paint7_linear_504_1613" x1="311.782" y1="454.243" x2="366.764" y2="463.87" gradientUnits="userSpaceOnUse">
<stop stop-color="#FF46FF"/>
<stop offset="1" stop-color="#00FAB8"/>
</linearGradient>
<clipPath id="clip0_504_1613">
<rect width="572.026" height="571.154" fill="white"/>
</clipPath>
</defs>
</svg>
