<svg xmlns:xlink="http://www.w3.org/1999/xlink" xmlns="http://www.w3.org/2000/svg" width="54" height="54" viewBox="0 0 54 54" fill="none">
<path d="M12.073 52.1902L11.5246 47.5879C11.4745 47.169 11.2833 46.7794 10.9823 46.4844L1.88212 37.5479C1.29524 36.972 0.964844 36.1842 0.964844 35.3616C0.964844 35.3616 0.964844 22.24 0.964844 18.9391C0.964844 17.6102 2.54718 16.9 3.69165 16.9C5.23673 16.9 6.51921 17.9589 6.51921 18.9391V26.2328C6.51921 26.8728 6.79403 27.4817 7.27344 27.9055M7.27344 27.9055L14.0437 33.8837C14.0956 33.9295 14.1512 33.9723 14.2092 34.0107C15.1033 34.6056 15.9974 35.1998 16.8914 35.7946C17.9351 36.4884 19.0576 37.1186 19.9041 38.053C21.0015 39.2646 21.9792 40.7688 22.3982 42.3627C22.6522 43.3289 22.6522 44.342 22.7212 45.3326C22.8983 47.8872 22.9832 50.4448 23.1316 53M7.27344 27.9055C7.27344 27.9055 5.76177 27.0945 4.54341 28.3128C3.85209 29.0041 3.9095 29.8139 4.02858 30.2854C4.08477 30.5083 4.19714 30.7129 4.35287 30.8827L12.3324 39.5614M41.6317 52.1902L42.1801 47.5879C42.2302 47.169 42.4213 46.7793 42.7224 46.4844L51.8232 37.5479C52.41 36.972 52.7404 36.1842 52.7404 35.3616C52.7404 35.3616 52.7404 22.24 52.7404 18.9391C52.7404 17.6102 51.1581 16.8999 50.0136 16.8999C48.4685 16.8999 47.1861 17.9589 47.1861 18.9391C47.1861 20.6069 47.1861 23.8015 47.1861 26.2328C47.1861 26.8728 46.9113 27.4816 46.4318 27.9055L39.6616 33.8837C39.6097 33.9295 39.5541 33.9722 39.4961 34.0107C38.602 34.6055 37.7079 35.1997 36.8138 35.7946C35.7701 36.4883 34.6477 37.1186 33.8012 38.053C32.7038 39.2646 31.726 40.7688 31.3071 42.3627C31.053 43.3288 31.053 44.342 30.984 45.3326C30.8069 47.8872 30.722 50.4448 30.5736 53M46.4334 27.9055C46.4334 27.9055 47.9443 27.0945 49.1627 28.3128C49.854 29.0042 49.7966 29.8139 49.6775 30.2854C49.6213 30.5083 49.509 30.7129 49.3532 30.8827L41.3737 39.5614M37.861 22.1007C37.7339 21.9291 37.6033 21.7557 37.4762 21.5883C37.2087 21.2347 36.9327 20.8683 36.6756 20.4976C36.5895 20.3737 36.5669 20.1367 36.6267 19.981C36.7678 19.6139 36.9211 19.2451 37.0695 18.8878C37.2087 18.5537 37.3523 18.2081 37.4854 17.8649C37.5599 17.6725 37.6552 17.5473 37.8994 17.5162C38.3697 17.4569 38.8473 17.3861 39.309 17.3171C39.4714 17.2926 39.6345 17.2688 39.7969 17.245C40.4388 17.1516 40.636 16.9299 40.6403 16.2978C40.6464 15.3616 40.6476 14.3722 40.6452 13.0898C40.6446 12.6623 40.5059 12.4143 40.1963 12.2861C40.1035 12.2476 39.9911 12.2189 39.8629 12.2C39.7487 12.1835 39.6345 12.1664 39.5209 12.1499C39.0115 12.0748 38.4851 11.9972 37.966 11.9361C37.8891 11.927 37.8249 11.9117 37.77 11.8891C37.6313 11.8317 37.5422 11.7261 37.472 11.5349C37.2362 10.8985 36.9608 10.2323 36.6298 9.49759C36.5217 9.25758 36.5388 9.08781 36.6903 8.89299C37.0884 8.38061 37.4976 7.83586 37.9074 7.2734C38.1737 6.90698 38.1511 6.54788 37.842 6.23459C37.0762 5.45838 36.2683 4.65225 35.4414 3.83818C35.3265 3.7252 35.2166 3.64764 35.1049 3.60122C34.8612 3.50046 34.6108 3.5542 34.3177 3.77039C33.7479 4.19117 33.2349 4.57103 32.7292 4.9686C32.5307 5.12433 32.3774 5.10845 32.1942 5.03272C32.1832 5.02783 32.1716 5.02295 32.16 5.01806C31.8431 4.87699 31.5273 4.74141 31.2214 4.61439C30.8379 4.4556 30.4556 4.30537 30.0849 4.16735C30.0702 4.16185 30.0562 4.15636 30.0427 4.15086C29.8345 4.06475 29.7423 3.94627 29.7154 3.73008C29.6366 3.10228 29.5456 2.48241 29.4436 1.79537C29.3844 1.39536 29.2537 1.181 29.007 1.0784C28.8842 1.02771 28.7285 1.00267 28.5294 1.00206C27.5596 0.998397 26.5104 0.999618 25.3214 1.00573C24.7393 1.00878 24.492 1.22436 24.4077 1.80209L24.365 2.09522C24.288 2.62043 24.208 3.16335 24.1409 3.69894C24.1091 3.94933 24.0065 4.07635 23.761 4.16796C23.1307 4.40247 22.4529 4.68279 21.6889 5.02417C21.5606 5.08158 21.4202 5.12616 21.2663 5.06203C21.2186 5.04249 21.171 5.01318 21.1203 4.97348C20.5652 4.53622 20.0064 4.12155 19.5337 3.77405C19.4415 3.70627 19.3517 3.65436 19.2662 3.61894C18.9584 3.4913 18.6763 3.57008 18.3801 3.86566C17.6924 4.55209 16.8936 5.34968 16.1131 6.13626C15.6649 6.58758 15.6459 6.88377 16.0319 7.40409C16.1595 7.5757 16.2908 7.74853 16.4179 7.91647C16.6713 8.24992 16.9333 8.59558 17.1764 8.94612C17.2625 9.0701 17.2845 9.30705 17.2246 9.46278C17.0884 9.81638 16.94 10.1712 16.7965 10.5144C16.6512 10.8619 16.5009 11.2216 16.3635 11.5783C16.2872 11.7767 16.1962 11.8977 15.955 11.9282C15.4927 11.9874 15.0236 12.0577 14.5699 12.1248C14.3867 12.1523 14.2041 12.1792 14.0209 12.2061C13.415 12.2946 13.2098 12.531 13.2074 13.1429C13.2037 14.0657 13.2037 15.044 13.2074 16.3143C13.2086 16.7784 13.3369 17.0209 13.6508 17.1503C13.7528 17.1925 13.8755 17.2236 14.0257 17.2456C14.6169 17.3317 15.2478 17.4227 15.8872 17.5021C15.9623 17.5113 16.0252 17.5271 16.0795 17.5491C16.2212 17.6078 16.3147 17.7183 16.3825 17.9082C16.5724 18.4408 16.8325 19.1388 17.158 19.81C17.3266 20.1581 17.3034 20.3914 17.0725 20.6698C16.8002 20.9972 16.5449 21.3496 16.2976 21.6903C16.2029 21.821 16.1082 21.9517 16.0124 22.0812C15.9672 22.1423 15.9256 22.2082 15.8921 22.2613C15.8798 22.2809 15.8682 22.2992 15.8579 22.3151C15.7156 22.6736 15.7675 22.9594 16.0209 23.2128C16.2426 23.4345 16.4637 23.6568 16.6854 23.8785C17.2442 24.4391 17.8225 25.0187 18.3947 25.5848C18.5205 25.7094 18.6384 25.7937 18.7538 25.8413C18.9957 25.9415 19.2399 25.8859 19.5459 25.6599C19.7328 25.5219 19.9215 25.3796 20.1041 25.2416C20.443 24.9857 20.7936 24.7207 21.149 24.4745C21.2742 24.3878 21.5112 24.3652 21.6675 24.4251C21.9509 24.5332 22.2269 24.6468 22.4596 24.7426C22.5542 24.7817 22.6483 24.8208 22.743 24.8605C22.837 24.8996 22.9317 24.9393 23.0257 24.9784C23.2376 25.0663 23.4892 25.1695 23.75 25.2703C23.761 25.2746 23.772 25.2788 23.7824 25.2831C23.9729 25.3619 24.1067 25.4694 24.1378 25.7356C24.2166 26.4038 24.3198 27.0652 24.4199 27.7046C24.4755 28.0582 24.6142 28.2695 24.8566 28.3696C24.9623 28.4136 25.0917 28.4362 25.2407 28.4374C26.3205 28.4453 27.4619 28.4447 28.6326 28.4356C29.1004 28.4319 29.363 28.2017 29.4357 27.732C29.534 27.0963 29.6305 26.4215 29.7215 25.7259C29.7526 25.4877 29.8528 25.3619 30.0794 25.2776C30.7591 25.0248 31.4571 24.7384 32.1533 24.4269C32.3316 24.3469 32.4654 24.3371 32.601 24.3927C32.6523 24.4141 32.7042 24.4452 32.7591 24.488C33.3027 24.9094 33.8376 25.3112 34.3506 25.6813C34.4392 25.7454 34.5253 25.7949 34.6065 25.8285C34.9033 25.9512 35.1617 25.8816 35.4438 25.6025C36.3073 24.7469 37.0738 23.9786 37.7883 23.2537C38.1645 22.8714 38.1865 22.538 37.8634 22.1019L37.861 22.1007ZM24.8511 19.7159L24.8487 19.7147C22.0901 18.5708 20.7972 15.3976 21.9576 12.6189C23.1082 9.8634 26.2258 8.59008 29.0002 9.73821C29.0063 9.74065 29.0118 9.74309 29.0173 9.74554C31.7759 10.8979 33.0572 14.0327 31.9029 16.8047C30.7548 19.562 27.6121 20.8585 24.8511 19.7159Z" stroke="url(#paint0_linear_20_1784)" stroke-miterlimit="10"/>
<defs>
<linearGradient id="paint0_linear_20_1784" x1="4.84801" y1="9.56045" x2="56.8142" y2="37.7077" gradientUnits="userSpaceOnUse">
<stop stop-color="#FF46FF"/>
<stop offset="1" stop-color="#00FAB8"/>
</linearGradient>
</defs>
</svg>