<svg xmlns:xlink="http://www.w3.org/1999/xlink" xmlns="http://www.w3.org/2000/svg" width="56" height="51" viewBox="0 0 56 51" fill="none">
<path d="M40.6316 11.1627C42.4211 11.7863 46 14.3431 46 19.5814M15.3684 11.1627C13.5789 11.7863 10 14.3431 10 19.5814M28.3158 25.5056V28M1 40.2011C1 37.9074 1.7925 36.2294 3.48342 35.0095C4.78595 34.0704 5.98254 33.5008 7.67347 34.6708C9.61156 36.0101 12.0283 36.0293 13.9546 34.7016C15.7319 33.4739 16.9755 34.0897 18.3094 35.0864C19.969 36.3257 20.7772 37.9882 20.6163 40.205H1V40.2011ZM18.5951 49.9962C18.5951 47.7024 19.3628 46.0245 21.0009 44.8045C22.2627 43.8654 23.4219 43.2958 25.06 44.4658C26.9375 45.8051 29.2787 45.8243 31.1449 44.4966C32.8666 43.2689 34.0714 43.8847 35.3636 44.8814C36.9713 46.1207 37.7542 47.7832 37.5984 50H18.5951V49.9962ZM35.3636 39.9804C35.3636 37.6866 36.1561 36.0087 37.847 34.7887C39.1495 33.8496 40.3461 33.28 42.0371 34.45C43.9752 35.7893 46.3919 35.8085 48.3182 34.4808C50.0954 33.2531 51.3391 33.8689 52.673 34.8656C54.3326 36.1049 55.1408 37.7674 54.9799 39.9842H35.3636V39.9804ZM10.9252 33.1428C7.92603 33.1939 5.39614 30.7839 5.29838 27.7763C5.19672 24.6743 7.66014 22.052 10.7218 22.0009C13.8031 21.9458 16.329 24.4541 16.3408 27.5758C16.3525 30.6109 13.9399 33.0916 10.9291 33.1428H10.9252ZM28.107 42.4291C25.1079 42.4802 22.578 40.0702 22.4802 37.0626C22.3786 33.9606 24.842 31.3383 27.9037 31.2872C30.9849 31.2321 33.5109 33.7404 33.5226 36.8621C33.5344 39.8972 31.1218 42.3779 28.1109 42.4291H28.107ZM45.2889 33.1428C42.2897 33.1939 39.7598 30.7839 39.6621 27.7763C39.5604 24.6743 42.0239 22.052 45.0855 22.0009C48.1668 21.9458 50.6928 24.4541 50.7045 27.5758C50.7162 30.6109 48.3036 33.0916 45.2928 33.1428H45.2889ZM30.3608 21.4518C30.3802 21.2889 30.3986 21.1231 30.4157 20.9627C30.4525 20.6241 30.4913 20.2739 30.5431 19.9312C30.5603 19.8165 30.6737 19.672 30.7906 19.6164C31.066 19.4852 31.3493 19.3594 31.6237 19.2376C31.8806 19.1239 32.146 19.006 32.4042 18.8839C32.5489 18.8155 32.6696 18.7955 32.8246 18.9066C33.1226 19.1208 33.4309 19.3324 33.7293 19.5366C33.8344 19.6084 33.9394 19.6809 34.0442 19.753C34.4576 20.0383 34.6875 20.018 35.0266 19.6666C35.5287 19.1459 36.0564 18.593 36.7381 17.874C36.9655 17.6345 37.019 17.4228 36.9119 17.1882C36.8798 17.1178 36.8314 17.0427 36.7688 16.9646C36.7129 16.8953 36.6573 16.8257 36.6017 16.7567C36.3531 16.4467 36.0962 16.1264 35.8346 15.8192C35.7958 15.7736 35.7676 15.7313 35.7485 15.6898C35.7006 15.5847 35.7063 15.4787 35.7683 15.3348C35.9737 14.8547 36.1726 14.337 36.3763 13.7518C36.4429 13.5606 36.5431 13.4746 36.7326 13.4453C37.2312 13.368 37.7532 13.2784 38.285 13.1792C38.631 13.1142 38.8095 12.9014 38.8013 12.5636C38.7808 11.7264 38.7524 10.8503 38.7175 9.95979C38.7126 9.83617 38.6916 9.73495 38.653 9.65019C38.5686 9.46563 38.3981 9.36399 38.1169 9.33077C37.5699 9.2665 37.0769 9.20922 36.5786 9.1657C36.3832 9.14844 36.3048 9.05892 36.2413 8.92017C36.2377 8.91165 36.2337 8.90282 36.2297 8.89398C36.1253 8.64831 36.0186 8.40637 35.9129 8.17434C35.7802 7.88375 35.6436 7.59859 35.5071 7.32636C35.5017 7.31558 35.4966 7.30511 35.492 7.29497C35.4198 7.13724 35.4307 7.02244 35.5306 6.88733C35.8204 6.49459 36.099 6.09986 36.4072 5.66176C36.5867 5.40676 36.6268 5.21807 36.5417 5.03088C36.4991 4.93794 36.4242 4.84201 36.3117 4.73695C35.7642 4.22476 35.169 3.67355 34.492 3.05151C34.1606 2.74707 33.9057 2.7376 33.5502 3.01655L33.3698 3.1581C33.0465 3.41151 32.7119 3.67323 32.3886 3.93759C32.2372 4.061 32.1114 4.07811 31.9235 4.00023C31.4415 3.79994 30.9081 3.60021 30.2934 3.38937C30.1901 3.35403 30.0868 3.30509 30.0337 3.18826C30.0172 3.15226 30.0058 3.1108 29.9982 3.06193C29.9166 2.52524 29.8208 1.99926 29.7381 1.55617C29.7219 1.46973 29.6987 1.39346 29.6691 1.32867C29.5627 1.09534 29.3609 0.991009 29.0356 1.00061C28.2804 1.02299 27.4029 1.04911 26.5417 1.07872C26.0473 1.09547 25.8788 1.25125 25.8203 1.74543C25.8013 1.9086 25.7836 2.07438 25.7661 2.23517C25.7321 2.55508 25.6964 2.88631 25.6474 3.21032C25.6302 3.32499 25.5164 3.46915 25.3996 3.52481C25.1341 3.65103 24.861 3.77152 24.5968 3.88808C24.3294 4.00607 24.0527 4.12833 23.7848 4.25562C23.6359 4.32653 23.5199 4.34633 23.3669 4.23652C23.0734 4.02649 22.7703 3.81908 22.4774 3.61798C22.3589 3.53699 22.2412 3.45597 22.123 3.37464C21.7326 3.10551 21.4904 3.12983 21.1631 3.47096C20.6695 3.98539 20.1484 4.53285 19.4739 5.24558C19.2273 5.50595 19.1708 5.70908 19.2797 5.94664C19.3151 6.02387 19.368 6.10587 19.4415 6.1972C19.7306 6.55634 20.0395 6.9391 20.3596 7.31987C20.3972 7.36451 20.4244 7.40648 20.4435 7.44738C20.4926 7.55471 20.4866 7.66571 20.4239 7.80765C20.2478 8.20555 20.0234 8.733 19.8504 9.27979C19.7604 9.56324 19.623 9.68157 19.3439 9.71598C19.0152 9.75587 18.6829 9.81877 18.3612 9.87936C18.238 9.9027 18.1147 9.92603 17.9914 9.94805C17.9333 9.95845 17.8746 9.97351 17.8273 9.98557C17.81 9.99008 17.7936 9.99423 17.7793 9.99766C17.5077 10.1234 17.3849 10.3106 17.3935 10.5858C17.401 10.8264 17.4079 11.0671 17.4154 11.3078C17.4334 11.9154 17.4524 12.544 17.4751 13.1617C17.48 13.2976 17.5019 13.4068 17.5419 13.4942C17.6256 13.6774 17.7936 13.7748 18.0873 13.8093C18.2668 13.8304 18.4495 13.85 18.6265 13.8688C18.9548 13.904 19.2946 13.94 19.6271 13.9893C19.7442 14.0066 19.8905 14.1186 19.9472 14.2343C20.0502 14.4439 20.1461 14.6526 20.2269 14.8287C20.2597 14.9003 20.2922 14.9717 20.3247 15.0437C20.3571 15.115 20.3896 15.187 20.4221 15.2584C20.4953 15.4191 20.5829 15.6092 20.677 15.8027C20.681 15.8109 20.6849 15.8191 20.6885 15.8269C20.7545 15.9712 20.773 16.1017 20.6489 16.2671C20.3376 16.6824 20.0438 17.1068 19.76 17.5173C19.6031 17.7444 19.5691 17.9355 19.6531 18.1191C19.6896 18.1993 19.7509 18.28 19.8347 18.3591C20.4422 18.9315 21.0893 19.5316 21.7575 20.1423C22.0246 20.3863 22.296 20.3956 22.5873 20.171C22.9817 19.867 23.3958 19.5401 23.8179 19.1988C23.9624 19.0819 24.0861 19.0642 24.2594 19.1362C24.7792 19.3523 25.3273 19.5592 25.8877 19.7511C26.0313 19.8001 26.1123 19.865 26.1596 19.9674C26.1772 20.0064 26.1901 20.0511 26.1984 20.1039C26.2819 20.6256 26.371 21.1319 26.4646 21.6088C26.4806 21.6913 26.503 21.7643 26.5312 21.8258C26.634 22.0506 26.8174 22.1475 27.1259 22.1398C28.071 22.1153 28.9145 22.0885 29.7055 22.0587C30.1223 22.0427 30.3123 21.8677 30.3615 21.4537L30.3608 21.4518ZM24.2595 13.2739L24.2587 13.2719C23.305 11.1808 24.2627 8.72505 26.4002 7.78052C28.5199 6.84384 30.9647 7.77127 31.9251 9.87313C31.9273 9.87771 31.9291 9.88197 31.9309 9.88623C32.8801 11.9821 31.9364 14.4102 29.8058 15.3542C27.6866 16.2932 25.2153 15.3656 24.2595 13.2739Z" stroke="#A259FF" stroke-linecap="round"/>
</svg>